<svg width="422" height="576" viewBox="0 0 422 576" fill="none" xmlns="http://www.w3.org/2000/svg">
<g clip-path="url(#clip0_1522_4744)">
<path d="M287.749 484.484C285.909 479.064 284.369 473.684 282.399 468.484C279.639 461.054 277.929 453.344 276.229 445.664C275.959 444.454 275.709 443.243 275.389 442.053C275.069 440.863 274.449 440.874 273.719 441.764L267.069 449.833C266.261 450.973 265.379 452.059 264.429 453.083C260.49 457.016 256.977 461.354 253.949 466.024C250.299 471.294 246.189 476.243 242.399 481.433C239.299 485.673 236.399 490.034 233.399 494.333C232.459 495.673 231.519 497.043 230.489 498.333C229.459 499.624 226.359 499.334 225.179 497.984C223.099 495.574 221.239 492.983 219.249 490.464C216.479 486.964 213.659 483.464 210.869 479.994C207.129 475.304 203.449 470.574 199.679 465.914C196.889 462.464 193.999 459.093 191.159 455.683C188.039 451.913 184.939 448.143 181.889 444.323C178.839 440.503 175.959 436.654 172.889 432.914C168.889 428.084 164.649 423.464 160.719 418.583C155.269 411.803 149.899 404.944 144.719 397.974C138.809 390.064 133.059 381.974 127.339 373.974C123.709 368.854 120.639 363.374 119.269 357.144C119.056 355.737 118.962 354.316 118.989 352.894C118.909 351.264 118.319 350.894 117.089 351.754C112.089 355.394 107.219 359.094 102.319 362.754C98.3189 365.754 94.399 368.754 90.389 371.654C82.939 377.094 75.389 382.393 68.019 387.943C61.839 392.593 55.709 397.314 49.879 402.384C44.049 407.454 38.579 413.014 32.989 418.384C31.8927 419.493 30.8578 420.661 29.889 421.884C28.679 423.314 28.889 423.954 30.369 424.764C36.619 428.174 42.899 431.434 48.969 435.104C53.9901 438.065 58.7985 441.373 63.359 445.004C67.3688 448.403 71.1068 452.111 74.5389 456.094C78.1489 460.094 81.359 464.483 84.739 468.703C85.679 469.883 85.739 471.223 84.489 472.063C83.239 472.903 82.389 472.184 81.489 470.924C76.279 463.714 70.6889 456.774 63.969 450.924C59.3442 446.971 54.4599 443.333 49.349 440.034C43.899 436.464 38.1189 433.384 32.4489 430.124C31.4489 429.524 30.219 429.124 29.129 428.624C26.129 427.174 24.9789 427.324 23.3189 430.124C19.7489 436.124 16.319 442.193 12.899 448.313C10.399 452.813 8.01899 457.404 5.62899 461.953C5.03771 463.088 4.54901 464.272 4.1689 465.494C3.7889 466.714 2.93901 467.294 1.89901 466.874C1.23901 466.604 0.358972 465.454 0.488972 464.874C1.05341 462.365 1.87782 459.921 2.94893 457.583C4.94893 453.423 7.26893 449.384 9.56893 445.344C13.6989 438.064 17.3889 430.434 22.8089 424.024C28.4688 417.24 34.5155 410.79 40.9189 404.703C47.269 398.959 53.9077 393.542 60.8089 388.474C69.9389 381.523 79.3589 374.964 88.5489 368.104C95.4189 362.984 102.089 357.594 108.909 352.404C111.102 350.76 113.396 349.257 115.779 347.904C117.848 346.712 119.452 344.854 120.329 342.634C122.689 337.364 125.149 332.114 128.019 327.104C131.539 320.964 135.559 315.104 139.269 309.104C141.669 305.194 143.989 301.234 146.149 297.174C147.009 295.584 145.149 295.523 144.339 295.073C142.409 294.073 140.339 293.313 138.469 292.193C135.402 290.148 132.976 287.278 131.469 283.914C129.759 280.544 128.469 276.914 126.879 273.544C126.418 272.428 125.559 271.523 124.469 271.004C118.819 269.514 114.349 266.003 109.799 262.693C108.431 261.686 107.159 260.554 105.999 259.313C103.859 257.043 101.059 256.264 98.1989 255.494C97.2579 255.276 96.3703 254.871 95.589 254.303C89.909 249.693 84.229 245.103 78.719 240.303C76.3471 238.051 74.1036 235.668 71.999 233.164C70.9581 232.103 69.9892 230.974 69.099 229.784C66.799 226.444 66.099 222.524 65.349 218.654C64.349 213.714 63.639 208.654 62.469 203.814C60.999 197.644 57.1789 192.634 53.6989 187.484C50.0989 182.154 47.5189 176.484 47.4489 169.864C47.3589 162.864 47.1089 155.864 47.0689 148.814C46.9769 144.848 47.1306 140.88 47.529 136.934C47.979 133.294 48.319 129.454 51.259 126.634C52.709 125.244 54.2589 125.174 55.6589 126.634C56.7389 127.764 57.659 129.004 58.769 130.114C61.459 132.854 63.6589 132.884 67.0389 130.934C71.8089 128.194 72.4589 121.844 71.0389 117.464C69.5373 113.054 68.6098 108.47 68.279 103.824C68.139 101.824 67.439 99.7435 67.529 97.7235C67.769 92.7235 68.279 87.6636 68.739 82.6336C68.869 81.1236 71.0089 80.4135 72.4289 81.3335C72.6376 81.5106 72.8348 81.701 73.019 81.9035C75.499 84.2635 76.309 84.1735 77.019 80.8535C77.6885 77.3207 78.1096 73.7452 78.279 70.1535C78.3046 67.8479 78.1809 65.5432 77.9089 63.2536C77.8645 62.256 78.0395 61.2609 78.4213 60.3383C78.8032 59.4156 79.3827 58.588 80.119 57.9135C83.909 53.9135 87.889 49.9135 91.469 45.6035C93.559 43.0835 94.8789 39.9536 96.6989 37.1936C99.4222 33.0154 102.798 29.3015 106.699 26.1936C110.279 23.3536 113.699 20.3435 117.939 18.5935C120.842 17.4398 123.891 16.696 126.999 16.3836C132.892 15.7235 138.68 14.3328 144.229 12.2435C153.069 8.91354 161.979 5.77355 171.029 3.12355C175.679 1.75355 180.689 1.49351 185.529 0.963513C188.852 0.634514 192.19 0.494306 195.529 0.54353C197.289 0.54353 199.039 1.21352 200.809 1.28352C202.559 1.28706 204.307 1.16004 206.039 0.903516C211.469 0.333516 216.619 1.90351 221.749 3.21351C224.979 4.06351 228.089 3.54356 231.259 3.32356C231.909 3.27356 232.559 3.01356 233.199 3.01356C236.809 3.01356 240.429 3.15356 243.999 3.01356C251.529 2.61356 258.419 4.67356 264.999 8.01356C272.509 11.8336 279.769 16.1335 285.379 22.4735C288.782 26.5841 291.893 30.9281 294.689 35.4735C296.349 37.9835 297.409 40.8835 299.029 43.4235C301.487 47.1291 304.887 50.1145 308.879 52.0736C315.825 55.5586 321.914 60.5376 326.709 66.6535C327.904 68.4153 328.948 70.2753 329.829 72.2135C331.829 75.9835 335.389 78.0335 338.629 80.4335C342.629 83.4335 346.969 86.0735 348.859 90.9235C349.859 93.6135 350.209 96.6035 350.749 99.4935C350.809 100.393 350.809 101.295 350.749 102.194C351.019 107.644 350.659 112.994 348.039 117.934C347.628 118.735 347.331 119.59 347.159 120.474C346.95 121.109 346.915 121.788 347.06 122.441C347.204 123.094 347.521 123.696 347.979 124.184C351.879 128.544 355.829 132.904 359.269 137.614C361.386 140.751 362.594 144.413 362.759 148.194C363.089 152.704 363.039 157.194 363.239 161.754C363.252 164.268 364.18 166.692 365.849 168.574C369.132 171.941 370.966 176.46 370.959 181.164C370.959 184.164 369.469 187.164 368.609 190.164C366.369 197.924 361.269 204.014 356.679 210.394C354.169 213.894 353.109 217.944 351.979 221.974C350.549 226.974 349.249 232.074 347.739 237.084C347.509 237.874 346.389 239.004 345.809 238.924C344.781 238.66 343.883 238.035 343.279 237.164C342.479 235.991 341.774 234.757 341.169 233.474C339.779 230.924 338.369 230.764 337.019 233.264C335.319 236.424 334.019 239.774 332.369 242.974C331.793 244.238 330.93 245.351 329.849 246.224C329.379 246.351 328.884 246.356 328.412 246.239C327.939 246.122 327.505 245.886 327.149 245.553C324.259 241.113 319.289 239.834 315.069 237.474C313.989 236.874 312.569 237.293 311.969 239.053C310.552 243.2 309.875 247.563 309.969 251.943C310.119 261.663 310.189 271.384 310.409 281.104C310.529 286.214 310.609 291.294 308.709 296.104C306.179 302.414 302.969 308.324 297.439 312.634C296.208 313.585 295.049 314.624 293.969 315.744C293.84 315.976 293.771 316.238 293.769 316.504C293.769 316.77 293.838 317.032 293.969 317.264C297.569 320.564 301.359 323.673 304.859 327.053C307.859 329.893 310.549 332.963 313.299 336.053C314.809 337.763 316.179 339.464 318.489 340.274C324.489 342.414 330.489 344.824 336.489 346.994C342.349 349.114 348.299 350.993 354.109 353.183C363.679 356.853 373.329 360.394 382.659 364.624C389.466 367.899 396.074 371.572 402.449 375.624C407.759 378.844 412.779 382.533 417.889 386.063C418.939 386.796 419.92 387.622 420.819 388.534C421.549 389.244 422.519 390.044 421.509 391.234C420.499 392.424 419.879 392.724 418.509 391.634C414.659 388.634 410.719 385.774 406.659 383.104C402.279 380.204 397.829 377.424 393.219 374.874C386.789 371.374 380.269 367.994 373.629 364.874C369.629 362.994 365.209 361.764 360.989 360.224C350.076 356.264 339.169 352.287 328.269 348.294C326.219 347.544 324.209 346.714 322.159 345.964C321.828 345.902 321.489 345.902 321.159 345.964C321.109 346.342 321.139 346.727 321.249 347.094C323.079 350.504 325.189 353.784 326.779 357.294C331.119 366.864 335.579 376.404 339.359 386.203C341.809 392.563 343.359 399.303 344.889 405.964C345.703 409.925 346.274 413.932 346.599 417.964C347.229 423.474 347.679 429.014 348.299 434.534C348.919 440.054 349.719 445.744 350.299 451.364C350.989 457.434 351.439 463.554 353.669 469.364C354.279 470.904 355.129 472.363 355.889 473.844C356.049 474.086 356.155 474.359 356.199 474.646C356.243 474.933 356.223 475.227 356.142 475.505C356.062 475.784 355.921 476.042 355.73 476.261C355.54 476.48 355.304 476.655 355.039 476.774C354.673 476.901 354.284 476.945 353.899 476.904C353.513 476.863 353.14 476.736 352.809 476.534C348.739 473.774 344.809 470.803 340.689 468.094C336.569 465.384 332.199 462.814 327.969 460.094C323.499 457.303 319.179 454.254 314.559 451.744C312.179 450.444 309.329 449.943 306.629 449.323C304.563 448.836 302.451 448.561 300.329 448.504C298.388 448.476 296.451 448.681 294.559 449.114C292.769 449.504 292.019 450.764 291.989 452.744C291.989 455.614 291.419 458.484 291.259 461.354C291.247 462.61 291.44 463.859 291.829 465.053C293.829 471.983 296.049 478.853 297.949 485.813C299.359 490.923 300.379 496.184 301.629 501.364C303.079 507.364 304.629 513.294 306.069 519.284C307.399 524.774 308.589 530.284 309.959 535.764C311.839 543.224 313.829 550.664 315.789 558.104C316.879 562.234 318.179 566.314 318.999 570.484C319.148 572.125 318.829 573.776 318.079 575.244C317.459 576.714 315.299 576.484 314.559 574.784C313.123 571.705 311.874 568.542 310.819 565.313C307.129 552.964 303.219 540.654 300.119 528.144C297.119 516.144 293.529 504.284 289.739 492.474C288.939 489.993 288.499 487.364 287.739 484.744M133.739 325.674C130.599 331.674 127.659 337.894 124.249 343.784C122.169 347.394 122.359 351.174 122.849 354.784C123.609 360.304 126.339 365.274 129.369 369.924C132.699 375.044 136.189 380.034 139.799 384.924C143.969 390.654 148.279 396.294 152.589 401.924C155.059 405.154 157.589 408.314 160.169 411.474C163.499 415.583 166.839 419.684 170.239 423.744C172.879 426.894 175.719 429.904 178.299 433.114C182.299 438.114 186.209 443.314 190.239 448.333C194.779 453.964 199.479 459.474 204.039 465.094C207.819 469.754 211.529 474.463 215.219 479.183C219.219 484.293 223.219 489.414 227.099 494.664C227.929 495.804 228.239 495.144 228.599 494.664C229.599 493.344 230.419 491.953 231.309 490.594C233.059 487.923 234.679 485.154 236.589 482.594C239.869 478.164 243.699 474.104 246.589 469.464C253.589 458.393 262.779 449.104 270.979 439.024C271.719 438.114 271.619 437.744 270.869 437.104C265.869 432.794 260.769 428.584 255.869 424.104C251.869 420.514 248.129 416.663 244.249 412.953C241.469 410.293 238.609 407.723 235.899 404.953C223.059 392.033 210.169 379.144 196.449 367.124C192.859 363.974 189.629 360.414 186.269 357.004C182.909 353.594 179.459 350.183 176.269 346.563C171.999 341.563 167.789 336.564 163.939 331.284C159.939 325.804 156.239 320.094 152.779 314.284C150.999 311.284 150.069 307.794 148.709 304.544C148.468 304.079 148.177 303.643 147.839 303.244C147.468 303.586 147.133 303.964 146.839 304.374C146.219 305.374 145.729 306.564 145.089 307.604C141.389 313.604 137.649 319.494 133.729 325.604M340.139 462.544C342.599 464.314 345.049 466.094 347.529 467.833C347.976 468.056 348.45 468.221 348.939 468.323C348.934 467.893 348.884 467.464 348.789 467.044C347.375 462.557 346.631 457.887 346.579 453.183C346.499 450.913 346.449 448.574 346.149 446.294C345.549 441.854 344.709 437.444 344.149 433.004C343.499 428.184 343.149 423.344 342.439 418.514C341.729 413.434 340.979 408.344 339.939 403.333C337.139 389.833 331.939 377.153 325.939 364.823C321.519 355.653 317.099 346.393 310.249 338.683C307.469 335.543 304.359 332.684 301.349 329.734C298.809 327.254 296.199 324.844 293.609 322.404C293.379 322.194 292.929 321.843 292.809 321.933C292.33 322.196 291.937 322.592 291.679 323.073C291.569 323.615 291.569 324.172 291.679 324.714C291.809 327.363 291.789 330.034 292.139 332.714C292.429 334.803 292.299 337.024 293.779 338.894C296.179 341.954 298.499 345.084 300.699 348.294C304.699 354.134 307.699 360.354 308.379 367.614C309.04 374.427 308.618 381.302 307.129 387.984C305.799 394.074 303.329 399.724 301.289 405.544C297.739 415.664 294.289 425.833 291.109 436.063C290.109 439.063 290.049 442.434 289.619 445.634C289.559 446.094 289.909 446.634 290.059 447.104C290.368 446.834 290.703 446.596 291.059 446.394C292.349 445.834 293.619 444.943 294.959 444.833C297.956 444.649 300.962 444.649 303.959 444.833C307.758 444.889 311.494 445.817 314.879 447.544C319.209 449.894 323.329 452.544 327.559 455.134C331.789 457.724 335.779 460.033 340.109 462.693M118.469 226.154C118.269 226.629 118.138 227.131 118.079 227.644C118.199 232.754 120.149 237.414 122.299 241.874C124.659 246.784 125.389 251.944 125.939 257.224C126.209 259.803 124.529 260.984 122.079 261.274C120.971 261.254 119.876 261.044 118.839 260.654C117.079 260.214 115.349 259.654 113.589 259.274C113.128 259.257 112.668 259.321 112.229 259.464C112.519 259.893 112.719 260.464 113.129 260.734C114.879 261.814 116.659 262.863 118.489 263.813C122.869 266.093 127.239 268.254 132.379 268.494C134.939 268.624 136.589 268.293 137.139 265.803C137.809 262.803 139.139 259.804 137.329 256.614C136.822 255.417 136.485 254.154 136.329 252.864C134.656 245.104 132.989 237.337 131.329 229.563C131.109 228.563 130.689 228.224 129.659 228.624C128.891 228.932 128.066 229.075 127.239 229.044C126.415 229.011 125.606 228.814 124.859 228.464C122.772 227.535 120.62 226.763 118.419 226.154M293.619 383.874C293.759 392.394 293.879 400.954 294.069 409.494C294.069 410.064 294.579 410.584 294.839 411.134C295.129 410.744 295.649 410.363 295.669 409.964C295.809 406.803 297.529 404.214 298.509 401.354C301.919 391.354 305.259 381.354 304.509 370.524C304.3 365.943 303.153 361.453 301.139 357.333C299.409 353.923 297.269 350.754 295.279 347.494C294.709 346.604 294.039 345.793 293.419 344.964C293.349 345.964 293.209 346.894 293.219 347.854C293.339 356.604 293.499 365.354 293.619 374.104C293.619 377.224 293.619 380.354 293.619 383.874ZM148.799 292.323C150.039 289.063 148.739 286.323 147.169 283.553C144.899 279.553 142.549 275.553 141.699 270.844C141.491 270.169 141.191 269.527 140.809 268.933C140.279 269.393 139.749 269.853 139.229 270.323C138.879 270.64 138.545 270.974 138.229 271.323C136.729 272.933 134.769 272.554 132.909 272.544C131.289 272.544 131.089 273.354 131.559 274.624C132.029 275.894 132.469 277.164 133.039 278.384C135.359 283.284 137.809 288.083 143.359 290.203C145.169 290.874 146.899 291.743 148.859 292.323H148.799Z" fill="#1B1B1B"/>
<path d="M289.929 425.073C290.669 422.953 291.469 420.833 292.119 418.683C292.349 417.903 292.589 416.753 292.199 416.213C290.329 413.583 290.299 410.483 290.019 407.563C289.559 402.973 289.619 398.343 289.519 393.723C289.359 385.533 289.279 377.334 289.089 369.144C288.849 358.644 288.549 348.144 288.269 337.644C288.139 333.064 287.979 328.474 287.849 323.884C287.849 322.884 287.849 321.883 287.849 320.823C286.919 321.442 286.039 322.135 285.219 322.894C282.999 325.274 280.859 327.723 278.709 330.183C276.059 333.183 273.709 336.624 270.709 339.274C264.009 345.274 256.139 348.753 246.969 348.683C243.699 348.683 240.429 348.323 237.159 348.313C234.159 348.313 231.249 348.764 228.309 348.654C222.676 348.535 217.14 347.169 212.099 344.654C206.679 341.894 201.299 339.224 196.619 335.244C193.373 332.597 189.907 330.232 186.259 328.174C181.816 325.411 177.777 322.046 174.259 318.174C173.389 317.264 174.079 315.443 175.259 315.563C176.49 315.643 177.667 316.101 178.629 316.874C181.439 319.484 184.109 322.153 187.519 324.093C191.025 326.122 194.396 328.377 197.609 330.843C201.079 333.453 204.249 336.433 208.319 338.183C212.029 339.783 215.569 341.803 219.319 343.183C221.485 343.823 223.73 344.159 225.989 344.183C229.049 344.423 232.109 344.583 235.179 344.583C238.249 344.583 241.179 344.303 244.179 344.223C247.179 344.143 250.309 344.734 253.179 344.014C262.072 341.87 269.781 336.346 274.669 328.614C278.779 322.364 284.519 317.484 290.439 312.864C293.969 310.114 297.519 307.394 300.069 303.514C303.599 298.134 306.289 292.464 306.539 286.014C306.759 280.124 306.339 274.213 306.189 268.303C306.069 263.573 305.759 258.843 305.829 254.093C305.879 250.093 305.829 245.884 306.729 241.984C307.999 236.574 310.389 231.454 310.819 225.784C311.149 221.424 312.129 217.103 312.389 212.713C312.74 204.248 311.898 195.775 309.889 187.544C309.539 185.994 309.749 183.804 307.319 183.444C306.319 183.294 305.209 183.443 304.399 182.963C303.169 182.253 303.019 182.874 302.869 183.794C302.591 186.484 302.154 189.155 301.559 191.794C300.379 196.064 299.359 200.504 297.339 204.384C294.328 210.182 290.053 215.23 284.829 219.153C281.223 222.051 276.907 223.929 272.329 224.593C266.689 225.273 261.109 224.124 255.849 222.254C249.961 220.077 244.891 216.129 241.339 210.954C237.459 205.494 234.029 199.724 233.729 192.674C233.729 191.674 233.449 190.234 231.569 190.484C229.979 190.704 228.289 190.273 226.729 190.583C224.078 191.136 221.471 191.881 218.929 192.814C218.624 193.078 218.392 193.416 218.257 193.797C218.122 194.177 218.088 194.586 218.159 194.984C219.989 199.434 220.239 204.074 220.059 208.764C219.933 213.148 218.775 217.441 216.679 221.294C213.478 226.808 209.054 231.516 203.749 235.053C196.819 239.923 189.229 240.053 181.349 238.183C175.84 236.799 170.733 234.141 166.439 230.424C159.319 224.504 152.719 218.214 148.379 209.864C147.832 209.123 147.018 208.624 146.109 208.473C142.699 207.803 139.209 207.393 135.789 206.713C133.069 206.183 132.879 206.084 133.129 208.634C133.689 214.394 134.379 220.14 135.199 225.874C135.899 230.814 136.669 235.764 137.709 240.654C138.909 246.214 140.289 251.754 141.869 257.234C143.629 263.344 145.229 269.594 147.789 275.364C150.482 281.106 153.664 286.606 157.299 291.803C160.299 296.283 163.989 300.294 167.369 304.504C169.139 306.694 170.879 308.894 172.679 311.044C173.679 312.174 173.549 313.214 172.459 314.044C171.369 314.874 170.399 314.294 169.619 313.404C167.662 311.348 165.809 309.195 164.069 306.953C161.069 302.783 156.769 299.673 154.719 294.813C154.619 294.573 154.259 294.434 154.019 294.244C153.849 294.514 153.549 294.773 153.509 295.073C153.319 296.383 153.229 297.723 153.069 299.073C152.909 300.423 152.249 301.823 152.599 302.963C154.909 310.603 159.169 317.244 163.689 323.754C170.838 334.021 178.927 343.602 187.849 352.374C197.259 361.664 207.119 370.504 216.669 379.644C224.669 387.254 232.359 395.033 240.209 402.723C244.989 407.403 249.769 412.074 254.609 416.723C258.909 420.843 263.229 424.944 267.679 428.914C269.795 430.817 272.078 432.527 274.499 434.024C276.249 435.104 277.699 436.244 278.339 438.244C278.909 440.014 279.519 441.783 279.989 443.583C281.989 451.033 283.199 458.583 285.719 465.973C289.349 476.493 292.199 487.293 295.419 497.973C296.319 500.973 297.319 503.973 298.339 506.973C298.564 507.399 298.858 507.784 299.209 508.113C299.398 507.662 299.51 507.182 299.539 506.693C299.35 505.876 299.12 505.068 298.849 504.274C297.419 498.974 296.049 493.654 294.559 488.363C292.799 482.113 291.009 475.863 289.109 469.613C288.309 466.983 286.969 464.503 286.269 461.843C284.509 454.843 285.139 447.734 285.949 440.754C286.519 435.524 288.439 430.454 289.949 425.104" fill="#343434"/>
<path d="M292.049 127.444C292.189 125.174 292.259 122.844 292.489 120.554C292.619 118.371 292.93 116.204 293.419 114.074C293.856 112.377 293.882 110.601 293.494 108.893C293.106 107.185 292.316 105.595 291.189 104.254C288.465 100.994 285.55 97.8982 282.459 94.9835C278.476 91.1313 273.863 87.9892 268.819 85.6935C261.441 82.038 253.694 79.1817 245.709 77.1735C238.895 75.5957 231.897 74.9498 224.909 75.2535C222.952 75.4048 221.017 75.7703 219.139 76.3435C215.139 77.3435 212.319 80.1735 209.649 82.9935C205.228 87.9436 199.39 91.4139 192.929 92.9335C189.219 93.7735 185.549 94.3535 181.649 93.5735C178.209 92.8835 174.649 92.6735 171.149 92.2635C168.699 91.9835 166.239 91.7935 163.809 91.4135C156.939 90.3435 150.219 90.6535 144.019 94.0635C137.831 97.5074 132.434 102.212 128.179 107.874C125.857 110.668 124.04 113.845 122.809 117.264C121.322 122.358 120.317 127.581 119.809 132.863C119.228 139.596 120.168 146.373 122.559 152.694C123.719 156.024 125.289 159.214 126.349 162.564C128.719 170.094 131.349 177.563 131.469 185.653C131.469 189.193 131.849 189.183 135.329 189.653C135.523 189.681 135.714 189.728 135.899 189.793C137.168 190.302 138.537 190.51 139.899 190.403C141.272 190.292 142.6 189.864 143.779 189.153C150.227 185.456 157.285 182.943 164.619 181.733C168.309 181.123 171.929 180.023 175.619 179.733C179.862 179.596 184.11 179.713 188.339 180.083C190.609 180.203 192.819 180.654 195.069 180.864C195.492 180.82 195.905 180.705 196.289 180.523C195.979 180.233 195.719 179.813 195.339 179.653C193.749 178.993 192.119 178.414 190.499 177.804C182.499 174.804 174.339 173.493 165.949 175.533C158.15 177.45 150.835 180.968 144.469 185.864C143.749 186.434 142.889 188.034 141.749 186.674C141.499 186.364 142.359 184.564 143.109 184.074C148.039 180.894 152.809 177.413 158.519 175.603C164.989 173.543 171.349 171.504 178.359 172.504C184.529 173.394 190.239 175.504 195.969 177.744C198.969 178.924 200.519 182.023 203.969 182.593C209.159 183.463 213.579 186.264 217.849 189.244C218.499 189.704 219.609 190.243 220.179 189.983C223.699 188.373 227.439 188.193 231.179 187.983C231.47 187.974 231.755 187.895 232.009 187.754C232.268 187.614 232.494 187.42 232.669 187.184C233.669 184.724 235.599 183.104 237.569 181.574C240.46 179.216 243.496 177.042 246.659 175.064C258.659 167.884 271.899 165.253 285.659 164.833C290.309 164.703 294.979 165.084 299.659 165.194C300.17 165.162 300.677 165.075 301.169 164.934C300.919 164.424 300.689 163.934 300.389 163.394C299.739 162.578 299.176 161.696 298.709 160.764C297.202 156.597 295.759 152.41 294.379 148.204C292.878 143.972 292.078 139.523 292.009 135.033V127.543" fill="#343434"/>
<path d="M156.979 194.314C154.619 197.914 152.199 201.474 149.979 205.144C149.641 205.647 149.457 206.237 149.449 206.843C149.434 207.446 149.593 208.04 149.909 208.554C153.777 215.291 158.8 221.296 164.749 226.294C170.359 231.134 176.199 235.293 183.749 236.593C187.882 237.45 192.156 237.358 196.249 236.323C198.93 235.49 201.419 234.13 203.569 232.323C209.819 227.323 215.279 221.953 216.959 213.773C217.499 211.143 218.269 208.463 218.229 205.773C218.229 203.293 217.099 200.844 216.709 198.354C216.249 195.514 215.079 193.354 212.159 192.434C208.159 191.184 204.159 189.594 199.999 188.704C194.916 187.532 189.745 186.786 184.539 186.473C180.159 186.283 175.739 187.174 171.339 187.604C165.879 188.134 160.949 189.834 156.959 194.264" fill="#343434"/>
<path d="M240.859 206.184C241.771 207.838 242.815 209.416 243.979 210.904C248.829 216.224 254.329 220.494 261.749 221.704C266.039 222.394 270.269 223.304 274.599 221.954C282.599 219.474 288.139 214.064 292.899 207.514C295.959 203.314 297.589 198.514 299.019 193.624C300.189 189.624 301.089 185.474 300.359 181.214C299.679 177.214 295.129 173.634 292.669 173.164C289.131 172.522 285.558 172.095 281.969 171.884C277.031 171.574 272.081 172.223 267.389 173.794C261.079 175.844 254.889 178.084 249.209 181.604C245.629 183.824 241.969 185.944 238.449 188.244C237.285 188.915 236.407 189.99 235.982 191.265C235.556 192.54 235.612 193.927 236.139 195.164C237.499 198.814 239.139 202.374 240.859 206.164" fill="#343434"/>
<path d="M238.469 262.254C234.846 262.452 231.213 262.388 227.599 262.063C222.899 261.423 218.269 260.214 213.599 259.224C213.299 259.164 213.039 258.863 212.729 258.833C209.169 258.493 208.309 258.194 207.729 254.474C207.314 251.142 207.439 247.765 208.099 244.474C208.399 242.764 209.939 241.214 211.099 239.734C211.379 239.374 212.369 239.574 213.029 239.504C212.869 240.034 212.869 240.743 212.519 241.073C208.699 244.723 209.109 251.304 210.399 255.174C210.464 255.487 210.604 255.781 210.806 256.029C211.009 256.278 211.268 256.474 211.562 256.601C211.856 256.729 212.176 256.784 212.496 256.761C212.816 256.739 213.125 256.64 213.399 256.474C216.665 255.011 220.293 254.555 223.819 255.164C225.659 255.464 227.429 256.874 229.029 258.004C232.809 260.734 238.469 261.604 242.029 257.474C243.959 255.386 246.108 253.512 248.439 251.884C249.726 251.033 251.15 250.411 252.649 250.044C258.169 248.434 258.029 245.634 256.869 241.664C256.019 238.693 254.457 235.974 252.319 233.744C251.909 233.314 252.059 232.354 251.939 231.644C252.609 231.804 253.609 231.734 253.939 232.154C257.099 236.704 260.379 241.294 259.519 247.254C259.347 247.917 259.037 248.538 258.609 249.073C258.182 249.605 257.651 250.044 257.049 250.364C251.509 252.864 247.139 256.993 242.269 260.443C241.055 261.151 239.784 261.757 238.469 262.254Z" fill="#1B1B1B"/>
<path d="M229.599 280.044C224.659 280.284 220.439 282.123 216.399 284.343C212.359 286.563 208.659 289.053 204.729 291.343C203.919 291.813 202.869 293.344 201.959 292.044C200.959 290.564 202.789 290.204 203.589 289.674C209.749 285.674 215.929 281.564 222.909 279.124C227.279 277.604 231.849 276.793 236.509 278.343C237.428 278.544 238.388 278.402 239.209 277.943C243.069 276.017 247.267 274.859 251.569 274.534C258.669 273.774 265.569 274.793 272.379 276.323C272.87 276.536 273.318 276.838 273.699 277.213C273.199 277.463 272.699 277.954 272.209 277.914C269.419 277.704 266.639 277.253 263.839 277.083C260.199 276.863 256.539 276.634 252.899 276.774C250.063 276.951 247.246 277.366 244.479 278.014C243.112 278.374 241.804 278.934 240.599 279.674C239.323 280.513 237.769 280.821 236.269 280.534C234.059 280.221 231.831 280.057 229.599 280.044Z" fill="#1B1B1B"/>
<path d="M249.259 301.784C245.259 302.654 241.479 303.964 237.629 304.034C233.525 304.073 229.44 303.475 225.519 302.264C218.729 300.194 212.129 297.484 205.519 294.994C205.059 294.824 204.759 294.244 204.379 293.864C205.189 293.654 206.129 293.054 206.789 293.294C212.579 295.294 218.319 297.543 224.089 299.693C229.613 301.659 235.519 302.309 241.339 301.594C247.705 300.813 253.688 298.134 258.509 293.904C261.349 291.683 263.77 288.974 265.659 285.904C265.69 285.837 265.743 285.784 265.809 285.754L269.089 284.364C268.707 285.361 268.218 286.313 267.629 287.203C265.724 289.754 263.599 292.133 261.279 294.313C257.659 297.283 254.119 300.494 249.259 301.784Z" fill="#1B1B1B"/>
<path d="M258.209 284.544C256.299 285.334 254.439 285.874 252.729 286.734C249.319 288.444 246.169 290.644 242.669 292.044C239.669 293.254 236.419 292.693 233.309 291.553C231.294 290.811 229.195 290.324 227.059 290.104C220.859 289.504 214.809 290.574 208.839 292.244C208.339 292.384 207.709 292.063 207.139 291.963C207.509 291.573 207.799 291.013 208.279 290.823C211.769 289.383 215.279 287.984 219.149 287.984C224.069 287.984 229.149 287.203 233.759 289.323C238.759 291.663 242.929 289.984 246.979 287.414C253.049 283.574 259.489 280.984 266.739 280.894C267.089 280.894 267.519 280.774 267.739 280.894C268.117 281.202 268.453 281.559 268.739 281.953C268.439 282.194 268.101 282.383 267.739 282.514C264.579 283.174 261.469 283.794 258.209 284.544Z" fill="#1B1B1B"/>
<path d="M210.969 354.843C203.859 351.763 196.859 348.844 189.869 345.754C189.429 345.574 189.159 344.994 188.809 344.624C189.259 344.324 189.749 343.734 190.149 343.794C191.229 343.962 192.284 344.264 193.289 344.693C200.629 347.693 207.869 350.993 215.289 353.693C219.779 355.303 224.589 356.033 229.289 357.053C232.359 357.713 235.479 358.134 238.549 358.754C239.089 358.874 239.549 359.553 239.979 359.983C239.409 360.253 238.839 360.814 238.349 360.744C235.169 360.284 231.999 359.743 228.859 359.103C223.469 357.933 218.119 356.634 212.749 355.384C212.138 355.25 211.537 355.076 210.949 354.864L210.969 354.843Z" fill="#1B1B1B"/>
<path d="M202.029 256.614C202.759 254.494 203.459 252.483 204.029 250.433C204.349 249.233 204.389 247.964 204.679 246.744C204.759 246.414 205.299 246.174 205.679 245.894C205.899 246.274 206.369 246.694 206.319 247.034C205.869 249.874 205.679 252.834 204.759 255.534C202.759 261.334 198.429 265.714 194.859 270.534C193.059 272.766 191.5 275.183 190.209 277.744C188.539 281.424 190.529 284.594 192.519 287.594C192.812 287.933 193.049 288.318 193.219 288.734C193.243 289.211 193.195 289.69 193.079 290.154C192.649 290.014 192.079 290.014 191.799 289.734C186.999 285.244 185.959 279.004 190.239 273.014C194.069 267.614 197.999 262.184 202.029 256.614Z" fill="#1B1B1B"/>
<path d="M270.689 248.933C273.489 252.703 276.189 256.354 278.869 260.034C280.869 262.764 283.159 265.314 283.869 268.774C283.877 269.306 283.8 269.836 283.639 270.344C283.169 270.094 282.409 269.963 282.239 269.573C279.689 263.713 275.239 259.144 271.609 254.034C269.219 250.684 266.499 247.564 263.999 244.294C262.069 241.794 260.239 239.183 258.319 236.683C257.469 235.543 256.479 234.554 255.649 233.414C255.399 233.074 255.479 232.474 255.399 231.994C256.069 232.094 257.019 231.943 257.339 232.333C259.919 235.453 262.339 238.694 264.889 241.854C266.739 244.204 268.669 246.513 270.689 248.933Z" fill="#1B1B1B"/>
<path d="M244.889 236.034C242.729 233.194 240.579 230.494 238.639 227.654C237.759 226.344 237.499 224.653 236.639 223.323C235.779 221.993 236.979 221.974 237.299 221.384C237.799 221.784 238.469 222.084 238.739 222.594C239.429 223.884 239.739 225.434 240.549 226.594C242.829 229.904 245.549 232.944 247.659 236.354C248.711 238.074 249.372 240.005 249.595 242.01C249.818 244.015 249.597 246.044 248.949 247.953C248.63 248.691 248.127 249.335 247.489 249.823C247.011 250.092 246.49 250.275 245.949 250.364C245.936 249.795 246.027 249.229 246.219 248.693C248.169 245.373 247.619 239.214 244.889 236.034Z" fill="#1B1B1B"/>
<path d="M242.079 369.933C241.325 370.014 240.564 370.014 239.809 369.933C239.399 369.833 238.809 369.323 238.809 368.933C238.809 368.543 239.379 367.933 239.669 367.933C242.579 367.853 245.489 367.933 248.399 367.933C250.83 368.005 253.263 367.952 255.689 367.774C258.069 367.494 260.389 366.704 262.759 366.324C263.439 366.204 264.219 366.704 264.959 366.924C264.389 367.404 263.899 368.163 263.249 368.303C260.109 368.963 256.939 369.544 253.759 370.004C251.614 370.285 249.452 370.422 247.289 370.414C245.639 370.354 243.959 370.073 242.079 369.933Z" fill="#1B1B1B"/>
<path d="M223.379 215.544C222.27 211.804 221.86 207.892 222.169 204.004C222.169 203.674 222.739 203.364 223.009 203.054C223.269 203.394 223.699 203.714 223.769 204.054C224.239 206.854 224.589 209.674 225.059 212.464C225.559 215.464 226.299 218.464 226.659 221.554C226.829 223.767 226.829 225.99 226.659 228.203C226.659 228.383 225.659 228.763 225.659 228.683C225.182 228.234 224.837 227.664 224.659 227.034C224.149 223.304 223.769 219.524 223.379 215.544Z" fill="#1B1B1B"/>
<path d="M232.089 311.254C230.809 311.254 229.729 311.343 228.679 311.323C228.557 311.079 228.498 310.807 228.509 310.534C229.42 309.919 230.437 309.478 231.509 309.234C235.039 308.944 238.579 308.793 242.119 308.803C244.105 308.863 246.081 309.114 248.019 309.553C248.589 309.663 249.079 310.393 249.599 310.853C248.914 311.251 248.161 311.519 247.379 311.644C243.679 311.464 239.989 311.074 236.299 310.894C234.889 310.906 233.481 311.027 232.089 311.254Z" fill="#1B1B1B"/>
<path d="M286.919 283.683C286.455 284.403 285.919 285.073 285.319 285.683C284.763 285.998 284.158 286.218 283.529 286.333C283.529 285.643 283.199 284.563 283.529 284.333C285.799 282.623 285.269 280.254 285.409 277.994C285.409 277.424 286.039 276.894 286.409 276.354C286.769 276.874 287.409 277.354 287.409 277.924C287.367 279.868 287.21 281.808 286.939 283.734L286.919 283.683Z" fill="#1B1B1B"/>
<path d="M198.379 302.933C196.099 302.133 194.309 300.934 193.899 298.614C193.799 298.044 194.279 297.333 194.469 296.693C194.952 297.087 195.413 297.508 195.849 297.953C196.759 299.013 197.549 300.173 198.509 301.183C199.179 301.833 199.469 302.323 198.379 302.933Z" fill="#1B1B1B"/>
<path d="M257.169 159.874C259.873 159.177 262.623 158.676 265.399 158.374C270.309 158.084 275.229 158.064 280.169 158.144C282.758 158.287 285.338 158.56 287.899 158.963C288.352 158.982 288.789 159.132 289.159 159.394C289.588 159.847 289.971 160.342 290.299 160.874C289.689 161.064 288.989 161.543 288.469 161.403C282.959 159.893 277.329 160.234 271.729 160.204C261.629 160.144 252.409 162.794 244.499 169.204C241.419 171.714 238.499 174.403 235.409 176.963C234.939 177.363 233.929 177.964 233.739 177.744C232.799 176.904 233.299 176.044 234.109 175.384C238.329 171.854 242.349 168.044 246.839 164.894C249.929 162.794 253.639 161.614 257.169 159.874Z" fill="#1B1B1B"/>
<path d="M184.339 192.964C186.769 194.144 189.119 195.174 191.409 196.314C192.787 197.021 194.123 197.809 195.409 198.674C196.469 199.364 196.509 200.054 195.569 201.134C191.679 205.604 186.769 207.454 180.949 208.134C175.129 208.814 169.619 207.904 164.059 206.434C162.77 206.279 161.468 206.279 160.179 206.434C159.607 206.394 159.039 206.313 158.479 206.194C158.639 205.584 158.599 204.764 158.989 204.404C160.449 203.034 162.049 201.794 163.609 200.544C166.049 198.544 168.379 196.454 170.999 194.744C172.927 193.426 175.135 192.577 177.449 192.264C179.763 191.95 182.117 192.176 184.329 192.924M175.279 204.684C176.589 204.684 177.909 204.684 179.209 204.684C179.709 204.684 180.419 204.584 180.659 204.254C182.021 202.677 183.186 200.941 184.129 199.084C185.129 196.714 184.129 195.274 181.569 194.764C180.106 194.554 178.621 194.554 177.159 194.764C173.849 195.094 172.539 196.314 171.809 199.464C171.499 200.804 173.169 203.674 175.279 204.734M190.469 200.364C189.979 198.854 189.749 197.284 187.769 196.724C186.949 196.494 186.849 196.184 186.699 197.214C186.279 200.094 185.619 202.894 183.109 204.834C182.919 204.984 182.729 205.464 182.789 205.534C182.999 205.744 183.419 206.024 183.609 205.944C186.229 204.674 189.769 204.604 190.469 200.364ZM166.959 200.574C165.039 202.574 165.449 204.284 168.089 205.144C168.939 205.444 169.803 205.701 170.679 205.914C171.246 205.985 171.818 206.012 172.389 205.994C172.149 205.454 171.919 204.914 171.639 204.404C170.927 203.253 170.293 202.058 169.739 200.824C169.604 199.982 169.604 199.125 169.739 198.284L167.539 200.074C167.429 200.164 167.339 200.264 167.039 200.574M193.249 199.744C193.069 199.974 192.889 200.204 192.689 200.434L193.409 200.814C193.438 200.433 193.369 200.05 193.209 199.704L193.249 199.744Z" fill="#1B1B1B"/>
<path d="M267.049 194.734C266.549 194.864 266.269 195.104 265.969 195.134C259.969 195.844 254.249 194.314 248.679 192.214C246.339 191.334 246.089 189.644 247.919 187.854C252.117 183.603 257.381 180.56 263.159 179.044C266.157 178.423 269.251 178.423 272.249 179.044C276.153 179.89 280.004 180.968 283.779 182.274C284.683 182.602 285.557 183.011 286.389 183.494C288.779 184.684 289.129 185.584 286.899 186.994C283.2 189.326 279.305 191.333 275.259 192.994C272.769 193.994 269.929 194.184 267.039 194.744M268.709 190.374C269.665 188.852 270.478 187.245 271.139 185.574C271.879 183.094 270.529 181.154 268.039 181.064C266.021 180.974 264 181.176 262.039 181.664C261.247 181.85 260.521 182.251 259.941 182.823C259.361 183.395 258.949 184.115 258.751 184.904C258.553 185.694 258.576 186.523 258.817 187.301C259.058 188.078 259.509 188.775 260.119 189.314C262.589 191.764 265.439 191.734 268.649 190.374M272.809 187.874C272.119 188.874 271.409 189.774 270.809 190.764C270.61 191.165 270.456 191.588 270.349 192.024C270.764 192.084 271.185 192.084 271.599 192.024C273.489 191.454 275.399 190.854 277.229 190.104C278.016 189.745 278.702 189.199 279.229 188.514C281.229 186.004 280.449 183.084 277.649 182.294C276.538 181.954 275.41 181.673 274.269 181.454C273.439 181.324 272.939 181.364 273.139 182.684C273.399 184.214 272.949 185.864 272.809 187.884M256.169 187.044C256.4 186.298 256.59 185.54 256.739 184.774C256.739 184.564 256.409 184.294 256.239 184.054C255.085 185.18 254.031 186.404 253.089 187.714C252.91 187.986 252.787 188.292 252.729 188.614C252.674 188.947 252.695 189.289 252.789 189.614C252.876 189.929 253.029 190.222 253.239 190.474C253.453 190.725 253.719 190.926 254.019 191.064C256.131 191.982 258.291 192.786 260.489 193.474C260.739 193.554 261.159 193.154 261.489 192.974C261.273 192.699 261.013 192.463 260.719 192.274C259.608 191.817 258.619 191.109 257.829 190.204C257.037 189.299 256.472 188.22 256.179 187.054M285.719 185.804C285.259 185.454 284.849 184.914 284.339 184.804C283.619 184.654 282.259 184.654 282.179 184.894C282.048 185.796 282.048 186.712 282.179 187.614L284.019 186.724C284.619 186.445 285.203 186.135 285.769 185.794M249.979 188.714L249.159 190.414C249.502 190.408 249.841 190.34 250.159 190.214C250.999 189.684 251.109 189.114 250.049 188.724L249.979 188.714Z" fill="#1B1B1B"/>
<path d="M180.189 197.954C180.999 199.444 180.319 200.424 179.249 201.124C179.004 201.259 178.729 201.33 178.449 201.33C178.169 201.33 177.894 201.259 177.649 201.124C177.016 200.498 176.593 199.69 176.439 198.814C176.439 198.314 177.249 197.414 177.829 197.284C178.409 197.154 179.309 197.614 180.189 197.954Z" fill="#1B1B1B"/>
<path d="M263.199 187.764C262.749 186.764 262.059 185.834 262.199 185.004C262.279 184.434 263.389 183.734 264.199 183.554C265.479 183.254 266.639 183.554 266.719 185.294C266.819 187.294 266.199 188.094 264.329 188.064C263.936 188.039 263.552 187.937 263.199 187.764Z" fill="#1B1B1B"/>
<path d="M323.129 172.364C329.609 178.754 333.469 186.574 336.529 194.814C338.079 199.024 339.529 203.273 340.799 207.583C341.368 209.882 341.749 212.223 341.939 214.583C342.179 216.663 342.289 218.763 342.329 220.833C342.213 221.45 341.994 222.041 341.679 222.583C341.219 222.023 340.489 221.504 340.349 220.884C340.03 219.514 339.879 218.11 339.899 216.704C340.049 209.244 336.829 202.704 334.539 195.844C332.433 189.317 329.238 183.194 325.089 177.734C322.819 174.734 319.869 172.294 317.379 169.474C314.372 166.222 311.548 162.807 308.919 159.244C307.599 157.374 307.079 154.904 306.409 152.634C306.239 152.094 306.899 151.314 307.179 150.634C307.582 151.024 307.92 151.476 308.179 151.974C309.989 157.294 312.579 162.064 316.919 165.844C319.169 167.784 321.009 170.114 323.129 172.364Z" fill="#4E4D4D"/>
<path d="M204.629 58.2335C204.884 60.8021 205.004 63.3823 204.989 65.9635C204.789 69.4035 204.249 72.8335 203.749 76.2635C203.749 76.6735 203.039 77.0036 202.669 77.3936C202.349 76.9736 201.739 76.5135 201.769 76.1135C201.929 74.1135 202.429 72.0535 202.509 70.0035C202.7 66.6729 202.7 63.3341 202.509 60.0035C202.119 54.5335 201.279 49.0935 200.959 43.6235C200.763 40.1448 200.904 36.6553 201.379 33.2036C201.909 29.2605 202.749 25.3652 203.889 21.5535C204.882 18.7772 206.131 16.099 207.619 13.5535C207.829 13.1435 208.869 13.1635 209.529 12.9835C209.529 13.6035 209.799 14.4235 209.529 14.8135C206.949 18.2235 205.739 22.1635 204.899 26.2235C204.198 29.3826 203.72 32.5873 203.469 35.8135C203.249 39.577 203.249 43.3501 203.469 47.1135C203.629 50.7535 204.209 54.4135 204.629 58.2335Z" fill="#4E4D4D"/>
<path d="M96.0992 158.213C98.8992 154.803 101.579 151.453 104.319 148.213C105.357 146.933 106.497 145.739 107.729 144.644C108.119 144.314 109.029 144.583 109.729 144.583C109.609 145.095 109.417 145.586 109.159 146.043C106.439 149.503 103.839 153.043 100.889 156.333C98.1966 159.353 95.26 162.146 92.1092 164.684C88.9292 167.204 85.6191 169.573 81.5791 170.853C76.0391 172.603 72.0792 170.593 69.4592 165.913C68.4808 164.196 67.9596 162.256 67.9456 160.279C67.9316 158.302 68.4253 156.355 69.3792 154.624C69.8292 153.724 70.2292 152.714 71.3792 153.394C71.7092 153.594 71.6492 154.964 71.3792 155.564C68.5692 160.914 71.0692 166.303 75.3792 168.793C77.8292 170.233 80.3792 169.363 82.5092 168.173C85.7366 166.341 88.8644 164.338 91.8792 162.173C93.359 160.934 94.7679 159.612 96.0992 158.213Z" fill="#4E4D4D"/>
<path d="M186.309 61.1436C184.015 56.8431 182.572 52.1405 182.059 47.2935C181.289 41.1935 182.459 35.4235 183.849 29.6235C184.009 28.9735 184.709 28.4435 185.149 27.8535C185.399 28.5535 185.929 29.2935 185.849 29.9635C185.559 32.3735 185.019 34.7436 184.649 37.1436C183.849 42.3836 183.649 47.6835 185.309 52.7335C186.689 56.9035 188.899 60.7935 190.639 64.8635C193.039 70.4835 195.799 76.0136 195.459 82.3936C195.426 83.1768 195.281 83.9514 195.029 84.6935C194.765 85.2058 194.428 85.6773 194.029 86.0935C193.699 85.4635 193.029 84.7835 193.029 84.2335C194.399 75.5235 189.649 68.6136 186.309 61.1436Z" fill="#4E4D4D"/>
<path d="M305.469 103.074C301.959 99.9736 298.559 96.9735 295.139 93.9835C293.619 92.6635 292.039 91.4336 290.499 90.1436C290.091 89.8947 289.748 89.5518 289.499 89.1436C289.219 88.4336 288.769 87.3535 289.079 86.9435C289.949 85.8035 290.549 87.0035 291.159 87.5435C296.709 92.3835 301.909 97.7236 307.899 101.954C313.754 106.214 320.46 109.161 327.559 110.594C329.559 110.994 332.069 111.304 333.879 109.424C334.439 108.814 334.879 108.044 335.489 107.424C336.02 106.939 336.588 106.498 337.189 106.104C337.372 106.753 337.44 107.43 337.389 108.104C336.389 111.424 331.989 113.464 328.599 112.924C320.039 111.614 312.769 107.464 305.469 103.074Z" fill="#4E4D4D"/>
<path d="M181.329 85.2835C180.61 84.2561 180.057 83.1223 179.689 81.9235C178.003 75.3761 174.934 69.2658 170.689 64.0035C166.519 58.5835 161.929 53.4835 159.529 47.0035C158.069 43.0835 157.059 39.0035 155.979 35.0035C155.819 34.4435 156.419 33.6135 156.669 32.9035C157.179 33.4735 157.969 33.9035 158.149 34.5735C159.029 37.6235 159.599 40.7635 160.529 43.7935C162.189 49.1535 165.359 53.6935 168.799 58.0435C173.799 64.3535 178.719 70.6835 180.989 78.5835C181.471 80.2754 181.848 81.9954 182.119 83.7335C182.179 84.1735 181.729 84.7435 181.329 85.2835Z" fill="#4E4D4D"/>
<path d="M116.399 205.614C116.679 201.614 116.909 197.864 117.259 194.104C117.425 192.538 117.705 190.987 118.099 189.464C118.199 189.094 118.809 188.854 119.189 188.554C119.509 188.984 120.189 189.494 120.089 189.814C118.619 195.814 120.089 202.154 118.089 208.104C117.338 210.33 115.947 212.285 114.089 213.724C111.149 216.124 108.669 219.014 108.519 223.234C108.339 228.104 108.009 232.984 107.679 237.864C107.525 238.523 107.275 239.156 106.939 239.744C106.499 239.134 105.689 238.543 105.689 237.933C105.609 232.053 105.239 226.104 106.939 220.384C107.613 218.428 108.61 216.599 109.889 214.974C111.037 213.49 112.356 212.148 113.819 210.974C115.347 209.593 116.273 207.669 116.399 205.614Z" fill="#4E4D4D"/>
<path d="M93.1987 141.154C87.3814 144.572 80.6559 146.125 73.9287 145.604C71.1787 145.384 68.3387 145.074 66.4087 142.764C65.8132 141.859 65.4241 140.835 65.2688 139.764C65.2088 139.444 65.9088 138.973 66.2688 138.583C66.6088 138.913 67.2688 139.223 67.2688 139.583C67.4288 142.173 69.3688 142.814 71.2688 143.134C75.4295 143.866 79.6975 143.72 83.7982 142.703C87.8989 141.687 91.7414 139.824 95.0787 137.234C97.6487 135.334 100.349 133.604 102.999 131.784C103.149 131.662 103.322 131.573 103.509 131.523C104.509 131.433 105.419 131.364 106.349 131.294C105.877 132.08 105.294 132.794 104.619 133.414C100.919 135.984 97.0987 138.514 93.1987 141.154Z" fill="#4E4D4D"/>
<path d="M333.739 91.8335C335.439 93.9735 337.149 95.9536 338.649 98.0536C339.142 99.0027 339.511 100.011 339.749 101.054C338.179 101.624 337.509 100.294 336.749 99.4336C335.149 97.5836 333.749 95.5636 332.169 93.6736C328.959 89.7636 324.439 88.1435 319.769 87.0435C316.259 86.2135 312.629 85.9035 309.059 85.3335C308.674 85.29 308.309 85.1451 307.999 84.9135C307.349 84.3435 306.779 83.6535 306.179 83.0235C307.002 82.8938 307.836 82.8436 308.669 82.8736C311.409 83.2236 314.159 83.5736 316.869 84.1136C323.069 85.2736 329.009 87.0835 333.739 91.8335Z" fill="#4E4D4D"/>
<path d="M191.719 25.3535C192.289 23.0835 192.829 21.0535 193.389 19.0035C193.509 18.5735 193.539 18.0035 193.829 17.7535C194.435 17.3365 195.082 16.9814 195.759 16.6935C195.907 17.3056 195.937 17.9401 195.849 18.5635C194.515 21.9923 193.814 25.6345 193.779 29.3135C193.799 30.9912 193.649 32.6665 193.329 34.3135C193.199 35.0035 192.419 35.5535 191.939 36.1735C191.589 35.4235 190.939 34.6535 190.939 33.9035C191.079 31.1135 191.469 28.3435 191.719 25.3535Z" fill="#4E4D4D"/>
<path d="M166.339 23.2735C167.719 21.5235 168.339 22.8235 168.739 23.8435C169.278 25.2138 169.719 26.6207 170.059 28.0535C170.099 28.5203 170.059 28.9906 169.939 29.4435C169.469 29.2935 168.749 29.2735 168.569 28.9635C167.889 27.733 167.287 26.4604 166.769 25.1535C166.561 24.5434 166.417 23.9133 166.339 23.2735Z" fill="#4E4D4D"/>
</g>
<defs>
<clipPath id="clip0_1522_4744">
<rect width="421.5" height="575.53" fill="white" transform="translate(0.358887 0.413513)"/>
</clipPath>
</defs>
</svg>
