<svg width="100%" height="100%" viewBox="0 0 26 30" fill="none" xmlns="http://www.w3.org/2000/svg">
<g opacity="0.3">
<path fill-rule="evenodd" clip-rule="evenodd" d="M6.65052 1.61475V14.3258C6.6465 14.7847 6.73455 15.24 6.90969 15.6655C7.08483 16.091 7.3436 16.4785 7.67124 16.8058C7.99888 17.1331 8.389 17.3938 8.81925 17.5731C9.24951 17.7523 9.71147 17.8466 10.1788 17.8505H15.8222C16.2895 17.8466 16.7515 17.7523 17.1818 17.5731C17.612 17.3938 18.0021 17.1331 18.3298 16.8058C18.6574 16.4785 18.9162 16.091 19.0913 15.6655C19.2665 15.24 19.3545 14.7847 19.3505 14.3258V1.6447L6.65052 1.61475Z" fill="#777575"/>
<path fill-rule="evenodd" clip-rule="evenodd" d="M7.35207 22.7437C7.25859 22.745 7.16627 22.7643 7.08042 22.8007C6.99458 22.837 6.91688 22.8896 6.85173 22.9554C6.78658 23.0213 6.73527 23.099 6.70073 23.1844C6.6662 23.2697 6.64912 23.3608 6.65046 23.4526V28.3853H19.3504V23.4526C19.3518 23.3608 19.3347 23.2697 19.3002 23.1844C19.2656 23.099 19.2143 23.0213 19.1492 22.9554C19.084 22.8896 19.0063 22.837 18.9205 22.8007C18.8346 22.7643 18.7423 22.745 18.6488 22.7437H7.35207Z" fill="#777575"/>
<path fill-rule="evenodd" clip-rule="evenodd" d="M17.9576 3.02295V15.7839H16.5239V3.02295H17.9576Z" fill="white"/>
<path fill-rule="evenodd" clip-rule="evenodd" d="M5.23698 0.905986C5.23564 0.814672 5.25278 0.724009 5.28744 0.639263C5.32209 0.554517 5.37358 0.477376 5.43887 0.412337C5.50415 0.347299 5.58196 0.295665 5.66775 0.260418C5.75354 0.225172 5.84559 0.207022 5.93859 0.207031H20.0519C20.1454 0.207031 20.238 0.22511 20.3243 0.260236C20.4107 0.295362 20.4892 0.346839 20.5553 0.411743C20.6213 0.476647 20.6738 0.5537 20.7095 0.638502C20.7453 0.723303 20.7637 0.814198 20.7637 0.905986V14.326C20.7691 14.9685 20.6455 15.6058 20.4 16.2014C20.1546 16.797 19.7921 17.3394 19.3332 17.7974C18.8743 18.2554 18.3281 18.6202 17.7256 18.8709C17.1232 19.1217 16.4763 19.2534 15.822 19.2586H10.1787C9.52437 19.2534 8.87752 19.1217 8.27507 18.8709C7.67261 18.6202 7.12638 18.2554 6.6675 17.7974C6.20861 17.3394 5.84611 16.797 5.60066 16.2014C5.35522 15.6058 5.23162 14.9685 5.23698 14.326V0.905986ZM6.65037 1.61494V14.326C6.64634 14.7849 6.73439 15.2402 6.90953 15.6657C7.08468 16.0912 7.34345 16.4787 7.67109 16.806C7.99873 17.1333 8.38884 17.394 8.8191 17.5733C9.24935 17.7525 9.71131 17.8468 10.1787 17.8507H15.822C16.2894 17.8468 16.7513 17.7525 17.1816 17.5733C17.6119 17.394 18.002 17.1333 18.3296 16.806C18.6573 16.4787 18.916 16.0912 19.0912 15.6657C19.2663 15.2402 19.3544 14.7849 19.3503 14.326V1.64489L6.65037 1.61494Z" fill="#777575"/>
<path fill-rule="evenodd" clip-rule="evenodd" d="M9.4668 18.5198C9.4668 18.3344 9.54178 18.1566 9.67526 18.0255C9.80874 17.8944 9.98974 17.8208 10.1785 17.8208H15.8219C15.9149 17.8208 16.0069 17.8389 16.0927 17.8742C16.1785 17.9094 16.2563 17.9611 16.3216 18.0261C16.3869 18.0911 16.4383 18.1683 16.473 18.253C16.5076 18.3378 16.5248 18.4284 16.5235 18.5198V22.0445C16.5248 22.1358 16.5076 22.2265 16.473 22.3112C16.4383 22.396 16.3869 22.4731 16.3216 22.5381C16.2563 22.6032 16.1785 22.6548 16.0927 22.6901C16.0069 22.7253 15.9149 22.7435 15.8219 22.7435H10.1785C9.98974 22.7435 9.80874 22.6698 9.67526 22.5387C9.54178 22.4077 9.4668 22.2299 9.4668 22.0445V18.5198ZM10.8801 19.2287V21.3156H15.1203V19.2087L10.8801 19.2287Z" fill="#777575"/>
<path fill-rule="evenodd" clip-rule="evenodd" d="M10.1787 24.8604H15.8221V26.3082H10.1787V24.8604Z" fill="white"/>
<path fill-rule="evenodd" clip-rule="evenodd" d="M5.23691 23.4523C5.23423 23.1769 5.2868 22.9037 5.39163 22.6483C5.49647 22.3929 5.65151 22.1603 5.84791 21.9637C6.0443 21.7671 6.27824 21.6105 6.53629 21.5027C6.79434 21.3949 7.07148 21.3381 7.3519 21.3354H18.6487C18.9291 21.3381 19.2062 21.3949 19.4643 21.5027C19.7223 21.6105 19.9563 21.7671 20.1527 21.9637C20.349 22.1603 20.5041 22.3929 20.6089 22.6483C20.7138 22.9037 20.7663 23.1769 20.7636 23.4523V29.0839C20.765 29.1765 20.7475 29.2685 20.7124 29.3544C20.6772 29.4404 20.625 29.5186 20.5588 29.5846C20.4926 29.6506 20.4136 29.7029 20.3266 29.7387C20.2396 29.7744 20.1462 29.7929 20.0519 29.7928H5.93852C5.84504 29.7915 5.75272 29.7722 5.66687 29.7358C5.58103 29.6995 5.50333 29.6469 5.43818 29.5811C5.37303 29.5152 5.32172 29.4374 5.28718 29.3521C5.25265 29.2668 5.23557 29.1757 5.23691 29.0839V23.4523ZM7.3519 22.7433C7.25843 22.7446 7.16611 22.764 7.08026 22.8004C6.99441 22.8367 6.91671 22.8893 6.85156 22.9551C6.78641 23.0209 6.7351 23.0987 6.70057 23.184C6.66603 23.2693 6.64895 23.3605 6.6503 23.4523V28.3849H19.3503V23.4523C19.3516 23.3605 19.3345 23.2693 19.3 23.184C19.2655 23.0987 19.2141 23.0209 19.149 22.9551C19.0838 22.8893 19.0062 22.8367 18.9203 22.8004C18.8345 22.764 18.7421 22.7446 18.6487 22.7433H7.3519Z" fill="#777575"/>
<path fill-rule="evenodd" clip-rule="evenodd" d="M19.3507 3.7319C19.3493 3.64011 19.3664 3.54896 19.4009 3.46365C19.4355 3.37835 19.4868 3.30055 19.5519 3.23472C19.6171 3.16888 19.6948 3.1163 19.7806 3.07996C19.8665 3.04363 19.9588 3.02425 20.0523 3.02295H22.4519C22.9588 3.02941 23.4585 3.14185 23.9176 3.35273C24.3768 3.56362 24.7849 3.86813 25.1149 4.24601C25.4449 4.62389 25.6891 5.06645 25.8313 5.54425C25.9735 6.02204 26.0104 6.52409 25.9396 7.01699L25.3397 11.2407C25.2181 12.0684 24.7982 12.8258 24.1564 13.3754C23.5146 13.9251 22.6934 14.2305 21.8419 14.2362H20.0523C19.9588 14.2349 19.8665 14.2156 19.7806 14.1792C19.6948 14.1429 19.6171 14.0903 19.5519 14.0245C19.4868 13.9586 19.4355 13.8808 19.4009 13.7955C19.3664 13.7102 19.3493 13.6191 19.3507 13.5273V3.7319ZM20.764 4.43085V12.8882H21.8419C22.3557 12.8852 22.8511 12.6995 23.2362 12.3653C23.6213 12.0312 23.8701 11.5714 23.9365 11.071L24.5466 6.84725C24.5915 6.54994 24.5713 6.24661 24.487 5.95765C24.4028 5.66868 24.2565 5.40077 24.0581 5.17189C23.8597 4.94301 23.6138 4.75846 23.3367 4.63064C23.0597 4.50283 22.758 4.43471 22.4519 4.43085H20.764Z" fill="#777575"/>
<path fill-rule="evenodd" clip-rule="evenodd" d="M6.65028 3.7319C6.65163 3.63927 6.63419 3.54731 6.59902 3.46135C6.56385 3.37539 6.51165 3.29716 6.44542 3.2312C6.37919 3.16523 6.30027 3.11285 6.21325 3.0771C6.12622 3.04135 6.03283 3.02294 5.9385 3.02295H3.54902C3.04216 3.02941 2.54249 3.14185 2.08332 3.35273C1.62415 3.56362 1.216 3.86813 0.886034 4.24601C0.556065 4.62389 0.311862 5.06645 0.169661 5.54425C0.02746 6.02204 -0.00944316 6.52409 0.0613641 7.01699L0.661248 11.2407C0.780883 12.0692 1.20016 12.8278 1.8424 13.3778C2.48463 13.9278 3.30694 14.2325 4.15908 14.2362H5.9385C6.03283 14.2363 6.12622 14.2178 6.21325 14.1821C6.30027 14.1463 6.37919 14.094 6.44542 14.028C6.51165 13.962 6.56385 13.8838 6.59902 13.7978C6.63419 13.7119 6.65163 13.6199 6.65028 13.5273V3.7319ZM5.2369 4.43085V12.8882H4.15908C3.64465 12.8835 3.14912 12.6973 2.76277 12.3637C2.37641 12.0302 2.12496 11.5714 2.05427 11.071L1.45439 6.84725C1.40766 6.54968 1.42673 6.24573 1.51031 5.95605C1.59389 5.66636 1.74004 5.39776 1.93878 5.16849C2.13752 4.93922 2.38418 4.75467 2.66204 4.62738C2.9399 4.5001 3.24243 4.43307 3.54902 4.43085H5.2369Z" fill="#777575"/>
<path fill-rule="evenodd" clip-rule="evenodd" d="M3.12207 28.3848H23.2346V29.7927H3.12207V28.3848Z" fill="#777575"/>
</g>
</svg>
