<svg width="27" height="30" viewBox="0 0 27 30" fill="none" xmlns="http://www.w3.org/2000/svg">
<path fill-rule="evenodd" clip-rule="evenodd" d="M6.76613 1.62012V14.2913C6.76481 14.7537 6.85517 15.2118 7.03203 15.6394C7.20888 16.067 7.46878 16.4556 7.79679 16.7831C8.1248 17.1105 8.51449 17.3703 8.94354 17.5475C9.37259 17.7248 9.83257 17.8159 10.2971 17.8159H15.9346C16.3991 17.8159 16.8591 17.7248 17.2882 17.5475C17.7172 17.3703 18.1069 17.1105 18.4349 16.7831C18.7629 16.4556 19.0228 16.067 19.1997 15.6394C19.3765 15.2118 19.4669 14.7537 19.4656 14.2913V1.62012H6.76613Z" fill="#A06D1F"/>
<path fill-rule="evenodd" clip-rule="evenodd" d="M6.76613 1.62012V14.2913C6.76481 14.7537 6.85517 15.2118 7.03203 15.6394C7.20888 16.067 7.46878 16.4556 7.79679 16.7831C8.1248 17.1105 8.51449 17.3703 8.94354 17.5475C9.37259 17.7248 9.83257 17.8159 10.2971 17.8159H15.9346C16.3991 17.8159 16.8591 17.7248 17.2882 17.5475C17.7172 17.3703 18.1069 17.1105 18.4349 16.7831C18.7629 16.4556 19.0228 16.067 19.1997 15.6394C19.3765 15.2118 19.4669 14.7537 19.4656 14.2913V1.62012H6.76613Z" fill="#A06D1F"/>
<path fill-rule="evenodd" clip-rule="evenodd" d="M7.46838 22.7485C7.37531 22.7485 7.28319 22.7669 7.19733 22.8027C7.11148 22.8384 7.03363 22.8908 6.96829 22.9567C6.90295 23.0227 6.85145 23.101 6.81676 23.187C6.78206 23.2729 6.76486 23.3648 6.76618 23.4574V28.3802H19.4656V23.4574C19.467 23.3648 19.4498 23.2729 19.4151 23.187C19.3804 23.101 19.3289 23.0227 19.2635 22.9567C19.1982 22.8908 19.1203 22.8384 19.0345 22.8027C18.9486 22.7669 18.8565 22.7485 18.7634 22.7485H7.46838Z" fill="#A06D1F"/>
<path fill-rule="evenodd" clip-rule="evenodd" d="M5.35169 0.911052C5.35167 0.724746 5.42533 0.545929 5.55673 0.413259C5.68813 0.28059 5.86673 0.204772 6.05388 0.202148H20.1376C20.3247 0.204772 20.5033 0.28059 20.6347 0.413259C20.7661 0.545929 20.8398 0.724746 20.8398 0.911052V14.2911C20.8398 15.5976 20.319 16.8507 19.3919 17.7754C18.4648 18.7002 17.2069 19.2211 15.8944 19.2237H10.2569C8.94442 19.2211 7.68652 18.7002 6.75938 17.7754C5.83223 16.8507 5.31152 15.5976 5.31152 14.2911L5.35169 0.911052Z" fill="#A06D1F"/>
<path fill-rule="evenodd" clip-rule="evenodd" d="M9.58496 18.5249C9.58496 18.3369 9.65999 18.1566 9.79356 18.0236C9.92712 17.8907 10.1083 17.8159 10.2972 17.8159H15.9347C16.1236 17.8159 16.3048 17.8907 16.4383 18.0236C16.5719 18.1566 16.6469 18.3369 16.6469 18.5249V22.0497C16.6443 22.236 16.5681 22.4137 16.4348 22.5445C16.3015 22.6753 16.1218 22.7486 15.9347 22.7486H10.2972C10.11 22.7486 9.93039 22.6753 9.79711 22.5445C9.66383 22.4137 9.5876 22.236 9.58496 22.0497V18.5249ZM10.9994 19.2239V21.3407H15.2325V19.2239H10.9994Z" fill="#A06D1F"/>
<path fill-rule="evenodd" clip-rule="evenodd" d="M5.35156 23.4577C5.35156 22.898 5.57421 22.3611 5.97086 21.9644C6.3675 21.5677 6.90585 21.3435 7.46812 21.3408H18.7632C19.3254 21.3435 19.8638 21.5677 20.2604 21.9644C20.6571 22.3611 20.8797 22.898 20.8797 23.4577V29.0893C20.8798 29.2756 20.8061 29.4544 20.6747 29.5871C20.5433 29.7197 20.3647 29.7956 20.1775 29.7982H6.09386C5.90671 29.7956 5.72811 29.7197 5.59671 29.5871C5.4653 29.4544 5.39165 29.2756 5.39166 29.0893L5.35156 23.4577ZM7.46812 22.7488C7.37505 22.7487 7.28293 22.7671 7.19707 22.8029C7.11122 22.8386 7.03337 22.891 6.96803 22.9569C6.90269 23.0229 6.85119 23.1012 6.8165 23.1872C6.78181 23.2731 6.7646 23.365 6.76593 23.4577V28.3804H19.4654V23.4577C19.4667 23.365 19.4495 23.2731 19.4148 23.1872C19.3801 23.1012 19.3286 23.0229 19.2633 22.9569C19.1979 22.891 19.1201 22.8386 19.0342 22.8029C18.9484 22.7671 18.8562 22.7487 18.7632 22.7488H7.46812Z" fill="#A06D1F"/>
<path fill-rule="evenodd" clip-rule="evenodd" d="M19.4655 3.72681C19.4654 3.63418 19.4839 3.54253 19.5198 3.45707C19.5557 3.37161 19.6084 3.29406 19.6747 3.22902C19.7409 3.16398 19.8195 3.11278 19.9058 3.07824C19.9922 3.04371 20.0846 3.02658 20.1776 3.0279H22.565C23.0688 3.02892 23.5665 3.13723 24.0248 3.34554C24.483 3.55386 24.8912 3.85738 25.2218 4.2357C25.5525 4.61402 25.798 5.05836 25.9419 5.53893C26.0857 6.0195 26.1246 6.52518 26.0559 7.02195L25.454 11.2556C25.3291 12.0884 24.9079 12.8488 24.2673 13.3985C23.6266 13.9483 22.809 14.2508 21.9632 14.2512H20.1375C20.0445 14.2525 19.9521 14.2354 19.8657 14.2008C19.7794 14.1663 19.7008 14.1151 19.6345 14.05C19.5682 13.985 19.5156 13.9074 19.4797 13.822C19.4438 13.7365 19.4253 13.6449 19.4253 13.5523L19.4655 3.72681ZM20.8798 4.43584V12.8832H21.9632C22.4727 12.8835 22.9651 12.7009 23.3503 12.369C23.7354 12.037 23.9872 11.5778 24.0597 11.0758L24.6616 6.84216C24.703 6.54339 24.6798 6.23931 24.5936 5.95018C24.5074 5.66105 24.3601 5.39356 24.1615 5.16571C23.963 4.93785 23.7179 4.75492 23.4426 4.62903C23.1672 4.50314 22.868 4.43727 22.565 4.43584H20.8798Z" fill="#A06D1F"/>
<path fill-rule="evenodd" clip-rule="evenodd" d="M6.76602 3.72681C6.76603 3.63418 6.74757 3.54253 6.71165 3.45707C6.67574 3.37161 6.62308 3.29406 6.55681 3.22902C6.49054 3.16398 6.41198 3.11278 6.32563 3.07824C6.23927 3.04371 6.1469 3.02658 6.05385 3.0279H3.66644C3.16267 3.02892 2.66494 3.13723 2.2067 3.34554C1.74847 3.55386 1.34029 3.85738 1.00963 4.2357C0.678975 4.61402 0.433482 5.05836 0.289622 5.53893C0.145762 6.0195 0.106863 6.52518 0.17556 7.02195L0.777464 11.2556C0.902419 12.0884 1.32354 12.8488 1.96419 13.3985C2.60484 13.9483 3.42243 14.2508 4.26828 14.2512H6.09395C6.187 14.2525 6.27938 14.2354 6.36573 14.2008C6.45208 14.1663 6.53071 14.1151 6.59698 14.05C6.66325 13.985 6.71584 13.9074 6.75176 13.822C6.78767 13.7365 6.80619 13.6449 6.80618 13.5523L6.76602 3.72681ZM5.35166 4.43584V12.8832H4.26828C3.75882 12.8835 3.26634 12.7009 2.88122 12.369C2.49611 12.037 2.24424 11.5778 2.17181 11.0758L1.5699 6.84216C1.52845 6.54339 1.55163 6.23931 1.63786 5.95018C1.72409 5.66105 1.87141 5.39356 2.06993 5.16571C2.26844 4.93785 2.51355 4.75492 2.78889 4.62903C3.06424 4.50314 3.36344 4.43727 3.66644 4.43584H5.35166Z" fill="#A06D1F"/>
<path fill-rule="evenodd" clip-rule="evenodd" d="M3.23535 28.3799H23.3478V29.7977H3.23535V28.3799Z" fill="#A06D1F"/>
<path d="M18.6828 2.64844H16.6465V15.4394H18.6828V2.64844Z" fill="white"/>
</svg>
