<svg width="57" height="56" viewBox="0 0 57 56" fill="none" xmlns="http://www.w3.org/2000/svg">
<rect width="56" height="56" transform="translate(0.115723)" fill="white"/>
<path fill-rule="evenodd" clip-rule="evenodd" d="M28.114 20.915C24.4023 20.915 21.3926 23.9207 21.3926 27.6275C21.3926 29.14 21.893 30.5332 22.7369 31.655C22.7847 31.7206 22.8235 31.7922 22.8488 31.8683L24.1588 35.7929C24.4635 36.7073 25.3194 37.3233 26.2843 37.3233H29.9437C30.9086 37.3233 31.7645 36.7073 32.0692 35.7929L33.3791 31.8683C33.4045 31.7922 33.4433 31.7206 33.4911 31.655C34.335 30.5332 34.8354 29.14 34.8354 27.6275C34.8354 23.9207 31.8257 20.915 28.114 20.915ZM19.8989 27.6275C19.8989 23.0958 23.5763 19.4233 28.114 19.4233C32.6517 19.4233 36.329 23.0958 36.329 27.6275C36.329 29.4294 35.7465 31.0986 34.7592 32.4515L33.4866 36.2657C32.9773 37.7872 31.5508 38.815 29.9437 38.815H26.2843C24.6771 38.815 23.2492 37.7872 22.7414 36.2657L21.4688 32.4515C20.4815 31.0986 19.8989 29.4294 19.8989 27.6275Z" fill="#FFC700"/>
<path fill-rule="evenodd" clip-rule="evenodd" d="M36.5493 18.1508L39.5366 15.1675L40.5941 16.2236L37.6068 19.2069L36.5493 18.1508Z" fill="#FFC700"/>
<path fill-rule="evenodd" clip-rule="evenodd" d="M40.0649 26.8809H43.0522V28.3736H40.0649V26.8809Z" fill="#FFC700"/>
<path fill-rule="evenodd" clip-rule="evenodd" d="M13.1787 26.8809H16.166V28.3736H13.1787V26.8809Z" fill="#FFC700"/>
<path fill-rule="evenodd" clip-rule="evenodd" d="M16.6957 15.1675L19.683 18.1508L18.6255 19.2069L15.6382 16.2236L16.6957 15.1675Z" fill="#FFC700"/>
<path fill-rule="evenodd" clip-rule="evenodd" d="M28.8608 12.7104V15.696H27.3672V12.7104H28.8608Z" fill="#FFC700"/>
<path fill-rule="evenodd" clip-rule="evenodd" d="M24.3809 39.5603C24.3809 41.6202 26.0523 43.2894 28.115 43.2894C30.1777 43.2894 31.8491 41.6202 31.8491 39.5603V38.0686C31.8491 37.6569 31.5145 37.3228 31.1023 37.3228H25.1277C24.7154 37.3228 24.3809 37.6569 24.3809 38.0686V39.5603ZM28.115 41.7977C26.8782 41.7977 25.8745 40.7953 25.8745 39.5603V38.8144H30.3554V39.5603C30.3554 40.7953 29.3517 41.7977 28.115 41.7977Z" fill="#FFC700"/>
</svg>
