<svg width="56" height="56" viewBox="0 0 56 56" fill="none" xmlns="http://www.w3.org/2000/svg">
<rect width="56" height="56" fill="white"/>
<g opacity="0.3">
<path fill-rule="evenodd" clip-rule="evenodd" d="M21.6505 14.6147V27.3258C21.6465 27.7847 21.7345 28.24 21.9097 28.6655C22.0848 29.091 22.3436 29.4785 22.6712 29.8058C22.9989 30.1331 23.389 30.3938 23.8193 30.5731C24.2495 30.7523 24.7115 30.8466 25.1788 30.8505H30.8222C31.2895 30.8466 31.7515 30.7523 32.1818 30.5731C32.612 30.3938 33.0021 30.1331 33.3298 29.8058C33.6574 29.4785 33.9162 29.091 34.0913 28.6655C34.2665 28.24 34.3545 27.7847 34.3505 27.3258V14.6447L21.6505 14.6147Z" fill="#777575"/>
<path fill-rule="evenodd" clip-rule="evenodd" d="M22.3521 35.7437C22.2586 35.745 22.1663 35.7643 22.0804 35.8007C21.9946 35.837 21.9169 35.8896 21.8517 35.9554C21.7866 36.0213 21.7353 36.099 21.7007 36.1844C21.6662 36.2697 21.6491 36.3608 21.6505 36.4526V41.3853H34.3504V36.4526C34.3518 36.3608 34.3347 36.2697 34.3002 36.1844C34.2656 36.099 34.2143 36.0213 34.1492 35.9554C34.084 35.8896 34.0063 35.837 33.9205 35.8007C33.8346 35.7643 33.7423 35.745 33.6488 35.7437H22.3521Z" fill="#777575"/>
<path fill-rule="evenodd" clip-rule="evenodd" d="M32.9576 16.0229V28.7839H31.5239V16.0229H32.9576Z" fill="white"/>
<path fill-rule="evenodd" clip-rule="evenodd" d="M20.237 13.906C20.2356 13.8147 20.2528 13.724 20.2874 13.6393C20.3221 13.5545 20.3736 13.4774 20.4389 13.4123C20.5042 13.3473 20.582 13.2957 20.6678 13.2604C20.7535 13.2252 20.8456 13.207 20.9386 13.207H35.0519C35.1454 13.207 35.238 13.2251 35.3243 13.2602C35.4107 13.2954 35.4892 13.3468 35.5553 13.4117C35.6213 13.4766 35.6738 13.5537 35.7095 13.6385C35.7453 13.7233 35.7637 13.8142 35.7637 13.906V27.326C35.7691 27.9685 35.6455 28.6058 35.4 29.2014C35.1546 29.797 34.7921 30.3394 34.3332 30.7974C33.8743 31.2554 33.3281 31.6202 32.7256 31.8709C32.1232 32.1217 31.4763 32.2534 30.822 32.2586H25.1787C24.5244 32.2534 23.8775 32.1217 23.2751 31.8709C22.6726 31.6202 22.1264 31.2554 21.6675 30.7974C21.2086 30.3394 20.8461 29.797 20.6007 29.2014C20.3552 28.6058 20.2316 27.9685 20.237 27.326V13.906ZM21.6504 14.6149V27.326C21.6463 27.7849 21.7344 28.2402 21.9095 28.6657C22.0847 29.0912 22.3434 29.4787 22.6711 29.806C22.9987 30.1333 23.3888 30.394 23.8191 30.5733C24.2494 30.7525 24.7113 30.8468 25.1787 30.8507H30.822C31.2894 30.8468 31.7513 30.7525 32.1816 30.5733C32.6119 30.394 33.002 30.1333 33.3296 29.806C33.6573 29.4787 33.916 29.0912 34.0912 28.6657C34.2663 28.2402 34.3544 27.7849 34.3503 27.326V14.6449L21.6504 14.6149Z" fill="#777575"/>
<path fill-rule="evenodd" clip-rule="evenodd" d="M24.4668 31.5198C24.4668 31.3344 24.5418 31.1566 24.6753 31.0255C24.8087 30.8944 24.9897 30.8208 25.1785 30.8208H30.8219C30.9149 30.8208 31.0069 30.8389 31.0927 30.8742C31.1785 30.9094 31.2563 30.9611 31.3216 31.0261C31.3869 31.0911 31.4383 31.1683 31.473 31.253C31.5076 31.3378 31.5248 31.4284 31.5235 31.5198V35.0445C31.5248 35.1358 31.5076 35.2265 31.473 35.3112C31.4383 35.396 31.3869 35.4731 31.3216 35.5381C31.2563 35.6032 31.1785 35.6548 31.0927 35.6901C31.0069 35.7253 30.9149 35.7435 30.8219 35.7435H25.1785C24.9897 35.7435 24.8087 35.6698 24.6753 35.5387C24.5418 35.4077 24.4668 35.2299 24.4668 35.0445V31.5198ZM25.8801 32.2287V34.3156H30.1203V32.2087L25.8801 32.2287Z" fill="#777575"/>
<path fill-rule="evenodd" clip-rule="evenodd" d="M25.1787 37.8604H30.8221V39.3082H25.1787V37.8604Z" fill="white"/>
<path fill-rule="evenodd" clip-rule="evenodd" d="M20.2369 36.4523C20.2342 36.1769 20.2868 35.9037 20.3916 35.6483C20.4965 35.3929 20.6515 35.1603 20.8479 34.9637C21.0443 34.7671 21.2782 34.6105 21.5363 34.5027C21.7943 34.3949 22.0715 34.3381 22.3519 34.3354H33.6487C33.9291 34.3381 34.2062 34.3949 34.4643 34.5027C34.7223 34.6105 34.9563 34.7671 35.1527 34.9637C35.349 35.1603 35.5041 35.3929 35.6089 35.6483C35.7138 35.9037 35.7663 36.1769 35.7636 36.4523V42.0839C35.765 42.1765 35.7475 42.2685 35.7124 42.3544C35.6772 42.4404 35.625 42.5186 35.5588 42.5846C35.4926 42.6506 35.4136 42.7029 35.3266 42.7387C35.2396 42.7744 35.1462 42.7929 35.0519 42.7928H20.9385C20.845 42.7915 20.7527 42.7722 20.6669 42.7358C20.581 42.6995 20.5033 42.6469 20.4382 42.5811C20.373 42.5152 20.3217 42.4374 20.2872 42.3521C20.2527 42.2668 20.2356 42.1757 20.2369 42.0839V36.4523ZM22.3519 35.7433C22.2584 35.7446 22.1661 35.764 22.0803 35.8004C21.9944 35.8367 21.9167 35.8893 21.8516 35.9551C21.7864 36.0209 21.7351 36.0987 21.7006 36.184C21.666 36.2693 21.649 36.3605 21.6503 36.4523V41.3849H34.3503V36.4523C34.3516 36.3605 34.3345 36.2693 34.3 36.184C34.2655 36.0987 34.2141 36.0209 34.149 35.9551C34.0838 35.8893 34.0062 35.8367 33.9203 35.8004C33.8345 35.764 33.7421 35.7446 33.6487 35.7433H22.3519Z" fill="#777575"/>
<path fill-rule="evenodd" clip-rule="evenodd" d="M34.3507 16.7319C34.3493 16.6401 34.3664 16.549 34.4009 16.4637C34.4355 16.3783 34.4868 16.3005 34.5519 16.2347C34.6171 16.1689 34.6948 16.1163 34.7806 16.08C34.8665 16.0436 34.9588 16.0243 35.0523 16.0229H37.4519C37.9588 16.0294 38.4585 16.1418 38.9176 16.3527C39.3768 16.5636 39.7849 16.8681 40.1149 17.246C40.4449 17.6239 40.6891 18.0665 40.8313 18.5442C40.9735 19.022 41.0104 19.5241 40.9396 20.017L40.3397 24.2407C40.2181 25.0684 39.7982 25.8258 39.1564 26.3754C38.5146 26.9251 37.6934 27.2305 36.8419 27.2362H35.0523C34.9588 27.2349 34.8665 27.2156 34.7806 27.1792C34.6948 27.1429 34.6171 27.0903 34.5519 27.0245C34.4868 26.9586 34.4355 26.8808 34.4009 26.7955C34.3664 26.7102 34.3493 26.6191 34.3507 26.5273V16.7319ZM35.764 17.4309V25.8882H36.8419C37.3557 25.8852 37.8511 25.6995 38.2362 25.3653C38.6213 25.0312 38.8701 24.5714 38.9365 24.071L39.5466 19.8472C39.5915 19.5499 39.5713 19.2466 39.487 18.9576C39.4028 18.6687 39.2565 18.4008 39.0581 18.1719C38.8597 17.943 38.6138 17.7585 38.3367 17.6306C38.0597 17.5028 37.758 17.4347 37.4519 17.4309H35.764Z" fill="#777575"/>
<path fill-rule="evenodd" clip-rule="evenodd" d="M21.6503 16.7319C21.6516 16.6393 21.6342 16.5473 21.599 16.4614C21.5639 16.3754 21.5116 16.2972 21.4454 16.2312C21.3792 16.1652 21.3003 16.1128 21.2132 16.0771C21.1262 16.0413 21.0328 16.0229 20.9385 16.0229H18.549C18.0422 16.0294 17.5425 16.1418 17.0833 16.3527C16.6242 16.5636 16.216 16.8681 15.886 17.246C15.5561 17.6239 15.3119 18.0665 15.1697 18.5442C15.0275 19.022 14.9906 19.5241 15.0614 20.017L15.6612 24.2407C15.7809 25.0692 16.2002 25.8278 16.8424 26.3778C17.4846 26.9278 18.3069 27.2325 19.1591 27.2362H20.9385C21.0328 27.2363 21.1262 27.2178 21.2132 27.1821C21.3003 27.1463 21.3792 27.094 21.4454 27.028C21.5116 26.962 21.5639 26.8838 21.599 26.7978C21.6342 26.7119 21.6516 26.6199 21.6503 26.5273V16.7319ZM20.2369 17.4309V25.8882H19.1591C18.6447 25.8835 18.1491 25.6973 17.7628 25.3637C17.3764 25.0302 17.125 24.5714 17.0543 24.071L16.4544 19.8472C16.4077 19.5497 16.4267 19.2457 16.5103 18.956C16.5939 18.6664 16.74 18.3978 16.9388 18.1685C17.1375 17.9392 17.3842 17.7547 17.662 17.6274C17.9399 17.5001 18.2424 17.4331 18.549 17.4309H20.2369Z" fill="#777575"/>
<path fill-rule="evenodd" clip-rule="evenodd" d="M18.1221 41.3848H38.2346V42.7927H18.1221V41.3848Z" fill="#777575"/>
</g>
</svg>
