<svg width="57" height="56" viewBox="0 0 57 56" fill="none" xmlns="http://www.w3.org/2000/svg">
<rect width="56" height="56" transform="translate(0.115723)" fill="white"/>
<path d="M28.1162 46C24.3584 46 20.6849 44.8857 17.5604 42.7979C14.4359 40.7102 12.0006 37.7428 10.5625 34.271C9.12444 30.7992 8.74818 26.9789 9.4813 23.2933C10.2144 19.6077 12.024 16.2222 14.6812 13.565C17.3384 10.9078 20.7239 9.09821 24.4095 8.36509C28.0951 7.63197 31.9154 8.00823 35.3872 9.4463C38.859 10.8844 41.8264 13.3196 43.9141 16.4442C46.0019 19.5687 47.1162 23.2422 47.1162 27C47.1162 29.4951 46.6248 31.9658 45.6699 34.271C44.7151 36.5762 43.3156 38.6707 41.5512 40.435C39.7869 42.1994 37.6924 43.5989 35.3872 44.5537C33.082 45.5086 30.6113 46 28.1162 46ZM28.1162 10C24.7539 10 21.4672 10.997 18.6715 12.865C15.8759 14.733 13.697 17.388 12.4103 20.4944C11.1236 23.6007 10.7869 27.0189 11.4429 30.3165C12.0988 33.6142 13.7179 36.6433 16.0954 39.0208C18.4729 41.3983 21.502 43.0174 24.7997 43.6734C28.0974 44.3293 31.5155 43.9927 34.6218 42.706C37.7282 41.4193 40.3832 39.2403 42.2512 36.4447C44.1192 33.6491 45.1162 30.3623 45.1162 27C45.1162 22.4913 43.3251 18.1673 40.137 14.9792C36.9489 11.7911 32.6249 10 28.1162 10Z" fill="#777575"/>
<path d="M19.7861 31.71C18.8961 31.71 18.0261 31.446 17.2861 30.9516C16.546 30.4571 15.9693 29.7543 15.6287 28.932C15.2881 28.1098 15.199 27.205 15.3726 26.3321C15.5462 25.4591 15.9748 24.6573 16.6042 24.028C17.2335 23.3986 18.0353 22.9701 18.9082 22.7964C19.7811 22.6228 20.6859 22.7119 21.5082 23.0525C22.3305 23.3931 23.0333 23.9699 23.5277 24.7099C24.0222 25.4499 24.2861 26.3199 24.2861 27.21C24.2835 28.4026 23.8085 29.5457 22.9652 30.389C22.1219 31.2324 20.9788 31.7073 19.7861 31.71ZM19.7861 24.71C19.2917 24.71 18.8083 24.8566 18.3972 25.1313C17.9861 25.406 17.6656 25.7964 17.4764 26.2533C17.2872 26.7101 17.2377 27.2127 17.3342 27.6977C17.4306 28.1826 17.6687 28.6281 18.0184 28.9777C18.368 29.3274 18.8135 29.5655 19.2984 29.6619C19.7834 29.7584 20.286 29.7089 20.7428 29.5197C21.1997 29.3304 21.5901 29.01 21.8648 28.5989C22.1395 28.1878 22.2861 27.7044 22.2861 27.21C22.2861 26.5469 22.0227 25.911 21.5539 25.4422C21.0851 24.9734 20.4492 24.71 19.7861 24.71Z" fill="#777575"/>
<path d="M16.4959 25.7497C10.9659 20.8697 2.0659 12.1897 4.5659 8.92972C5.1059 8.22972 6.7459 6.07971 17.5659 12.1897L16.5659 13.9397C8.8059 9.56971 6.3359 9.83972 6.0959 10.1497C5.6259 10.7497 7.5359 15.2197 17.7559 24.2497L16.4959 25.7497Z" fill="#777575"/>
<path d="M49.3661 45.8902C47.5861 45.8902 44.9361 45.0002 41.3661 43.2202C35.3146 40.0152 29.5588 36.2806 24.1661 32.0602C23.5961 31.6202 23.0261 31.1902 22.4761 30.7502L23.7161 29.1802L25.3761 30.4702C30.6676 34.632 36.32 38.3133 42.2661 41.4702C47.9761 44.3502 49.8361 44.0502 50.0161 43.8102C50.1961 43.5702 49.9161 41.2702 44.3761 35.4502L45.8361 34.0002C53.6961 42.2402 52.1361 44.2802 51.6261 45.0002C51.3466 45.3167 50.996 45.5623 50.6031 45.717C50.2103 45.8718 49.7863 45.9311 49.3661 45.8902Z" fill="#777575"/>
<path d="M47.6162 13C46.8251 13 46.0517 12.7654 45.3939 12.3259C44.7361 11.8864 44.2235 11.2616 43.9207 10.5307C43.6179 9.79983 43.5387 8.99556 43.6931 8.21964C43.8474 7.44372 44.2284 6.73099 44.7878 6.17158C45.3472 5.61217 46.0599 5.2312 46.8358 5.07686C47.6118 4.92252 48.416 5.00173 49.1469 5.30448C49.8778 5.60723 50.5026 6.11992 50.9421 6.77772C51.3816 7.43552 51.6162 8.20888 51.6162 9C51.6162 10.0609 51.1948 11.0783 50.4446 11.8284C49.6945 12.5786 48.6771 13 47.6162 13ZM47.6162 7C47.2206 7 46.834 7.1173 46.5051 7.33706C46.1762 7.55682 45.9198 7.86918 45.7684 8.23464C45.6171 8.60009 45.5775 9.00222 45.6546 9.39018C45.7318 9.77815 45.9223 10.1345 46.202 10.4142C46.4817 10.6939 46.8381 10.8844 47.226 10.9616C47.614 11.0387 48.0161 10.9991 48.3816 10.8478C48.747 10.6964 49.0594 10.44 49.2791 10.1111C49.4989 9.78225 49.6162 9.39557 49.6162 9C49.6162 8.46957 49.4055 7.96086 49.0304 7.58579C48.6554 7.21071 48.1466 7 47.6162 7Z" fill="#777575"/>
<path d="M10.6162 51C9.7262 51 8.85617 50.7361 8.11615 50.2416C7.37612 49.7472 6.79935 49.0443 6.45876 48.2221C6.11816 47.3998 6.02904 46.495 6.20268 45.6221C6.37631 44.7492 6.80489 43.9474 7.43423 43.318C8.06357 42.6887 8.86539 42.2601 9.73831 42.0865C10.6112 41.9128 11.516 42.002 12.3383 42.3425C13.1606 42.6831 13.8634 43.2599 14.3578 43.9999C14.8523 44.74 15.1162 45.61 15.1162 46.5C15.1136 47.6927 14.6386 48.8357 13.7953 49.6791C12.9519 50.5224 11.8089 50.9974 10.6162 51ZM10.6162 44C10.1218 44 9.63841 44.1466 9.22729 44.4213C8.81617 44.696 8.49573 45.0865 8.30651 45.5433C8.1173 46.0001 8.06779 46.5028 8.16425 46.9877C8.26071 47.4727 8.49881 47.9181 8.84845 48.2678C9.19808 48.6174 9.64354 48.8555 10.1285 48.952C10.6134 49.0484 11.1161 48.9989 11.5729 48.8097C12.0297 48.6205 12.4202 48.3 12.6949 47.8889C12.9696 47.4778 13.1162 46.9945 13.1162 46.5C13.1162 45.837 12.8528 45.2011 12.384 44.7322C11.9151 44.2634 11.2793 44 10.6162 44Z" fill="#777575"/>
</svg>
