<svg width="57" height="56" viewBox="0 0 57 56" fill="none" xmlns="http://www.w3.org/2000/svg">
<rect width="56" height="56" transform="translate(0.115723)" fill="white"/>
<path fill-rule="evenodd" clip-rule="evenodd" d="M14.2305 20.0761C14.2305 18.2522 15.7103 16.7744 17.5365 16.7744H22.8262C23.8669 16.7744 24.8469 17.2631 25.471 18.0951L27.8514 21.2647C28.2256 21.7639 28.8141 22.0571 29.4383 22.0571H38.6952C40.5215 22.0571 42.0013 23.5349 42.0013 25.3587V35.924C42.0013 37.7479 40.5215 39.2257 38.6952 39.2257H17.5365C15.7103 39.2257 14.2305 37.7479 14.2305 35.924V20.0761ZM17.5365 18.0951C16.4416 18.0951 15.5529 18.9826 15.5529 20.0761V35.924C15.5529 37.0175 16.4416 37.905 17.5365 37.905H38.6952C39.7902 37.905 40.6789 37.0175 40.6789 35.924V25.3587C40.6789 24.2652 39.7902 23.3777 38.6952 23.3777H29.4383C28.3976 23.3777 27.4176 22.8891 26.7935 22.0571L24.4131 18.8875C24.0389 18.3883 23.4504 18.0951 22.8262 18.0951H17.5365Z" fill="#FFC700"/>
<path fill-rule="evenodd" clip-rule="evenodd" d="M24.8808 18.4607C24.9919 18.2375 25.222 18.0962 25.4719 18.0962H37.7043C39.5306 18.0962 41.0104 19.574 41.0104 21.3979V22.7185C41.0104 23.083 40.7141 23.3788 40.3492 23.3788H29.7698C28.7291 23.3788 27.7491 22.8902 27.125 22.0582L24.9429 19.1527C24.7922 18.952 24.7684 18.6852 24.8808 18.4607ZM26.7944 19.4169L28.1829 21.2658C28.5571 21.765 29.1456 22.0582 29.7698 22.0582H39.6879V21.3979C39.6879 20.3043 38.7993 19.4169 37.7043 19.4169H26.7944Z" fill="#FFC700"/>
</svg>
