<svg width="56" height="56" viewBox="0 0 56 56" fill="none" xmlns="http://www.w3.org/2000/svg">
<rect width="56" height="56" fill="white"/>
<path fill-rule="evenodd" clip-rule="evenodd" d="M30.7755 14.5195C29.5305 12.4058 26.4695 12.4058 25.2244 14.5195L11.2652 38.2185C10.003 40.3622 11.5507 43.0654 14.0407 43.0654H41.9592C44.4493 43.0654 45.9969 40.3622 44.7347 38.2185L30.7755 14.5195ZM23.3741 13.4326C25.4498 9.91048 30.5501 9.91048 32.6259 13.4326L46.5851 37.1316C48.6888 40.7052 46.1107 45.2092 41.9592 45.2092H14.0407C9.88925 45.2092 7.31121 40.7052 9.41486 37.1316L23.3741 13.4326Z" fill="#777474"/>
<path fill-rule="evenodd" clip-rule="evenodd" d="M26.9258 31.2726V18.4102H29.0724V31.2726H26.9258Z" fill="#777474"/>
<path fill-rule="evenodd" clip-rule="evenodd" d="M26.9258 38.78V35.562H29.0724V38.78H26.9258Z" fill="#777474"/>
</svg>
