<svg width="57" height="56" viewBox="0 0 57 56" fill="none" xmlns="http://www.w3.org/2000/svg">
<rect width="56" height="56" transform="translate(0.737305)" fill="white"/>
<path fill-rule="evenodd" clip-rule="evenodd" d="M14.083 35.3173V30.6958H15.6256V35.3173C15.6256 36.5929 16.6622 37.6281 17.9394 37.6281H39.5352C40.8125 37.6281 41.8491 36.5929 41.8491 35.3173V30.6958H43.3916V35.3173C43.3916 37.4448 41.6655 39.1686 39.5352 39.1686H17.9394C15.8091 39.1686 14.083 37.4448 14.083 35.3173Z" fill="#00FF00"/>
<path fill-rule="evenodd" clip-rule="evenodd" d="M27.9663 33.7767V16.8311H29.5089V33.7767H27.9663Z" fill="#00FF00"/>
<path fill-rule="evenodd" clip-rule="evenodd" d="M28.7377 34.5482C28.5032 34.5482 28.2826 34.4419 28.1361 34.2586L21.9658 26.556L23.1706 25.5947L28.7377 32.5456L34.3063 25.5947L35.511 26.556L29.3408 34.2586C29.1943 34.4419 28.9722 34.5482 28.7377 34.5482Z" fill="#00FF00"/>
</svg>
