<svg width="56" height="56" viewBox="0 0 56 56" fill="none" xmlns="http://www.w3.org/2000/svg">
<rect width="56" height="56" fill="white"/>
<path d="M27.9976 44.1803C25.5846 44.1689 23.2041 43.6227 21.0274 42.5811C18.8508 41.5394 16.9321 40.0282 15.4096 38.1561C13.887 36.2841 12.7984 34.0978 12.222 31.7546C11.6457 29.4114 11.5959 26.9695 12.0764 24.6048C12.5569 22.2401 13.5556 20.0113 15.0007 18.0788C16.4458 16.1463 18.3013 14.5582 20.4338 13.4288C22.5662 12.2994 24.9225 11.6567 27.333 11.5471C29.7436 11.4375 32.1485 11.8636 34.3746 12.7949C37.8496 14.2618 40.7099 16.8861 42.4699 20.2223C44.2299 23.5584 44.7812 27.4008 44.0301 31.0973C43.2791 34.7937 41.272 38.1163 38.3496 40.5011C35.4272 42.8858 31.7695 44.1858 27.9976 44.1803ZM27.9976 13.6345C26.1568 13.6399 24.3343 14.0008 22.6303 14.6973C19.3888 16.0318 16.7599 18.5248 15.2554 21.691C13.7509 24.8571 13.4783 28.4698 14.4909 31.8258C15.5034 35.1818 17.7285 38.041 20.7331 39.8467C23.7377 41.6524 27.3067 42.2754 30.7453 41.5945C34.184 40.9135 37.2462 38.9774 39.3359 36.1629C41.4256 33.3485 42.3932 29.8571 42.0504 26.3685C41.7075 22.8798 40.0788 19.6436 37.4812 17.2898C34.8836 14.936 31.503 13.633 27.9976 13.6345Z" fill="#777575"/>
<path d="M38.9874 40.1629L38.5835 38.0372L47.7345 36.2517L42.601 28.4611L44.3759 27.292L49.8495 35.5927C50.0009 35.8308 50.0934 36.1015 50.1193 36.3825C50.1452 36.6634 50.1037 36.9465 49.9983 37.2082C49.8936 37.4754 49.7243 37.7123 49.5054 37.8979C49.2865 38.0834 49.0249 38.2116 48.7442 38.271L38.9874 40.1629Z" fill="#777575"/>
<path d="M11.5342 28.6101L6.03935 20.3094C5.8839 20.0773 5.78765 19.8106 5.75901 19.5327C5.73038 19.2548 5.77022 18.9741 5.87507 18.7151C5.97991 18.4562 6.14655 18.2268 6.36046 18.0471C6.57436 17.8674 6.82902 17.7428 7.10218 17.6842L16.8484 15.7817L17.2629 17.9074L8.16501 19.6504L13.2985 27.441L11.5342 28.6101Z" fill="#777575"/>
<path d="M44.4073 28.78L42.643 27.5896L47.8509 19.8628L38.7212 17.9816L39.1463 15.856L48.8819 17.8647C49.1618 17.923 49.4225 18.051 49.6398 18.2368C49.8572 18.4226 50.0242 18.6601 50.1254 18.9275C50.2303 19.1886 50.2697 19.4714 50.24 19.7511C50.2104 20.0309 50.1126 20.2992 49.9553 20.5324L44.4073 28.78Z" fill="#777575"/>
<path d="M16.7952 40.0457L7.10218 38.0369C6.82902 37.9783 6.57436 37.8537 6.36046 37.674C6.14655 37.4943 5.97991 37.265 5.87507 37.006C5.77022 36.747 5.73038 36.4664 5.75901 36.1885C5.78765 35.9106 5.8839 35.6439 6.03935 35.4118L11.598 27.1748L13.3516 28.3652L8.14375 36.092L17.2735 37.9732L16.7952 40.0457Z" fill="#777575"/>
<path d="M38.073 17.3438L36.2981 8.19284L28.5075 13.3157L27.2959 11.5301L35.5966 6.06718C35.8287 5.91173 36.0954 5.81548 36.3733 5.78685C36.6512 5.75821 36.9319 5.79805 37.1909 5.90289C37.4498 6.00773 37.6792 6.17438 37.8589 6.38829C38.0386 6.6022 38.1632 6.85685 38.2218 7.13001L40.1243 16.8868L38.073 17.3438Z" fill="#777575"/>
<path d="M19.3669 50.1638C19.1371 50.16 18.9099 50.1132 18.6973 50.0257C18.4286 49.9235 18.1902 49.7549 18.0043 49.5355C17.8184 49.3162 17.6912 49.0534 17.6345 48.7715L15.7427 39.0147L17.8683 38.6108L19.6433 47.7618L27.4338 42.639L28.6029 44.4139L20.3128 49.8769C20.0329 50.0641 19.7037 50.1639 19.3669 50.1638Z" fill="#777575"/>
<path d="M17.9855 17.2269L15.8599 16.8018L17.858 7.06622C17.9175 6.79115 18.0435 6.53486 18.2251 6.31979C18.4066 6.10472 18.638 5.93742 18.8992 5.83253C19.1603 5.72765 19.4432 5.68838 19.7231 5.71817C20.0029 5.74795 20.2712 5.84589 20.5044 6.00339L28.7414 11.562L27.551 13.3263L19.8561 8.08654L17.9855 17.2269Z" fill="#777575"/>
<path d="M36.3618 50.2915C36.0185 50.2914 35.6825 50.1918 35.3947 50.0046L27.1577 44.4459L28.3587 42.6391L36.0961 47.8576L37.9773 38.7173L40.103 39.1424L38.0943 48.878C38.0359 49.1579 37.908 49.4186 37.7222 49.6359C37.5364 49.8533 37.2988 50.0203 37.0314 50.1215C36.8216 50.2217 36.5941 50.2795 36.3618 50.2915Z" fill="#777575"/>
<path d="M32.0787 27.9717C31.1327 27.9717 30.208 27.6912 29.4215 27.1657C28.635 26.6402 28.022 25.8932 27.66 25.0193C27.298 24.1453 27.2033 23.1837 27.3878 22.2559C27.5723 21.3282 28.0279 20.476 28.6967 19.8071C29.3656 19.1382 30.2178 18.6827 31.1456 18.4982C32.0734 18.3136 33.035 18.4083 33.9089 18.7703C34.7829 19.1323 35.5298 19.7453 36.0554 20.5318C36.5809 21.3184 36.8614 22.2431 36.8614 23.189C36.8586 24.4566 36.3538 25.6715 35.4575 26.5678C34.5612 27.4641 33.3463 27.9689 32.0787 27.9717ZM32.0787 20.5319C31.5531 20.5319 31.0394 20.6877 30.6025 20.9797C30.1655 21.2717 29.8249 21.6867 29.6238 22.1722C29.4227 22.6577 29.3701 23.1919 29.4726 23.7074C29.5752 24.2228 29.8282 24.6962 30.1998 25.0678C30.5714 25.4394 31.0449 25.6925 31.5603 25.795C32.0757 25.8975 32.6099 25.8449 33.0955 25.6438C33.581 25.4427 33.996 25.1021 34.2879 24.6652C34.5799 24.2282 34.7357 23.7145 34.7357 23.189C34.7357 22.4843 34.4558 21.8085 33.9575 21.3102C33.4592 20.8119 32.7834 20.5319 32.0787 20.5319Z" fill="#777575"/>
</svg>
