<svg width="57" height="56" viewBox="0 0 57 56" fill="none" xmlns="http://www.w3.org/2000/svg">
<rect width="56" height="56" transform="translate(0.115723)" fill="white"/>
<path d="M22.5085 27.991C22.5091 25.7999 23.2704 23.677 24.6624 21.9849C26.0543 20.2928 27.9906 19.1365 30.1404 18.7133C29.5457 18.5887 28.9394 18.5281 28.3319 18.5325C27.0538 18.4766 25.7776 18.6801 24.5802 19.1307C23.3829 19.5813 22.2892 20.2696 21.365 21.1543C20.4408 22.0389 19.7054 23.1015 19.2029 24.2781C18.7004 25.4546 18.4414 26.7207 18.4414 28C18.4414 29.2793 18.7004 30.5454 19.2029 31.7219C19.7054 32.8985 20.4408 33.9611 21.365 34.8457C22.2892 35.7304 23.3829 36.4187 24.5802 36.8693C25.7776 37.3199 27.0538 37.5234 28.3319 37.4675C28.9401 37.466 29.5464 37.3993 30.1404 37.2686C27.9906 36.8455 26.0543 35.6891 24.6624 33.997C23.2704 32.3049 22.5091 30.182 22.5085 27.991Z" fill="#FDD015"/>
<path d="M37.7902 27.991C37.7887 25.7974 37.0248 23.6725 35.6293 21.98C34.2337 20.2876 32.2933 19.1328 30.1402 18.7134C27.993 19.1394 26.06 20.297 24.6709 21.9888C23.2818 23.6807 22.5225 25.802 22.5225 27.991C22.5225 30.1801 23.2818 32.3014 24.6709 33.9932C26.06 35.685 27.993 36.8426 30.1402 37.2687C32.2933 36.8492 34.2337 35.6944 35.6293 34.002C37.0248 32.3095 37.7887 30.1846 37.7902 27.991Z" fill="#736357"/>
</svg>
