<svg width="57" height="56" viewBox="0 0 57 56" fill="none" xmlns="http://www.w3.org/2000/svg">
<rect width="56" height="56" transform="translate(0.115723)" fill="white"/>
<path d="M44.1997 32.2482C44.1088 32.2481 44.0182 32.2371 43.9299 32.2155L32.3215 29.392C32.1756 29.357 32.038 29.2935 31.9167 29.2052C31.7954 29.1169 31.6927 29.0055 31.6145 28.8774C31.5362 28.7492 31.4841 28.6069 31.4609 28.4586C31.4378 28.3102 31.4441 28.1588 31.4796 28.0129C31.515 27.867 31.5789 27.7296 31.6675 27.6084C31.7562 27.4873 31.8679 27.3849 31.9961 27.307C32.1244 27.2292 32.2668 27.1774 32.4151 27.1547C32.5634 27.132 32.7147 27.1388 32.8604 27.1748L44.4681 29.9982C44.7393 30.0639 44.977 30.2268 45.1363 30.4561C45.2956 30.6854 45.3653 30.9652 45.3322 31.2424C45.2991 31.5197 45.1656 31.7752 44.9569 31.9606C44.7482 32.1459 44.4788 32.2483 44.1997 32.2482Z" fill="#777575"/>
<path d="M20.583 20.7933C19.8288 20.7934 19.0914 20.5697 18.4642 20.1505C17.837 19.7312 17.3482 19.1352 17.0595 18.4379C16.7707 17.7406 16.6952 16.9732 16.8423 16.2329C16.9894 15.4926 17.3526 14.8126 17.8859 14.2788C18.4192 13.7451 19.0988 13.3816 19.8385 13.2344C20.5783 13.0872 21.3451 13.1628 22.0419 13.4518C22.7387 13.7407 23.3342 14.2299 23.7532 14.8576C24.1721 15.4852 24.3957 16.2231 24.3955 16.9779C24.3943 17.9895 23.9922 18.9592 23.2775 19.6744C22.5628 20.3897 21.5938 20.792 20.583 20.7933ZM20.583 15.4438C20.2798 15.4436 19.9833 15.5335 19.7311 15.702C19.4789 15.8704 19.2823 16.11 19.1661 16.3903C19.05 16.6706 19.0195 16.9791 19.0786 17.2768C19.1377 17.5744 19.2836 17.8479 19.498 18.0625C19.7124 18.2772 19.9855 18.4233 20.2829 18.4826C20.5803 18.5419 20.8886 18.5115 21.1688 18.3954C21.4489 18.2793 21.6884 18.0827 21.8569 17.8304C22.0254 17.5781 22.1153 17.2814 22.1153 16.9779C22.1139 16.5719 21.9519 16.1829 21.6648 15.896C21.3777 15.6091 20.9888 15.4476 20.583 15.4468V15.4438Z" fill="#777575"/>
<path d="M9.43237 19.2825C8.67818 19.2825 7.94094 19.0587 7.31386 18.6394C6.68678 18.2201 6.19802 17.6241 5.90941 16.9268C5.62079 16.2295 5.54528 15.4622 5.69241 14.722C5.83955 13.9817 6.20272 13.3018 6.73601 12.7681C7.2693 12.2344 7.94876 11.871 8.68845 11.7237C9.42814 11.5765 10.1948 11.652 10.8916 11.9409C11.5884 12.2297 12.1839 12.7188 12.603 13.3464C13.022 13.9739 13.2456 14.7117 13.2456 15.4665C13.2446 16.4782 12.8425 17.4483 12.1276 18.1637C11.4127 18.8791 10.4434 19.2815 9.43237 19.2825ZM9.43237 13.933C9.12913 13.933 8.83271 14.023 8.58058 14.1916C8.32846 14.3603 8.13196 14.5999 8.01595 14.8803C7.89994 15.1607 7.86963 15.4692 7.92884 15.7668C7.98806 16.0644 8.13413 16.3378 8.34861 16.5523C8.56309 16.7668 8.83633 16.9129 9.13376 16.972C9.43119 17.0311 9.73946 17.0006 10.0196 16.8844C10.2997 16.7682 10.5391 16.5714 10.7074 16.319C10.8758 16.0666 10.9656 15.7699 10.9654 15.4665C10.965 15.0598 10.8034 14.6698 10.5159 14.3823C10.2285 14.0948 9.83876 13.9332 9.43237 13.933Z" fill="#777575"/>
<path d="M29.9934 31.4681C29.2392 31.4681 28.502 31.2443 27.8749 30.8249C27.2478 30.4056 26.759 29.8096 26.4704 29.1123C26.1818 28.4151 26.1063 27.6478 26.2535 26.9075C26.4006 26.1673 26.7637 25.4873 27.297 24.9536C27.8303 24.42 28.5098 24.0565 29.2495 23.9093C29.9892 23.762 30.7559 23.8376 31.4527 24.1264C32.1494 24.4152 32.745 24.9044 33.164 25.5319C33.583 26.1595 33.8066 26.8973 33.8066 27.652C33.8056 28.6638 33.4035 29.6338 32.6886 30.3493C31.9737 31.0647 31.0044 31.4671 29.9934 31.4681ZM29.9934 26.1186C29.6902 26.1186 29.3937 26.2086 29.1416 26.3772C28.8895 26.5458 28.693 26.7855 28.577 27.0658C28.461 27.3462 28.4306 27.6547 28.4899 27.9524C28.5491 28.25 28.6952 28.5233 28.9096 28.7379C29.1241 28.9524 29.3974 29.0985 29.6948 29.1576C29.9922 29.2167 30.3005 29.1862 30.5806 29.07C30.8607 28.9537 31.1001 28.7569 31.2684 28.5046C31.4368 28.2522 31.5266 27.9555 31.5265 27.652C31.5261 27.2453 31.3644 26.8554 31.0769 26.5679C30.7895 26.2804 30.3998 26.1188 29.9934 26.1186Z" fill="#777575"/>
<path d="M42.7906 45.4046C42.0363 45.4048 41.299 45.1811 40.6718 44.7618C40.0446 44.3426 39.5558 43.7467 39.2671 43.0494C38.9783 42.3521 38.9027 41.5848 39.0497 40.8445C39.1968 40.1042 39.5599 39.4242 40.0932 38.8904C40.6264 38.3567 41.3059 37.9931 42.0456 37.8458C42.7853 37.6985 43.5521 37.7741 44.2489 38.0629C44.9457 38.3517 45.5413 38.8408 45.9603 39.4684C46.3794 40.0959 46.603 40.8337 46.603 41.5885C46.6018 42.6001 46.1998 43.5699 45.4851 44.2853C44.7704 45.0007 43.8014 45.4032 42.7906 45.4046ZM42.7906 40.0544C42.4873 40.0542 42.1909 40.144 41.9386 40.3125C41.6864 40.481 41.4898 40.7206 41.3737 41.0009C41.2575 41.2812 41.227 41.5897 41.2861 41.8874C41.3452 42.185 41.4911 42.4585 41.7055 42.6731C41.9199 42.8877 42.193 43.0339 42.4904 43.0932C42.7878 43.1524 43.0961 43.1221 43.3763 43.006C43.6565 42.8899 43.8959 42.6933 44.0644 42.441C44.2329 42.1887 44.3228 41.892 44.3228 41.5885C44.3222 41.182 44.1606 40.7922 43.8734 40.5046C43.5862 40.2171 43.1968 40.0552 42.7906 40.0544Z" fill="#777575"/>
<path d="M29.0388 42.7298C28.2846 42.7298 27.5474 42.506 26.9203 42.0867C26.2932 41.6673 25.8045 41.0714 25.5159 40.3741C25.2272 39.6768 25.1517 38.9095 25.2989 38.1693C25.446 37.429 25.8092 36.749 26.3425 36.2154C26.8757 35.6817 27.5552 35.3182 28.2949 35.171C29.0346 35.0237 29.8013 35.0993 30.4981 35.3881C31.1949 35.677 31.7904 36.1661 32.2094 36.7936C32.6284 37.4212 32.852 38.159 32.852 38.9137C32.851 39.9255 32.449 40.8955 31.7341 41.611C31.0192 42.3264 30.0498 42.7288 29.0388 42.7298ZM29.0388 37.3803C28.7356 37.3803 28.4391 37.4703 28.187 37.6389C27.9349 37.8075 27.7384 38.0472 27.6224 38.3275C27.5064 38.6079 27.4761 38.9165 27.5353 39.2141C27.5945 39.5117 27.7406 39.7851 27.955 39.9996C28.1695 40.2141 28.4428 40.3602 28.7402 40.4193C29.0376 40.4784 29.3459 40.4479 29.626 40.3317C29.9061 40.2154 30.1455 40.0187 30.3139 39.7663C30.4822 39.5139 30.572 39.2172 30.5719 38.9137C30.5715 38.507 30.4098 38.1171 30.1224 37.8296C29.8349 37.5421 29.4452 37.3805 29.0388 37.3803Z" fill="#777575"/>
<path d="M46.7961 35.554C46.0419 35.554 45.3046 35.3302 44.6775 34.9108C44.0504 34.4915 43.5617 33.8954 43.2731 33.1981C42.9845 32.5008 42.909 31.7334 43.0562 30.9932C43.2034 30.2529 43.5667 29.573 44.1001 29.0393C44.6334 28.5056 45.3129 28.1423 46.0527 27.9951C46.7924 27.848 47.5592 27.9236 48.2559 28.2126C48.9527 28.5015 49.5482 28.9907 49.9671 29.6184C50.386 30.246 50.6095 30.9839 50.6094 31.7387C50.6082 32.7503 50.206 33.7202 49.4911 34.4355C48.7763 35.1507 47.807 35.553 46.7961 35.554ZM46.7961 30.2045C46.4929 30.2045 46.1965 30.2945 45.9444 30.4631C45.6923 30.6316 45.4958 30.8712 45.3798 31.1516C45.2638 31.4319 45.2334 31.7404 45.2926 32.038C45.3517 32.3356 45.4977 32.609 45.7121 32.8235C45.9265 33.0381 46.1997 33.1842 46.4971 33.2434C46.7944 33.3026 47.1027 33.2722 47.3828 33.1561C47.6629 33.04 47.9024 32.8433 48.0708 32.591C48.2393 32.3387 48.3292 32.0421 48.3292 31.7387C48.329 31.3317 48.1675 30.9415 47.8801 30.6536C47.5926 30.3656 47.2028 30.2036 46.7961 30.203V30.2045Z" fill="#777575"/>
<path d="M17.9362 17.7597C17.8853 17.7598 17.8345 17.7562 17.7842 17.749L11.9317 16.9557C11.7801 16.9397 11.6333 16.8933 11.4999 16.8195C11.3665 16.7457 11.2493 16.6458 11.1551 16.5258C11.0609 16.4059 10.9918 16.2682 10.9517 16.121C10.9116 15.9738 10.9015 15.8201 10.9218 15.6689C10.9421 15.5177 10.9926 15.3722 11.0701 15.2408C11.1476 15.1095 11.2507 14.995 11.3732 14.9042C11.4957 14.8134 11.6351 14.7482 11.7833 14.7122C11.9314 14.6763 12.0853 14.6705 12.2357 14.6951L18.0882 15.4885C18.3741 15.5278 18.6345 15.6742 18.8167 15.8981C18.999 16.1221 19.0897 16.4068 19.0704 16.695C19.0511 16.9832 18.9233 17.2533 18.7128 17.4509C18.5023 17.6485 18.2248 17.7588 17.9362 17.7597Z" fill="#777575"/>
<path d="M28.2265 26.7878C28.0646 26.7879 27.9045 26.7535 27.757 26.6869C27.6094 26.6202 27.4777 26.5229 27.3706 26.4014L21.4961 19.7383C21.3971 19.6259 21.3211 19.4952 21.2725 19.3534C21.224 19.2116 21.2038 19.0617 21.2132 18.9121C21.2225 18.7626 21.2612 18.6163 21.327 18.4817C21.3929 18.3471 21.4846 18.2268 21.5968 18.1277C21.7091 18.0286 21.8398 17.9525 21.9815 17.9039C22.1231 17.8553 22.273 17.8352 22.4224 17.8445C22.5719 17.8539 22.718 17.8926 22.8525 17.9585C22.987 18.0244 23.1072 18.1161 23.2063 18.2285L29.0808 24.8916C29.2261 25.0562 29.3208 25.2593 29.3536 25.4764C29.3864 25.6936 29.3558 25.9156 29.2656 26.1158C29.1754 26.316 29.0294 26.4859 28.8451 26.6051C28.6607 26.7243 28.4459 26.7878 28.2265 26.7878Z" fill="#777575"/>
<path d="M29.2662 37.3903C29.2343 37.3903 29.2016 37.3903 29.1689 37.3903C29.0197 37.3777 28.8744 37.3357 28.7413 37.2669C28.6083 37.198 28.4902 37.1036 28.3936 36.989C28.297 36.8745 28.224 36.742 28.1786 36.5991C28.1332 36.4563 28.1164 36.3059 28.1291 36.1566L28.6315 30.2237C28.657 29.9221 28.8012 29.643 29.0323 29.4478C29.2634 29.2526 29.5626 29.1573 29.864 29.1828C30.1653 29.2083 30.4442 29.3526 30.6393 29.5839C30.8344 29.8152 30.9296 30.1146 30.9041 30.4161L30.4009 36.349C30.3761 36.6331 30.2458 36.8976 30.0357 37.0903C29.8257 37.2831 29.5512 37.3901 29.2662 37.3903Z" fill="#777575"/>
<path d="M43.7948 40.2522C43.6079 40.2522 43.4238 40.2062 43.2588 40.1182C43.0939 40.0303 42.953 39.9031 42.8487 39.7478C42.7444 39.5926 42.6799 39.4141 42.6608 39.228C42.6416 39.0419 42.6685 38.854 42.7391 38.6807L44.7297 33.7861C44.8437 33.5058 45.0643 33.2823 45.3429 33.1648C45.6216 33.0472 45.9355 33.0453 46.2156 33.1594C46.4957 33.2735 46.719 33.4942 46.8365 33.7731C46.9539 34.0519 46.9559 34.3661 46.8419 34.6464L44.8513 39.541C44.7658 39.7513 44.6197 39.9313 44.4315 40.0579C44.2433 40.1846 44.0216 40.2523 43.7948 40.2522Z" fill="#777575"/>
<path d="M40.1678 42.221C40.0944 42.221 40.021 42.2139 39.9489 42.1997L31.4454 40.5477C31.2984 40.519 31.1585 40.4617 31.0336 40.379C30.9088 40.2963 30.8015 40.1898 30.7178 40.0655C30.6341 39.9413 30.5756 39.8018 30.5458 39.6549C30.516 39.5081 30.5153 39.3568 30.5439 39.2097C30.5725 39.0626 30.6298 38.9226 30.7125 38.7977C30.7951 38.6728 30.9016 38.5653 31.0257 38.4816C31.1499 38.3978 31.2893 38.3393 31.436 38.3095C31.5827 38.2796 31.7339 38.279 31.8809 38.3076L40.3837 39.9612C40.6623 40.0149 40.9109 40.1705 41.0809 40.3977C41.251 40.625 41.3303 40.9075 41.3033 41.1901C41.2763 41.4727 41.145 41.7351 40.935 41.9261C40.7251 42.117 40.4515 42.2227 40.1678 42.2226V42.221Z" fill="#777575"/>
<path d="M13.277 50.5116C12.9746 50.5116 12.6846 50.3914 12.4708 50.1774C12.257 49.9635 12.1369 49.6733 12.1369 49.3707C12.1353 47.9441 11.5683 46.5765 10.5603 45.5678C9.55234 44.559 8.1857 43.9916 6.76021 43.99C6.45784 43.99 6.16785 43.8698 5.95405 43.6558C5.74024 43.4419 5.62012 43.1517 5.62012 42.8491C5.62012 42.5465 5.74024 42.2563 5.95405 42.0423C6.16785 41.8283 6.45784 41.7081 6.76021 41.7081C8.18564 41.7063 9.55216 41.1388 10.5601 40.1302C11.568 39.1215 12.1351 37.7539 12.1369 36.3275C12.1369 36.0249 12.257 35.7347 12.4708 35.5207C12.6846 35.3067 12.9746 35.1865 13.277 35.1865C13.5794 35.1865 13.8693 35.3067 14.0832 35.5207C14.297 35.7347 14.4171 36.0249 14.4171 36.3275C14.4187 37.754 14.9857 39.1217 15.9936 40.1304C17.0016 41.1391 18.3683 41.7065 19.7937 41.7081C20.0961 41.7081 20.3861 41.8283 20.5999 42.0423C20.8137 42.2563 20.9338 42.5465 20.9338 42.8491C20.9338 43.1517 20.8137 43.4419 20.5999 43.6558C20.3861 43.8698 20.0961 43.99 19.7937 43.99C18.3683 43.9916 17.0016 44.559 15.9936 45.5678C14.9857 46.5765 14.4187 47.9441 14.4171 49.3707C14.4171 49.6733 14.297 49.9635 14.0832 50.1774C13.8693 50.3914 13.5794 50.5116 13.277 50.5116ZM10.7764 42.8491C11.7923 43.4782 12.6483 44.3349 13.277 45.3515C13.9054 44.3347 14.7615 43.478 15.7776 42.8491C14.7617 42.2199 13.9056 41.3633 13.277 40.3466C12.648 41.3628 11.792 42.2192 10.7764 42.8483V42.8491Z" fill="#777575"/>
<path d="M47.2627 18.7646C47.1278 18.7645 46.9941 18.7405 46.8675 18.6939L43.6927 17.5187L40.5187 18.6939C40.3427 18.759 40.1534 18.7797 39.9675 18.754C39.7816 18.7283 39.605 18.6571 39.4532 18.5468C39.3014 18.4364 39.1791 18.2902 39.0973 18.1212C39.0155 17.9522 38.9766 17.7657 38.9841 17.578L39.1202 14.1933L37.0224 11.5356C36.906 11.3883 36.8278 11.2144 36.7947 11.0295C36.7616 10.8447 36.7746 10.6545 36.8326 10.4758C36.8906 10.2972 36.9917 10.1357 37.1271 10.0055C37.2624 9.87542 37.4277 9.78074 37.6084 9.72991L40.8668 8.81335L42.7442 5.99904C42.8481 5.84214 42.9893 5.71343 43.1551 5.6244C43.3209 5.53536 43.5061 5.48877 43.6942 5.48877C43.8824 5.48877 44.0676 5.53536 44.2334 5.6244C44.3991 5.71343 44.5403 5.84214 44.6443 5.99904L46.5224 8.81335L49.7808 9.72991C49.9615 9.78074 50.1268 9.87542 50.2622 10.0055C50.3975 10.1357 50.4987 10.2972 50.5566 10.4758C50.6146 10.6545 50.6276 10.8447 50.5945 11.0295C50.5614 11.2144 50.4832 11.3883 50.3668 11.5356L48.2691 14.1933L48.4051 17.578C48.4112 17.7317 48.3863 17.8849 48.3318 18.0287C48.2772 18.1724 48.1942 18.3036 48.0877 18.4145C47.9813 18.5253 47.8535 18.6134 47.7121 18.6736C47.5707 18.7338 47.4186 18.7648 47.265 18.7646H47.2627ZM43.6904 15.1608C43.8256 15.1606 43.9598 15.1848 44.0864 15.2323L46.0527 15.9602L45.9683 13.8631C45.9575 13.5909 46.0443 13.3238 46.2131 13.1101L47.5128 11.4641L45.4941 10.8959C45.2321 10.8222 45.005 10.6571 44.8541 10.4304L43.6904 8.681L42.5275 10.4304C42.3766 10.6571 42.1496 10.8222 41.8876 10.8959L39.8688 11.4641L41.1685 13.1101C41.3371 13.324 41.4236 13.591 41.4125 13.8631L41.3289 15.9602L43.2952 15.2323C43.4223 15.1846 43.557 15.1604 43.6927 15.1608H43.6904Z" fill="#777575"/>
<path d="M17.935 31.4678C17.6326 31.4678 17.3426 31.3476 17.1288 31.1336C16.915 30.9196 16.7949 30.6294 16.7949 30.3268V24.9774C16.7949 24.6748 16.915 24.3846 17.1288 24.1706C17.3426 23.9566 17.6326 23.8364 17.935 23.8364C18.2374 23.8364 18.5274 23.9566 18.7412 24.1706C18.955 24.3846 19.0751 24.6748 19.0751 24.9774V30.3268C19.0751 30.6294 18.955 30.9196 18.7412 31.1336C18.5274 31.3476 18.2374 31.4678 17.935 31.4678Z" fill="#777575"/>
<path d="M20.6077 28.7926H15.2622C14.9598 28.7926 14.6698 28.6724 14.456 28.4585C14.2422 28.2445 14.1221 27.9543 14.1221 27.6517C14.1221 27.3491 14.2422 27.0589 14.456 26.8449C14.6698 26.631 14.9598 26.5107 15.2622 26.5107H20.6077C20.91 26.5107 21.2 26.631 21.4138 26.8449C21.6276 27.0589 21.7478 27.3491 21.7478 27.6517C21.7478 27.9543 21.6276 28.2445 21.4138 28.4585C21.2 28.6724 20.91 28.7926 20.6077 28.7926Z" fill="#777575"/>
</svg>
