<svg width="57" height="56" viewBox="0 0 57 56" fill="none" xmlns="http://www.w3.org/2000/svg">
<rect width="56" height="56" transform="translate(0.115723)" fill="white"/>
<path d="M46.7381 47.837C46.5234 47.837 46.3174 47.7517 46.1656 47.5998C46.0137 47.448 45.9284 47.242 45.9284 47.0273C45.9284 42.3031 44.0517 37.7723 40.7112 34.4318C37.3707 31.0912 32.8399 29.2146 28.1157 29.2146C23.3914 29.2146 18.8607 31.0912 15.5202 34.4318C12.1796 37.7723 10.3029 42.3031 10.3029 47.0273C10.3029 47.242 10.2176 47.448 10.0658 47.5998C9.91395 47.7517 9.708 47.837 9.49326 47.837C9.27853 47.837 9.07258 47.7517 8.92074 47.5998C8.7689 47.448 8.68359 47.242 8.68359 47.0273C8.68359 41.8736 10.7309 36.931 14.3751 33.2867C18.0193 29.6425 22.962 27.5952 28.1157 27.5952C33.2694 27.5952 38.212 29.6425 41.8562 33.2867C45.5005 36.931 47.5478 41.8736 47.5478 47.0273C47.5478 47.242 47.4625 47.448 47.3106 47.5998C47.1588 47.7517 46.9528 47.837 46.7381 47.837Z" fill="#FFC700"/>
<path d="M15.3552 40.5498H15.1123C14.3186 40.5056 13.5494 40.2592 12.8777 39.8341C12.206 39.409 11.6541 38.8192 11.2744 38.1208L12.6832 37.3112C12.9159 37.7273 13.2429 38.0832 13.6379 38.3503C14.0329 38.6173 14.485 38.7881 14.9579 38.849C15.4308 38.9099 15.9114 38.8591 16.3612 38.7007C16.811 38.5424 17.2174 38.2809 17.5478 37.9372C17.8783 37.5935 18.1237 37.1771 18.2643 36.7215C18.4049 36.2659 18.4368 35.7837 18.3574 35.3135C18.2781 34.8434 18.0897 34.3983 17.8073 34.0141C17.525 33.6298 17.1566 33.3171 16.7316 33.1009L17.4603 31.6597C18.4338 32.1126 19.2212 32.8875 19.6897 33.8536C20.1581 34.8198 20.2787 35.918 20.0313 36.9628C19.7839 38.0076 19.1836 38.9351 18.3317 39.5886C17.4797 40.2421 16.4284 40.5816 15.3552 40.5498Z" fill="#FFC700"/>
<path d="M39.5074 42.3637H39.1755C37.7604 42.291 36.4073 41.7603 35.3201 40.8516C34.233 39.9429 33.4707 38.7054 33.1481 37.3257C32.8256 35.9459 32.9603 34.4987 33.5319 33.2022C34.1035 31.9057 35.0811 30.8302 36.3173 30.1377L37.127 31.5465C36.1965 32.0668 35.4605 32.8755 35.0298 33.8506C34.5991 34.8258 34.4972 35.9145 34.7393 36.9527C34.9815 37.9908 35.5547 38.9221 36.3724 39.6061C37.1901 40.29 38.208 40.6895 39.2726 40.7444C40.2225 40.7896 41.1653 40.5601 41.9881 40.0834C42.8109 39.6066 43.4789 38.9028 43.912 38.0563L45.3532 38.785C44.8051 39.8638 43.9686 40.7694 42.9365 41.4012C41.9045 42.033 40.7175 42.3662 39.5074 42.3637Z" fill="#FFC700"/>
<path d="M28.1153 29.2145C27.9006 29.2145 27.6947 29.1292 27.5428 28.9774C27.391 28.8255 27.3057 28.6196 27.3057 28.4048V8.97276C27.3057 8.75802 27.391 8.55207 27.5428 8.40023C27.6947 8.24839 27.9006 8.16309 28.1153 8.16309C28.3301 8.16309 28.536 8.24839 28.6879 8.40023C28.8397 8.55207 28.925 8.75802 28.925 8.97276V28.4048C28.925 28.6196 28.8397 28.8255 28.6879 28.9774C28.536 29.1292 28.3301 29.2145 28.1153 29.2145Z" fill="#FFC700"/>
<path d="M39.4507 21.1176H27.3057V9.78223H39.4507V21.1176ZM28.925 19.4983H37.8314V11.4016H28.925V19.4983Z" fill="#FFC700"/>
<path d="M47.2404 24.3564H33.7837V20.308C33.7837 20.0933 33.869 19.8873 34.0208 19.7355C34.1727 19.5837 34.3786 19.4984 34.5934 19.4984C34.8081 19.4984 35.014 19.5837 35.1659 19.7355C35.3177 19.8873 35.403 20.0933 35.403 20.308V22.737H44.6171L42.5929 18.6887L44.6171 14.6403H38.6417C38.427 14.6403 38.221 14.555 38.0692 14.4032C37.9173 14.2513 37.832 14.0454 37.832 13.8307C37.832 13.6159 37.9173 13.41 38.0692 13.2581C38.221 13.1063 38.427 13.021 38.6417 13.021H47.2404L44.4066 18.6887L47.2404 24.3564Z" fill="#FFC700"/>
<path d="M12.2539 24.6886C12.0415 24.6877 11.838 24.6034 11.6872 24.4538L10.5374 23.3122C10.385 23.1597 10.2993 22.9529 10.2993 22.7373C10.2993 22.5217 10.385 22.3149 10.5374 22.1624C10.6899 22.01 10.8967 21.9243 11.1123 21.9243C11.3279 21.9243 11.5347 22.01 11.6872 22.1624L12.8288 23.3122C12.9796 23.4639 13.0642 23.6691 13.0642 23.883C13.0642 24.0969 12.9796 24.3021 12.8288 24.4538C12.7531 24.5288 12.6634 24.5882 12.5648 24.6285C12.4661 24.6688 12.3605 24.6892 12.2539 24.6886Z" fill="#FFC700"/>
<path d="M15.6949 28.1296C15.5878 28.1291 15.4818 28.1075 15.3831 28.0658C15.2844 28.0241 15.195 27.9632 15.12 27.8867L13.9784 26.7855C13.8457 26.6306 13.7764 26.4314 13.7843 26.2276C13.7922 26.0239 13.8766 25.8306 14.0208 25.6864C14.165 25.5422 14.3583 25.4577 14.5621 25.4498C14.7659 25.442 14.9651 25.5113 15.12 25.6439L16.2617 26.7855C16.4125 26.9372 16.4971 27.1425 16.4971 27.3564C16.4971 27.5703 16.4125 27.7755 16.2617 27.9272C16.1058 28.065 15.9028 28.1374 15.6949 28.1296Z" fill="#FFC700"/>
<path d="M14.5454 24.6884C14.333 24.6875 14.1294 24.6031 13.9786 24.4536C13.8278 24.3019 13.7432 24.0967 13.7432 23.8827C13.7432 23.6688 13.8278 23.4636 13.9786 23.3119L15.1202 22.1622C15.2719 22.0114 15.4772 21.9268 15.6911 21.9268C15.905 21.9268 16.1102 22.0114 16.2619 22.1622C16.3378 22.2375 16.398 22.327 16.4391 22.4257C16.4802 22.5244 16.5014 22.6302 16.5014 22.7371C16.5014 22.844 16.4802 22.9498 16.4391 23.0485C16.398 23.1471 16.3378 23.2367 16.2619 23.3119L15.1607 24.4536C15.0803 24.5336 14.984 24.5959 14.878 24.6364C14.772 24.6768 14.6587 24.6945 14.5454 24.6884Z" fill="#FFC700"/>
<path d="M11.1122 28.1296C10.9514 28.1305 10.794 28.0835 10.6599 27.9946C10.5259 27.9057 10.4214 27.7789 10.3597 27.6304C10.2981 27.4818 10.282 27.3183 10.3137 27.1606C10.3453 27.003 10.4232 26.8583 10.5374 26.745L11.6871 25.6034C11.842 25.4707 12.0412 25.4014 12.245 25.4093C12.4488 25.4172 12.6421 25.5016 12.7863 25.6458C12.9305 25.79 13.0149 25.9833 13.0228 26.1871C13.0307 26.3909 12.9614 26.5901 12.8287 26.745L11.6871 27.8866C11.6121 27.9632 11.5227 28.024 11.424 28.0657C11.3253 28.1074 11.2194 28.1291 11.1122 28.1296Z" fill="#FFC700"/>
<path d="M20.6338 15.256C20.5267 15.2556 20.4207 15.2339 20.3221 15.1922C20.2234 15.1505 20.134 15.0896 20.059 15.0131L18.9173 13.8715C18.7847 13.7166 18.7154 13.5174 18.7233 13.3136C18.7311 13.1098 18.8156 12.9165 18.9598 12.7723C19.104 12.6281 19.2973 12.5436 19.5011 12.5358C19.7048 12.5279 19.9041 12.5972 20.059 12.7299L21.2006 13.8715C21.3514 14.0232 21.4361 14.2284 21.4361 14.4423C21.4361 14.6562 21.3514 14.8614 21.2006 15.0131C21.0511 15.1657 20.8474 15.253 20.6338 15.256Z" fill="#FFC700"/>
<path d="M24.0669 18.6886C23.9603 18.6892 23.8547 18.6688 23.7561 18.6285C23.6574 18.5882 23.5677 18.5288 23.492 18.4538L22.3504 17.304C22.2656 17.2315 22.1968 17.1421 22.1482 17.0417C22.0996 16.9412 22.0723 16.8318 22.068 16.7203C22.0637 16.6088 22.0825 16.4976 22.1232 16.3937C22.1639 16.2898 22.2256 16.1954 22.3045 16.1165C22.3834 16.0376 22.4778 15.9759 22.5817 15.9352C22.6856 15.8945 22.7968 15.8757 22.9083 15.88C23.0198 15.8843 23.1292 15.9116 23.2297 15.9602C23.3301 16.0088 23.4194 16.0777 23.492 16.1624L24.6418 17.304C24.7177 17.3793 24.7779 17.4689 24.819 17.5675C24.8601 17.6662 24.8813 17.772 24.8813 17.8789C24.8813 17.9858 24.8601 18.0916 24.819 18.1903C24.7779 18.289 24.7177 18.3785 24.6418 18.4538C24.5661 18.5288 24.4764 18.5882 24.3777 18.6285C24.2791 18.6688 24.1735 18.6892 24.0669 18.6886Z" fill="#FFC700"/>
<path d="M22.9255 15.2559C22.8184 15.2555 22.7124 15.2338 22.6138 15.1921C22.5151 15.1504 22.4257 15.0895 22.3507 15.013C22.1999 14.8613 22.1152 14.6561 22.1152 14.4422C22.1152 14.2283 22.1999 14.0231 22.3507 13.8714L23.4923 12.7297C23.5676 12.6538 23.6571 12.5936 23.7558 12.5525C23.8545 12.5114 23.9603 12.4902 24.0672 12.4902C24.1741 12.4902 24.2799 12.5114 24.3786 12.5525C24.4772 12.5936 24.5668 12.6538 24.642 12.7297C24.7928 12.8814 24.8775 13.0866 24.8775 13.3005C24.8775 13.5145 24.7928 13.7197 24.642 13.8714L23.4923 15.013C23.3428 15.1656 23.1391 15.2529 22.9255 15.2559Z" fill="#FFC700"/>
<path d="M19.485 18.6886C19.3249 18.6879 19.1685 18.6398 19.0357 18.5502C18.903 18.4607 18.7997 18.3338 18.7391 18.1856C18.6784 18.0375 18.663 17.8746 18.6949 17.7177C18.7268 17.5608 18.8045 17.4168 18.9182 17.304L20.0599 16.1624C20.1324 16.0777 20.2218 16.0088 20.3222 15.9602C20.4227 15.9116 20.5321 15.8843 20.6436 15.88C20.7551 15.8757 20.8663 15.8945 20.9702 15.9352C21.0741 15.9759 21.1684 16.0376 21.2474 16.1165C21.3263 16.1954 21.388 16.2898 21.4287 16.3937C21.4694 16.4976 21.4882 16.6088 21.4839 16.7203C21.4796 16.8318 21.4523 16.9412 21.4037 17.0417C21.3551 17.1421 21.2862 17.2315 21.2015 17.304L20.0599 18.4538C19.9842 18.5288 19.8945 18.5882 19.7958 18.6285C19.6972 18.6688 19.5915 18.6892 19.485 18.6886Z" fill="#FFC700"/>
</svg>
