<svg width="57" height="56" viewBox="0 0 57 56" fill="none" xmlns="http://www.w3.org/2000/svg">
<rect width="56" height="56" transform="translate(0.115723)" fill="white"/>
<path d="M35.0551 9.22554C35.1752 9.34874 35.3188 9.44656 35.4774 9.51316C35.6361 9.57977 35.8064 9.6138 35.9785 9.61326C36.3242 9.61371 36.656 9.47769 36.9019 9.23478L37.2898 8.84705L37.6684 9.23478C37.9153 9.47601 38.2465 9.61174 38.5918 9.61326C38.852 9.61625 39.1071 9.54122 39.3243 9.39783C39.5415 9.25443 39.7107 9.04928 39.8101 8.80882C39.9094 8.56836 39.9345 8.30364 39.8819 8.04882C39.8293 7.79401 39.7016 7.56079 39.5152 7.37926L39.1366 7.00076L39.5152 6.62229C39.6551 6.50565 39.7691 6.36115 39.8501 6.198C39.931 6.03486 39.9771 5.85665 39.9853 5.67472C39.9935 5.49279 39.9637 5.31115 39.8978 5.14137C39.8319 4.97159 39.7314 4.8174 39.6026 4.68863C39.4738 4.55986 39.3195 4.45933 39.1497 4.39346C38.9798 4.32758 38.7982 4.2978 38.6162 4.30602C38.4342 4.31424 38.2559 4.36028 38.0928 4.44119C37.9296 4.52211 37.785 4.63614 37.6684 4.776L37.2898 5.16372L36.9019 4.776C36.6506 4.56645 36.3299 4.45844 36.0029 4.47321C35.676 4.48798 35.3664 4.62445 35.1349 4.85582C34.9035 5.08718 34.767 5.39671 34.7522 5.72357C34.7374 6.05043 34.8455 6.371 35.0551 6.62229L35.4337 7.00076L35.0551 7.37926C34.9334 7.50022 34.8368 7.64406 34.7708 7.80248C34.7049 7.96091 34.671 8.13081 34.671 8.3024C34.671 8.47399 34.7049 8.64388 34.7708 8.80231C34.8368 8.96074 34.9334 9.10457 35.0551 9.22554ZM9.2643 17.1646C9.51016 17.4075 9.84203 17.5435 10.1877 17.5431C10.359 17.5443 10.5289 17.5115 10.6874 17.4465C10.8459 17.3815 10.99 17.2857 11.1111 17.1646L11.4897 16.7861L11.8775 17.1646C11.9987 17.2857 12.1427 17.3815 12.3012 17.4465C12.4598 17.5115 12.6296 17.5443 12.8009 17.5431C13.0592 17.5416 13.3113 17.4639 13.5255 17.3197C13.7398 17.1756 13.9067 16.9714 14.0053 16.7328C14.1039 16.4942 14.1299 16.2318 14.0799 15.9785C14.0299 15.7252 13.9062 15.4923 13.7243 15.309L13.3458 14.9306L13.7243 14.5521C13.9693 14.3072 14.1068 13.9752 14.1068 13.6289C14.1068 13.2827 13.9693 12.9506 13.7243 12.7058C13.4794 12.461 13.1473 12.3234 12.8009 12.3234C12.4546 12.3234 12.1224 12.461 11.8775 12.7058L11.4897 13.0843L11.1111 12.7058C10.8655 12.4623 10.5336 12.3256 10.1877 12.3256C9.84179 12.3256 9.50989 12.4623 9.2643 12.7058C9.14145 12.8261 9.04385 12.9698 8.97722 13.1283C8.9106 13.2868 8.87628 13.457 8.87628 13.6289C8.87628 13.8009 8.9106 13.9711 8.97722 14.1296C9.04385 14.2881 9.14145 14.4317 9.2643 14.5521L9.6429 14.9306L9.2643 15.309C9.14117 15.4302 9.04338 15.5746 8.97663 15.7339C8.90989 15.8931 8.87552 16.0641 8.87552 16.2368C8.87552 16.4095 8.90989 16.5805 8.97663 16.7397C9.04338 16.899 9.14117 17.0434 9.2643 17.1646ZM50.4483 35.6274L50.8269 35.2489C50.9668 35.1323 51.0809 34.9878 51.1618 34.8246C51.2428 34.6615 51.2888 34.4833 51.297 34.3014C51.3053 34.1194 51.2755 33.9378 51.2096 33.768C51.1437 33.5982 51.0431 33.444 50.9143 33.3152C50.7855 33.1865 50.6313 33.086 50.4614 33.0201C50.2916 32.9542 50.1099 32.9244 49.928 32.9326C49.746 32.9409 49.5677 32.9869 49.4045 33.0678C49.2413 33.1487 49.0968 33.2628 48.9801 33.4026L48.6015 33.7903L48.2137 33.4026C47.9623 33.1931 47.6416 33.0851 47.3147 33.0998C46.9877 33.1146 46.6781 33.2511 46.4467 33.4824C46.2153 33.7138 46.0787 34.0233 46.064 34.3502C46.0492 34.677 46.1572 34.9976 46.3669 35.2489L46.7455 35.6274L46.3669 36.0059C46.185 36.1892 46.0613 36.4221 46.0113 36.6754C45.9614 36.9286 45.9873 37.1911 46.0859 37.4297C46.1845 37.6683 46.3515 37.8725 46.5657 38.0166C46.78 38.1607 47.032 38.2384 47.2903 38.2399C47.6355 38.2384 47.9667 38.1026 48.2137 37.8614L48.6015 37.4737L48.9801 37.8614C49.2257 38.1049 49.5576 38.2416 49.9035 38.2416C50.2494 38.2416 50.5813 38.1049 50.8269 37.8614C50.9487 37.7404 51.0453 37.5966 51.1112 37.4382C51.1771 37.2797 51.211 37.1098 51.211 36.9383C51.211 36.7667 51.1771 36.5968 51.1112 36.4383C51.0453 36.2799 50.9487 36.1361 50.8269 36.0151L50.4483 35.6274ZM15.1372 42.9294C17.2176 44.6242 19.8425 45.5065 22.5245 45.4127C28.859 45.4127 36.6341 41.4063 42.6825 34.335C48.2229 27.873 51.2055 20.3402 50.7161 14.0259C50.6574 12.4877 50.2904 10.9769 49.6369 9.58304C48.9834 8.18921 48.0567 6.94069 46.9117 5.91146C46.6439 5.7191 46.3136 5.63462 45.9863 5.67485C45.6591 5.71508 45.359 5.87706 45.1459 6.12854C44.9328 6.38002 44.8223 6.70254 44.8363 7.03184C44.8504 7.36114 44.988 7.67305 45.2218 7.90545C46.0989 8.71525 46.8062 9.69135 47.3023 10.777C47.7985 11.8626 48.0738 13.036 48.1121 14.229C48.5369 19.7678 45.6928 26.7745 40.7248 32.5903C32.9036 41.6832 22.2105 45.385 16.8824 40.8985C16.2339 40.2976 15.7119 39.5733 15.3472 38.768C14.9825 37.9627 14.7824 37.0926 14.7586 36.209C14.4262 32.0271 16.6054 26.6729 20.4098 22.2326C25.1008 16.7861 31.343 13.8412 35.6553 14.6167C36.6538 14.8638 37.5947 15.3028 38.4255 15.9091C39.3377 16.7915 39.8737 17.992 39.9215 19.2601C40.1616 22.3896 38.5271 26.4144 35.6553 29.7562C31.2876 34.8335 25.1654 37.049 22.2751 34.5935C21.985 34.3131 21.7539 33.9775 21.5953 33.6066C21.4368 33.2356 21.3539 32.8367 21.3517 32.4333C21.1855 30.2824 22.3213 27.513 24.3158 25.1959C27.3077 21.7157 31.4446 20.1463 33.356 21.771C33.488 21.9232 33.5873 22.1009 33.6477 22.293C33.7081 22.4852 33.7282 22.6877 33.7069 22.888C33.7039 24.2308 33.2448 25.5327 32.4049 26.5806C32.3856 26.0956 32.2507 25.6222 32.0114 25.1999C31.7721 24.7776 31.4353 24.4186 31.029 24.1527C30.7109 23.9581 30.3554 23.8323 29.9856 23.7835H29.8194H29.6347C28.8656 23.7712 28.1044 23.9404 27.4129 24.2772C26.7214 24.614 26.1191 25.109 25.6548 25.7221C24.7233 26.7236 24.2169 28.0473 24.242 29.4147C24.2627 29.7782 24.3549 30.1341 24.5133 30.462C24.6718 30.7899 24.8934 31.0834 25.1654 31.3256C25.8947 31.9415 26.8241 32.2698 27.7786 32.2487C28.9765 32.1539 30.1414 31.8102 31.1988 31.2395C32.2562 30.6688 33.1828 29.8838 33.9193 28.9346C35.4774 27.2688 36.3339 25.067 36.3109 22.7865C36.286 22.246 36.153 21.7159 35.9199 21.2276C35.6868 20.7393 35.3582 20.3025 34.9535 19.9432C31.8601 17.3123 26.2735 18.9462 22.229 23.6358C19.7635 26.5068 18.4153 29.9224 18.6369 32.7841C18.6665 33.5324 18.8451 34.2672 19.1622 34.9456C19.4793 35.624 19.9286 36.2324 20.4837 36.7352C21.8239 37.8347 23.5154 38.4147 25.2485 38.3691C29.1453 38.3691 33.8177 35.9413 37.5483 31.6025C40.9095 27.6976 42.7379 23.0634 42.4424 19.2047C42.4019 18.223 42.1644 17.2595 41.744 16.3715C41.3237 15.4834 40.729 14.6889 39.9953 14.0351C39.9802 14.0312 39.9643 14.0312 39.9492 14.0351H39.8938C38.7589 13.1257 37.4118 12.5191 35.9785 12.2719C35.8051 12.2283 35.6294 12.1944 35.4522 12.1704H35.406C28.8221 10.9426 19.8373 14.5613 12.7825 21.808C10.4432 24.1705 8.48667 26.8833 6.98348 29.8485C6.89513 30.0036 6.83939 30.1751 6.81966 30.3524C6.79994 30.5298 6.81663 30.7093 6.86875 30.88C6.92087 31.0507 7.00732 31.2089 7.12277 31.3451C7.23822 31.4812 7.38026 31.5923 7.54018 31.6716C7.70009 31.7509 7.87452 31.7967 8.05277 31.8063C8.23103 31.8158 8.40937 31.7889 8.57684 31.7271C8.74431 31.6653 8.89738 31.57 9.02671 31.447C9.15604 31.3239 9.25889 31.1758 9.32894 31.0117C10.7133 28.29 12.5105 25.7988 14.657 23.6266C16.1438 22.1043 17.7631 20.7172 19.4957 19.4816C19.1078 19.8878 18.72 20.3032 18.3322 20.7463C12.8564 26.9037 9.76294 34.5935 10.2431 40.797C10.2894 42.2852 10.6412 43.748 11.2766 45.0947C11.912 46.4413 12.8174 47.643 13.9367 48.6252C16.5589 50.6998 19.8282 51.7849 23.1708 51.6901C27.9171 51.6901 33.3283 49.9269 38.7949 46.4558C38.9473 46.3666 39.08 46.2476 39.1852 46.1058C39.2904 45.9641 39.3659 45.8025 39.4071 45.6309C39.4484 45.4593 39.4545 45.2811 39.4252 45.1071C39.3958 44.933 39.3317 44.7667 39.2365 44.618C39.1413 44.4694 39.017 44.3414 38.8712 44.2419C38.7254 44.1425 38.5609 44.0735 38.3878 44.0391C38.2146 44.0046 38.0363 44.0056 37.8634 44.0417C37.6906 44.0779 37.5269 44.1486 37.3821 44.2495C28.9329 49.6315 20.3729 50.5638 15.5712 46.6128C14.7245 45.8504 14.0423 44.9234 13.566 43.8886C13.0897 42.8537 12.8294 41.7327 12.8009 40.5939C12.8009 40.4 12.8009 40.197 12.8009 40.0031C13.348 41.148 14.1467 42.1546 15.1372 42.9479V42.9294ZM21.8596 10.3702C21.9804 10.4934 22.1249 10.5907 22.2844 10.6564C22.4458 10.7219 22.6181 10.7563 22.7922 10.758C22.9634 10.7563 23.1327 10.7218 23.2909 10.6564C23.4515 10.5929 23.5965 10.4953 23.7156 10.3702C23.8377 10.2486 23.9349 10.1043 24.0019 9.94559C24.0653 9.78715 24.0967 9.61773 24.0942 9.4471C24.0937 9.10172 23.9578 8.77031 23.7156 8.52396C23.6545 8.46097 23.5863 8.4052 23.5125 8.35778C23.4417 8.31232 23.3676 8.27222 23.2909 8.23779L23.0416 8.16393C22.8743 8.12714 22.701 8.12714 22.5337 8.16393L22.2844 8.23779L22.0628 8.35778C21.9889 8.4052 21.9207 8.46097 21.8596 8.52396C21.6175 8.77031 21.4815 9.10172 21.481 9.4471C21.4854 9.79171 21.6207 10.1218 21.8596 10.3702ZM43.098 13.9151C43.2216 14.0324 43.3655 14.1263 43.5228 14.192C43.6826 14.2627 43.8559 14.2974 44.0306 14.2936C44.3757 14.2911 44.7065 14.1555 44.954 13.9151C45.0714 13.7915 45.1653 13.6477 45.2311 13.4905C45.3018 13.3307 45.3364 13.1574 45.3326 12.9827C45.3417 12.8999 45.3417 12.8163 45.3326 12.7335C45.321 12.6471 45.2961 12.563 45.2588 12.4842C45.2279 12.4058 45.1876 12.3314 45.1387 12.2627C45.0515 12.1138 44.9275 11.9898 44.7786 11.9027C44.7089 11.8528 44.6347 11.8095 44.557 11.7734L44.3077 11.6996C44.1395 11.6718 43.9679 11.6718 43.7998 11.6996L43.5505 11.7734C43.4717 11.8075 43.3973 11.8509 43.3289 11.9027C43.2573 11.9498 43.1894 12.0022 43.1257 12.0596L42.9595 12.2627C42.914 12.3334 42.8739 12.4075 42.8395 12.4842C42.8106 12.566 42.7859 12.6492 42.7656 12.7335C42.761 12.8165 42.761 12.8997 42.7656 12.9827C42.764 13.1563 42.7954 13.3286 42.8579 13.4905C42.9026 13.6493 42.9745 13.7992 43.0703 13.9336L43.098 13.9151ZM7.45442 34.2888C7.41989 34.2092 7.37977 34.1321 7.33438 34.0581C7.28676 33.9871 7.23098 33.9221 7.16817 33.8642C7.10705 33.8012 7.03888 33.7454 6.96502 33.698C6.89536 33.6507 6.82109 33.6105 6.74338 33.578L6.50331 33.5042C6.33293 33.4672 6.15659 33.4672 5.98621 33.5042L5.74611 33.578L5.51526 33.698C5.44253 33.7432 5.37714 33.7993 5.32135 33.8642C5.19458 33.9819 5.09663 34.1272 5.0351 34.2888C5.00081 34.3656 4.97599 34.4461 4.96121 34.5288C4.91606 34.7402 4.92543 34.9595 4.98843 35.1662C5.05143 35.3729 5.16601 35.5602 5.32135 35.7105C5.44109 35.8341 5.58464 35.9322 5.74335 35.9988C5.90206 36.0655 6.07263 36.0993 6.24476 36.0982C6.41674 36.0982 6.58699 36.0639 6.74555 35.9974C6.90411 35.9308 7.04779 35.8333 7.16817 35.7105C7.29238 35.5906 7.38992 35.4459 7.45442 35.2858C7.51782 35.1274 7.54921 34.958 7.54677 34.7873C7.55134 34.7013 7.55134 34.6149 7.54677 34.5288C7.51185 34.4523 7.47174 34.3783 7.42672 34.3073L7.45442 34.2888ZM44.5662 40.6493C44.5047 40.4876 44.4067 40.3423 44.28 40.2246C44.0299 39.9897 43.6997 39.8589 43.3566 39.8589C43.0134 39.8589 42.6832 39.9897 42.4331 40.2246L42.2669 40.4185C42.1743 40.5624 42.1086 40.7219 42.073 40.8893C42.0638 40.9752 42.0638 41.0619 42.073 41.1478C42.0706 41.3184 42.102 41.4878 42.1654 41.6463C42.2321 41.8079 42.3293 41.9552 42.4516 42.0802C42.698 42.3222 43.0295 42.4581 43.375 42.4587C43.5492 42.457 43.7215 42.4226 43.8829 42.3571C44.0384 42.2933 44.1797 42.1992 44.2984 42.0802C44.5448 41.8359 44.6843 41.5039 44.6863 41.157C44.6954 41.0711 44.6954 40.9845 44.6863 40.8985C44.6475 40.8154 44.5978 40.7378 44.5385 40.6678L44.5662 40.6493Z" fill="#777474"/>
</svg>
