<svg width="31" height="32" viewBox="0 0 31 32" fill="none" xmlns="http://www.w3.org/2000/svg">
<path fill-rule="evenodd" clip-rule="evenodd" d="M15.114 8.915C11.4023 8.915 8.39257 11.9207 8.39257 15.6275C8.39257 17.14 8.89298 18.5332 9.73689 19.655C9.78469 19.7206 9.82345 19.7922 9.84884 19.8683L11.1588 23.7929C11.4635 24.7073 12.3194 25.3233 13.2843 25.3233H16.9437C17.9086 25.3233 18.7645 24.7073 19.0692 23.7929L20.3791 19.8683C20.4045 19.7922 20.4433 19.7206 20.4911 19.655C21.335 18.5332 21.8354 17.14 21.8354 15.6275C21.8354 11.9207 18.8257 8.915 15.114 8.915ZM6.89893 15.6275C6.89893 11.0958 10.5763 7.42334 15.114 7.42334C19.6517 7.42334 23.329 11.0958 23.329 15.6275C23.329 17.4294 22.7465 19.0986 21.7592 20.4515L20.4866 24.2657C19.9773 25.7872 18.5508 26.815 16.9437 26.815H13.2843C11.6771 26.815 10.2492 25.7872 9.74136 24.2657L8.46879 20.4515C7.48149 19.0986 6.89893 17.4294 6.89893 15.6275Z" fill="#FFC700"/>
<path fill-rule="evenodd" clip-rule="evenodd" d="M23.5493 6.15081L26.5366 3.16748L27.5941 4.22359L24.6068 7.20692L23.5493 6.15081Z" fill="#FFC700"/>
<path fill-rule="evenodd" clip-rule="evenodd" d="M27.0649 14.8809H30.0522V16.3736H27.0649V14.8809Z" fill="#FFC700"/>
<path fill-rule="evenodd" clip-rule="evenodd" d="M0.178711 14.8809H3.16601V16.3736H0.178711V14.8809Z" fill="#FFC700"/>
<path fill-rule="evenodd" clip-rule="evenodd" d="M3.6957 3.16748L6.68299 6.15081L5.62548 7.20692L2.63818 4.22359L3.6957 3.16748Z" fill="#FFC700"/>
<path fill-rule="evenodd" clip-rule="evenodd" d="M15.8608 0.710449V3.69595H14.3672V0.710449H15.8608Z" fill="#FFC700"/>
<path fill-rule="evenodd" clip-rule="evenodd" d="M11.3809 27.5603C11.3809 29.6202 13.0523 31.2894 15.115 31.2894C17.1777 31.2894 18.8491 29.6202 18.8491 27.5603V26.0686C18.8491 25.6569 18.5145 25.3228 18.1023 25.3228H12.1277C11.7154 25.3228 11.3809 25.6569 11.3809 26.0686V27.5603ZM15.115 29.7977C13.8782 29.7977 12.8745 28.7953 12.8745 27.5603V26.8144H17.3554V27.5603C17.3554 28.7953 16.3517 29.7977 15.115 29.7977Z" fill="#FFC700"/>
</svg>
