<svg width="29" height="24" viewBox="0 0 29 24" fill="none" xmlns="http://www.w3.org/2000/svg">
<path fill-rule="evenodd" clip-rule="evenodd" d="M0.230469 4.07607C0.230469 2.25224 1.71026 0.774414 3.53652 0.774414H8.8262C9.86694 0.774414 10.8469 1.26306 11.471 2.09508L13.8514 5.26467C14.2256 5.76388 14.8141 6.05707 15.4383 6.05707H24.6952C26.5215 6.05707 28.0013 7.53489 28.0013 9.35873V19.924C28.0013 21.7479 26.5215 23.2257 24.6952 23.2257H3.53652C1.71026 23.2257 0.230469 21.7479 0.230469 19.924V4.07607ZM3.53652 2.09508C2.44155 2.09508 1.55289 2.98256 1.55289 4.07607V19.924C1.55289 21.0175 2.44155 21.905 3.53652 21.905H24.6952C25.7902 21.905 26.6789 21.0175 26.6789 19.924V9.35873C26.6789 8.26522 25.7902 7.37773 24.6952 7.37773H15.4383C14.3976 7.37773 13.4176 6.88909 12.7935 6.05707L10.4131 2.88747C10.0389 2.38826 9.45038 2.09508 8.8262 2.09508H3.53652Z" fill="#FFC700"/>
<path fill-rule="evenodd" clip-rule="evenodd" d="M10.8808 2.4607C10.9919 2.2375 11.222 2.09619 11.4719 2.09619H23.7043C25.5306 2.09619 27.0104 3.57401 27.0104 5.39785V6.71851C27.0104 7.08302 26.7141 7.37885 26.3492 7.37885H15.7698C14.7291 7.37885 13.7491 6.8902 13.125 6.05818L10.9429 3.15273C10.7922 2.95199 10.7684 2.68521 10.8808 2.4607ZM12.7944 3.41686L14.1829 5.26579C14.5571 5.765 15.1456 6.05818 15.7698 6.05818H25.6879V5.39785C25.6879 4.30434 24.7993 3.41686 23.7043 3.41686H12.7944Z" fill="#FFC700"/>
</svg>
