<svg width="38" height="38" viewBox="0 0 38 38" fill="none" xmlns="http://www.w3.org/2000/svg">
<rect x="0.933105" y="0.822266" width="36.1339" height="36.3557" rx="10" fill="#07A907"/>
<path fill-rule="evenodd" clip-rule="evenodd" d="M18.8604 11.4754C17.3662 11.4754 16.1548 12.6895 16.1548 14.187C16.1548 15.6846 17.3662 16.8987 18.8604 16.8987C20.3546 16.8987 21.5659 15.6846 21.5659 14.187C21.5659 12.6895 20.3546 11.4754 18.8604 11.4754ZM15.3818 14.187C15.3818 12.2618 16.9394 10.7007 18.8604 10.7007C20.7813 10.7007 22.3389 12.2618 22.3389 14.187C22.3389 16.1123 20.7813 17.6734 18.8604 17.6734C16.9394 17.6734 15.3818 16.1123 15.3818 14.187Z" fill="#00FF00"/>
<path fill-rule="evenodd" clip-rule="evenodd" d="M13.0625 22.3221C13.0625 20.6107 14.447 19.2231 16.1545 19.2231H21.5656C23.2732 19.2231 24.6576 20.6107 24.6576 22.3221V25.0338C24.6576 25.2476 24.4845 25.4211 24.2711 25.4211H13.449C13.2357 25.4211 13.0625 25.2476 13.0625 25.0338V22.3221ZM16.1545 19.9979C14.8737 19.9979 13.8355 21.0384 13.8355 22.3221V24.6464H23.8846V22.3221C23.8846 21.0384 22.8465 19.9979 21.5656 19.9979H16.1545Z" fill="#00FF00"/>
<path fill-rule="evenodd" clip-rule="evenodd" d="M26.2041 19.2227V14.5742H26.9771V19.2227H26.2041Z" fill="#00FF00"/>
<path fill-rule="evenodd" clip-rule="evenodd" d="M28.91 17.2875H24.272V16.5122H28.91V17.2875Z" fill="#00FF00"/>
<path d="M11.5264 12.0895C11.4646 12.0894 11.4032 12.0784 11.3452 12.057L9.88945 11.5182L8.43404 12.057C8.35334 12.0869 8.26653 12.0963 8.18129 12.0846C8.09606 12.0728 8.01505 12.0402 7.94545 11.9896C7.87584 11.9389 7.81979 11.8719 7.78228 11.7944C7.74476 11.7169 7.72694 11.6314 7.73038 11.5454L7.79277 9.9933L6.83085 8.77468C6.7775 8.7071 6.74164 8.62739 6.72646 8.54262C6.71128 8.45784 6.71724 8.37063 6.74383 8.28872C6.77041 8.20681 6.81679 8.13274 6.87884 8.07307C6.9409 8.0134 7.01672 7.96999 7.09957 7.94668L8.59366 7.5264L9.4545 6.23593C9.50219 6.16399 9.56693 6.10497 9.64294 6.06414C9.71896 6.02332 9.80388 6.00195 9.89015 6.00195C9.97642 6.00195 10.0613 6.02332 10.1374 6.06414C10.2134 6.10497 10.2781 6.16399 10.3258 6.23593L11.187 7.5264L12.6811 7.94668C12.7639 7.96999 12.8398 8.0134 12.9018 8.07307C12.9639 8.13274 13.0102 8.20681 13.0368 8.28872C13.0634 8.37063 13.0694 8.45784 13.0542 8.54262C13.039 8.62739 13.0031 8.7071 12.9498 8.77468L11.9879 9.9933L12.0503 11.5454C12.0531 11.6158 12.0416 11.6861 12.0166 11.752C11.9916 11.8179 11.9536 11.8781 11.9047 11.9289C11.8559 11.9797 11.7973 12.0201 11.7325 12.0477C11.6677 12.0753 11.5979 12.0895 11.5275 12.0895H11.5264ZM9.8884 10.4369C9.95041 10.4369 10.0119 10.448 10.07 10.4697L10.9716 10.8035L10.9329 9.84193C10.9279 9.71712 10.9677 9.59464 11.0451 9.49664L11.6411 8.74189L10.7154 8.48135C10.5953 8.44754 10.4912 8.37183 10.422 8.2679L9.8884 7.46572L9.35518 8.2679C9.28596 8.37183 9.18186 8.44754 9.06172 8.48135L8.13606 8.74189L8.73202 9.49664C8.8093 9.59469 8.84898 9.71716 8.8439 9.84193L8.80556 10.8035L9.70718 10.4697C9.76546 10.4479 9.82721 10.4368 9.88945 10.4369H9.8884Z" fill="#00FF00"/>
<path d="M9.5705 27.5755C9.53382 27.5755 9.49743 27.5689 9.463 27.5563L8.59943 27.2366L7.73607 27.5563C7.6882 27.574 7.6367 27.5796 7.58614 27.5726C7.53558 27.5656 7.48753 27.5463 7.44624 27.5162C7.40495 27.4862 7.3717 27.4465 7.34944 27.4005C7.32719 27.3545 7.31661 27.3038 7.31866 27.2527L7.35567 26.332L6.78505 25.6092C6.7534 25.5691 6.73213 25.5218 6.72313 25.4715C6.71412 25.4212 6.71766 25.3695 6.73343 25.3209C6.7492 25.2723 6.77671 25.2284 6.81352 25.193C6.85033 25.1576 6.89531 25.1318 6.94446 25.118L7.83076 24.8687L8.34142 24.1032C8.3697 24.0605 8.40811 24.0255 8.4532 24.0012C8.49829 23.977 8.54867 23.9644 8.59985 23.9644C8.65102 23.9644 8.7014 23.977 8.74649 24.0012C8.79159 24.0255 8.82999 24.0605 8.85827 24.1032L9.36914 24.8687L10.2554 25.118C10.3046 25.1318 10.3496 25.1576 10.3864 25.193C10.4232 25.2284 10.4507 25.2723 10.4665 25.3209C10.4822 25.3695 10.4858 25.4212 10.4768 25.4715C10.4678 25.5218 10.4465 25.5691 10.4148 25.6092L9.84424 26.332L9.88124 27.2527C9.88291 27.2945 9.87613 27.3362 9.86129 27.3753C9.84646 27.4144 9.82388 27.4501 9.79492 27.4803C9.76595 27.5104 9.73119 27.5344 9.69274 27.5507C9.65428 27.5671 9.61291 27.5755 9.57112 27.5755H9.5705ZM8.59881 26.5952C8.63559 26.5952 8.67208 26.6018 8.70653 26.6147L9.24137 26.8127L9.21842 26.2423C9.21547 26.1682 9.23908 26.0956 9.28499 26.0374L9.63852 25.5897L9.08942 25.4352C9.01815 25.4151 8.9564 25.3702 8.91534 25.3085L8.59881 24.8327L8.2825 25.3085C8.24143 25.3702 8.17968 25.4151 8.10842 25.4352L7.55931 25.5897L7.91284 26.0374C7.95868 26.0956 7.98222 26.1682 7.9792 26.2423L7.95646 26.8127L8.4913 26.6147C8.52588 26.6017 8.56251 26.5951 8.59943 26.5952H8.59881Z" fill="#00FF00"/>
<path d="M27.7825 34.6028C27.6438 34.6028 27.5108 34.5477 27.4128 34.4496C27.3148 34.3515 27.2597 34.2184 27.2597 34.0797C27.2589 33.4255 26.999 32.7984 26.5368 32.3359C26.0746 31.8733 25.4479 31.6132 24.7943 31.6124C24.6556 31.6124 24.5226 31.5573 24.4246 31.4592C24.3266 31.3611 24.2715 31.228 24.2715 31.0893C24.2715 30.9505 24.3266 30.8174 24.4246 30.7193C24.5226 30.6212 24.6556 30.5661 24.7943 30.5661C25.4479 30.5653 26.0745 30.3051 26.5367 29.8425C26.9988 29.38 27.2588 28.7529 27.2597 28.0988C27.2597 27.9601 27.3148 27.827 27.4128 27.7289C27.5108 27.6308 27.6438 27.5757 27.7825 27.5757C27.9211 27.5757 28.0541 27.6308 28.1521 27.7289C28.2502 27.827 28.3052 27.9601 28.3052 28.0988C28.306 28.753 28.566 29.3801 29.0282 29.8426C29.4903 30.3052 30.117 30.5654 30.7707 30.5661C30.9093 30.5661 31.0423 30.6212 31.1403 30.7193C31.2384 30.8174 31.2934 30.9505 31.2934 31.0893C31.2934 31.228 31.2384 31.3611 31.1403 31.4592C31.0423 31.5573 30.9093 31.6124 30.7707 31.6124C30.117 31.6132 29.4903 31.8733 29.0282 32.3359C28.566 32.7984 28.306 33.4255 28.3052 34.0797C28.3052 34.2184 28.2502 34.3515 28.1521 34.4496C28.0541 34.5477 27.9211 34.6028 27.7825 34.6028ZM26.6358 31.0893C27.1017 31.3777 27.4942 31.7706 27.7825 32.2367C28.0706 31.7705 28.4632 31.3776 28.9291 31.0893C28.4632 30.8008 28.0707 30.408 27.7825 29.9418C27.494 30.4078 27.1016 30.8008 26.6358 31.0893Z" fill="#00FF00"/>
</svg>
