<svg width="40" height="36" viewBox="0 0 40 36" fill="none" xmlns="http://www.w3.org/2000/svg">
<path fill-rule="evenodd" clip-rule="evenodd" d="M22.7755 4.51948C21.5305 2.40576 18.4695 2.40576 17.2244 4.51948L3.26521 28.2185C2.00302 30.3622 3.5507 33.0654 6.04074 33.0654H33.9592C36.4493 33.0654 37.9969 30.3622 36.7347 28.2185L22.7755 4.51948ZM15.3741 3.43263C17.4498 -0.0895225 22.5501 -0.0895225 24.6259 3.43263L38.5851 27.1316C40.6888 30.7052 38.1107 35.2092 33.9592 35.2092H6.04074C1.88925 35.2092 -0.688795 30.7052 1.41486 27.1316L15.3741 3.43263Z" fill="#777474"/>
<path fill-rule="evenodd" clip-rule="evenodd" d="M18.9258 21.2726V8.41016H21.0724V21.2726H18.9258Z" fill="#777474"/>
<path fill-rule="evenodd" clip-rule="evenodd" d="M18.9258 28.78V25.562H21.0724V28.78H18.9258Z" fill="#777474"/>
</svg>
