<svg width="30" height="24" viewBox="0 0 30 24" fill="none" xmlns="http://www.w3.org/2000/svg">
<path fill-rule="evenodd" clip-rule="evenodd" d="M0.0830078 19.3173V14.6958H1.62557V19.3173C1.62557 20.5929 2.66217 21.6281 3.93941 21.6281H25.5352C26.8125 21.6281 27.8491 20.5929 27.8491 19.3173V14.6958H29.3916V19.3173C29.3916 21.4448 27.6655 23.1686 25.5352 23.1686H3.93941C1.80913 23.1686 0.0830078 21.4448 0.0830078 19.3173Z" fill="#00FF00"/>
<path fill-rule="evenodd" clip-rule="evenodd" d="M13.9663 17.7767V0.831055H15.5089V17.7767H13.9663Z" fill="#00FF00"/>
<path fill-rule="evenodd" clip-rule="evenodd" d="M14.7377 18.5482C14.5032 18.5482 14.2826 18.4419 14.1361 18.2586L7.96582 10.556L9.17057 9.59473L14.7377 16.5456L20.3063 9.59473L21.511 10.556L15.3408 18.2586C15.1943 18.4419 14.9722 18.5482 14.7377 18.5482Z" fill="#00FF00"/>
</svg>
