<svg width="40" height="40" viewBox="0 0 40 40" fill="none" xmlns="http://www.w3.org/2000/svg">
<path d="M38.7381 39.837C38.5234 39.837 38.3174 39.7517 38.1656 39.5998C38.0137 39.448 37.9284 39.242 37.9284 39.0273C37.9284 34.3031 36.0517 29.7723 32.7112 26.4318C29.3707 23.0912 24.8399 21.2146 20.1157 21.2146C15.3914 21.2146 10.8607 23.0912 7.52016 26.4318C4.17963 29.7723 2.30293 34.3031 2.30293 39.0273C2.30293 39.242 2.21763 39.448 2.06579 39.5998C1.91395 39.7517 1.708 39.837 1.49326 39.837C1.27853 39.837 1.07258 39.7517 0.92074 39.5998C0.768897 39.448 0.683594 39.242 0.683594 39.0273C0.683594 33.8736 2.73089 28.931 6.37512 25.2867C10.0193 21.6425 14.962 19.5952 20.1157 19.5952C25.2694 19.5952 30.212 21.6425 33.8562 25.2867C37.5005 28.931 39.5478 33.8736 39.5478 39.0273C39.5478 39.242 39.4625 39.448 39.3106 39.5998C39.1588 39.7517 38.9528 39.837 38.7381 39.837Z" fill="#FFC700"/>
<path d="M7.35515 32.5498H7.11226C6.31857 32.5056 5.54936 32.2592 4.87766 31.8341C4.20597 31.409 3.65408 30.8192 3.27441 30.1208L4.68324 29.3112C4.91594 29.7273 5.2429 30.0832 5.63791 30.3503C6.03292 30.6173 6.485 30.7881 6.95792 30.849C7.43083 30.9099 7.91144 30.8591 8.36119 30.7007C8.81095 30.5424 9.21736 30.2809 9.54785 29.9372C9.87833 29.5935 10.1237 29.1771 10.2643 28.7215C10.4049 28.2659 10.4368 27.7837 10.3574 27.3135C10.2781 26.8434 10.0897 26.3983 9.80734 26.0141C9.525 25.6298 9.15658 25.3171 8.7316 25.1009L9.46029 23.6597C10.4338 24.1126 11.2212 24.8875 11.6897 25.8536C12.1581 26.8198 12.2787 27.918 12.0313 28.9628C11.7839 30.0076 11.1836 30.9351 10.3317 31.5886C9.47973 32.2421 8.42839 32.5816 7.35515 32.5498Z" fill="#FFC700"/>
<path d="M31.5074 34.3637H31.1755C29.7604 34.291 28.4073 33.7603 27.3201 32.8516C26.233 31.9429 25.4707 30.7054 25.1481 29.3257C24.8256 27.9459 24.9603 26.4987 25.5319 25.2022C26.1035 23.9057 27.0811 22.8302 28.3173 22.1377L29.127 23.5465C28.1965 24.0668 27.4605 24.8755 27.0298 25.8506C26.5991 26.8258 26.4972 27.9145 26.7393 28.9527C26.9815 29.9908 27.5547 30.9221 28.3724 31.6061C29.1901 32.29 30.208 32.6895 31.2726 32.7444C32.2225 32.7896 33.1653 32.5601 33.9881 32.0834C34.8109 31.6066 35.4789 30.9028 35.912 30.0563L37.3532 30.785C36.8051 31.8638 35.9686 32.7694 34.9365 33.4012C33.9045 34.033 32.7175 34.3662 31.5074 34.3637Z" fill="#FFC700"/>
<path d="M20.1153 21.2145C19.9006 21.2145 19.6947 21.1292 19.5428 20.9774C19.391 20.8255 19.3057 20.6196 19.3057 20.4048V0.972756C19.3057 0.758018 19.391 0.552075 19.5428 0.400232C19.6947 0.24839 19.9006 0.163086 20.1153 0.163086C20.3301 0.163086 20.536 0.24839 20.6879 0.400232C20.8397 0.552075 20.925 0.758018 20.925 0.972756V20.4048C20.925 20.6196 20.8397 20.8255 20.6879 20.9774C20.536 21.1292 20.3301 21.2145 20.1153 21.2145Z" fill="#FFC700"/>
<path d="M31.4507 13.1176H19.3057V1.78223H31.4507V13.1176ZM20.925 11.4983H29.8314V3.40157H20.925V11.4983Z" fill="#FFC700"/>
<path d="M39.2404 16.3564H25.7837V12.308C25.7837 12.0933 25.869 11.8873 26.0208 11.7355C26.1727 11.5837 26.3786 11.4984 26.5934 11.4984C26.8081 11.4984 27.014 11.5837 27.1659 11.7355C27.3177 11.8873 27.403 12.0933 27.403 12.308V14.737H36.6171L34.5929 10.6887L36.6171 6.64034H30.6417C30.427 6.64034 30.221 6.55503 30.0692 6.40319C29.9173 6.25135 29.832 6.0454 29.832 5.83067C29.832 5.61593 29.9173 5.40998 30.0692 5.25814C30.221 5.1063 30.427 5.021 30.6417 5.021H39.2404L36.4066 10.6887L39.2404 16.3564Z" fill="#FFC700"/>
<path d="M4.25394 16.6886C4.04153 16.6877 3.83797 16.6034 3.68716 16.4538L2.53743 15.3122C2.38497 15.1597 2.29932 14.9529 2.29932 14.7373C2.29932 14.5217 2.38497 14.3149 2.53743 14.1624C2.6899 14.01 2.89668 13.9243 3.1123 13.9243C3.32791 13.9243 3.5347 14.01 3.68716 14.1624L4.8288 15.3122C4.9796 15.4639 5.06424 15.6691 5.06424 15.883C5.06424 16.0969 4.9796 16.3021 4.8288 16.4538C4.75314 16.5288 4.66342 16.5882 4.56477 16.6285C4.46612 16.6688 4.36049 16.6892 4.25394 16.6886Z" fill="#FFC700"/>
<path d="M7.69489 20.1296C7.58776 20.1291 7.48179 20.1075 7.38311 20.0658C7.28443 20.0241 7.19501 19.9632 7.12002 19.8867L5.97839 18.7855C5.84574 18.6306 5.77642 18.4314 5.7843 18.2276C5.79217 18.0239 5.87664 17.8306 6.02084 17.6864C6.16504 17.5422 6.35834 17.4577 6.56212 17.4498C6.76589 17.442 6.96513 17.5113 7.12002 17.6439L8.26166 18.7855C8.41246 18.9372 8.4971 19.1425 8.4971 19.3564C8.4971 19.5703 8.41246 19.7755 8.26166 19.9272C8.10576 20.065 7.9028 20.1374 7.69489 20.1296Z" fill="#FFC700"/>
<path d="M6.54538 16.6884C6.33297 16.6875 6.12942 16.6031 5.97861 16.4536C5.82781 16.3019 5.74316 16.0967 5.74316 15.8827C5.74316 15.6688 5.82781 15.4636 5.97861 15.3119L7.12024 14.1622C7.27195 14.0114 7.47716 13.9268 7.69106 13.9268C7.90497 13.9268 8.11018 14.0114 8.26188 14.1622C8.33777 14.2375 8.398 14.327 8.43911 14.4257C8.48021 14.5244 8.50138 14.6302 8.50138 14.7371C8.50138 14.844 8.48021 14.9498 8.43911 15.0485C8.398 15.1471 8.33777 15.2367 8.26188 15.3119L7.16073 16.4536C7.08034 16.5336 6.98401 16.5959 6.87801 16.6364C6.772 16.6768 6.65867 16.6945 6.54538 16.6884Z" fill="#FFC700"/>
<path d="M3.11223 20.1296C2.95141 20.1305 2.79395 20.0835 2.65994 19.9946C2.52592 19.9057 2.42142 19.7789 2.35975 19.6304C2.29808 19.4818 2.28204 19.3183 2.31367 19.1606C2.3453 19.003 2.42318 18.8583 2.53737 18.745L3.6871 17.6034C3.84199 17.4707 4.04123 17.4014 4.24501 17.4093C4.44878 17.4172 4.64208 17.5016 4.78628 17.6458C4.93048 17.79 5.01495 17.9833 5.02282 18.1871C5.03069 18.3909 4.96138 18.5901 4.82874 18.745L3.6871 19.8866C3.61211 19.9632 3.52269 20.024 3.42401 20.0657C3.32533 20.1074 3.21936 20.1291 3.11223 20.1296Z" fill="#FFC700"/>
<path d="M12.6338 7.25602C12.5267 7.25557 12.4207 7.23388 12.3221 7.19218C12.2234 7.15049 12.134 7.08963 12.059 7.01313L10.9173 5.87149C10.7847 5.7166 10.7154 5.51735 10.7233 5.31358C10.7311 5.10981 10.8156 4.91651 10.9598 4.77231C11.104 4.62812 11.2973 4.54363 11.5011 4.53576C11.7048 4.52789 11.9041 4.59721 12.059 4.72985L13.2006 5.87149C13.3514 6.02319 13.4361 6.2284 13.4361 6.44231C13.4361 6.65621 13.3514 6.86142 13.2006 7.01313C13.0511 7.16568 12.8474 7.25298 12.6338 7.25602Z" fill="#FFC700"/>
<path d="M16.0669 10.6886C15.9603 10.6892 15.8547 10.6688 15.7561 10.6285C15.6574 10.5882 15.5677 10.5288 15.492 10.4538L14.3504 9.30404C14.2656 9.23145 14.1968 9.14214 14.1482 9.04169C14.0996 8.94124 14.0723 8.83181 14.068 8.72031C14.0637 8.6088 14.0825 8.49761 14.1232 8.39371C14.1639 8.28981 14.2256 8.19545 14.3045 8.11654C14.3834 8.03763 14.4778 7.97589 14.5817 7.93519C14.6856 7.89448 14.7968 7.87569 14.9083 7.88C15.0198 7.8843 15.1292 7.91162 15.2297 7.96022C15.3301 8.00882 15.4194 8.07765 15.492 8.16241L16.6418 9.30404C16.7177 9.37931 16.7779 9.46886 16.819 9.56752C16.8601 9.66619 16.8813 9.77202 16.8813 9.87891C16.8813 9.98579 16.8601 10.0916 16.819 10.1903C16.7779 10.289 16.7177 10.3785 16.6418 10.4538C16.5661 10.5288 16.4764 10.5882 16.3777 10.6285C16.2791 10.6688 16.1735 10.6892 16.0669 10.6886Z" fill="#FFC700"/>
<path d="M14.9255 7.2559C14.8184 7.25545 14.7124 7.23375 14.6138 7.19206C14.5151 7.15036 14.4257 7.08951 14.3507 7.013C14.1999 6.8613 14.1152 6.65609 14.1152 6.44218C14.1152 6.22828 14.1999 6.02307 14.3507 5.87137L15.4923 4.72973C15.5676 4.65384 15.6571 4.59361 15.7558 4.5525C15.8545 4.5114 15.9603 4.49023 16.0672 4.49023C16.1741 4.49023 16.2799 4.5114 16.3786 4.5525C16.4772 4.59361 16.5668 4.65384 16.642 4.72973C16.7928 4.88143 16.8775 5.08664 16.8775 5.30055C16.8775 5.51445 16.7928 5.71966 16.642 5.87137L15.4923 7.013C15.3428 7.16556 15.1391 7.25285 14.9255 7.2559Z" fill="#FFC700"/>
<path d="M11.485 10.6886C11.3249 10.6879 11.1685 10.6398 11.0357 10.5502C10.903 10.4607 10.7997 10.3338 10.7391 10.1856C10.6784 10.0375 10.663 9.87461 10.6949 9.71768C10.7268 9.56076 10.8045 9.4168 10.9182 9.30404L12.0599 8.16241C12.1324 8.07765 12.2218 8.00882 12.3222 7.96022C12.4227 7.91162 12.5321 7.8843 12.6436 7.88C12.7551 7.87569 12.8663 7.89448 12.9702 7.93519C13.0741 7.97589 13.1684 8.03763 13.2474 8.11654C13.3263 8.19545 13.388 8.28981 13.4287 8.39371C13.4694 8.49761 13.4882 8.6088 13.4839 8.72031C13.4796 8.83181 13.4523 8.94124 13.4037 9.04169C13.3551 9.14214 13.2862 9.23145 13.2015 9.30404L12.0599 10.4538C11.9842 10.5288 11.8945 10.5882 11.7958 10.6285C11.6972 10.6688 11.5915 10.6892 11.485 10.6886Z" fill="#FFC700"/>
</svg>
