<svg width="20" height="20" viewBox="0 0 20 20" fill="none" xmlns="http://www.w3.org/2000/svg">
<path d="M4.50848 9.99097C4.50913 7.79991 5.27044 5.67704 6.66238 3.98494C8.05433 2.29283 9.99056 1.13646 12.1404 0.713331C11.5457 0.588722 10.9394 0.528093 10.3319 0.53248C9.05376 0.476606 7.77757 0.680098 6.58023 1.13069C5.38288 1.58128 4.28916 2.26965 3.365 3.15429C2.44083 4.03894 1.70536 5.10155 1.2029 6.27808C0.700441 7.4546 0.441406 8.72068 0.441406 10C0.441406 11.2793 0.700441 12.5454 1.2029 13.7219C1.70536 14.8985 2.44083 15.9611 3.365 16.8457C4.28916 17.7304 5.38288 18.4187 6.58023 18.8693C7.77757 19.3199 9.05376 19.5234 10.3319 19.4675C10.9401 19.466 11.5464 19.3993 12.1404 19.2686C9.99056 18.8455 8.05433 17.6891 6.66238 15.997C5.27044 14.3049 4.50913 12.182 4.50848 9.99097Z" fill="#FDD015"/>
<path d="M19.7902 9.99102C19.7887 7.7974 19.0248 5.6725 17.6293 3.98004C16.2337 2.28759 14.2933 1.13281 12.1402 0.713379C9.99298 1.1394 8.06002 2.29702 6.67089 3.98885C5.28176 5.68068 4.52246 7.80196 4.52246 9.99102C4.52246 12.1801 5.28176 14.3014 6.67089 15.9932C8.06002 17.685 9.99298 18.8426 12.1402 19.2687C14.2933 18.8492 16.2337 17.6944 17.6293 16.002C19.0248 14.3095 19.7887 12.1846 19.7902 9.99102Z" fill="#736357"/>
</svg>
