<svg width="26" height="18" viewBox="0 0 26 18" fill="none" xmlns="http://www.w3.org/2000/svg">
<path fill-rule="evenodd" clip-rule="evenodd" d="M0.537109 3.71098C0.537109 1.88491 2.01871 0.405273 3.84722 0.405273H16.4256C18.2541 0.405273 19.7357 1.88491 19.7357 3.71098V5.33872L24.7631 3.1067C24.9683 3.01546 25.2053 3.03529 25.392 3.15694C25.58 3.27859 25.6939 3.48752 25.6939 3.71098V14.2893C25.6939 14.5127 25.58 14.7217 25.392 14.8433C25.2053 14.965 24.9683 14.9848 24.7631 14.8935L19.7357 12.6615V14.2893C19.7357 16.1153 18.2541 17.595 16.4256 17.595H3.84722C2.01871 17.595 0.537109 16.1153 0.537109 14.2893V3.71098ZM3.84722 1.72756C2.75091 1.72756 1.86115 2.61613 1.86115 3.71098V14.2893C1.86115 15.3841 2.75091 16.2727 3.84722 16.2727H16.4256C17.5219 16.2727 18.4117 15.3841 18.4117 14.2893V12.6615C18.4117 11.7055 19.3981 11.0655 20.2733 11.4543L24.3699 13.2724V4.72782L20.2733 6.54596C19.3981 6.93471 18.4117 6.29473 18.4117 5.33872V3.71098C18.4117 2.61613 17.5219 1.72756 16.4256 1.72756H3.84722Z" fill="black"/>
<path fill-rule="evenodd" clip-rule="evenodd" d="M5.1709 4.37158H10.4671V5.69483H5.1709V4.37158Z" fill="black"/>
</svg>
