<svg width="39" height="38" viewBox="0 0 39 38" fill="none" xmlns="http://www.w3.org/2000/svg">
<path fill-rule="evenodd" clip-rule="evenodd" d="M19.1159 2.10048C28.4608 2.10048 36.0378 9.66747 36.0378 19C36.0378 21.676 35.4147 24.205 34.3078 26.4536C34.1147 26.8453 34.045 27.3006 34.1386 27.7499L35.7611 35.6449L27.5908 34.118C27.1608 34.0385 26.7288 34.1021 26.3525 34.281C24.1606 35.3189 21.7079 35.8994 19.1159 35.8994C9.77099 35.8994 2.19394 28.3324 2.19394 19C2.19394 9.66747 9.77099 2.10048 19.1159 2.10048ZM38.0286 19C38.0286 8.56801 29.5617 0.112305 19.1159 0.112305C8.67007 0.112305 0.203125 8.56801 0.203125 19C0.203125 29.4319 8.67007 37.8876 19.1159 37.8876C22.0085 37.8876 24.7519 37.2395 27.2066 36.0764C27.2165 36.0724 27.2245 36.0724 27.2245 36.0724L35.3948 37.5993C36.7844 37.8578 37.9948 36.6291 37.7101 35.2453L36.0876 27.3503C36.0876 27.3503 36.0876 27.3423 36.0936 27.3304C37.3339 24.8174 38.0286 21.9882 38.0286 19Z" fill="#777474"/>
<path fill-rule="evenodd" clip-rule="evenodd" d="M9.16298 18.0043C8.61352 18.0043 8.16757 18.4496 8.16757 18.9984C8.16757 19.5471 8.61352 19.9925 9.16298 19.9925C9.71245 19.9925 10.1584 19.5471 10.1584 18.9984C10.1584 18.4496 9.71245 18.0043 9.16298 18.0043ZM6.17676 18.9984C6.17676 17.3522 7.51459 16.0161 9.16298 16.0161C10.8114 16.0161 12.1492 17.3522 12.1492 18.9984C12.1492 20.6446 10.8114 21.9806 9.16298 21.9806C7.51459 21.9806 6.17676 20.6446 6.17676 18.9984Z" fill="#777474"/>
<path fill-rule="evenodd" clip-rule="evenodd" d="M19.1171 18.0043C18.5676 18.0043 18.1217 18.4496 18.1217 18.9984C18.1217 19.5471 18.5676 19.9925 19.1171 19.9925C19.6665 19.9925 20.1125 19.5471 20.1125 18.9984C20.1125 18.4496 19.6665 18.0043 19.1171 18.0043ZM16.1309 18.9984C16.1309 17.3522 17.4687 16.0161 19.1171 16.0161C20.7655 16.0161 22.1033 17.3522 22.1033 18.9984C22.1033 20.6446 20.7655 21.9806 19.1171 21.9806C17.4687 21.9806 16.1309 20.6446 16.1309 18.9984Z" fill="#777474"/>
<path fill-rule="evenodd" clip-rule="evenodd" d="M29.0712 18.0043C28.5217 18.0043 28.0758 18.4496 28.0758 18.9984C28.0758 19.5471 28.5217 19.9925 29.0712 19.9925C29.6207 19.9925 30.0666 19.5471 30.0666 18.9984C30.0666 18.4496 29.6207 18.0043 29.0712 18.0043ZM26.085 18.9984C26.085 17.3522 27.4228 16.0161 29.0712 16.0161C30.7196 16.0161 32.0574 17.3522 32.0574 18.9984C32.0574 20.6446 30.7196 21.9806 29.0712 21.9806C27.4228 21.9806 26.085 20.6446 26.085 18.9984Z" fill="#777474"/>
</svg>
