<svg width="39" height="34" viewBox="0 0 39 34" fill="none" xmlns="http://www.w3.org/2000/svg">
<path fill-rule="evenodd" clip-rule="evenodd" d="M22.3287 0.173537C22.6912 0.0163873 23.1155 0.0899935 23.4043 0.35854L38.3434 14.2832C38.5446 14.4721 38.6601 14.7347 38.6601 15.0112C38.6601 15.2877 38.5446 15.5503 38.3434 15.7393L23.4043 29.6639C23.1155 29.9324 22.6912 30.006 22.3287 29.8489C21.9642 29.6898 21.7292 29.3317 21.7292 28.9358V19.9843H17.2913C13.0028 19.9843 9.04287 22.2799 6.91555 25.9977L2.67488 33.4076C2.45179 33.7995 1.99164 33.9905 1.55542 33.8751C1.1192 33.7597 0.814453 33.3659 0.814453 32.9143V21.9735C0.814453 14.2832 7.05699 8.0489 14.7576 8.0489H21.7292V1.08659C21.7292 0.690736 21.9642 0.332675 22.3287 0.173537ZM23.721 3.3762V9.04352C23.721 9.59255 23.2749 10.0381 22.7251 10.0381H14.7576C8.15651 10.0381 2.80633 15.3812 2.80633 21.9735V29.1686L5.18463 25.0111C7.6685 20.6726 12.2877 17.9951 17.2913 17.9951H22.7251C23.2749 17.9951 23.721 18.4407 23.721 18.9897V26.6462L36.2041 15.0112L23.721 3.3762Z" fill="#777474"/>
</svg>
