<svg width="44" height="36" viewBox="0 0 44 36" fill="none" xmlns="http://www.w3.org/2000/svg">
<path fill-rule="evenodd" clip-rule="evenodd" d="M0.631836 5.80602C0.631836 2.99932 2.90908 0.725098 5.71952 0.725098H13.8598C15.4614 0.725098 16.9694 1.47707 17.9299 2.75747L21.5931 7.63516C22.169 8.40339 23.0746 8.85458 24.0352 8.85458H38.2807C41.0911 8.85458 43.3683 11.1288 43.3683 13.9355V30.1945C43.3683 33.0012 41.0911 35.2754 38.2807 35.2754H5.71952C2.90908 35.2754 0.631836 33.0012 0.631836 30.1945V5.80602ZM5.71952 2.75747C4.03448 2.75747 2.66691 4.12322 2.66691 5.80602V30.1945C2.66691 31.8773 4.03448 33.243 5.71952 33.243H38.2807C39.9657 33.243 41.3333 31.8773 41.3333 30.1945V13.9355C41.3333 12.2527 39.9657 10.8869 38.2807 10.8869H24.0352C22.4336 10.8869 20.9256 10.135 19.965 8.85458L16.3019 3.97689C15.726 3.20865 14.8204 2.75747 13.8598 2.75747H5.71952Z" fill="#7A7A7A"/>
<path fill-rule="evenodd" clip-rule="evenodd" d="M17.0217 3.32021C17.1926 2.97674 17.5468 2.75928 17.9314 2.75928H36.7558C39.5662 2.75928 41.8435 5.0335 41.8435 7.8402V9.87257C41.8435 10.4335 41.3876 10.8888 40.8259 10.8888H24.5454C22.9438 10.8888 21.4358 10.1368 20.4752 8.85639L17.1173 4.38518C16.8853 4.07626 16.8487 3.66572 17.0217 3.32021ZM19.9665 4.79165L22.1033 7.63697C22.6792 8.4052 23.5848 8.85639 24.5454 8.85639H39.8084V7.8402C39.8084 6.1574 38.4408 4.79165 36.7558 4.79165H19.9665Z" fill="#7A7A7A"/>
</svg>
