<svg width="24" height="22" viewBox="0 0 24 22" fill="none" xmlns="http://www.w3.org/2000/svg">
<path fill-rule="evenodd" clip-rule="evenodd" d="M10.0174 2.08941C9.34169 2.08941 8.72429 2.47077 8.42094 3.0743L7.95221 4.01167C7.449 5.01794 6.41879 5.65355 5.29222 5.65355H3.78852C2.80351 5.65355 2.00408 6.45192 2.00408 7.43562V18.128C2.00408 19.1117 2.80351 19.9101 3.78852 19.9101H20.4433C21.4283 19.9101 22.2277 19.1117 22.2277 18.128V7.43562C22.2277 6.45192 21.4283 5.65355 20.4433 5.65355H18.9396C17.813 5.65355 16.7828 5.01794 16.2796 4.01167L15.8109 3.0743C15.5075 2.47077 14.8901 2.08941 14.2144 2.08941H10.0174ZM7.3574 2.54325C7.86061 1.53698 8.89082 0.901367 10.0174 0.901367H14.2144C15.341 0.901367 16.3712 1.53698 16.8744 2.54325L17.3431 3.48062C17.6465 4.08415 18.2639 4.46551 18.9396 4.46551H20.4433C22.0862 4.46551 23.4174 5.79493 23.4174 7.43562V18.128C23.4174 19.7687 22.0862 21.0982 20.4433 21.0982H3.78852C2.14565 21.0982 0.814453 19.7687 0.814453 18.128V7.43562C0.814453 5.79493 2.14565 4.46551 3.78852 4.46551H5.29222C5.96792 4.46551 6.58532 4.08415 6.88867 3.48062L7.3574 2.54325Z" fill="black"/>
<path fill-rule="evenodd" clip-rule="evenodd" d="M12.116 8.02936C9.81647 8.02936 7.95232 9.89103 7.95232 12.1875C7.95232 14.484 9.81647 16.3457 12.116 16.3457C14.4156 16.3457 16.2797 14.484 16.2797 12.1875C16.2797 9.89103 14.4156 8.02936 12.116 8.02936ZM6.7627 12.1875C6.7627 9.23522 9.15979 6.84131 12.116 6.84131C15.0722 6.84131 17.4693 9.23522 17.4693 12.1875C17.4693 15.1398 15.0722 17.5337 12.116 17.5337C9.15979 17.5337 6.7627 15.1398 6.7627 12.1875Z" fill="black"/>
</svg>
