<svg width="44" height="36" viewBox="0 0 44 36" fill="none" xmlns="http://www.w3.org/2000/svg">
<path fill-rule="evenodd" clip-rule="evenodd" d="M21.2596 35.4244C21.669 35.8312 22.329 35.8312 22.7384 35.4244L29.0044 29.1668L27.5256 27.6899L21.999 33.2113L16.4724 27.6899L14.9937 29.1668L21.2596 35.4244Z" fill="#777474"/>
<path fill-rule="evenodd" clip-rule="evenodd" d="M20.0411 2.35639C13.8086 2.35639 8.68506 7.61697 8.68506 14.1938C8.68506 14.4044 8.6913 14.6131 8.69965 14.8196C8.71427 15.1053 8.61194 15.3828 8.41352 15.5913C8.21719 15.7978 7.94357 15.9147 7.65743 15.9147H7.64073C4.65185 15.9147 2.158 18.4448 2.158 21.6508C2.158 24.8568 4.65185 27.387 7.64073 27.387H11.557V29.4729H7.64073C3.42163 29.4729 0.0693359 25.9311 0.0693359 21.6508C0.0693359 17.7294 2.88277 14.4274 6.5985 13.9018C6.74888 6.38425 12.6723 0.270508 20.0411 0.270508C25.0017 0.270508 29.3148 3.04683 31.6436 7.14977C32.1177 7.08302 32.6044 7.04964 33.0952 7.04964C39.1189 7.04964 43.9312 12.1079 43.9312 18.2613C43.9312 23.038 41.0405 27.1388 36.9342 28.7491C35.965 29.2143 34.8852 29.4729 33.749 29.4729H32.4436V27.387H33.749C34.5761 27.387 35.3572 27.1972 36.059 26.8551C36.0841 26.8426 36.1113 26.8301 36.1384 26.8197C39.451 25.5368 41.8425 22.2036 41.8425 18.2613C41.8425 13.1821 37.8887 9.13552 33.0952 9.13552C32.4791 9.13552 31.8775 9.20229 31.299 9.32745C30.8311 9.42966 30.3528 9.20016 30.1398 8.77256C28.2454 4.94495 24.421 2.35639 20.0411 2.35639Z" fill="#777474"/>
<path fill-rule="evenodd" clip-rule="evenodd" d="M23.0442 18.0015V34.6886H20.9556V18.0015H23.0442Z" fill="#777474"/>
</svg>
