<svg width="42" height="42" viewBox="0 0 42 42" fill="none" xmlns="http://www.w3.org/2000/svg">
<rect x="0.618652" y="0.907715" width="40.9937" height="40.1846" rx="20.0923" fill="#04AD04"/>
<path d="M17.7893 26.9628C16.7316 26.9628 15.7398 26.5543 14.9923 25.8103L11.8045 22.6371C11.3282 22.1629 11.3282 21.3921 11.8045 20.9179C12.2809 20.4438 13.0552 20.4438 13.5316 20.9179L16.7218 24.0936C17.0076 24.3781 17.3887 24.5337 17.7918 24.5337C18.1948 24.5337 18.5759 24.3781 18.8617 24.0936L29.6074 13.3971C30.0838 12.923 30.8581 12.923 31.3345 13.3971C31.8108 13.8713 31.8108 14.6421 31.3345 15.1162L20.5887 25.8127C19.8388 26.5519 18.847 26.9628 17.7893 26.9628Z" fill="#00FF00"/>
</svg>
