<svg width="29" height="26" viewBox="0 0 29 26" fill="none" xmlns="http://www.w3.org/2000/svg">
<path d="M25.0724 10.324C24.9363 10.3217 24.8032 10.2834 24.6866 10.213C24.5999 10.1623 24.5243 10.0948 24.464 10.0145C24.4038 9.93417 24.3602 9.84264 24.3358 9.74526L22.2137 1.59568C22.1872 1.49855 22.1804 1.39715 22.1935 1.29735C22.2066 1.19755 22.2394 1.10135 22.29 1.01433C22.3405 0.927304 22.4079 0.851195 22.4881 0.79042C22.5684 0.729645 22.6599 0.685416 22.7573 0.660296L25.0958 0.0756772C25.1937 0.04862 25.2961 0.0419207 25.3966 0.0559984C25.4972 0.0700761 25.5938 0.104631 25.6804 0.157523C25.7682 0.207618 25.845 0.274825 25.9062 0.355168C25.9675 0.43551 26.012 0.527341 26.0371 0.625211L28.1592 8.78065C28.2092 8.97596 28.1801 9.18309 28.0783 9.35711C27.9766 9.53113 27.8102 9.658 27.6155 9.71019L25.3063 10.2948C25.2303 10.3164 25.1514 10.3262 25.0724 10.324ZM23.4472 1.68922L25.3648 9.06126L26.8906 8.66371L24.9731 1.29168L23.4472 1.68922Z" fill="#FFC700"/>
<path d="M8.1654 14.1473C7.92203 14.1463 7.6858 14.0649 7.4934 13.9159C7.301 13.7668 7.1632 13.5584 7.10139 13.323L5.42354 6.89223C5.35072 6.61004 5.39295 6.31048 5.54096 6.05942C5.68896 5.80836 5.93061 5.62637 6.21278 5.55345L23.2895 1.11035L25.5169 9.67502L17.6245 11.8206C17.5504 11.8409 17.4731 11.8465 17.3968 11.8369C17.3206 11.8274 17.247 11.8029 17.1802 11.7649C17.1135 11.7269 17.0548 11.6761 17.0077 11.6154C16.9605 11.5548 16.9258 11.4854 16.9055 11.4113C16.8851 11.3372 16.8796 11.2599 16.8891 11.1836C16.8987 11.1074 16.9231 11.0338 16.9611 10.967C16.9991 10.9003 17.0499 10.8416 17.1106 10.7945C17.1712 10.7473 17.2406 10.7126 17.3147 10.6922L24.0963 8.8507L22.4535 2.53098L6.5577 6.65838L8.20048 12.9664L12.7254 11.7972C12.7999 11.778 12.8774 11.7737 12.9536 11.7844C13.0297 11.7952 13.103 11.8208 13.1692 11.8599C13.2354 11.899 13.2933 11.9508 13.3396 12.0122C13.3858 12.0737 13.4195 12.1436 13.4387 12.2181C13.4578 12.2926 13.4622 12.3701 13.4514 12.4462C13.4407 12.5224 13.415 12.5957 13.3759 12.6619C13.3368 12.7281 13.2851 12.786 13.2236 12.8322C13.1622 12.8785 13.0922 12.9121 13.0177 12.9313L8.42264 14.1006C8.33905 14.1263 8.2527 14.142 8.1654 14.1473V14.1473Z" fill="#FFC700"/>
<path d="M5.08414 13.8201C4.92572 13.8208 4.77007 13.7784 4.63398 13.6973C4.42948 13.5777 4.28034 13.3824 4.2189 13.1536L2.9912 8.41234C2.96133 8.29968 2.95422 8.1822 2.97028 8.06676C2.98634 7.95133 3.02525 7.84025 3.08474 7.74003C3.20618 7.53719 3.40077 7.38863 3.62844 7.32495L6.55152 6.56494L8.22937 12.9957L5.30628 13.7557C5.23493 13.7856 5.16041 13.8072 5.08414 13.8201V13.8201ZM4.2189 8.41234L5.30628 12.5982L6.83215 12.2007L5.74475 8.0148L4.2189 8.41234Z" fill="#FFC700"/>
<path d="M1.6116 13.5921C1.41604 13.593 1.22581 13.5284 1.07116 13.4087C0.916503 13.289 0.806301 13.121 0.758063 12.9315L0.0799036 10.3183C0.0488375 10.206 0.0405952 10.0887 0.0556574 9.97324C0.0707197 9.85777 0.108786 9.74649 0.167602 9.64597C0.287608 9.44669 0.480532 9.30199 0.70545 9.24259L4.17224 8.33643L5.30055 12.6568L1.83376 13.5629C1.76102 13.5809 1.68651 13.5907 1.6116 13.5921V13.5921ZM1.27837 10.3007L1.81622 12.3586L3.87408 11.8208L3.33623 9.7629L1.27837 10.3007Z" fill="#FFC700"/>
<path d="M15.4491 6.58813C15.3164 6.59233 15.1861 6.55119 15.0799 6.47149C14.9736 6.39179 14.8977 6.27829 14.8645 6.14966C14.8272 6.00008 14.8506 5.84181 14.9294 5.70933C15.0082 5.57684 15.1362 5.48086 15.2854 5.44227L20.5996 4.05673C20.7456 4.02758 20.8972 4.05521 21.0235 4.13399C21.1498 4.21277 21.2413 4.33676 21.2793 4.48067C21.3173 4.62458 21.299 4.77759 21.2282 4.90847C21.1573 5.03936 21.0391 5.13827 20.8978 5.18504L15.5778 6.57059C15.5356 6.58088 15.4925 6.58676 15.4491 6.58813V6.58813Z" fill="#FFC700"/>
<path d="M5.97284 25.9507C5.85624 25.951 5.74223 25.9164 5.64546 25.8513C5.58166 25.8084 5.52695 25.7533 5.48448 25.6892C5.442 25.6251 5.41259 25.5533 5.39793 25.4778C5.38327 25.4023 5.38365 25.3247 5.39904 25.2493C5.41442 25.174 5.44453 25.1024 5.48762 25.0387L13.0526 13.7848C13.1394 13.6561 13.2738 13.5672 13.4262 13.5376C13.5786 13.508 13.7365 13.5401 13.8652 13.627C13.9939 13.7138 14.0828 13.8482 14.1124 14.0006C14.142 14.153 14.1099 14.3109 14.023 14.4396L6.45807 25.6935C6.40444 25.7728 6.33215 25.8378 6.24754 25.8826C6.16293 25.9275 6.0686 25.9509 5.97284 25.9507Z" fill="#FFC700"/>
<path d="M24.6801 25.951C24.5844 25.9512 24.49 25.9278 24.4054 25.8829C24.3208 25.8381 24.2485 25.7731 24.1949 25.6938L16.665 14.4399C16.6222 14.3758 16.5925 14.304 16.5775 14.2284C16.5626 14.1528 16.5627 14.075 16.5779 13.9995C16.5931 13.924 16.6231 13.8523 16.6661 13.7884C16.7092 13.7245 16.7644 13.6697 16.8287 13.6273C16.8924 13.5842 16.964 13.5541 17.0393 13.5387C17.1146 13.5233 17.1923 13.5229 17.2677 13.5376C17.3432 13.5522 17.4151 13.5817 17.4792 13.6241C17.5433 13.6666 17.5984 13.7213 17.6413 13.7851L25.1653 25.039C25.2084 25.1027 25.2385 25.1743 25.2539 25.2496C25.2693 25.3249 25.2697 25.4026 25.255 25.4781C25.2404 25.5536 25.211 25.6254 25.1685 25.6895C25.126 25.7536 25.0713 25.8087 25.0075 25.8516C24.9107 25.9167 24.7967 25.9513 24.6801 25.951V25.951Z" fill="#FFC700"/>
<path d="M15.3268 25.9507C15.1718 25.9507 15.0231 25.8891 14.9134 25.7794C14.8038 25.6698 14.7422 25.5211 14.7422 25.3661V14.8429C14.7422 14.6879 14.8038 14.5392 14.9134 14.4295C15.0231 14.3199 15.1718 14.2583 15.3268 14.2583C15.4819 14.2583 15.6305 14.3199 15.7402 14.4295C15.8498 14.5392 15.9114 14.6879 15.9114 14.8429V25.3661C15.9114 25.5211 15.8498 25.6698 15.7402 25.7794C15.6305 25.8891 15.4819 25.9507 15.3268 25.9507Z" fill="#FFC700"/>
<path d="M20.5887 20.1048H10.0656C9.91053 20.1048 9.76183 20.0432 9.6522 19.9336C9.54256 19.8239 9.48096 19.6752 9.48096 19.5202C9.48096 19.3651 9.54256 19.2164 9.6522 19.1068C9.76183 18.9971 9.91053 18.9355 10.0656 18.9355H20.5887C20.7438 18.9355 20.8924 18.9971 21.0021 19.1068C21.1117 19.2164 21.1733 19.3651 21.1733 19.5202C21.1733 19.6752 21.1117 19.8239 21.0021 19.9336C20.8924 20.0432 20.7438 20.1048 20.5887 20.1048Z" fill="#FFC700"/>
<path d="M15.3269 15.4277C14.7488 15.4277 14.1836 15.2563 13.7029 14.9351C13.2222 14.6139 12.8476 14.1574 12.6263 13.6233C12.4051 13.0891 12.3472 12.5014 12.46 11.9344C12.5728 11.3673 12.8512 10.8465 13.26 10.4377C13.6688 10.0289 14.1896 9.7505 14.7566 9.63771C15.3237 9.52492 15.9114 9.58281 16.4455 9.80405C16.9796 10.0253 17.4362 10.4 17.7574 10.8807C18.0786 11.3614 18.25 11.9265 18.25 12.5046C18.25 13.2799 17.942 14.0234 17.3938 14.5716C16.8456 15.1198 16.1022 15.4277 15.3269 15.4277V15.4277ZM15.3269 10.7508C14.98 10.7508 14.6409 10.8536 14.3525 11.0464C14.0641 11.2391 13.8393 11.513 13.7066 11.8335C13.5738 12.1539 13.5391 12.5066 13.6067 12.8468C13.6744 13.187 13.8415 13.4995 14.0867 13.7448C14.332 13.9901 14.6445 14.1571 14.9847 14.2248C15.325 14.2925 15.6776 14.2577 15.9981 14.125C16.3185 13.9922 16.5925 13.7675 16.7852 13.479C16.9779 13.1906 17.0808 12.8515 17.0808 12.5046C17.0808 12.0395 16.896 11.5934 16.5671 11.2645C16.2381 10.9356 15.7921 10.7508 15.3269 10.7508Z" fill="#FFC700"/>
</svg>
