<svg width="26" height="18" viewBox="0 0 26 18" fill="none" xmlns="http://www.w3.org/2000/svg">
<path fill-rule="evenodd" clip-rule="evenodd" d="M12.0279 2.05204C8.56786 2.05204 5.72351 4.97249 5.72351 8.62365C5.72351 8.74061 5.72698 8.85643 5.73162 8.97107C5.73973 9.12971 5.68292 9.28372 5.57277 9.39952C5.46377 9.51416 5.31187 9.57901 5.15302 9.57901H5.14374C3.48445 9.57901 2.09996 10.9837 2.09996 12.7635C2.09996 14.5433 3.48445 15.948 5.14374 15.948H7.31787V17.106H5.14374C2.80148 17.106 0.94043 15.1397 0.94043 12.7635C0.94043 10.5865 2.50233 8.75336 4.56514 8.46155C4.64863 4.28813 7.93708 0.894043 12.0279 0.894043C14.7818 0.894043 17.1762 2.43534 18.4691 4.71312C18.7323 4.67606 19.0025 4.65753 19.275 4.65753C22.6191 4.65753 25.2907 7.46567 25.2907 10.8818C25.2907 13.5336 23.6859 15.8102 21.4062 16.7042C20.8682 16.9624 20.2687 17.106 19.6379 17.106H18.9132V15.948H19.6379C20.0971 15.948 20.5308 15.8426 20.9204 15.6527C20.9343 15.6457 20.9494 15.6388 20.9645 15.633C22.8035 14.9208 24.1311 13.0704 24.1311 10.8818C24.1311 8.06204 21.9361 5.81552 19.275 5.81552C18.9329 5.81552 18.599 5.85259 18.2778 5.92207C18.0181 5.97881 17.7525 5.85141 17.6343 5.61402C16.5826 3.4891 14.4595 2.05204 12.0279 2.05204Z" fill="#5F9AF2"/>
</svg>
