<svg width="57" height="56" viewBox="0 0 57 56" fill="none" xmlns="http://www.w3.org/2000/svg">
<rect width="56" height="56" transform="translate(0.115723)" fill="white"/>
<path fill-rule="evenodd" clip-rule="evenodd" d="M24.3008 29.4271V23.7192H25.7296V28.7136H30.7306V30.1406H25.0152C24.6208 30.1406 24.3008 29.8209 24.3008 29.4271Z" fill="#FFC700"/>
<path fill-rule="evenodd" clip-rule="evenodd" d="M26.8595 19.4882C31.5669 19.4882 35.3826 23.2989 35.3826 28H36.6938C36.6938 22.576 32.2907 18.1787 26.8595 18.1787C21.4283 18.1787 17.0252 22.576 17.0252 28C17.0252 33.424 21.4283 37.8213 26.8595 37.8213C30.4379 37.8213 33.5691 35.9121 35.2882 33.0626L34.1658 32.3868C32.6736 34.8591 29.9593 36.5118 26.8595 36.5118C22.1521 36.5118 18.3364 32.7011 18.3364 28C18.3364 23.2989 22.1521 19.4882 26.8595 19.4882Z" fill="#FFC700"/>
<path fill-rule="evenodd" clip-rule="evenodd" d="M35.8568 27.0922L38.1161 23.7085L39.207 24.4339L36.5845 28.3624C36.3839 28.6636 35.9761 28.7448 35.6759 28.5445L31.7421 25.9255L32.4685 24.8359L35.8568 27.0922Z" fill="#FFC700"/>
</svg>
