<svg width="46" height="46" viewBox="0 0 46 46" fill="none" xmlns="http://www.w3.org/2000/svg">
<path d="M39.1997 27.2482C39.1088 27.2481 39.0182 27.2371 38.9299 27.2155L27.3215 24.392C27.1756 24.357 27.038 24.2935 26.9167 24.2052C26.7954 24.1169 26.6927 24.0055 26.6145 23.8774C26.5362 23.7492 26.4841 23.6069 26.4609 23.4586C26.4378 23.3102 26.4441 23.1588 26.4796 23.0129C26.515 22.867 26.5789 22.7296 26.6675 22.6084C26.7562 22.4873 26.8679 22.3849 26.9961 22.307C27.1244 22.2292 27.2668 22.1774 27.4151 22.1547C27.5634 22.132 27.7147 22.1388 27.8604 22.1748L39.4681 24.9982C39.7393 25.0639 39.977 25.2268 40.1363 25.4561C40.2956 25.6854 40.3653 25.9652 40.3322 26.2424C40.2991 26.5197 40.1656 26.7752 39.9569 26.9606C39.7482 27.1459 39.4788 27.2483 39.1997 27.2482Z" fill="#FFC700"/>
<path d="M15.583 15.7933C14.8288 15.7934 14.0914 15.5697 13.4642 15.1505C12.837 14.7312 12.3482 14.1352 12.0595 13.4379C11.7707 12.7406 11.6952 11.9732 11.8423 11.2329C11.9894 10.4926 12.3526 9.81256 12.8859 9.27883C13.4192 8.7451 14.0988 8.38164 14.8385 8.23442C15.5783 8.0872 16.3451 8.16284 17.0419 8.45176C17.7387 8.74069 18.3342 9.2299 18.7532 9.85757C19.1721 10.4852 19.3957 11.2231 19.3955 11.9779C19.3943 12.9895 18.9922 13.9592 18.2775 14.6744C17.5628 15.3897 16.5938 15.792 15.583 15.7933ZM15.583 10.4438C15.2798 10.4436 14.9833 10.5335 14.7311 10.702C14.4789 10.8704 14.2823 11.11 14.1661 11.3903C14.05 11.6706 14.0195 11.9791 14.0786 12.2768C14.1377 12.5744 14.2836 12.8479 14.498 13.0625C14.7124 13.2772 14.9855 13.4233 15.2829 13.4826C15.5803 13.5419 15.8886 13.5115 16.1688 13.3954C16.4489 13.2793 16.6884 13.0827 16.8569 12.8304C17.0254 12.5781 17.1153 12.2814 17.1153 11.9779C17.1139 11.5719 16.9519 11.1829 16.6648 10.896C16.3777 10.6091 15.9888 10.4476 15.583 10.4468V10.4438Z" fill="#FFC700"/>
<path d="M4.43237 14.2825C3.67818 14.2825 2.94094 14.0587 2.31386 13.6394C1.68678 13.2201 1.19802 12.6241 0.909408 11.9268C0.620794 11.2295 0.545278 10.4622 0.692412 9.72199C0.839546 8.98174 1.20272 8.30178 1.73601 7.76809C2.2693 7.23441 2.94876 6.87096 3.68845 6.72372C4.42814 6.57647 5.19485 6.65205 5.89163 6.94087C6.5884 7.2297 7.18395 7.71881 7.60295 8.34636C8.02196 8.97391 8.24561 9.71171 8.24561 10.4665C8.2446 11.4782 7.84252 12.4483 7.12762 13.1637C6.41272 13.8791 5.44339 14.2815 4.43237 14.2825ZM4.43237 8.93304C4.12913 8.93304 3.83271 9.02304 3.58058 9.19165C3.32846 9.36026 3.13196 9.5999 3.01595 9.88028C2.89994 10.1607 2.86963 10.4692 2.92884 10.7668C2.98806 11.0644 3.13413 11.3378 3.34861 11.5523C3.56309 11.7668 3.83633 11.9129 4.13376 11.972C4.43119 12.0311 4.73946 12.0006 5.01958 11.8844C5.29969 11.7682 5.53906 11.5714 5.70742 11.319C5.87578 11.0666 5.96557 10.7699 5.96542 10.4665C5.96502 10.0598 5.80336 9.66985 5.51592 9.38234C5.22848 9.09484 4.83876 8.93324 4.43237 8.93304Z" fill="#FFC700"/>
<path d="M24.9934 26.4681C24.2392 26.4681 23.502 26.2443 22.8749 25.8249C22.2478 25.4056 21.759 24.8096 21.4704 24.1123C21.1818 23.4151 21.1063 22.6478 21.2535 21.9075C21.4006 21.1673 21.7637 20.4873 22.297 19.9536C22.8303 19.42 23.5098 19.0565 24.2495 18.9093C24.9892 18.762 25.7559 18.8376 26.4527 19.1264C27.1494 19.4152 27.745 19.9044 28.164 20.5319C28.583 21.1595 28.8066 21.8973 28.8066 22.652C28.8056 23.6638 28.4035 24.6338 27.6886 25.3493C26.9737 26.0647 26.0044 26.4671 24.9934 26.4681ZM24.9934 21.1186C24.6902 21.1186 24.3937 21.2086 24.1416 21.3772C23.8895 21.5458 23.693 21.7855 23.577 22.0658C23.461 22.3462 23.4306 22.6547 23.4899 22.9524C23.5491 23.25 23.6952 23.5233 23.9096 23.7379C24.1241 23.9524 24.3974 24.0985 24.6948 24.1576C24.9922 24.2167 25.3005 24.1862 25.5806 24.07C25.8607 23.9537 26.1001 23.7569 26.2684 23.5046C26.4368 23.2522 26.5266 22.9555 26.5265 22.652C26.5261 22.2453 26.3644 21.8554 26.0769 21.5679C25.7895 21.2804 25.3998 21.1188 24.9934 21.1186Z" fill="#FFC700"/>
<path d="M37.7906 40.4046C37.0363 40.4048 36.299 40.1811 35.6718 39.7618C35.0446 39.3426 34.5558 38.7467 34.2671 38.0494C33.9783 37.3521 33.9027 36.5848 34.0497 35.8445C34.1968 35.1042 34.5599 34.4242 35.0932 33.8904C35.6264 33.3567 36.3059 32.9931 37.0456 32.8458C37.7853 32.6985 38.5521 32.7741 39.2489 33.0629C39.9457 33.3517 40.5413 33.8408 40.9603 34.4684C41.3794 35.0959 41.603 35.8337 41.603 36.5885C41.6018 37.6001 41.1998 38.5699 40.4851 39.2853C39.7704 40.0007 38.8014 40.4032 37.7906 40.4046ZM37.7906 35.0544C37.4873 35.0542 37.1909 35.144 36.9386 35.3125C36.6864 35.481 36.4898 35.7206 36.3737 36.0009C36.2575 36.2812 36.227 36.5897 36.2861 36.8874C36.3452 37.185 36.4911 37.4585 36.7055 37.6731C36.9199 37.8877 37.193 38.0339 37.4904 38.0932C37.7878 38.1524 38.0961 38.1221 38.3763 38.006C38.6565 37.8899 38.8959 37.6933 39.0644 37.441C39.2329 37.1887 39.3228 36.892 39.3228 36.5885C39.3222 36.182 39.1606 35.7922 38.8734 35.5046C38.5862 35.2171 38.1968 35.0552 37.7906 35.0544Z" fill="#FFC700"/>
<path d="M24.0388 37.7298C23.2846 37.7298 22.5474 37.506 21.9203 37.0867C21.2932 36.6673 20.8045 36.0714 20.5159 35.3741C20.2272 34.6768 20.1517 33.9095 20.2989 33.1693C20.446 32.429 20.8092 31.749 21.3425 31.2154C21.8757 30.6817 22.5552 30.3182 23.2949 30.171C24.0346 30.0237 24.8013 30.0993 25.4981 30.3881C26.1949 30.677 26.7904 31.1661 27.2094 31.7936C27.6284 32.4212 27.852 33.159 27.852 33.9137C27.851 34.9255 27.449 35.8955 26.7341 36.611C26.0192 37.3264 25.0498 37.7288 24.0388 37.7298ZM24.0388 32.3803C23.7356 32.3803 23.4391 32.4703 23.187 32.6389C22.9349 32.8075 22.7384 33.0472 22.6224 33.3275C22.5064 33.6079 22.4761 33.9165 22.5353 34.2141C22.5945 34.5117 22.7406 34.7851 22.955 34.9996C23.1695 35.2141 23.4428 35.3602 23.7402 35.4193C24.0376 35.4784 24.3459 35.4479 24.626 35.3317C24.9061 35.2154 25.1455 35.0187 25.3139 34.7663C25.4822 34.5139 25.572 34.2172 25.5719 33.9137C25.5715 33.507 25.4098 33.1171 25.1224 32.8296C24.8349 32.5421 24.4452 32.3805 24.0388 32.3803Z" fill="#FFC700"/>
<path d="M41.7961 30.554C41.0419 30.554 40.3046 30.3302 39.6775 29.9108C39.0504 29.4915 38.5617 28.8954 38.2731 28.1981C37.9845 27.5008 37.909 26.7334 38.0562 25.9932C38.2034 25.2529 38.5667 24.573 39.1001 24.0393C39.6334 23.5056 40.3129 23.1423 41.0527 22.9951C41.7924 22.848 42.5592 22.9236 43.2559 23.2126C43.9527 23.5015 44.5482 23.9907 44.9671 24.6184C45.386 25.246 45.6095 25.9839 45.6094 26.7387C45.6082 27.7503 45.206 28.7202 44.4911 29.4355C43.7763 30.1507 42.807 30.553 41.7961 30.554ZM41.7961 25.2045C41.4929 25.2045 41.1965 25.2945 40.9444 25.4631C40.6923 25.6316 40.4958 25.8712 40.3798 26.1516C40.2638 26.4319 40.2334 26.7404 40.2926 27.038C40.3517 27.3356 40.4977 27.609 40.7121 27.8235C40.9265 28.0381 41.1997 28.1842 41.4971 28.2434C41.7944 28.3026 42.1027 28.2722 42.3828 28.1561C42.6629 28.04 42.9024 27.8433 43.0708 27.591C43.2393 27.3387 43.3292 27.0421 43.3292 26.7387C43.329 26.3317 43.1675 25.9415 42.8801 25.6536C42.5926 25.3656 42.2028 25.2036 41.7961 25.203V25.2045Z" fill="#FFC700"/>
<path d="M12.9362 12.7597C12.8853 12.7598 12.8345 12.7562 12.7842 12.749L6.9317 11.9557C6.78011 11.9397 6.63327 11.8933 6.49988 11.8195C6.36648 11.7457 6.24926 11.6458 6.1551 11.5258C6.06095 11.4059 5.99178 11.2682 5.95171 11.121C5.91164 10.9738 5.90148 10.8201 5.92181 10.6689C5.94215 10.5177 5.99257 10.3722 6.07009 10.2408C6.14762 10.1095 6.25069 9.99503 6.37319 9.90424C6.49569 9.81345 6.63513 9.74816 6.78328 9.71224C6.93143 9.67632 7.08528 9.67052 7.23572 9.69514L13.0882 10.4885C13.3741 10.5278 13.6345 10.6742 13.8167 10.8981C13.999 11.1221 14.0897 11.4068 14.0704 11.695C14.0511 11.9832 13.9233 12.2533 13.7128 12.4509C13.5023 12.6485 13.2248 12.7588 12.9362 12.7597Z" fill="#FFC700"/>
<path d="M23.2265 21.7878C23.0646 21.7879 22.9045 21.7535 22.757 21.6869C22.6094 21.6202 22.4777 21.5229 22.3706 21.4014L16.4961 14.7383C16.3971 14.6259 16.3211 14.4952 16.2725 14.3534C16.224 14.2116 16.2038 14.0617 16.2132 13.9121C16.2225 13.7626 16.2612 13.6163 16.327 13.4817C16.3929 13.3471 16.4846 13.2268 16.5968 13.1277C16.7091 13.0286 16.8398 12.9525 16.9815 12.9039C17.1231 12.8553 17.273 12.8352 17.4224 12.8445C17.5719 12.8539 17.718 12.8926 17.8525 12.9585C17.987 13.0244 18.1072 13.1161 18.2063 13.2285L24.0808 19.8916C24.2261 20.0562 24.3208 20.2593 24.3536 20.4764C24.3864 20.6936 24.3558 20.9156 24.2656 21.1158C24.1754 21.316 24.0294 21.4859 23.8451 21.6051C23.6607 21.7243 23.4459 21.7878 23.2265 21.7878Z" fill="#FFC700"/>
<path d="M24.2662 32.3903C24.2343 32.3903 24.2016 32.3903 24.1689 32.3903C24.0197 32.3777 23.8744 32.3357 23.7413 32.2669C23.6083 32.198 23.4902 32.1036 23.3936 31.989C23.297 31.8745 23.224 31.742 23.1786 31.5991C23.1332 31.4563 23.1164 31.3059 23.1291 31.1566L23.6315 25.2237C23.657 24.9221 23.8012 24.643 24.0323 24.4478C24.2634 24.2526 24.5626 24.1573 24.864 24.1828C25.1653 24.2083 25.4442 24.3526 25.6393 24.5839C25.8344 24.8152 25.9296 25.1146 25.9041 25.4161L25.4009 31.349C25.3761 31.6331 25.2458 31.8976 25.0357 32.0903C24.8257 32.2831 24.5512 32.3901 24.2662 32.3903Z" fill="#FFC700"/>
<path d="M38.7948 35.2522C38.6079 35.2522 38.4238 35.2062 38.2588 35.1182C38.0939 35.0303 37.953 34.9031 37.8487 34.7478C37.7444 34.5926 37.6799 34.4141 37.6608 34.228C37.6416 34.0419 37.6685 33.854 37.7391 33.6807L39.7297 28.7861C39.8437 28.5058 40.0643 28.2823 40.3429 28.1648C40.6216 28.0472 40.9355 28.0453 41.2156 28.1594C41.4957 28.2735 41.719 28.4942 41.8365 28.7731C41.9539 29.0519 41.9559 29.3661 41.8419 29.6464L39.8513 34.541C39.7658 34.7513 39.6197 34.9313 39.4315 35.0579C39.2433 35.1846 39.0216 35.2523 38.7948 35.2522Z" fill="#FFC700"/>
<path d="M35.1678 37.221C35.0944 37.221 35.021 37.2139 34.9489 37.1997L26.4454 35.5477C26.2984 35.519 26.1585 35.4617 26.0336 35.379C25.9088 35.2963 25.8015 35.1898 25.7178 35.0655C25.6341 34.9413 25.5756 34.8018 25.5458 34.6549C25.516 34.5081 25.5153 34.3568 25.5439 34.2097C25.5725 34.0626 25.6298 33.9226 25.7125 33.7977C25.7951 33.6728 25.9016 33.5653 26.0257 33.4816C26.1499 33.3978 26.2893 33.3393 26.436 33.3095C26.5827 33.2796 26.7339 33.279 26.8809 33.3076L35.3837 34.9612C35.6623 35.0149 35.9109 35.1705 36.0809 35.3977C36.251 35.625 36.3303 35.9075 36.3033 36.1901C36.2763 36.4727 36.145 36.7351 35.935 36.9261C35.7251 37.117 35.4515 37.2227 35.1678 37.2226V37.221Z" fill="#FFC700"/>
<path d="M8.27698 45.5116C7.97461 45.5116 7.68461 45.3914 7.47081 45.1774C7.257 44.9635 7.13689 44.6733 7.13689 44.3707C7.13528 42.9441 6.56829 41.5765 5.56032 40.5678C4.55234 39.559 3.1857 38.9916 1.76021 38.99C1.45784 38.99 1.16785 38.8698 0.954045 38.6558C0.740236 38.4419 0.620117 38.1517 0.620117 37.8491C0.620117 37.5465 0.740236 37.2563 0.954045 37.0423C1.16785 36.8283 1.45784 36.7081 1.76021 36.7081C3.18564 36.7063 4.55216 36.1388 5.56009 35.1302C6.56802 34.1215 7.13508 32.7539 7.13689 31.3275C7.13689 31.0249 7.257 30.7347 7.47081 30.5207C7.68461 30.3067 7.97461 30.1865 8.27698 30.1865C8.57935 30.1865 8.86934 30.3067 9.08315 30.5207C9.29696 30.7347 9.41707 31.0249 9.41707 31.3275C9.41868 32.754 9.98567 34.1217 10.9936 35.1304C12.0016 36.1391 13.3683 36.7065 14.7937 36.7081C15.0961 36.7081 15.3861 36.8283 15.5999 37.0423C15.8137 37.2563 15.9338 37.5465 15.9338 37.8491C15.9338 38.1517 15.8137 38.4419 15.5999 38.6558C15.3861 38.8698 15.0961 38.99 14.7937 38.99C13.3683 38.9916 12.0016 39.559 10.9936 40.5678C9.98567 41.5765 9.41868 42.9441 9.41707 44.3707C9.41707 44.6733 9.29696 44.9635 9.08315 45.1774C8.86934 45.3914 8.57935 45.5116 8.27698 45.5116ZM5.77638 37.8491C6.7923 38.4782 7.64831 39.3349 8.27698 40.3515C8.90543 39.3347 9.76149 38.478 10.7776 37.8491C9.76166 37.2199 8.90565 36.3633 8.27698 35.3466C7.648 36.3628 6.79204 37.2192 5.77638 37.8483V37.8491Z" fill="#FFC700"/>
<path d="M42.2627 13.7646C42.1278 13.7645 41.9941 13.7405 41.8675 13.6939L38.6927 12.5187L35.5187 13.6939C35.3427 13.759 35.1534 13.7797 34.9675 13.754C34.7816 13.7283 34.605 13.6571 34.4532 13.5468C34.3014 13.4364 34.1791 13.2902 34.0973 13.1212C34.0155 12.9522 33.9766 12.7657 33.9841 12.578L34.1202 9.19326L32.0224 6.53563C31.906 6.38827 31.8278 6.21442 31.7947 6.02955C31.7616 5.84467 31.7746 5.65448 31.8326 5.47585C31.8906 5.29721 31.9917 5.13567 32.1271 5.00554C32.2624 4.87542 32.4277 4.78074 32.6084 4.72991L35.8668 3.81335L37.7442 0.999035C37.8481 0.842137 37.9893 0.713428 38.1551 0.624395C38.3209 0.535363 38.5061 0.48877 38.6942 0.48877C38.8824 0.48877 39.0676 0.535363 39.2334 0.624395C39.3991 0.713428 39.5403 0.842137 39.6443 0.999035L41.5224 3.81335L44.7808 4.72991C44.9615 4.78074 45.1268 4.87542 45.2622 5.00554C45.3975 5.13567 45.4987 5.29721 45.5566 5.47585C45.6146 5.65448 45.6276 5.84467 45.5945 6.02955C45.5614 6.21442 45.4832 6.38827 45.3668 6.53563L43.2691 9.19326L43.4051 12.578C43.4112 12.7317 43.3863 12.8849 43.3318 13.0287C43.2772 13.1724 43.1942 13.3036 43.0877 13.4145C42.9813 13.5253 42.8535 13.6134 42.7121 13.6736C42.5707 13.7338 42.4186 13.7648 42.265 13.7646H42.2627ZM38.6904 10.1608C38.8256 10.1606 38.9598 10.1848 39.0864 10.2323L41.0527 10.9602L40.9683 8.86314C40.9575 8.59094 41.0443 8.32385 41.2131 8.11013L42.5128 6.46412L40.4941 5.89594C40.2321 5.82219 40.005 5.65708 39.8541 5.43044L38.6904 3.681L37.5275 5.43044C37.3766 5.65708 37.1496 5.82219 36.8876 5.89594L34.8688 6.46412L36.1685 8.11013C36.3371 8.32395 36.4236 8.59104 36.4125 8.86314L36.3289 10.9602L38.2952 10.2323C38.4223 10.1846 38.557 10.1604 38.6927 10.1608H38.6904Z" fill="#FFC700"/>
<path d="M12.935 26.4678C12.6326 26.4678 12.3426 26.3476 12.1288 26.1336C11.915 25.9196 11.7949 25.6294 11.7949 25.3268V19.9774C11.7949 19.6748 11.915 19.3846 12.1288 19.1706C12.3426 18.9566 12.6326 18.8364 12.935 18.8364C13.2374 18.8364 13.5274 18.9566 13.7412 19.1706C13.955 19.3846 14.0751 19.6748 14.0751 19.9774V25.3268C14.0751 25.6294 13.955 25.9196 13.7412 26.1336C13.5274 26.3476 13.2374 26.4678 12.935 26.4678Z" fill="#FFC700"/>
<path d="M15.6077 23.7926H10.2622C9.95979 23.7926 9.6698 23.6724 9.45599 23.4585C9.24218 23.2445 9.12207 22.9543 9.12207 22.6517C9.12207 22.3491 9.24218 22.0589 9.45599 21.8449C9.6698 21.631 9.95979 21.5107 10.2622 21.5107H15.6077C15.91 21.5107 16.2 21.631 16.4138 21.8449C16.6276 22.0589 16.7478 22.3491 16.7478 22.6517C16.7478 22.9543 16.6276 23.2445 16.4138 23.4585C16.2 23.6724 15.91 23.7926 15.6077 23.7926Z" fill="#FFC700"/>
</svg>
