<svg width="100%" height="100%" viewBox="0 0 26 30" fill="none" xmlns="http://www.w3.org/2000/svg">
<path fill-rule="evenodd" clip-rule="evenodd" d="M6.64515 1.61475V14.3258C6.64113 14.7847 6.72924 15.24 6.90438 15.6655C7.07952 16.091 7.3383 16.4785 7.66593 16.8058C7.99357 17.1331 8.38363 17.3938 8.81388 17.5731C9.24413 17.7523 9.70616 17.8466 10.1735 17.8505H15.827C16.2943 17.8466 16.7563 17.7523 17.1866 17.5731C17.6168 17.3938 18.0069 17.1331 18.3346 16.8058C18.6622 16.4785 18.921 16.091 19.0961 15.6655C19.2713 15.24 19.3593 14.7847 19.3553 14.3258V1.6447L6.64515 1.61475Z" fill="#E39C30"/>
<path fill-rule="evenodd" clip-rule="evenodd" d="M6.64515 1.61475V14.3258C6.64113 14.7847 6.72924 15.24 6.90438 15.6655C7.07952 16.091 7.3383 16.4785 7.66593 16.8058C7.99357 17.1331 8.38363 17.3938 8.81388 17.5731C9.24413 17.7523 9.70616 17.8466 10.1735 17.8505H15.827C16.2943 17.8466 16.7563 17.7523 17.1866 17.5731C17.6168 17.3938 18.0069 17.1331 18.3346 16.8058C18.6622 16.4785 18.921 16.091 19.0961 15.6655C19.2713 15.24 19.3593 14.7847 19.3553 14.3258V1.6447L6.64515 1.61475Z" fill="#E39C30"/>
<path fill-rule="evenodd" clip-rule="evenodd" d="M7.35687 22.7437C7.26254 22.7436 7.16915 22.7621 7.08213 22.7978C6.9951 22.8336 6.91618 22.8859 6.84996 22.9519C6.78373 23.0179 6.73152 23.0961 6.69635 23.1821C6.66119 23.268 6.64374 23.36 6.64509 23.4526V28.3853H19.3552V23.4526C19.3566 23.36 19.3392 23.268 19.304 23.1821C19.2689 23.0961 19.2167 23.0179 19.1504 22.9519C19.0842 22.8859 19.0053 22.8336 18.9183 22.7978C18.8312 22.7621 18.7379 22.7436 18.6435 22.7437H7.35687Z" fill="#E39C30"/>
<path fill-rule="evenodd" clip-rule="evenodd" d="M5.24196 0.905986C5.24061 0.814672 5.25782 0.724009 5.29248 0.639263C5.32713 0.554517 5.37856 0.477376 5.44385 0.412337C5.50913 0.347299 5.58694 0.295665 5.67273 0.260418C5.75852 0.225172 5.85057 0.207022 5.94356 0.207031H20.0569C20.1499 0.207022 20.242 0.225172 20.3278 0.260418C20.4136 0.295665 20.4914 0.347299 20.5567 0.412337C20.622 0.477376 20.6734 0.554517 20.7081 0.639263C20.7427 0.724009 20.7599 0.814672 20.7585 0.905986V14.326C20.7652 14.968 20.643 15.6051 20.3986 16.2006C20.1543 16.7962 19.7927 17.3386 19.3346 17.7968C18.8766 18.255 18.3309 18.6199 17.7291 18.8708C17.1272 19.1216 16.4808 19.2534 15.827 19.2586H10.1735C9.5197 19.2534 8.87331 19.1216 8.27142 18.8708C7.66953 18.6199 7.12397 18.255 6.66589 17.7968C6.20782 17.3386 5.84625 16.7962 5.60192 16.2006C5.35758 15.6051 5.23525 14.968 5.24196 14.326V0.905986Z" fill="#E39C30"/>
<path fill-rule="evenodd" clip-rule="evenodd" d="M9.47175 18.5198C9.47041 18.4284 9.48755 18.3378 9.52221 18.253C9.55686 18.1683 9.60835 18.0911 9.67364 18.0261C9.73892 17.9611 9.81667 17.9094 9.90246 17.8742C9.98825 17.8389 10.0804 17.8208 10.1734 17.8208H15.8268C15.9198 17.8208 16.0119 17.8389 16.0977 17.8742C16.1835 17.9094 16.2613 17.9611 16.3265 18.0261C16.3918 18.0911 16.4433 18.1683 16.478 18.253C16.5126 18.3378 16.5298 18.4284 16.5284 18.5198V22.0445C16.5298 22.1358 16.5126 22.2265 16.478 22.3112C16.4433 22.396 16.3918 22.4731 16.3265 22.5381C16.2613 22.6032 16.1835 22.6548 16.0977 22.6901C16.0119 22.7253 15.9198 22.7435 15.8268 22.7435H10.1734C10.0804 22.7435 9.98825 22.7253 9.90246 22.6901C9.81667 22.6548 9.73892 22.6032 9.67364 22.5381C9.60835 22.4731 9.55686 22.396 9.52221 22.3112C9.48755 22.2265 9.47041 22.1358 9.47175 22.0445V18.5198ZM10.8851 19.2287V21.3156H15.115V19.2087L10.8851 19.2287Z" fill="#E39C30"/>
<path fill-rule="evenodd" clip-rule="evenodd" d="M10.1733 24.8604H15.8268V26.3082H10.1733V24.8604Z" fill="white"/>
<path fill-rule="evenodd" clip-rule="evenodd" d="M17.9517 3.02295V15.7839H16.5181V3.02295H17.9517Z" fill="white"/>
<path fill-rule="evenodd" clip-rule="evenodd" d="M5.2416 23.4522C5.23621 23.1752 5.2868 22.8999 5.39042 22.6421C5.49405 22.3844 5.64867 22.1494 5.84533 21.9507C6.042 21.752 6.2768 21.5936 6.5362 21.4845C6.79559 21.3755 7.07443 21.318 7.35659 21.3154H18.6432C18.9236 21.318 19.2008 21.3749 19.4588 21.4827C19.7169 21.5905 19.9508 21.7471 20.1472 21.9437C20.3436 22.1403 20.4986 22.3729 20.6034 22.6283C20.7083 22.8837 20.7608 23.1569 20.7582 23.4323V29.0639C20.7595 29.1557 20.7424 29.2468 20.7079 29.3321C20.6734 29.4174 20.622 29.4952 20.5569 29.5611C20.4917 29.6269 20.414 29.6795 20.3282 29.7158C20.2423 29.7521 20.15 29.7715 20.0566 29.7728H5.9432C5.84973 29.7715 5.75747 29.7521 5.67162 29.7158C5.58577 29.6795 5.50802 29.6269 5.44286 29.5611C5.37771 29.4952 5.3264 29.4174 5.29187 29.3321C5.25734 29.2468 5.24026 29.1557 5.2416 29.0639V23.4522ZM7.35659 22.7433C7.26225 22.7433 7.16887 22.7617 7.08184 22.7974C6.99481 22.8332 6.9159 22.8856 6.84967 22.9515C6.78344 23.0175 6.73123 23.0957 6.69607 23.1817C6.6609 23.2677 6.64346 23.3596 6.6448 23.4522V28.3849H19.3549V23.4522C19.3563 23.3596 19.3389 23.2677 19.3037 23.1817C19.2686 23.0957 19.2164 23.0175 19.1501 22.9515C19.0839 22.8856 19.005 22.8332 18.918 22.7974C18.8309 22.7617 18.7376 22.7433 18.6432 22.7433H7.35659Z" fill="#E39C30"/>
<path fill-rule="evenodd" clip-rule="evenodd" d="M19.3551 3.7319C19.3537 3.64011 19.3708 3.54896 19.4053 3.46365C19.4399 3.37835 19.4912 3.30055 19.5563 3.23472C19.6215 3.16888 19.6992 3.1163 19.7851 3.07996C19.8709 3.04363 19.9632 3.02425 20.0567 3.02295H22.4462C22.9539 3.02801 23.4547 3.1394 23.9151 3.34967C24.3755 3.55994 24.7849 3.86427 25.116 4.24231C25.447 4.62035 25.6921 5.0634 25.8349 5.54188C25.9777 6.02037 26.0149 6.52327 25.944 7.01699L25.3339 11.2407C25.2145 12.0675 24.7968 12.8248 24.1567 13.3746C23.5166 13.9244 22.6966 14.2302 21.8463 14.2362H20.0567C19.9632 14.2349 19.8709 14.2156 19.7851 14.1792C19.6992 14.1429 19.6215 14.0903 19.5563 14.0245C19.4912 13.9586 19.4399 13.8808 19.4053 13.7955C19.3708 13.7102 19.3537 13.6191 19.3551 13.5273V3.7319ZM20.7583 4.43085V12.8882H21.8463C22.3595 12.8831 22.8537 12.6966 23.2384 12.3629C23.6231 12.0292 23.8725 11.5705 23.9409 11.071L24.5408 6.84725C24.5876 6.54968 24.5685 6.24573 24.4849 5.95605C24.4013 5.66636 24.2552 5.39776 24.0564 5.16849C23.8577 4.93922 23.611 4.75467 23.3332 4.62738C23.0553 4.5001 22.7528 4.43307 22.4462 4.43085H20.7583Z" fill="#E39C30"/>
<path fill-rule="evenodd" clip-rule="evenodd" d="M6.64488 3.7319C6.64623 3.64011 6.62914 3.54896 6.59461 3.46365C6.56008 3.37835 6.50877 3.30055 6.44362 3.23472C6.37847 3.16888 6.30077 3.1163 6.21492 3.07996C6.12907 3.04363 6.03675 3.02425 5.94328 3.02295H3.5538C3.04607 3.02801 2.54532 3.1394 2.08493 3.34967C1.62454 3.55994 1.21512 3.86427 0.884046 4.24231C0.552973 4.62035 0.307864 5.0634 0.165067 5.54188C0.0222699 6.02037 -0.0149455 6.52327 0.0559631 7.01699L0.666025 11.2407C0.785402 12.0675 1.20321 12.8248 1.84333 13.3746C2.48344 13.9244 3.30335 14.2302 4.15374 14.2362H5.94328C6.03675 14.2349 6.12907 14.2156 6.21492 14.1792C6.30077 14.1429 6.37847 14.0903 6.44362 14.0245C6.50877 13.9586 6.56008 13.8808 6.59461 13.7955C6.62914 13.7102 6.64623 13.6191 6.64488 13.5273V3.7319ZM5.24168 4.43085V12.8882H4.15374C3.64047 12.8831 3.1462 12.6966 2.76152 12.3629C2.37685 12.0292 2.12753 11.5705 2.05911 11.071L1.45917 6.84725C1.41244 6.54968 1.4315 6.24573 1.51509 5.95605C1.59867 5.66636 1.74482 5.39776 1.94356 5.16849C2.14229 4.93922 2.38896 4.75467 2.66682 4.62738C2.94468 4.5001 3.2472 4.43307 3.5538 4.43085H5.24168Z" fill="#E39C30"/>
<path fill-rule="evenodd" clip-rule="evenodd" d="M3.1167 28.3848H23.2292V29.7927H3.1167V28.3848Z" fill="#E39C30"/>
</svg>
