<svg width="44" height="46" viewBox="0 0 44 46" fill="none" xmlns="http://www.w3.org/2000/svg">
<path d="M39.6631 37.7554C39.5282 37.7552 39.3944 37.7312 39.2679 37.6846L36.0931 36.5094L32.9191 37.6846C32.7431 37.7497 32.5538 37.7704 32.3679 37.7447C32.182 37.719 32.0053 37.6479 31.8535 37.5375C31.7017 37.4271 31.5795 37.2809 31.4977 37.112C31.4159 36.943 31.377 36.7564 31.3845 36.5688L31.5206 33.184L29.4228 30.5264C29.3064 30.379 29.2282 30.2051 29.1951 30.0203C29.162 29.8354 29.175 29.6452 29.233 29.4666C29.291 29.2879 29.3921 29.1264 29.5275 28.9963C29.6628 28.8661 29.8281 28.7715 30.0088 28.7206L33.2672 27.8041L35.1445 24.9898C35.2485 24.8329 35.3897 24.7042 35.5555 24.6151C35.7213 24.5261 35.9065 24.4795 36.0946 24.4795C36.2828 24.4795 36.468 24.5261 36.6338 24.6151C36.7995 24.7042 36.9407 24.8329 37.0447 24.9898L38.9228 27.8041L42.1812 28.7206C42.3619 28.7715 42.5272 28.8661 42.6626 28.9963C42.7979 29.1264 42.899 29.2879 42.957 29.4666C43.015 29.6452 43.028 29.8354 42.9949 30.0203C42.9618 30.2051 42.8836 30.379 42.7672 30.5264L40.6694 33.184L40.8055 36.5688C40.8116 36.7224 40.7867 36.8757 40.7321 37.0194C40.6776 37.1631 40.5946 37.2944 40.4881 37.4052C40.3816 37.516 40.2539 37.6042 40.1125 37.6643C39.9711 37.7245 39.819 37.7555 39.6654 37.7554H39.6631ZM36.0908 34.1515C36.226 34.1513 36.3602 34.1755 36.4868 34.223L38.4531 34.9509L38.3687 32.8539C38.3579 32.5817 38.4447 32.3146 38.6135 32.1009L39.9132 30.4548L37.8945 29.8867C37.6325 29.8129 37.4054 29.6478 37.2545 29.4212L36.0908 27.6717L34.9279 29.4212C34.777 29.6478 34.55 29.8129 34.288 29.8867L32.2692 30.4548L33.5689 32.1009C33.7375 32.3147 33.824 32.5818 33.8129 32.8539L33.7293 34.9509L35.6956 34.223C35.8227 34.1754 35.9574 34.1511 36.0931 34.1515H36.0908Z" fill="#777575"/>
<path d="M26.667 26.4341C26.5321 26.4339 26.3984 26.4099 26.2718 26.3633L23.097 25.1881L19.923 26.3633C19.747 26.4284 19.5577 26.4491 19.3718 26.4234C19.1859 26.3978 19.0092 26.3266 18.8575 26.2162C18.7057 26.1058 18.5834 25.9597 18.5016 25.7907C18.4198 25.6217 18.3809 25.4351 18.3884 25.2475L18.5245 21.8627L16.4267 19.2051C16.3103 19.0577 16.2321 18.8839 16.199 18.699C16.1659 18.5141 16.1789 18.3239 16.2369 18.1453C16.2949 17.9666 16.396 17.8051 16.5314 17.675C16.6667 17.5449 16.832 17.4502 17.0127 17.3993L20.2711 16.4828L22.1484 13.6685C22.2524 13.5116 22.3936 13.3829 22.5594 13.2938C22.7252 13.2048 22.9104 13.1582 23.0985 13.1582C23.2867 13.1582 23.4719 13.2048 23.6377 13.2938C23.8034 13.3829 23.9446 13.5116 24.0486 13.6685L25.9267 16.4828L29.1851 17.3993C29.3658 17.4502 29.5311 17.5449 29.6665 17.675C29.8018 17.8051 29.903 17.9666 29.9609 18.1453C30.0189 18.3239 30.0319 18.5141 29.9988 18.699C29.9657 18.8839 29.8875 19.0577 29.7711 19.2051L27.6734 21.8627L27.8094 25.2475C27.8155 25.4011 27.7906 25.5544 27.7361 25.6981C27.6815 25.8419 27.5985 25.9731 27.492 26.0839C27.3856 26.1947 27.2578 26.2829 27.1164 26.3431C26.975 26.4032 26.8229 26.4342 26.6693 26.4341H26.667ZM23.0947 22.8302C23.2299 22.83 23.3641 22.8543 23.4907 22.9017L25.457 23.6296L25.3726 21.5326C25.3618 21.2604 25.4486 20.9933 25.6174 20.7796L26.9171 19.1336L24.8984 18.5654C24.6364 18.4916 24.4093 18.3265 24.2584 18.0999L23.0947 16.3504L21.9318 18.0999C21.7809 18.3265 21.5539 18.4916 21.2919 18.5654L19.2731 19.1336L20.5728 20.7796C20.7414 20.9934 20.8279 21.2605 20.8168 21.5326L20.7332 23.6296L22.6995 22.9017C22.8266 22.8541 22.9613 22.8298 23.097 22.8302H23.0947Z" fill="#777575"/>
<path d="M23.603 45.0986C23.4682 45.0985 23.3344 45.0745 23.2078 45.0279L20.033 43.8527L16.859 45.0279C16.683 45.093 16.4937 45.1136 16.3078 45.088C16.1219 45.0623 15.9453 44.9911 15.7935 44.8807C15.6417 44.7704 15.5194 44.6242 15.4376 44.4552C15.3558 44.2862 15.3169 44.0997 15.3245 43.912L15.4605 40.5272L13.3627 37.8696C13.2464 37.7223 13.1682 37.5484 13.1351 37.3635C13.102 37.1787 13.115 36.9885 13.1729 36.8098C13.2309 36.6312 13.3321 36.4697 13.4674 36.3395C13.6027 36.2094 13.7681 36.1147 13.9488 36.0639L17.2071 35.1473L19.0845 32.333C19.1885 32.1761 19.3297 32.0474 19.4954 31.9584C19.6612 31.8693 19.8464 31.8228 20.0346 31.8228C20.2227 31.8228 20.4079 31.8693 20.5737 31.9584C20.7395 32.0474 20.8806 32.1761 20.9846 32.333L22.8627 35.1473L26.1211 36.0639C26.3018 36.1147 26.4672 36.2094 26.6025 36.3395C26.7378 36.4697 26.839 36.6312 26.897 36.8098C26.9549 36.9885 26.9679 37.1787 26.9348 37.3635C26.9017 37.5484 26.8235 37.7223 26.7071 37.8696L24.6094 40.5272L24.7454 43.912C24.7516 44.0657 24.7266 44.2189 24.6721 44.3627C24.6176 44.5064 24.5346 44.6376 24.4281 44.7485C24.3216 44.8593 24.1938 44.9474 24.0524 45.0076C23.911 45.0678 23.759 45.0987 23.6053 45.0986H23.603ZM20.0308 41.4948C20.166 41.4946 20.3001 41.5188 20.4268 41.5663L22.393 42.2942L22.3087 40.1971C22.2978 39.9249 22.3846 39.6578 22.5534 39.4441L23.8531 37.7981L21.8344 37.2299C21.5724 37.1562 21.3454 36.9911 21.1944 36.7644L20.0308 35.015L18.8679 36.7644C18.7169 36.9911 18.4899 37.1562 18.2279 37.2299L16.2092 37.7981L17.5089 39.4441C17.6774 39.6579 17.7639 39.925 17.7529 40.1971L17.6693 42.2942L19.6355 41.5663C19.7626 41.5186 19.8973 41.4944 20.033 41.4948H20.0308Z" fill="#777575"/>
<path d="M10.9473 34.0249C10.8124 34.0247 10.6786 34.0008 10.5521 33.9541L7.37728 32.779L4.20326 33.9541C4.02727 34.0193 3.83794 34.0399 3.65206 34.0142C3.46619 33.9886 3.28952 33.9174 3.13772 33.807C2.98593 33.6966 2.86369 33.5505 2.78187 33.3815C2.70006 33.2125 2.66118 33.0259 2.6687 32.8383L2.80475 29.4535L0.706973 26.7959C0.590615 26.6485 0.512418 26.4747 0.479307 26.2898C0.446197 26.1049 0.459208 25.9147 0.51718 25.7361C0.575152 25.5575 0.676293 25.3959 0.81163 25.2658C0.946967 25.1357 1.11232 25.041 1.293 24.9902L4.55137 24.0736L6.42872 21.2593C6.53272 21.1024 6.67391 20.9737 6.83969 20.8846C7.00546 20.7956 7.19066 20.749 7.3788 20.749C7.56694 20.749 7.75216 20.7956 7.91793 20.8846C8.0837 20.9737 8.22488 21.1024 8.32888 21.2593L10.207 24.0736L13.4654 24.9902C13.6461 25.041 13.8114 25.1357 13.9467 25.2658C14.0821 25.3959 14.1832 25.5575 14.2412 25.7361C14.2992 25.9147 14.3122 26.1049 14.2791 26.2898C14.246 26.4747 14.1677 26.6485 14.0514 26.7959L11.9536 29.4535L12.0897 32.8383C12.0958 32.9919 12.0709 33.1452 12.0163 33.2889C11.9618 33.4327 11.8788 33.5639 11.7723 33.6747C11.6658 33.7856 11.538 33.8737 11.3967 33.9339C11.2553 33.994 11.1032 34.025 10.9496 34.0249H10.9473ZM7.37499 30.421C7.51021 30.4209 7.64437 30.4451 7.771 30.4925L9.73727 31.2204L9.65292 29.1234C9.64205 28.8512 9.72886 28.5841 9.89765 28.3704L11.1973 26.7244L9.17864 26.1562C8.91663 26.0824 8.68962 25.9173 8.53865 25.6907L7.37499 23.9413L6.21211 25.6907C6.06115 25.9173 5.83414 26.0824 5.57213 26.1562L3.55342 26.7244L4.85311 28.3704C5.02164 28.5842 5.10817 28.8513 5.09709 29.1234L5.0135 31.2204L6.97977 30.4925C7.10687 30.4449 7.24155 30.4207 7.37728 30.421H7.37499Z" fill="#777575"/>
<path d="M12.8316 16.1333C12.6967 16.1331 12.5629 16.1092 12.4363 16.0625L9.26155 14.8874L6.08754 16.0625C5.91154 16.1277 5.72222 16.1483 5.53634 16.1226C5.35047 16.097 5.1738 16.0258 5.022 15.9154C4.8702 15.805 4.74796 15.6589 4.66615 15.4899C4.58433 15.3209 4.54546 15.1343 4.55297 14.9467L4.68903 11.5619L2.59125 8.90429C2.47489 8.75692 2.39669 8.58307 2.36358 8.3982C2.33047 8.21333 2.34349 8.02313 2.40146 7.8445C2.45943 7.66586 2.56057 7.50432 2.69591 7.3742C2.83124 7.24407 2.9966 7.14939 3.17727 7.09856L6.43565 6.182L8.313 3.36769C8.417 3.21079 8.55819 3.08208 8.72396 2.99305C8.88974 2.90402 9.07494 2.85742 9.26308 2.85742C9.45121 2.85742 9.63643 2.90402 9.80221 2.99305C9.96798 3.08208 10.1092 3.21079 10.2132 3.36769L12.0913 6.182L15.3497 7.09856C15.5303 7.14939 15.6957 7.24407 15.831 7.3742C15.9664 7.50432 16.0675 7.66586 16.1255 7.8445C16.1834 8.02313 16.1965 8.21333 16.1633 8.3982C16.1302 8.58307 16.052 8.75692 15.9357 8.90429L13.8379 11.5619L13.9739 14.9467C13.9801 15.1003 13.9551 15.2536 13.9006 15.3973C13.8461 15.5411 13.7631 15.6723 13.6566 15.7831C13.5501 15.894 13.4223 15.9821 13.2809 16.0423C13.1396 16.1024 12.9875 16.1334 12.8338 16.1333H12.8316ZM9.25927 12.5294C9.39449 12.5293 9.52864 12.5535 9.65528 12.6009L11.6216 13.3288L11.5372 11.2318C11.5263 10.9596 11.6131 10.6925 11.7819 10.4788L13.0816 8.83277L11.0629 8.26459C10.8009 8.19084 10.5739 8.02574 10.4229 7.7991L9.25927 6.04966L8.09639 7.7991C7.94543 8.02574 7.71842 8.19084 7.45641 8.26459L5.4377 8.83277L6.73739 10.4788C6.90591 10.6926 6.99245 10.9597 6.98137 11.2318L6.89777 13.3288L8.86404 12.6009C8.99115 12.5533 9.12582 12.5291 9.26155 12.5294H9.25927Z" fill="#777575"/>
<path d="M38.1411 14.1767C38.0063 14.1766 37.8725 14.1526 37.7459 14.106L34.5711 12.9308L31.3971 14.106C31.2211 14.1711 31.0318 14.1918 30.8459 14.1661C30.66 14.1404 30.4834 14.0693 30.3316 13.9589C30.1798 13.8485 30.0575 13.7023 29.9757 13.5333C29.8939 13.3644 29.855 13.1778 29.8625 12.9902L29.9986 9.60537L27.9008 6.94774C27.7845 6.80038 27.7063 6.62653 27.6732 6.44166C27.64 6.25678 27.6531 6.06659 27.711 5.88796C27.769 5.70932 27.8701 5.54778 28.0055 5.41765C28.1408 5.28753 28.3062 5.19285 28.4868 5.14202L31.7452 4.22546L33.6226 1.41114C33.7266 1.25425 33.8678 1.12554 34.0335 1.0365C34.1993 0.947472 34.3845 0.900879 34.5726 0.900879C34.7608 0.900879 34.946 0.947472 35.1118 1.0365C35.2776 1.12554 35.4187 1.25425 35.5227 1.41114L37.4008 4.22546L40.6592 5.14202C40.8399 5.19285 41.0053 5.28753 41.1406 5.41765C41.2759 5.54778 41.3771 5.70932 41.435 5.88796C41.493 6.06659 41.506 6.25678 41.4729 6.44166C41.4398 6.62653 41.3616 6.80038 41.2452 6.94774L39.1475 9.60537L39.2835 12.9902C39.2897 13.1438 39.2647 13.2971 39.2102 13.4408C39.1556 13.5845 39.0726 13.7158 38.9662 13.8266C38.8597 13.9374 38.7319 14.0256 38.5905 14.0857C38.4491 14.1459 38.2971 14.1769 38.1434 14.1767H38.1411ZM34.5688 10.5729C34.7041 10.5727 34.8382 10.5969 34.9648 10.6444L36.9311 11.3723L36.8468 9.27525C36.8359 9.00305 36.9227 8.73596 37.0915 8.52224L38.3912 6.87623L36.3725 6.30805C36.1105 6.2343 35.8835 6.06919 35.7325 5.84255L34.5688 4.09311L33.406 5.84255C33.255 6.06919 33.028 6.2343 32.766 6.30805L30.7473 6.87623L32.047 8.52224C32.2155 8.73606 32.302 9.00315 32.2909 9.27525L32.2073 11.3723L34.1736 10.6444C34.3007 10.5967 34.4354 10.5725 34.5711 10.5729H34.5688Z" fill="#777575"/>
</svg>
