<svg width="49" height="48" viewBox="0 0 49 48" fill="none" xmlns="http://www.w3.org/2000/svg">
<path d="M26.3189 39.7537C26.0551 39.75 25.8035 39.6421 25.6188 39.4537C25.4326 39.2664 25.328 39.0129 25.328 38.7487C25.328 38.4845 25.4326 38.2311 25.6188 38.0437L42.6188 21.0437C44.6822 18.9803 45.8414 16.1818 45.8414 13.2637C45.8414 10.3457 44.6822 7.5471 42.6188 5.48372C40.5555 3.42033 37.7569 2.26114 34.8389 2.26114C31.9208 2.26114 29.1222 3.42033 27.0589 5.48372L10.0589 22.4837C9.9692 22.5884 9.85888 22.6734 9.73482 22.7334C9.61075 22.7935 9.47562 22.8272 9.3379 22.8325C9.20018 22.8378 9.06285 22.8146 8.93452 22.7644C8.8062 22.7141 8.68966 22.6378 8.59221 22.5404C8.49475 22.4429 8.41848 22.3264 8.36821 22.198C8.31793 22.0697 8.29474 21.9324 8.30006 21.7947C8.30538 21.657 8.3391 21.5218 8.39912 21.3977C8.45915 21.2737 8.54417 21.1634 8.64885 21.0737L25.6488 4.07372C26.8454 2.82133 28.2802 1.82068 29.8689 1.13057C31.4576 0.440452 33.1682 0.0747852 34.9002 0.0550437C36.6322 0.0353021 38.3507 0.361883 39.9547 1.01561C41.5588 1.66933 43.016 2.63702 44.2408 3.86181C45.4656 5.08661 46.4332 6.54382 47.087 8.14784C47.7407 9.75186 48.0673 11.4703 48.0475 13.2024C48.0278 14.9344 47.6621 16.645 46.972 18.2337C46.2819 19.8224 45.2812 21.2572 44.0289 22.4537L27.0289 39.4537C26.9362 39.5482 26.8258 39.6234 26.7039 39.6749C26.5821 39.7264 26.4512 39.7532 26.3189 39.7537Z" fill="#FFC700"/>
<path d="M31.2688 13.7539C30.3435 13.7532 29.4469 13.4316 28.7321 12.844C28.0172 12.2564 27.5281 11.4392 27.3483 10.5314C27.1684 9.62369 27.3088 8.68167 27.7456 7.86586C28.1824 7.05005 28.8886 6.41091 29.7437 6.05736C30.5989 5.7038 31.5502 5.6577 32.4356 5.9269C33.3209 6.19609 34.0856 6.76393 34.5992 7.53368C35.1129 8.30342 35.3437 9.22743 35.2525 10.1483C35.1613 11.0692 34.7536 11.9299 34.0989 12.5839C33.7271 12.9552 33.2858 13.2497 32.8002 13.4505C32.3147 13.6512 31.7943 13.7543 31.2688 13.7539ZM31.2688 7.75391C30.7407 7.75349 30.2338 7.96199 29.8588 8.33391C29.4835 8.70919 29.2727 9.21817 29.2727 9.7489C29.2727 10.2796 29.4835 10.7886 29.8588 11.1639C30.2341 11.5392 30.7431 11.75 31.2738 11.75C31.8046 11.75 32.3136 11.5392 32.6888 11.1639C32.9675 10.8836 33.1568 10.5271 33.2329 10.1393C33.3091 9.75154 33.2687 9.34989 33.1167 8.98506C32.9648 8.62024 32.7082 8.30859 32.3793 8.08948C32.0505 7.87036 31.664 7.75359 31.2688 7.75391Z" fill="#FFC700"/>
<path d="M40.4685 14.8838C39.7744 14.8844 39.1015 14.6443 38.5646 14.2044C38.0277 13.7646 37.6599 13.1521 37.5239 12.4715C37.388 11.7908 37.4922 11.0841 37.819 10.4717C38.1457 9.85927 38.6746 9.37911 39.3157 9.11301C39.9568 8.84691 40.6703 8.81134 41.3346 9.01235C41.999 9.21336 42.5731 9.63851 42.9591 10.2154C43.3451 10.7922 43.5191 11.4851 43.4516 12.1759C43.384 12.8667 43.079 13.5127 42.5885 14.0038C42.0264 14.5666 41.2638 14.8831 40.4685 14.8838ZM40.4685 10.8838C40.3369 10.883 40.2064 10.9082 40.0846 10.958C39.9627 11.0078 39.8519 11.0811 39.7585 11.1738C39.6538 11.2634 39.5688 11.3738 39.5087 11.4978C39.4487 11.6219 39.415 11.757 39.4097 11.8947C39.4043 12.0325 39.4276 12.1698 39.4778 12.2981C39.5281 12.4264 39.6043 12.543 39.7018 12.6404C39.7993 12.7379 39.9158 12.8142 40.0441 12.8644C40.1725 12.9147 40.3098 12.9379 40.4475 12.9326C40.5852 12.9273 40.7204 12.8935 40.8444 12.8335C40.9685 12.7735 41.0788 12.6885 41.1684 12.5838C41.3569 12.3992 41.4647 12.1476 41.4685 11.8838C41.4685 11.6186 41.3631 11.3642 41.1756 11.1767C40.988 10.9891 40.7337 10.8838 40.4685 10.8838Z" fill="#FFC700"/>
<path d="M34.0989 25.0737C33.4413 25.0732 32.794 24.9106 32.2143 24.6003C31.6345 24.2899 31.1403 23.8414 30.7752 23.2945C30.4101 22.7476 30.1855 22.1191 30.1212 21.4647C30.0569 20.8103 30.155 20.1501 30.4067 19.5426C30.6584 18.9351 31.056 18.399 31.5643 17.9818C32.0726 17.5646 32.6759 17.2792 33.3208 17.1508C33.9658 17.0223 34.6324 17.0549 35.2617 17.2455C35.891 17.4362 36.4637 17.779 36.9289 18.2437C37.3008 18.6152 37.5959 19.0564 37.7972 19.542C37.9985 20.0276 38.1021 20.5481 38.1021 21.0737C38.1021 21.5994 37.9985 22.1199 37.7972 22.6055C37.5959 23.0911 37.3008 23.5322 36.9289 23.9037C36.5572 24.2751 36.1159 24.5695 35.6303 24.7703C35.1447 24.971 34.6244 25.0741 34.0989 25.0737ZM34.0989 19.0737C33.7046 19.0754 33.3195 19.1936 32.9922 19.4135C32.6648 19.6333 32.4098 19.9451 32.2591 20.3095C32.1084 20.6739 32.0688 21.0747 32.1453 21.4616C32.2218 21.8485 32.4109 22.2041 32.6889 22.4837C32.8747 22.6697 33.0952 22.8172 33.338 22.9179C33.5808 23.0185 33.8411 23.0703 34.1039 23.0703C34.3668 23.0703 34.627 23.0185 34.8698 22.9179C35.1126 22.8172 35.3332 22.6697 35.5189 22.4837C35.7975 22.2035 35.9868 21.8469 36.063 21.4591C36.1392 21.0714 36.0987 20.6697 35.9468 20.3049C35.7949 19.9401 35.5383 19.6284 35.2094 19.4093C34.8805 19.1902 34.4941 19.0734 34.0989 19.0737Z" fill="#FFC700"/>
<path d="M1.3089 23.444C1.17659 23.4435 1.0457 23.4167 0.923828 23.3652C0.801953 23.3137 0.691522 23.2385 0.598907 23.144C0.412657 22.9566 0.308105 22.7032 0.308105 22.439C0.308105 22.1748 0.412657 21.9214 0.598907 21.734L11.5989 10.894C11.7885 10.7084 12.0441 10.6056 12.3095 10.6085C12.5749 10.6113 12.8282 10.7194 13.0139 10.909C13.1995 11.0986 13.3023 11.3543 13.2995 11.6196C13.2967 11.885 13.1885 12.1384 12.9989 12.324L1.9989 23.154C1.81511 23.3364 1.56777 23.4403 1.3089 23.444Z" fill="#FFC700"/>
<path d="M19.2486 18.5338C18.9863 18.5326 18.7348 18.4285 18.5486 18.2438C18.3623 18.0564 18.2578 17.8029 18.2578 17.5388C18.2578 17.2746 18.3623 17.0211 18.5486 16.8338L22.7886 12.5838C22.976 12.3975 23.2294 12.293 23.4936 12.293C23.7578 12.293 24.0112 12.3975 24.1986 12.5838C24.2923 12.6767 24.3667 12.7873 24.4175 12.9092C24.4682 13.031 24.4944 13.1618 24.4944 13.2938C24.4944 13.4258 24.4682 13.5565 24.4175 13.6783C24.3667 13.8002 24.2923 13.9108 24.1986 14.0038L19.9586 18.2438C19.8651 18.3364 19.7543 18.4098 19.6325 18.4595C19.5107 18.5093 19.3802 18.5345 19.2486 18.5338Z" fill="#FFC700"/>
<path d="M1.1889 36.6938C1.0573 36.6946 0.92683 36.6694 0.804993 36.6196C0.683155 36.5698 0.572352 36.4965 0.478912 36.4038C0.385184 36.3109 0.310778 36.2003 0.26001 36.0784C0.209241 35.9566 0.183105 35.8258 0.183105 35.6938C0.183105 35.5618 0.209241 35.4311 0.26001 35.3092C0.310778 35.1874 0.385184 35.0768 0.478912 34.9838L15.7189 19.6638C15.9063 19.4776 16.1597 19.373 16.4239 19.373C16.6881 19.373 16.9415 19.4776 17.1289 19.6638C17.2226 19.7568 17.297 19.8674 17.3478 19.9893C17.3985 20.1111 17.4247 20.2418 17.4247 20.3738C17.4247 20.5058 17.3985 20.6365 17.3478 20.7584C17.297 20.8803 17.2226 20.9909 17.1289 21.0838L1.88889 36.4138C1.70102 36.5949 1.44983 36.6954 1.1889 36.6938Z" fill="#FFC700"/>
<path d="M25.4892 47.9437C25.3576 47.9445 25.2271 47.9193 25.1053 47.8695C24.9834 47.8197 24.8726 47.7464 24.7792 47.6537C24.6855 47.5608 24.6111 47.4502 24.5603 47.3283C24.5095 47.2065 24.4834 47.0758 24.4834 46.9437C24.4834 46.8117 24.5095 46.681 24.5603 46.5592C24.6111 46.4373 24.6855 46.3267 24.7792 46.2337L42.0992 28.9437C42.1922 28.85 42.3028 28.7756 42.4246 28.7249C42.5465 28.6741 42.6772 28.6479 42.8092 28.6479C42.9412 28.6479 43.0719 28.6741 43.1938 28.7249C43.3156 28.7756 43.4262 28.85 43.5192 28.9437C43.7054 29.1311 43.81 29.3846 43.81 29.6487C43.81 29.9129 43.7054 30.1664 43.5192 30.3537L26.1992 47.7037C26.0026 47.8728 25.748 47.9588 25.4892 47.9437Z" fill="#FFC700"/>
<path d="M22.8085 30.5637C22.6099 30.5649 22.4154 30.5069 22.2499 30.397C22.0844 30.2872 21.9553 30.1306 21.8792 29.9472C21.803 29.7637 21.7832 29.5618 21.8223 29.367C21.8613 29.1723 21.9575 28.9936 22.0986 28.8537L27.0986 23.9037C27.1915 23.81 27.3021 23.7356 27.424 23.6848C27.5458 23.634 27.6765 23.6079 27.8085 23.6079C27.9406 23.6079 28.0713 23.634 28.1931 23.6848C28.315 23.7356 28.4256 23.81 28.5185 23.9037C28.7048 24.0911 28.8093 24.3445 28.8093 24.6087C28.8093 24.8729 28.7048 25.1263 28.5185 25.3137L23.5686 30.2637C23.4701 30.3644 23.3516 30.4432 23.2206 30.4949C23.0896 30.5466 22.9492 30.57 22.8085 30.5637Z" fill="#FFC700"/>
<path d="M5.55914 47.9437C5.2968 47.9426 5.04539 47.8385 4.85913 47.6538C4.67288 47.4664 4.56836 47.2129 4.56836 46.9488C4.56836 46.6846 4.67288 46.4311 4.85913 46.2438L19.2592 31.6838C19.3517 31.5905 19.4618 31.5164 19.583 31.4657C19.7042 31.415 19.8342 31.3887 19.9656 31.3882C20.097 31.3877 20.2272 31.4131 20.3488 31.463C20.4704 31.5129 20.5809 31.5862 20.6741 31.6787C20.7674 31.7713 20.8415 31.8814 20.8922 32.0026C20.9429 32.1238 20.9692 32.2538 20.9697 32.3852C20.9702 32.5166 20.9448 32.6468 20.8949 32.7684C20.845 32.8899 20.7717 33.0005 20.6791 33.0937L6.27914 47.6437C6.18535 47.7394 6.07327 47.8153 5.94958 47.8668C5.8259 47.9184 5.69313 47.9445 5.55914 47.9437Z" fill="#FFC700"/>
</svg>
