<svg width="57" height="56" viewBox="0 0 57 56" fill="none" xmlns="http://www.w3.org/2000/svg">
<rect width="56" height="56" transform="translate(0.115723)" fill="white"/>
<path fill-rule="evenodd" clip-rule="evenodd" d="M27.0279 21.052C23.5679 21.052 20.7235 23.9725 20.7235 27.6236C20.7235 27.7406 20.727 27.8564 20.7316 27.9711C20.7397 28.1297 20.6829 28.2837 20.5728 28.3995C20.4638 28.5142 20.3119 28.579 20.153 28.579H20.1437C18.4844 28.579 17.1 29.9837 17.1 31.7635C17.1 33.5433 18.4844 34.948 20.1437 34.948H22.3179V36.106H20.1437C17.8015 36.106 15.9404 34.1397 15.9404 31.7635C15.9404 29.5865 17.5023 27.7534 19.5651 27.4615C19.6486 23.2881 22.9371 19.894 27.0279 19.894C29.7818 19.894 32.1762 21.4353 33.4691 23.7131C33.7323 23.6761 34.0025 23.6575 34.275 23.6575C37.6191 23.6575 40.2907 26.4657 40.2907 29.8818C40.2907 32.5336 38.6859 34.8102 36.4062 35.7042C35.8682 35.9624 35.2687 36.106 34.6379 36.106H33.9132V34.948H34.6379C35.0971 34.948 35.5308 34.8426 35.9204 34.6527C35.9343 34.6457 35.9494 34.6388 35.9645 34.633C37.8035 33.9208 39.1311 32.0704 39.1311 29.8818C39.1311 27.062 36.9361 24.8155 34.275 24.8155C33.9329 24.8155 33.599 24.8526 33.2778 24.9221C33.0181 24.9788 32.7525 24.8514 32.6343 24.614C31.5826 22.4891 29.4595 21.052 27.0279 21.052Z" fill="#5F9AF2"/>
</svg>
