<svg width="56" height="56" viewBox="0 0 56 56" fill="none" xmlns="http://www.w3.org/2000/svg">
<rect width="56" height="56" fill="white"/>
<path fill-rule="evenodd" clip-rule="evenodd" d="M27.2596 45.4244C27.669 45.8312 28.329 45.8312 28.7384 45.4244L35.0044 39.1668L33.5256 37.6899L27.999 43.2113L22.4724 37.6899L20.9937 39.1668L27.2596 45.4244Z" fill="#777474"/>
<path fill-rule="evenodd" clip-rule="evenodd" d="M26.0411 12.3564C19.8086 12.3564 14.6851 17.617 14.6851 24.1938C14.6851 24.4044 14.6913 24.6131 14.6997 24.8196C14.7143 25.1053 14.6119 25.3828 14.4135 25.5913C14.2172 25.7978 13.9436 25.9147 13.6574 25.9147H13.6407C10.6519 25.9147 8.158 28.4448 8.158 31.6508C8.158 34.8568 10.6519 37.387 13.6407 37.387H17.557V39.4729H13.6407C9.42163 39.4729 6.06934 35.9311 6.06934 31.6508C6.06934 27.7294 8.88277 24.4274 12.5985 23.9018C12.7489 16.3842 18.6723 10.2705 26.0411 10.2705C31.0017 10.2705 35.3148 13.0468 37.6436 17.1498C38.1177 17.083 38.6044 17.0496 39.0952 17.0496C45.1189 17.0496 49.9312 22.1079 49.9312 28.2613C49.9312 33.038 47.0405 37.1388 42.9342 38.7491C41.965 39.2143 40.8852 39.4729 39.749 39.4729H38.4436V37.387H39.749C40.5761 37.387 41.3572 37.1972 42.059 36.8551C42.0841 36.8426 42.1113 36.8301 42.1384 36.8197C45.451 35.5368 47.8425 32.2036 47.8425 28.2613C47.8425 23.1821 43.8887 19.1355 39.0952 19.1355C38.4791 19.1355 37.8775 19.2023 37.299 19.3274C36.8311 19.4297 36.3528 19.2002 36.1398 18.7726C34.2454 14.945 30.421 12.3564 26.0411 12.3564Z" fill="#777474"/>
<path fill-rule="evenodd" clip-rule="evenodd" d="M29.0442 28.0015V44.6886H26.9556V28.0015H29.0442Z" fill="#777474"/>
</svg>
