<svg width="57" height="56" viewBox="0 0 57 56" fill="none" xmlns="http://www.w3.org/2000/svg">
<rect width="56" height="56" transform="translate(0.115723)" fill="white"/>
<rect x="7.61865" y="7.90771" width="40.9937" height="40.1846" rx="20.0923" fill="#04AD04"/>
<path d="M24.7893 33.9628C23.7316 33.9628 22.7398 33.5543 21.9923 32.8103L18.8045 29.6371C18.3282 29.1629 18.3282 28.3921 18.8045 27.9179C19.2809 27.4438 20.0552 27.4438 20.5316 27.9179L23.7218 31.0936C24.0076 31.3781 24.3887 31.5337 24.7918 31.5337C25.1948 31.5337 25.5759 31.3781 25.8617 31.0936L36.6074 20.3971C37.0838 19.923 37.8581 19.923 38.3345 20.3971C38.8108 20.8713 38.8108 21.6421 38.3345 22.1162L27.5887 32.8127C26.8388 33.5519 25.847 33.9628 24.7893 33.9628Z" fill="#00FF00"/>
</svg>
