<svg width="56" height="56" viewBox="0 0 56 56" fill="none" xmlns="http://www.w3.org/2000/svg">
<rect width="56" height="56" fill="white"/>
<path fill-rule="evenodd" clip-rule="evenodd" d="M21.6452 14.6147V27.3258C21.6411 27.7847 21.7292 28.24 21.9044 28.6655C22.0795 29.091 22.3383 29.4785 22.6659 29.8058C22.9936 30.1331 23.3836 30.3938 23.8139 30.5731C24.2441 30.7523 24.7062 30.8466 25.1735 30.8505H30.827C31.2943 30.8466 31.7563 30.7523 32.1866 30.5731C32.6168 30.3938 33.0069 30.1331 33.3346 29.8058C33.6622 29.4785 33.921 29.091 34.0961 28.6655C34.2713 28.24 34.3593 27.7847 34.3553 27.3258V14.6447L21.6452 14.6147Z" fill="#E39C30"/>
<path fill-rule="evenodd" clip-rule="evenodd" d="M21.6452 14.6147V27.3258C21.6411 27.7847 21.7292 28.24 21.9044 28.6655C22.0795 29.091 22.3383 29.4785 22.6659 29.8058C22.9936 30.1331 23.3836 30.3938 23.8139 30.5731C24.2441 30.7523 24.7062 30.8466 25.1735 30.8505H30.827C31.2943 30.8466 31.7563 30.7523 32.1866 30.5731C32.6168 30.3938 33.0069 30.1331 33.3346 29.8058C33.6622 29.4785 33.921 29.091 34.0961 28.6655C34.2713 28.24 34.3593 27.7847 34.3553 27.3258V14.6447L21.6452 14.6147Z" fill="#E39C30"/>
<path fill-rule="evenodd" clip-rule="evenodd" d="M22.3569 35.7437C22.2625 35.7436 22.1692 35.7621 22.0821 35.7978C21.9951 35.8336 21.9162 35.8859 21.85 35.9519C21.7837 36.0179 21.7315 36.0961 21.6964 36.1821C21.6612 36.268 21.6437 36.36 21.6451 36.4526V41.3853H34.3552V36.4526C34.3566 36.36 34.3392 36.268 34.304 36.1821C34.2689 36.0961 34.2167 36.0179 34.1504 35.9519C34.0842 35.8859 34.0053 35.8336 33.9183 35.7978C33.8312 35.7621 33.7379 35.7436 33.6435 35.7437H22.3569Z" fill="#E39C30"/>
<path fill-rule="evenodd" clip-rule="evenodd" d="M20.242 13.906C20.2406 13.8147 20.2578 13.724 20.2925 13.6393C20.3271 13.5545 20.3786 13.4774 20.4438 13.4123C20.5091 13.3473 20.5869 13.2957 20.6727 13.2604C20.7585 13.2252 20.8506 13.207 20.9436 13.207H35.0569C35.1499 13.207 35.242 13.2252 35.3278 13.2604C35.4136 13.2957 35.4914 13.3473 35.5567 13.4123C35.622 13.4774 35.6734 13.5545 35.7081 13.6393C35.7427 13.724 35.7599 13.8147 35.7585 13.906V27.326C35.7652 27.968 35.643 28.6051 35.3986 29.2006C35.1543 29.7962 34.7927 30.3386 34.3346 30.7968C33.8766 31.255 33.3309 31.6199 32.7291 31.8708C32.1272 32.1216 31.4808 32.2534 30.827 32.2586H25.1735C24.5197 32.2534 23.8733 32.1216 23.2714 31.8708C22.6695 31.6199 22.124 31.255 21.6659 30.7968C21.2078 30.3386 20.8462 29.7962 20.6019 29.2006C20.3576 28.6051 20.2353 27.968 20.242 27.326V13.906Z" fill="#E39C30"/>
<path fill-rule="evenodd" clip-rule="evenodd" d="M24.4718 31.5198C24.4704 31.4284 24.4876 31.3378 24.5222 31.253C24.5569 31.1683 24.6084 31.0911 24.6736 31.0261C24.7389 30.9611 24.8167 30.9094 24.9025 30.8742C24.9883 30.8389 25.0804 30.8208 25.1734 30.8208H30.8268C30.9198 30.8208 31.0119 30.8389 31.0977 30.8742C31.1835 30.9094 31.2613 30.9611 31.3265 31.0261C31.3918 31.0911 31.4433 31.1683 31.478 31.253C31.5126 31.3378 31.5298 31.4284 31.5284 31.5198V35.0445C31.5298 35.1358 31.5126 35.2265 31.478 35.3112C31.4433 35.396 31.3918 35.4731 31.3265 35.5381C31.2613 35.6032 31.1835 35.6548 31.0977 35.6901C31.0119 35.7253 30.9198 35.7435 30.8268 35.7435H25.1734C25.0804 35.7435 24.9883 35.7253 24.9025 35.6901C24.8167 35.6548 24.7389 35.6032 24.6736 35.5381C24.6084 35.4731 24.5569 35.396 24.5222 35.3112C24.4876 35.2265 24.4704 35.1358 24.4718 35.0445V31.5198ZM25.8851 32.2287V34.3156H30.115V32.2087L25.8851 32.2287Z" fill="#E39C30"/>
<path fill-rule="evenodd" clip-rule="evenodd" d="M25.1733 37.8604H30.8268V39.3082H25.1733V37.8604Z" fill="white"/>
<path fill-rule="evenodd" clip-rule="evenodd" d="M32.9517 16.0229V28.7839H31.5181V16.0229H32.9517Z" fill="white"/>
<path fill-rule="evenodd" clip-rule="evenodd" d="M20.2416 36.4522C20.2362 36.1752 20.2868 35.8999 20.3904 35.6421C20.494 35.3844 20.6487 35.1494 20.8453 34.9507C21.042 34.752 21.2768 34.5936 21.5362 34.4845C21.7956 34.3755 22.0744 34.318 22.3566 34.3154H33.6432C33.9236 34.318 34.2008 34.3749 34.4588 34.4827C34.7169 34.5905 34.9508 34.7471 35.1472 34.9437C35.3436 35.1403 35.4986 35.3729 35.6034 35.6283C35.7083 35.8837 35.7608 36.1569 35.7582 36.4323V42.0639C35.7595 42.1557 35.7424 42.2468 35.7079 42.3321C35.6734 42.4174 35.622 42.4952 35.5569 42.5611C35.4917 42.6269 35.414 42.6795 35.3282 42.7158C35.2423 42.7521 35.15 42.7715 35.0566 42.7728H20.9432C20.8497 42.7715 20.7575 42.7521 20.6716 42.7158C20.5858 42.6795 20.508 42.6269 20.4429 42.5611C20.3777 42.4952 20.3264 42.4174 20.2919 42.3321C20.2573 42.2468 20.2403 42.1557 20.2416 42.0639V36.4522ZM22.3566 35.7433C22.2623 35.7433 22.1689 35.7617 22.0818 35.7974C21.9948 35.8332 21.9159 35.8856 21.8497 35.9515C21.7834 36.0175 21.7312 36.0957 21.6961 36.1817C21.6609 36.2677 21.6435 36.3596 21.6448 36.4522V41.3849H34.3549V36.4522C34.3563 36.3596 34.3389 36.2677 34.3037 36.1817C34.2686 36.0957 34.2164 36.0175 34.1501 35.9515C34.0839 35.8856 34.005 35.8332 33.918 35.7974C33.8309 35.7617 33.7376 35.7433 33.6432 35.7433H22.3566Z" fill="#E39C30"/>
<path fill-rule="evenodd" clip-rule="evenodd" d="M34.3551 16.7319C34.3537 16.6401 34.3708 16.549 34.4053 16.4637C34.4399 16.3783 34.4912 16.3005 34.5563 16.2347C34.6215 16.1689 34.6992 16.1163 34.7851 16.08C34.8709 16.0436 34.9632 16.0243 35.0567 16.0229H37.4462C37.9539 16.028 38.4547 16.1394 38.9151 16.3497C39.3755 16.5599 39.7849 16.8643 40.116 17.2423C40.447 17.6203 40.6921 18.0634 40.8349 18.5419C40.9777 19.0204 41.0149 19.5233 40.944 20.017L40.3339 24.2407C40.2145 25.0675 39.7968 25.8248 39.1567 26.3746C38.5166 26.9244 37.6966 27.2302 36.8463 27.2362H35.0567C34.9632 27.2349 34.8709 27.2156 34.7851 27.1792C34.6992 27.1429 34.6215 27.0903 34.5563 27.0245C34.4912 26.9586 34.4399 26.8808 34.4053 26.7955C34.3708 26.7102 34.3537 26.6191 34.3551 26.5273V16.7319ZM35.7583 17.4309V25.8882H36.8463C37.3595 25.8831 37.8537 25.6966 38.2384 25.3629C38.6231 25.0292 38.8725 24.5705 38.9409 24.071L39.5408 19.8472C39.5876 19.5497 39.5685 19.2457 39.4849 18.956C39.4013 18.6664 39.2552 18.3978 39.0564 18.1685C38.8577 17.9392 38.611 17.7547 38.3332 17.6274C38.0553 17.5001 37.7528 17.4331 37.4462 17.4309H35.7583Z" fill="#E39C30"/>
<path fill-rule="evenodd" clip-rule="evenodd" d="M21.6449 16.7319C21.6462 16.6401 21.6291 16.549 21.5946 16.4637C21.5601 16.3783 21.5088 16.3005 21.4436 16.2347C21.3785 16.1689 21.3008 16.1163 21.2149 16.08C21.1291 16.0436 21.0368 16.0243 20.9433 16.0229H18.5538C18.0461 16.028 17.5453 16.1394 17.0849 16.3497C16.6245 16.5599 16.2151 16.8643 15.884 17.2423C15.553 17.6203 15.3079 18.0634 15.1651 18.5419C15.0223 19.0204 14.9851 19.5233 15.056 20.017L15.666 24.2407C15.7854 25.0675 16.2032 25.8248 16.8433 26.3746C17.4834 26.9244 18.3034 27.2302 19.1537 27.2362H20.9433C21.0368 27.2349 21.1291 27.2156 21.2149 27.1792C21.3008 27.1429 21.3785 27.0903 21.4436 27.0245C21.5088 26.9586 21.5601 26.8808 21.5946 26.7955C21.6291 26.7102 21.6462 26.6191 21.6449 26.5273V16.7319ZM20.2417 17.4309V25.8882H19.1537C18.6405 25.8831 18.1462 25.6966 17.7615 25.3629C17.3769 25.0292 17.1275 24.5705 17.0591 24.071L16.4592 19.8472C16.4124 19.5497 16.4315 19.2457 16.5151 18.956C16.5987 18.6664 16.7448 18.3978 16.9436 18.1685C17.1423 17.9392 17.389 17.7547 17.6668 17.6274C17.9447 17.5001 18.2472 17.4331 18.5538 17.4309H20.2417Z" fill="#E39C30"/>
<path fill-rule="evenodd" clip-rule="evenodd" d="M18.1167 41.3848H38.2292V42.7927H18.1167V41.3848Z" fill="#E39C30"/>
</svg>
