<svg width="57" height="56" viewBox="0 0 57 56" fill="none" xmlns="http://www.w3.org/2000/svg">
<rect width="56" height="56" transform="translate(0.115723)" fill="white"/>
<path d="M39.0724 25.324C38.9363 25.3217 38.8032 25.2834 38.6866 25.213C38.5999 25.1623 38.5243 25.0948 38.464 25.0145C38.4038 24.9342 38.3602 24.8426 38.3358 24.7453L36.2137 16.5957C36.1872 16.4986 36.1804 16.3971 36.1935 16.2973C36.2066 16.1976 36.2394 16.1013 36.29 16.0143C36.3405 15.9273 36.4079 15.8512 36.4881 15.7904C36.5684 15.7296 36.6599 15.6854 36.7573 15.6603L39.0958 15.0757C39.1937 15.0486 39.2961 15.0419 39.3966 15.056C39.4972 15.0701 39.5938 15.1046 39.6804 15.1575C39.7682 15.2076 39.845 15.2748 39.9062 15.3552C39.9675 15.4355 40.012 15.5273 40.0371 15.6252L42.1592 23.7806C42.2092 23.976 42.1801 24.1831 42.0783 24.3571C41.9766 24.5311 41.8102 24.658 41.6155 24.7102L39.3063 25.2948C39.2303 25.3164 39.1514 25.3262 39.0724 25.324ZM37.4472 16.6892L39.3648 24.0613L40.8906 23.6637L38.9731 16.2917L37.4472 16.6892Z" fill="#FFC700"/>
<path d="M22.1654 29.1473C21.922 29.1463 21.6858 29.0649 21.4934 28.9159C21.301 28.7668 21.1632 28.5584 21.1014 28.323L19.4235 21.8922C19.3507 21.61 19.393 21.3105 19.541 21.0594C19.689 20.8084 19.9306 20.6264 20.2128 20.5535L37.2895 16.1104L39.5169 24.675L31.6245 26.8206C31.5504 26.8409 31.4731 26.8465 31.3968 26.8369C31.3206 26.8274 31.247 26.8029 31.1802 26.7649C31.1135 26.7269 31.0548 26.6761 31.0077 26.6154C30.9605 26.5548 30.9258 26.4854 30.9055 26.4113C30.8851 26.3372 30.8796 26.2599 30.8891 26.1836C30.8987 26.1074 30.9231 26.0338 30.9611 25.967C30.9991 25.9003 31.0499 25.8416 31.1106 25.7945C31.1712 25.7473 31.2406 25.7126 31.3147 25.6922L38.0963 23.8507L36.4535 17.531L20.5577 21.6584L22.2005 27.9664L26.7254 26.7972C26.7999 26.778 26.8774 26.7737 26.9536 26.7844C27.0297 26.7952 27.103 26.8208 27.1692 26.8599C27.2354 26.899 27.2933 26.9508 27.3396 27.0122C27.3858 27.0737 27.4195 27.1436 27.4387 27.2181C27.4578 27.2926 27.4622 27.3701 27.4514 27.4462C27.4407 27.5224 27.415 27.5957 27.3759 27.6619C27.3368 27.7281 27.2851 27.786 27.2236 27.8322C27.1622 27.8785 27.0922 27.9121 27.0177 27.9313L22.4226 29.1006C22.339 29.1263 22.2527 29.142 22.1654 29.1473Z" fill="#FFC700"/>
<path d="M19.0841 28.8201C18.9257 28.8208 18.7701 28.7784 18.634 28.6973C18.4295 28.5777 18.2803 28.3824 18.2189 28.1536L16.9912 23.4123C16.9613 23.2997 16.9542 23.1822 16.9703 23.0668C16.9863 22.9513 17.0253 22.8403 17.0847 22.74C17.2062 22.5372 17.4008 22.3886 17.6284 22.3249L20.5515 21.5649L22.2294 27.9957L19.3063 28.7557C19.2349 28.7856 19.1604 28.8072 19.0841 28.8201ZM18.2189 23.4123L19.3063 27.5982L20.8321 27.2007L19.7447 23.0148L18.2189 23.4123Z" fill="#FFC700"/>
<path d="M15.6116 28.5921C15.416 28.593 15.2258 28.5284 15.0712 28.4087C14.9165 28.289 14.8063 28.121 14.7581 27.9315L14.0799 25.3183C14.0488 25.206 14.0406 25.0887 14.0557 24.9732C14.0707 24.8578 14.1088 24.7465 14.1676 24.646C14.2876 24.4467 14.4805 24.302 14.7054 24.2426L18.1722 23.3364L19.3006 27.6568L15.8338 28.5629C15.761 28.5809 15.6865 28.5907 15.6116 28.5921ZM15.2784 25.3007L15.8162 27.3586L17.8741 26.8208L17.3362 24.7629L15.2784 25.3007Z" fill="#FFC700"/>
<path d="M29.4491 21.5881C29.3164 21.5923 29.1861 21.5512 29.0799 21.4715C28.9736 21.3918 28.8977 21.2783 28.8645 21.1497C28.8272 21.0001 28.8506 20.8418 28.9294 20.7093C29.0082 20.5768 29.1362 20.4809 29.2854 20.4423L34.5996 19.0567C34.7456 19.0276 34.8972 19.0552 35.0235 19.134C35.1498 19.2128 35.2413 19.3368 35.2793 19.4807C35.3173 19.6246 35.299 19.7776 35.2282 19.9085C35.1573 20.0394 35.0391 20.1383 34.8978 20.185L29.5778 21.5706C29.5356 21.5809 29.4925 21.5868 29.4491 21.5881Z" fill="#FFC700"/>
<path d="M19.9728 40.9507C19.8562 40.951 19.7422 40.9164 19.6455 40.8513C19.5817 40.8084 19.527 40.7533 19.4845 40.6892C19.442 40.6251 19.4126 40.5533 19.3979 40.4778C19.3833 40.4023 19.3836 40.3247 19.399 40.2493C19.4144 40.174 19.4445 40.1024 19.4876 40.0387L27.0526 28.7848C27.1394 28.6561 27.2738 28.5672 27.4262 28.5376C27.5786 28.508 27.7365 28.5401 27.8652 28.627C27.9939 28.7138 28.0828 28.8482 28.1124 29.0006C28.142 29.153 28.1099 29.3109 28.023 29.4396L20.4581 40.6935C20.4044 40.7728 20.3322 40.8378 20.2475 40.8826C20.1629 40.9275 20.0686 40.9509 19.9728 40.9507Z" fill="#FFC700"/>
<path d="M38.6801 40.951C38.5844 40.9512 38.49 40.9278 38.4054 40.8829C38.3208 40.8381 38.2485 40.7731 38.1949 40.6938L30.665 29.4399C30.6222 29.3758 30.5925 29.304 30.5775 29.2284C30.5626 29.1528 30.5627 29.075 30.5779 28.9995C30.5931 28.924 30.6231 28.8523 30.6661 28.7884C30.7092 28.7245 30.7644 28.6697 30.8287 28.6273C30.8924 28.5842 30.964 28.5541 31.0393 28.5387C31.1146 28.5233 31.1923 28.5229 31.2677 28.5376C31.3432 28.5522 31.4151 28.5817 31.4792 28.6241C31.5433 28.6666 31.5984 28.7213 31.6413 28.7851L39.1653 40.039C39.2084 40.1027 39.2385 40.1743 39.2539 40.2496C39.2693 40.3249 39.2697 40.4026 39.255 40.4781C39.2404 40.5536 39.211 40.6254 39.1685 40.6895C39.126 40.7536 39.0713 40.8087 39.0075 40.8516C38.9107 40.9167 38.7967 40.9513 38.6801 40.951Z" fill="#FFC700"/>
<path d="M29.3268 40.9507C29.1718 40.9507 29.0231 40.8891 28.9134 40.7794C28.8038 40.6698 28.7422 40.5211 28.7422 40.3661V29.8429C28.7422 29.6879 28.8038 29.5392 28.9134 29.4295C29.0231 29.3199 29.1718 29.2583 29.3268 29.2583C29.4819 29.2583 29.6305 29.3199 29.7402 29.4295C29.8498 29.5392 29.9114 29.6879 29.9114 29.8429V40.3661C29.9114 40.5211 29.8498 40.6698 29.7402 40.7794C29.6305 40.8891 29.4819 40.9507 29.3268 40.9507Z" fill="#FFC700"/>
<path d="M34.5887 35.1048H24.0656C23.9105 35.1048 23.7618 35.0432 23.6522 34.9336C23.5426 34.8239 23.481 34.6752 23.481 34.5202C23.481 34.3651 23.5426 34.2164 23.6522 34.1068C23.7618 33.9971 23.9105 33.9355 24.0656 33.9355H34.5887C34.7438 33.9355 34.8924 33.9971 35.0021 34.1068C35.1117 34.2164 35.1733 34.3651 35.1733 34.5202C35.1733 34.6752 35.1117 34.8239 35.0021 34.9336C34.8924 35.0432 34.7438 35.1048 34.5887 35.1048Z" fill="#FFC700"/>
<path d="M29.3269 30.4277C28.7488 30.4277 28.1836 30.2563 27.7029 29.9351C27.2222 29.6139 26.8476 29.1574 26.6263 28.6233C26.4051 28.0891 26.3472 27.5014 26.46 26.9344C26.5728 26.3673 26.8512 25.8465 27.26 25.4377C27.6688 25.0289 28.1896 24.7505 28.7566 24.6377C29.3237 24.5249 29.9114 24.5828 30.4455 24.8041C30.9796 25.0253 31.4362 25.4 31.7574 25.8807C32.0786 26.3614 32.25 26.9265 32.25 27.5046C32.25 28.2799 31.942 29.0234 31.3938 29.5716C30.8456 30.1198 30.1022 30.4277 29.3269 30.4277ZM29.3269 25.7508C28.98 25.7508 28.6409 25.8536 28.3525 26.0464C28.0641 26.2391 27.8393 26.513 27.7066 26.8335C27.5738 27.1539 27.5391 27.5066 27.6067 27.8468C27.6744 28.187 27.8415 28.4995 28.0867 28.7448C28.332 28.9901 28.6445 29.1571 28.9847 29.2248C29.325 29.2925 29.6776 29.2577 29.9981 29.125C30.3185 28.9922 30.5925 28.7675 30.7852 28.479C30.9779 28.1906 31.0808 27.8515 31.0808 27.5046C31.0808 27.0395 30.896 26.5934 30.5671 26.2645C30.2381 25.9356 29.7921 25.7508 29.3269 25.7508Z" fill="#FFC700"/>
</svg>
