<svg width="57" height="56" viewBox="0 0 57 56" fill="none" xmlns="http://www.w3.org/2000/svg">
<rect width="56" height="56" transform="translate(0.115723)" fill="white"/>
<path d="M12.7662 18.0841C12.3717 16.0067 12.6219 14.3716 13.5454 13.458C13.9394 13.1155 14.3972 12.8543 14.8925 12.6892C15.3878 12.5242 15.9109 12.4586 16.4316 12.4962C19.1602 12.7162 21.7978 13.5798 24.128 15.0161C24.8912 14.4326 25.6513 13.8747 26.4081 13.3426C25.4036 12.7458 24.3697 12.2001 23.3103 11.7075C23.5964 11.1646 23.9178 10.6409 24.2723 10.1399C25.4653 8.40866 26.7833 7.43725 28.0532 7.43725C29.3231 7.43725 30.67 8.39904 31.9014 10.1879C32.7191 9.81284 33.5273 9.48584 34.3161 9.22616C32.5844 6.4851 30.4679 4.88857 28.0724 4.87895C25.6769 4.86933 23.5989 6.38892 21.8287 9.15883C21.5112 9.65895 21.213 10.1976 20.9244 10.765C16.9703 9.46661 13.6609 9.69744 11.6887 11.6691C10.0436 13.3137 9.58177 15.9105 10.3033 19.1324C11.0922 18.7541 11.9131 18.4047 12.7662 18.0841ZM36.9329 22.6429C35.8362 22.4217 34.701 22.2582 33.5369 22.1235L33.7774 22.3544C35.0981 23.6726 36.3413 25.0663 37.5005 26.5285C38.0585 25.7494 38.5492 24.9896 38.9821 24.2587C38.5877 23.7778 38.174 23.2969 37.7507 22.8257L36.9329 22.6429ZM51.2964 28.0385C51.2964 25.7014 49.7378 23.5374 46.9671 21.7773C46.8902 21.9793 46.8228 22.1909 46.7459 22.3929C46.5246 22.9892 46.2745 23.5951 45.9955 24.201C47.7272 25.384 48.7181 26.7112 48.7181 28.0481C48.7181 29.5773 47.3712 31.1739 44.9276 32.5492L44.4466 32.7993C44.206 32.2703 43.9367 31.7317 43.648 31.1931C43.3594 30.6545 43.1093 30.2313 42.8207 29.7119C42.5321 29.1926 42.1376 28.6059 41.7624 28.0481C46.2937 21.2003 47.5828 14.7371 44.5043 11.6979C40.7811 7.97586 32.1227 10.6399 23.8009 17.6801C22.7523 17.7667 21.7133 17.8917 20.6935 18.036C18.8194 18.3051 16.9674 18.7101 15.1521 19.2478C13.3766 19.747 11.6606 20.4371 10.0339 21.306C6.69561 23.1719 4.93506 25.509 4.93506 28.0385C4.93506 30.3948 6.48396 32.5492 9.23543 34.2996C9.37012 33.9342 9.50481 33.5591 9.65874 33.1744C9.81266 32.7897 10.0339 32.3087 10.236 31.8663C8.50428 30.6929 7.51336 29.3657 7.51336 28.0192C7.51336 26.49 8.85061 24.8935 11.2942 23.5277L11.7849 23.268C12.0254 23.8066 12.2948 24.3452 12.5834 24.8838L12.7662 25.2205L12.9971 25.6533C13.1317 25.8841 13.2664 26.1245 13.4107 26.3554C13.7378 26.9132 14.0938 27.471 14.4594 28.0288C9.93773 34.8767 8.68706 41.3302 11.7272 44.379C12.3554 44.9671 13.0958 45.4227 13.9041 45.7185C14.7124 46.0143 15.572 46.1443 16.4316 46.1006C18.4543 46.0349 20.446 45.5844 22.3001 44.7734C25.9743 43.1959 29.3793 41.0541 32.392 38.4256L33.2867 38.3487C34.0275 38.2717 34.7587 38.1852 35.4802 38.0794C38.0417 37.701 40.5567 37.0563 42.9842 36.1558C43.1644 36.7306 43.3121 37.315 43.4268 37.9063C43.767 39.2231 43.6656 40.6151 43.1382 41.8688C43.1343 41.9007 43.1343 41.933 43.1382 41.9649C43.0262 42.1436 42.8974 42.3111 42.7533 42.4651V42.5324C41.089 44.1867 36.981 43.6673 32.113 40.9935C31.3626 41.5802 30.6122 42.1381 29.8522 42.6574C30.8525 43.247 31.8834 43.7831 32.9404 44.2636C32.6544 44.8036 32.333 45.3241 31.9784 45.8217C31.8437 46.0044 31.7186 46.1968 31.5839 46.3699L31.3626 46.6392C31.2087 46.8123 31.0644 46.995 30.9105 47.1489L30.7084 47.3317C30.5545 47.4759 30.391 47.6298 30.2274 47.7548L30.0061 47.8991C29.8589 48.0056 29.7046 48.102 29.5444 48.1876C29.4387 48.2376 29.3293 48.2794 29.2173 48.3127C29.0956 48.3691 28.9702 48.4173 28.8421 48.4569C28.6159 48.5169 28.3833 48.5493 28.1494 48.5531C26.8506 48.5531 25.523 47.5913 24.3012 45.8217C23.8682 46.0236 23.4257 46.2256 22.9928 46.4083C22.5599 46.5911 22.2424 46.6777 21.8672 46.8123C23.6374 49.6111 25.802 51.121 28.1301 51.121H28.6785H28.9575H29.2269L29.5732 51.0345L29.7656 50.9864L30.1505 50.8422L30.2851 50.7845L30.6988 50.5921H30.8047C30.949 50.5151 31.0836 50.4286 31.2183 50.342L31.3145 50.2843L31.7186 50.0054L31.8148 49.9285L32.1996 49.6111L32.3055 49.5149L32.671 49.1686L32.7961 49.0436L33.1232 48.6782L33.2675 48.5242L33.5657 48.1491L33.7293 47.9472C33.8159 47.8222 33.9121 47.6971 33.9987 47.5625L34.1718 47.3124L34.4027 46.9566C34.7338 46.4434 35.0326 45.9102 35.2974 45.36C36.7619 45.8711 38.2973 46.1502 39.8479 46.1871C40.7052 46.2157 41.5594 46.0712 42.3594 45.7622C43.1595 45.4532 43.889 44.986 44.5043 44.3886C46.1398 42.7536 46.5919 40.1472 45.88 36.9253C45.7473 36.3304 45.5836 35.7429 45.3894 35.1652L46.1879 34.742C49.5262 32.8954 51.2964 30.5583 51.2964 28.0385ZM14.113 22.2678C14.671 22.0562 15.2483 21.8543 15.864 21.6715C16.4797 21.4888 16.9319 21.3734 17.4802 21.2387C18.4423 20.9983 19.4909 20.7963 20.5396 20.6232C18.9283 22.2317 17.4243 23.9442 16.0371 25.7494C15.6908 25.1916 15.3637 24.6434 15.0751 24.0856L14.9404 23.8451C14.6614 23.3065 14.3824 22.7679 14.113 22.2678ZM33.7485 33.713C32.9693 34.5016 32.1611 35.2421 31.353 35.9538C30.391 36.0116 29.4289 36.0501 28.4669 36.0597H28.1205C25.3406 36.0674 22.5655 35.8291 19.8276 35.3479C18.4914 35.1076 17.1709 34.7864 15.8736 34.3862C15.7004 34.7516 15.5273 35.1171 15.3829 35.473C15.2386 35.8288 15.0462 36.377 14.9115 36.8002C16.3779 37.2411 17.8683 37.5975 19.3755 37.8678C21.2346 38.1886 23.1104 38.4038 24.9939 38.5122C25.9559 38.5699 27.0142 38.6084 28.0339 38.618C25.9681 40.1646 23.7231 41.4563 21.3477 42.4651C17.74 43.9174 14.9019 43.9847 13.555 42.6382C11.7079 40.7916 12.593 35.9635 16.066 30.3275C16.4508 30.8276 16.8453 31.2893 17.2589 31.8279C17.3009 31.8847 17.3459 31.9392 17.3936 31.9913L17.9131 32.6069C18.0286 32.7415 18.1344 32.8762 18.2595 33.0108L18.4808 33.2609C19.0099 33.3763 19.5583 33.5014 20.1355 33.5975C20.9725 33.7514 21.8287 33.8668 22.6945 33.9726L22.4444 33.7322C21.5497 32.8377 20.7127 31.924 19.9142 31.0007L19.3274 30.2986C19.135 30.0678 18.9522 29.8466 18.779 29.6158L18.7213 29.5581C18.3365 29.058 17.9613 28.5963 17.5957 28.0673C19.0481 26.056 20.6565 24.1618 22.4059 22.4025C23.2044 21.6042 24.0029 20.8636 24.8014 20.1615C25.7635 20.0942 26.7255 20.0654 27.6876 20.0557H28.0339C31.1147 20.0439 34.189 20.337 37.2119 20.9309C38.299 21.1521 39.3188 21.4118 40.2809 21.7003C40.6516 20.9198 40.9729 20.1167 41.2429 19.2959C40.1462 18.9593 38.9917 18.6612 37.7507 18.4111C35.5921 17.9823 33.4061 17.7059 31.2087 17.584C30.2467 17.5263 29.1884 17.4878 28.1494 17.4782C32.6999 14.2082 36.9137 12.5539 39.771 12.5539C40.8223 12.4811 41.8598 12.8268 42.6571 13.5157C44.004 14.8718 43.9463 17.709 42.484 21.3157C40.4072 25.9615 37.4507 30.1615 33.7774 33.6841L33.7485 33.713ZM38.6935 34.8575C37.7314 35.0883 36.6924 35.2998 35.6342 35.4633C37.252 33.8479 38.7594 32.1257 40.1462 30.3082C40.4925 30.8661 40.8196 31.4239 41.1082 31.9721L41.2333 32.2222C41.5315 32.7608 41.7913 33.2994 42.0414 33.8284C40.9547 34.2238 39.8466 34.5578 38.7223 34.8286L38.6935 34.8575ZM28.1109 23.9509C27.3003 23.9528 26.5085 24.195 25.8356 24.6468C25.1627 25.0986 24.6389 25.7396 24.3305 26.489C24.0221 27.2384 23.9428 28.0624 24.1028 28.8568C24.2628 29.6512 24.6549 30.3803 25.2294 30.952C25.8039 31.5236 26.5351 31.9121 27.3304 32.0684C28.1258 32.2246 28.9496 32.1415 29.6978 31.8297C30.4459 31.5178 31.0848 30.9912 31.5335 30.3163C31.9823 29.6415 32.2208 28.8488 32.2189 28.0385C32.2214 27.498 32.117 26.9624 31.9115 26.4624C31.7061 25.9625 31.4038 25.5081 31.0219 25.1255C30.6401 24.7429 30.1863 24.4395 29.6867 24.233C29.1871 24.0265 28.6515 23.9208 28.1109 23.922V23.9509Z" fill="#7A7A7A"/>
</svg>
