<svg width="56" height="56" viewBox="0 0 56 56" fill="none" xmlns="http://www.w3.org/2000/svg">
<rect width="56" height="56" fill="white"/>
<path fill-rule="evenodd" clip-rule="evenodd" d="M27.4096 18.1067C25.6434 18.1067 24.2116 19.5417 24.2116 21.3119C24.2116 23.0821 25.6434 24.5171 27.4096 24.5171C29.1758 24.5171 30.6076 23.0821 30.6076 21.3119C30.6076 19.5417 29.1758 18.1067 27.4096 18.1067ZM23.2979 21.3119C23.2979 19.0362 25.139 17.1909 27.4096 17.1909C29.6802 17.1909 31.5213 19.0362 31.5213 21.3119C31.5213 23.5876 29.6802 25.4329 27.4096 25.4329C25.139 25.4329 23.2979 23.5876 23.2979 21.3119Z" fill="#FFC700"/>
<path fill-rule="evenodd" clip-rule="evenodd" d="M20.5562 30.9278C20.5562 28.9048 22.1926 27.2646 24.211 27.2646H30.6071C32.6255 27.2646 34.262 28.9048 34.262 30.9278V34.133C34.262 34.3857 34.0573 34.5909 33.8051 34.5909H21.013C20.7608 34.5909 20.5562 34.3857 20.5562 34.133V30.9278ZM24.211 28.1804C22.697 28.1804 21.4699 29.4103 21.4699 30.9278V33.6751H33.3482V30.9278C33.3482 29.4103 32.1211 28.1804 30.6071 28.1804H24.211Z" fill="#FFC700"/>
<path fill-rule="evenodd" clip-rule="evenodd" d="M36.0903 27.2642V21.7695H37.0041V27.2642H36.0903Z" fill="#FFC700"/>
<path fill-rule="evenodd" clip-rule="evenodd" d="M39.2885 24.977H33.8062V24.0605H39.2885V24.977Z" fill="#FFC700"/>
<path d="M18.7401 18.8323C18.667 18.8323 18.5944 18.8193 18.5258 18.794L16.8051 18.157L15.0847 18.794C14.9894 18.8293 14.8867 18.8405 14.786 18.8266C14.6852 18.8127 14.5895 18.7741 14.5072 18.7143C14.4249 18.6544 14.3587 18.5752 14.3143 18.4836C14.27 18.392 14.2489 18.2909 14.253 18.1892L14.3267 16.3546L13.1897 14.9142C13.1267 14.8343 13.0843 14.7401 13.0663 14.6399C13.0484 14.5397 13.0554 14.4366 13.0869 14.3398C13.1183 14.2429 13.1731 14.1554 13.2465 14.0848C13.3198 14.0143 13.4094 13.963 13.5074 13.9354L15.2734 13.4387L16.291 11.9133C16.3473 11.8282 16.4239 11.7585 16.5137 11.7102C16.6036 11.662 16.7039 11.6367 16.8059 11.6367C16.9079 11.6367 17.0083 11.662 17.0981 11.7102C17.188 11.7585 17.2645 11.8282 17.3209 11.9133L18.3388 13.4387L20.1049 13.9354C20.2028 13.963 20.2924 14.0143 20.3658 14.0848C20.4391 14.1554 20.494 14.2429 20.5254 14.3398C20.5568 14.4366 20.5639 14.5397 20.5459 14.6399C20.528 14.7401 20.4856 14.8343 20.4225 14.9142L19.2855 16.3546L19.3592 18.1892C19.3626 18.2725 19.349 18.3555 19.3195 18.4334C19.2899 18.5114 19.2449 18.5825 19.1872 18.6425C19.1295 18.7026 19.0603 18.7504 18.9836 18.783C18.907 18.8156 18.8246 18.8324 18.7413 18.8323H18.7401ZM16.8038 16.879C16.8771 16.8789 16.9499 16.8921 17.0185 16.9178L18.0842 17.3123L18.0385 16.1757C18.0326 16.0282 18.0797 15.8834 18.1711 15.7676L18.8756 14.8754L17.7814 14.5674C17.6394 14.5275 17.5164 14.438 17.4346 14.3151L16.8038 13.3669L16.1736 14.3151C16.0917 14.438 15.9687 14.5275 15.8267 14.5674L14.7325 14.8754L15.437 15.7676C15.5283 15.8834 15.5752 16.0282 15.5692 16.1757L15.5239 17.3123L16.5896 16.9178C16.6585 16.8919 16.7315 16.8788 16.8051 16.879H16.8038Z" fill="#FFC700"/>
<path d="M16.4281 37.1376C16.3847 37.1376 16.3417 37.1299 16.301 37.1149L15.2802 36.737L14.2597 37.1149C14.2031 37.1358 14.1423 37.1425 14.0825 37.1342C14.0227 37.126 13.9659 37.1031 13.9171 37.0676C13.8683 37.0321 13.829 36.9851 13.8027 36.9308C13.7764 36.8764 13.7639 36.8164 13.7663 36.7561L13.8101 35.6678L13.1356 34.8133C13.0982 34.766 13.073 34.7101 13.0624 34.6506C13.0517 34.5912 13.0559 34.53 13.0746 34.4726C13.0932 34.4152 13.1257 34.3632 13.1692 34.3214C13.2128 34.2795 13.2659 34.2491 13.324 34.2328L14.3717 33.9381L14.9753 33.0332C15.0087 32.9828 15.0541 32.9414 15.1074 32.9127C15.1607 32.8841 15.2202 32.8691 15.2807 32.8691C15.3412 32.8691 15.4008 32.8841 15.4541 32.9127C15.5074 32.9414 15.5528 32.9828 15.5862 33.0332L16.1901 33.9381L17.2377 34.2328C17.2958 34.2491 17.349 34.2795 17.3925 34.3214C17.436 34.3632 17.4685 34.4152 17.4871 34.4726C17.5058 34.53 17.51 34.5912 17.4993 34.6506C17.4887 34.7101 17.4635 34.766 17.4261 34.8133L16.7516 35.6678L16.7954 36.7561C16.7974 36.8055 16.7893 36.8548 16.7718 36.901C16.7543 36.9472 16.7276 36.9894 16.6933 37.025C16.6591 37.0607 16.618 37.089 16.5726 37.1084C16.5271 37.1277 16.4782 37.1377 16.4288 37.1376H16.4281ZM15.2795 35.9789C15.323 35.9789 15.3661 35.9866 15.4068 36.0019L16.039 36.2359L16.0119 35.5617C16.0084 35.4742 16.0363 35.3883 16.0906 35.3196L16.5085 34.7904L15.8594 34.6077C15.7752 34.584 15.7022 34.5309 15.6537 34.458L15.2795 33.8955L14.9056 34.458C14.8571 34.5309 14.7841 34.584 14.6998 34.6077L14.0508 34.7904L14.4687 35.3196C14.5229 35.3883 14.5507 35.4742 14.5471 35.5617L14.5202 36.2359L15.1524 36.0019C15.1933 35.9866 15.2366 35.9788 15.2802 35.9789H15.2795Z" fill="#FFC700"/>
<path d="M37.9553 45.444C37.7914 45.444 37.6342 45.3789 37.5183 45.2629C37.4024 45.1469 37.3373 44.9896 37.3373 44.8256C37.3364 44.0524 37.0291 43.3111 36.4828 42.7644C35.9365 42.2177 35.1957 41.9101 34.4231 41.9093C34.2592 41.9093 34.1021 41.8441 33.9862 41.7281C33.8703 41.6122 33.8052 41.4549 33.8052 41.2909C33.8052 41.1268 33.8703 40.9695 33.9862 40.8536C34.1021 40.7376 34.2592 40.6725 34.4231 40.6725C35.1957 40.6715 35.9364 40.3639 36.4827 39.8172C37.029 39.2705 37.3363 38.5293 37.3373 37.7561C37.3373 37.5921 37.4024 37.4348 37.5183 37.3188C37.6342 37.2028 37.7914 37.1377 37.9553 37.1377C38.1191 37.1377 38.2763 37.2028 38.3922 37.3188C38.5081 37.4348 38.5732 37.5921 38.5732 37.7561C38.5741 38.5293 38.8814 39.2706 39.4277 39.8173C39.974 40.364 40.7148 40.6716 41.4874 40.6725C41.6513 40.6725 41.8085 40.7376 41.9243 40.8536C42.0402 40.9695 42.1053 41.1268 42.1053 41.2909C42.1053 41.4549 42.0402 41.6122 41.9243 41.7281C41.8085 41.8441 41.6513 41.9093 41.4874 41.9093C40.7148 41.9101 39.974 42.2177 39.4277 42.7644C38.8814 43.3111 38.5741 44.0524 38.5732 44.8256C38.5732 44.9896 38.5081 45.1469 38.3922 45.2629C38.2763 45.3789 38.1191 45.444 37.9553 45.444ZM36.5999 41.2909C37.1505 41.6318 37.6145 42.0962 37.9553 42.6472C38.2959 42.0961 38.7599 41.6317 39.3106 41.2909C38.76 40.9499 38.296 40.4855 37.9553 39.9345C37.6143 40.4853 37.1504 40.9499 36.5999 41.2909Z" fill="#FFC700"/>
</svg>
