<svg width="56" height="56" viewBox="0 0 56 56" fill="none" xmlns="http://www.w3.org/2000/svg">
<rect width="56" height="56" fill="white"/>
<path d="M28 52C23.2533 52 18.6131 50.5924 14.6663 47.9553C10.7196 45.3181 7.64341 41.5698 5.8269 37.1844C4.0104 32.799 3.53512 27.9734 4.46116 23.3178C5.38721 18.6623 7.67299 14.3859 11.0294 11.0294C14.3859 7.67299 18.6623 5.38721 23.3178 4.46116C27.9734 3.53512 32.799 4.0104 37.1844 5.8269C41.5698 7.64341 45.3181 10.7195 47.9553 14.6663C50.5924 18.6131 52 23.2533 52 28C52 34.3652 49.4715 40.4697 44.9706 44.9706C40.4697 49.4714 34.3652 52 28 52ZM28 6.00001C23.6488 6.00001 19.3953 7.29029 15.7775 9.70768C12.1596 12.1251 9.33979 15.561 7.67466 19.581C6.00954 23.6009 5.57387 28.0244 6.42274 32.292C7.27162 36.5596 9.36691 40.4796 12.4437 43.5564C15.5204 46.6331 19.4404 48.7284 23.708 49.5773C27.9756 50.4262 32.3991 49.9905 36.419 48.3254C40.439 46.6602 43.8749 43.8404 46.2923 40.2225C48.7097 36.6047 50 32.3512 50 28C50 22.1652 47.6822 16.5695 43.5564 12.4437C39.4306 8.31786 33.8348 6.00001 28 6.00001Z" fill="#777474"/>
<path d="M39.7602 48.3203C38.6142 47.8164 37.6025 47.0506 36.8064 46.0844C36.0103 45.1183 35.4521 43.9788 35.1766 42.7577C34.9011 41.5365 34.916 40.2677 35.2202 39.0533C35.5244 37.839 36.1093 36.7129 36.9279 35.7658C37.7465 34.8187 38.776 34.0769 39.9335 33.6001C41.091 33.1233 42.3442 32.9247 43.5924 33.0205C44.8407 33.1163 46.049 33.5036 47.1202 34.1514C48.1914 34.7992 49.0957 35.6894 49.7602 36.7503L48.0602 37.8103C47.561 37.0166 46.8826 36.3509 46.0796 35.8668C45.2766 35.3826 44.3713 35.0933 43.4363 35.0222C42.5013 34.9511 41.5627 35.1002 40.6957 35.4574C39.8287 35.8146 39.0575 36.37 38.444 37.0792C37.8305 37.7883 37.3917 38.6313 37.1628 39.5406C36.934 40.45 36.9215 41.4003 37.1262 42.3153C37.331 43.2304 37.7474 44.0847 38.3421 44.8098C38.9367 45.5348 39.693 46.1104 40.5502 46.4903L39.7602 48.3203Z" fill="#777474"/>
<path d="M9.62 41.6798L9.35001 39.6798C9.98179 39.5939 10.581 39.3475 11.0905 38.9641C11.5999 38.5807 12.0026 38.0731 12.26 37.4898C12.4674 37.0403 12.5823 36.5537 12.5977 36.059C12.6132 35.5642 12.5289 35.0714 12.35 34.6098C12.1314 34.0439 11.779 33.5393 11.3231 33.1391C10.8671 32.7388 10.3211 32.4549 9.73164 32.3114C9.14216 32.168 8.52671 32.1693 7.93785 32.3153C7.34899 32.4613 6.80422 32.7476 6.35001 33.1498L5 31.6798C5.67047 31.0747 6.47362 30.6355 7.34482 30.3974C8.21601 30.1594 9.13092 30.1291 10.0159 30.3092C10.9009 30.4892 11.7314 30.8744 12.4403 31.4339C13.1493 31.9934 13.717 32.7115 14.0978 33.5305C14.4786 34.3494 14.6618 35.2463 14.6328 36.149C14.6037 37.0516 14.3632 37.9349 13.9305 38.7276C13.4979 39.5204 12.8851 40.2005 12.1417 40.7132C11.3982 41.226 10.5447 41.5571 9.64999 41.6798H9.62Z" fill="#777474"/>
<path d="M34.5102 14.7401C33.3645 14.7406 32.2414 14.4215 31.2671 13.8188C30.2927 13.2161 29.5058 12.3536 28.9946 11.3283C28.4835 10.3029 28.2685 9.15531 28.3737 8.01446C28.4789 6.87361 28.9002 5.78471 29.5902 4.87012L31.1902 6.07012C30.7972 6.58885 30.5313 7.19257 30.414 7.83274C30.2967 8.4729 30.3313 9.13166 30.5149 9.75604C30.6985 10.3804 31.026 10.953 31.4712 11.4278C31.9163 11.9026 32.4667 12.2663 33.0779 12.4897C33.6892 12.7131 34.3444 12.7899 34.9908 12.7141C35.6372 12.6382 36.2567 12.4118 36.7997 12.0529C37.3426 11.694 37.7938 11.2128 38.1169 10.6479C38.4401 10.0829 38.6261 9.45005 38.6602 8.80012L40.6602 8.91012C40.5781 10.4851 39.8941 11.9684 38.7496 13.0534C37.605 14.1384 36.0873 14.7423 34.5102 14.7401Z" fill="#777474"/>
<path d="M20 26C19.0111 26 18.0444 25.7068 17.2222 25.1574C16.3999 24.6079 15.759 23.8271 15.3806 22.9134C15.0022 21.9998 14.9031 20.9945 15.0961 20.0245C15.289 19.0546 15.7652 18.1637 16.4645 17.4645C17.1637 16.7652 18.0547 16.289 19.0246 16.0961C19.9945 15.9031 20.9998 16.0022 21.9134 16.3806C22.8271 16.759 23.6079 17.3999 24.1574 18.2222C24.7068 19.0444 25 20.0111 25 21C25 22.3261 24.4732 23.5979 23.5355 24.5355C22.5979 25.4732 21.3261 26 20 26ZM20 18C19.4067 18 18.8266 18.176 18.3333 18.5056C17.8399 18.8352 17.4554 19.3038 17.2284 19.852C17.0013 20.4001 16.9419 21.0033 17.0577 21.5853C17.1734 22.1672 17.4591 22.7018 17.8787 23.1213C18.2982 23.5409 18.8328 23.8266 19.4147 23.9424C19.9967 24.0581 20.5999 23.9987 21.1481 23.7716C21.6962 23.5446 22.1648 23.1601 22.4944 22.6667C22.8241 22.1734 23 21.5933 23 21C23 20.2044 22.6839 19.4413 22.1213 18.8787C21.5587 18.3161 20.7957 18 20 18Z" fill="#777474"/>
<path d="M25 44C24.11 44 23.24 43.7361 22.4999 43.2416C21.7599 42.7472 21.1831 42.0443 20.8425 41.2221C20.5019 40.3998 20.4128 39.495 20.5865 38.6221C20.7601 37.7492 21.1887 36.9474 21.818 36.318C22.4474 35.6887 23.2492 35.2601 24.1221 35.0865C24.995 34.9128 25.8998 35.002 26.7221 35.3425C27.5443 35.6831 28.2471 36.2599 28.7416 36.9999C29.2361 37.74 29.5 38.61 29.5 39.5C29.4974 40.6927 29.0224 41.8357 28.1791 42.6791C27.3357 43.5224 26.1927 43.9974 25 44ZM25 37C24.5055 37 24.0222 37.1466 23.6111 37.4213C23.1999 37.696 22.8795 38.0865 22.6903 38.5433C22.5011 39.0001 22.4516 39.5028 22.548 39.9877C22.6445 40.4727 22.8826 40.9181 23.2322 41.2678C23.5819 41.6174 24.0273 41.8555 24.5123 41.952C24.9972 42.0484 25.4999 41.9989 25.9567 41.8097C26.4135 41.6205 26.804 41.3 27.0787 40.8889C27.3534 40.4778 27.5 39.9945 27.5 39.5C27.5 38.837 27.2366 38.2011 26.7678 37.7322C26.2989 37.2634 25.663 37 25 37Z" fill="#777474"/>
<path d="M38 30C36.8133 30 35.6533 29.6481 34.6666 28.9888C33.6799 28.3295 32.9108 27.3925 32.4567 26.2961C32.0026 25.1997 31.8838 23.9933 32.1153 22.8295C32.3468 21.6656 32.9182 20.5965 33.7574 19.7574C34.5965 18.9182 35.6656 18.3468 36.8294 18.1153C37.9933 17.8838 39.1997 18.0026 40.2961 18.4567C41.3924 18.9109 42.3295 19.6799 42.9888 20.6666C43.6481 21.6533 44 22.8133 44 24C44 25.5913 43.3679 27.1174 42.2426 28.2426C41.1174 29.3679 39.5913 30 38 30ZM38 20C37.2089 20 36.4355 20.2346 35.7777 20.6741C35.1199 21.1137 34.6072 21.7384 34.3045 22.4693C34.0017 23.2002 33.9225 24.0044 34.0769 24.7804C34.2312 25.5563 34.6122 26.269 35.1716 26.8284C35.731 27.3878 36.4437 27.7688 37.2196 27.9231C37.9956 28.0775 38.7998 27.9983 39.5307 27.6955C40.2616 27.3928 40.8864 26.8801 41.3259 26.2223C41.7654 25.5645 42 24.7911 42 24C42 22.9391 41.5786 21.9217 40.8284 21.1716C40.0783 20.4214 39.0609 20 38 20Z" fill="#777474"/>
</svg>
