<svg width="56" height="56" viewBox="0 0 56 56" fill="none" xmlns="http://www.w3.org/2000/svg">
<rect width="56" height="56" fill="white"/>
<path fill-rule="evenodd" clip-rule="evenodd" d="M6.63184 15.806C6.63184 12.9993 8.90908 10.7251 11.7195 10.7251H19.8598C21.4614 10.7251 22.9694 11.4771 23.9299 12.7575L27.5931 17.6352C28.169 18.4034 29.0746 18.8546 30.0352 18.8546H44.2807C47.0911 18.8546 49.3683 21.1288 49.3683 23.9355V40.1945C49.3683 43.0012 47.0911 45.2754 44.2807 45.2754H11.7195C8.90908 45.2754 6.63184 43.0012 6.63184 40.1945V15.806ZM11.7195 12.7575C10.0345 12.7575 8.66691 14.1232 8.66691 15.806V40.1945C8.66691 41.8773 10.0345 43.243 11.7195 43.243H44.2807C45.9657 43.243 47.3333 41.8773 47.3333 40.1945V23.9355C47.3333 22.2527 45.9657 20.8869 44.2807 20.8869H30.0352C28.4336 20.8869 26.9256 20.135 25.965 18.8546L22.3019 13.9769C21.726 13.2087 20.8204 12.7575 19.8598 12.7575H11.7195Z" fill="#7A7A7A"/>
<path fill-rule="evenodd" clip-rule="evenodd" d="M23.0217 13.3202C23.1926 12.9767 23.5468 12.7593 23.9314 12.7593H42.7558C45.5662 12.7593 47.8435 15.0335 47.8435 17.8402V19.8726C47.8435 20.4335 47.3876 20.8888 46.8259 20.8888H30.5454C28.9438 20.8888 27.4358 20.1368 26.4752 18.8564L23.1173 14.3852C22.8853 14.0763 22.8487 13.6657 23.0217 13.3202ZM25.9665 14.7916L28.1033 17.637C28.6792 18.4052 29.5848 18.8564 30.5454 18.8564H45.8084V17.8402C45.8084 16.1574 44.4408 14.7916 42.7558 14.7916H25.9665Z" fill="#7A7A7A"/>
</svg>
