<svg width="56" height="56" viewBox="0 0 56 56" fill="none" xmlns="http://www.w3.org/2000/svg">
<rect width="56" height="56" fill="white"/>
<path fill-rule="evenodd" clip-rule="evenodd" d="M28.0001 18.3912C33.3468 18.3912 37.682 22.6936 37.682 27.9998C37.682 29.5213 37.3255 30.9592 36.6922 32.2377C36.5817 32.4604 36.5419 32.7193 36.5954 32.9748L37.5237 37.4637L32.8491 36.5955C32.603 36.5503 32.3558 36.5865 32.1406 36.6882C30.8865 37.2783 29.4832 37.6084 28.0001 37.6084C22.6535 37.6084 18.3182 33.306 18.3182 27.9998C18.3182 22.6936 22.6535 18.3912 28.0001 18.3912ZM38.8211 27.9998C38.8211 22.0684 33.9767 17.2607 28.0001 17.2607C22.0236 17.2607 17.1792 22.0684 17.1792 27.9998C17.1792 33.9311 22.0236 38.7388 28.0001 38.7388C29.6552 38.7388 31.2248 38.3703 32.6292 37.709C32.6349 37.7067 32.6395 37.7067 32.6395 37.7067L37.3141 38.5749C38.1092 38.7219 38.8017 38.0232 38.6388 37.2365L37.7105 32.7476C37.7105 32.7476 37.7105 32.743 37.7139 32.7363C38.4235 31.3074 38.8211 29.6988 38.8211 27.9998Z" fill="#FFC700"/>
<path fill-rule="evenodd" clip-rule="evenodd" d="M22.3057 27.4336C21.9914 27.4336 21.7362 27.6869 21.7362 27.9989C21.7362 28.3109 21.9914 28.5641 22.3057 28.5641C22.6201 28.5641 22.8753 28.3109 22.8753 27.9989C22.8753 27.6869 22.6201 27.4336 22.3057 27.4336ZM20.5972 27.9989C20.5972 27.0629 21.3626 26.3032 22.3057 26.3032C23.2489 26.3032 24.0143 27.0629 24.0143 27.9989C24.0143 28.9348 23.2489 29.6945 22.3057 29.6945C21.3626 29.6945 20.5972 28.9348 20.5972 27.9989Z" fill="#FFC700"/>
<path fill-rule="evenodd" clip-rule="evenodd" d="M28.0006 27.4336C27.6862 27.4336 27.431 27.6869 27.431 27.9989C27.431 28.3109 27.6862 28.5641 28.0006 28.5641C28.3149 28.5641 28.5701 28.3109 28.5701 27.9989C28.5701 27.6869 28.3149 27.4336 28.0006 27.4336ZM26.292 27.9989C26.292 27.0629 27.0574 26.3032 28.0006 26.3032C28.9437 26.3032 29.7091 27.0629 29.7091 27.9989C29.7091 28.9348 28.9437 29.6945 28.0006 29.6945C27.0574 29.6945 26.292 28.9348 26.292 27.9989Z" fill="#FFC700"/>
<path fill-rule="evenodd" clip-rule="evenodd" d="M33.6959 27.4336C33.3815 27.4336 33.1264 27.6869 33.1264 27.9989C33.1264 28.3109 33.3815 28.5641 33.6959 28.5641C34.0103 28.5641 34.2654 28.3109 34.2654 27.9989C34.2654 27.6869 34.0103 27.4336 33.6959 27.4336ZM31.9873 27.9989C31.9873 27.0629 32.7527 26.3032 33.6959 26.3032C34.639 26.3032 35.4044 27.0629 35.4044 27.9989C35.4044 28.9348 34.639 29.6945 33.6959 29.6945C32.7527 29.6945 31.9873 28.9348 31.9873 27.9989Z" fill="#FFC700"/>
</svg>
