<svg width="57" height="56" viewBox="0 0 57 56" fill="none" xmlns="http://www.w3.org/2000/svg">
<rect width="56" height="56" transform="translate(0.737305)" fill="white"/>
<path d="M46.6631 42.7554C46.5282 42.7552 46.3944 42.7312 46.2679 42.6846L43.0931 41.5094L39.9191 42.6846C39.7431 42.7497 39.5538 42.7704 39.3679 42.7447C39.182 42.719 39.0053 42.6479 38.8535 42.5375C38.7017 42.4271 38.5795 42.2809 38.4977 42.112C38.4159 41.943 38.377 41.7564 38.3845 41.5688L38.5206 38.184L36.4228 35.5264C36.3064 35.379 36.2282 35.2051 36.1951 35.0203C36.162 34.8354 36.175 34.6452 36.233 34.4666C36.291 34.2879 36.3921 34.1264 36.5275 33.9963C36.6628 33.8661 36.8281 33.7715 37.0088 33.7206L40.2672 32.8041L42.1445 29.9898C42.2485 29.8329 42.3897 29.7042 42.5555 29.6151C42.7213 29.5261 42.9065 29.4795 43.0946 29.4795C43.2828 29.4795 43.468 29.5261 43.6338 29.6151C43.7995 29.7042 43.9407 29.8329 44.0447 29.9898L45.9228 32.8041L49.1812 33.7206C49.3619 33.7715 49.5272 33.8661 49.6626 33.9963C49.7979 34.1264 49.899 34.2879 49.957 34.4666C50.015 34.6452 50.028 34.8354 49.9949 35.0203C49.9618 35.2051 49.8836 35.379 49.7672 35.5264L47.6694 38.184L47.8055 41.5688C47.8116 41.7224 47.7867 41.8757 47.7321 42.0194C47.6776 42.1631 47.5946 42.2944 47.4881 42.4052C47.3816 42.516 47.2539 42.6042 47.1125 42.6643C46.9711 42.7245 46.819 42.7555 46.6654 42.7554H46.6631ZM43.0908 39.1515C43.226 39.1513 43.3602 39.1755 43.4868 39.223L45.4531 39.9509L45.3687 37.8539C45.3579 37.5817 45.4447 37.3146 45.6135 37.1009L46.9132 35.4548L44.8945 34.8867C44.6325 34.8129 44.4054 34.6478 44.2545 34.4212L43.0908 32.6717L41.9279 34.4212C41.777 34.6478 41.55 34.8129 41.288 34.8867L39.2692 35.4548L40.5689 37.1009C40.7375 37.3147 40.824 37.5818 40.8129 37.8539L40.7293 39.9509L42.6956 39.223C42.8227 39.1754 42.9574 39.1511 43.0931 39.1515H43.0908Z" fill="#777575"/>
<path d="M33.667 31.4341C33.5321 31.4339 33.3984 31.4099 33.2718 31.3633L30.097 30.1881L26.923 31.3633C26.747 31.4284 26.5577 31.4491 26.3718 31.4234C26.1859 31.3978 26.0092 31.3266 25.8575 31.2162C25.7057 31.1058 25.5834 30.9597 25.5016 30.7907C25.4198 30.6217 25.3809 30.4351 25.3884 30.2475L25.5245 26.8627L23.4267 24.2051C23.3103 24.0577 23.2321 23.8839 23.199 23.699C23.1659 23.5141 23.1789 23.3239 23.2369 23.1453C23.2949 22.9666 23.396 22.8051 23.5314 22.675C23.6667 22.5449 23.832 22.4502 24.0127 22.3993L27.2711 21.4828L29.1484 18.6685C29.2524 18.5116 29.3936 18.3829 29.5594 18.2938C29.7252 18.2048 29.9104 18.1582 30.0985 18.1582C30.2867 18.1582 30.4719 18.2048 30.6377 18.2938C30.8034 18.3829 30.9446 18.5116 31.0486 18.6685L32.9267 21.4828L36.1851 22.3993C36.3658 22.4502 36.5311 22.5449 36.6665 22.675C36.8018 22.8051 36.903 22.9666 36.9609 23.1453C37.0189 23.3239 37.0319 23.5141 36.9988 23.699C36.9657 23.8839 36.8875 24.0577 36.7711 24.2051L34.6734 26.8627L34.8094 30.2475C34.8155 30.4011 34.7906 30.5544 34.7361 30.6981C34.6815 30.8419 34.5985 30.9731 34.492 31.0839C34.3856 31.1947 34.2578 31.2829 34.1164 31.3431C33.975 31.4032 33.8229 31.4342 33.6693 31.4341H33.667ZM30.0947 27.8302C30.2299 27.83 30.3641 27.8543 30.4907 27.9017L32.457 28.6296L32.3726 26.5326C32.3618 26.2604 32.4486 25.9933 32.6174 25.7796L33.9171 24.1336L31.8984 23.5654C31.6364 23.4916 31.4093 23.3265 31.2584 23.0999L30.0947 21.3504L28.9318 23.0999C28.7809 23.3265 28.5539 23.4916 28.2919 23.5654L26.2731 24.1336L27.5728 25.7796C27.7414 25.9934 27.8279 26.2605 27.8168 26.5326L27.7332 28.6296L29.6995 27.9017C29.8266 27.8541 29.9613 27.8298 30.097 27.8302H30.0947Z" fill="#777575"/>
<path d="M30.603 50.0986C30.4682 50.0985 30.3344 50.0745 30.2078 50.0279L27.033 48.8527L23.859 50.0279C23.683 50.093 23.4937 50.1136 23.3078 50.088C23.1219 50.0623 22.9453 49.9911 22.7935 49.8807C22.6417 49.7704 22.5194 49.6242 22.4376 49.4552C22.3558 49.2862 22.3169 49.0997 22.3245 48.912L22.4605 45.5272L20.3627 42.8696C20.2464 42.7223 20.1682 42.5484 20.1351 42.3635C20.102 42.1787 20.115 41.9885 20.1729 41.8098C20.2309 41.6312 20.3321 41.4697 20.4674 41.3395C20.6027 41.2094 20.7681 41.1147 20.9488 41.0639L24.2071 40.1473L26.0845 37.333C26.1885 37.1761 26.3297 37.0474 26.4954 36.9584C26.6612 36.8693 26.8464 36.8228 27.0346 36.8228C27.2227 36.8228 27.4079 36.8693 27.5737 36.9584C27.7395 37.0474 27.8806 37.1761 27.9846 37.333L29.8627 40.1473L33.1211 41.0639C33.3018 41.1147 33.4672 41.2094 33.6025 41.3395C33.7378 41.4697 33.839 41.6312 33.897 41.8098C33.9549 41.9885 33.9679 42.1787 33.9348 42.3635C33.9017 42.5484 33.8235 42.7223 33.7071 42.8696L31.6094 45.5272L31.7454 48.912C31.7516 49.0657 31.7266 49.2189 31.6721 49.3627C31.6176 49.5064 31.5346 49.6376 31.4281 49.7485C31.3216 49.8593 31.1938 49.9474 31.0524 50.0076C30.911 50.0678 30.759 50.0987 30.6053 50.0986H30.603ZM27.0308 46.4948C27.166 46.4946 27.3001 46.5188 27.4268 46.5663L29.393 47.2942L29.3087 45.1971C29.2978 44.9249 29.3846 44.6578 29.5534 44.4441L30.8531 42.7981L28.8344 42.2299C28.5724 42.1562 28.3454 41.9911 28.1944 41.7644L27.0308 40.015L25.8679 41.7644C25.7169 41.9911 25.4899 42.1562 25.2279 42.2299L23.2092 42.7981L24.5089 44.4441C24.6774 44.6579 24.7639 44.925 24.7529 45.1971L24.6693 47.2942L26.6355 46.5663C26.7626 46.5186 26.8973 46.4944 27.033 46.4948H27.0308Z" fill="#777575"/>
<path d="M17.9473 39.0249C17.8124 39.0247 17.6786 39.0008 17.5521 38.9541L14.3773 37.779L11.2033 38.9541C11.0273 39.0193 10.8379 39.0399 10.6521 39.0142C10.4662 38.9886 10.2895 38.9174 10.1377 38.807C9.98593 38.6966 9.86369 38.5505 9.78187 38.3815C9.70006 38.2125 9.66118 38.0259 9.6687 37.8383L9.80475 34.4535L7.70697 31.7959C7.59061 31.6485 7.51242 31.4747 7.47931 31.2898C7.4462 31.1049 7.45921 30.9147 7.51718 30.7361C7.57515 30.5575 7.67629 30.3959 7.81163 30.2658C7.94697 30.1357 8.11232 30.041 8.293 29.9902L11.5514 29.0736L13.4287 26.2593C13.5327 26.1024 13.6739 25.9737 13.8397 25.8846C14.0055 25.7956 14.1907 25.749 14.3788 25.749C14.5669 25.749 14.7522 25.7956 14.9179 25.8846C15.0837 25.9737 15.2249 26.1024 15.3289 26.2593L17.207 29.0736L20.4654 29.9902C20.6461 30.041 20.8114 30.1357 20.9467 30.2658C21.0821 30.3959 21.1832 30.5575 21.2412 30.7361C21.2992 30.9147 21.3122 31.1049 21.2791 31.2898C21.246 31.4747 21.1677 31.6485 21.0514 31.7959L18.9536 34.4535L19.0897 37.8383C19.0958 37.9919 19.0709 38.1452 19.0163 38.2889C18.9618 38.4327 18.8788 38.5639 18.7723 38.6747C18.6658 38.7856 18.538 38.8737 18.3967 38.9339C18.2553 38.994 18.1032 39.025 17.9496 39.0249H17.9473ZM14.375 35.421C14.5102 35.4209 14.6444 35.4451 14.771 35.4925L16.7373 36.2204L16.6529 34.1234C16.6421 33.8512 16.7289 33.5841 16.8977 33.3704L18.1973 31.7244L16.1786 31.1562C15.9166 31.0824 15.6896 30.9173 15.5387 30.6907L14.375 28.9413L13.2121 30.6907C13.0612 30.9173 12.8341 31.0824 12.5721 31.1562L10.5534 31.7244L11.8531 33.3704C12.0216 33.5842 12.1082 33.8513 12.0971 34.1234L12.0135 36.2204L13.9798 35.4925C14.1069 35.4449 14.2415 35.4207 14.3773 35.421H14.375Z" fill="#777575"/>
<path d="M19.8316 21.1333C19.6967 21.1331 19.5629 21.1092 19.4363 21.0625L16.2616 19.8874L13.0875 21.0625C12.9115 21.1277 12.7222 21.1483 12.5363 21.1226C12.3505 21.097 12.1738 21.0258 12.022 20.9154C11.8702 20.805 11.748 20.6589 11.6661 20.4899C11.5843 20.3209 11.5455 20.1343 11.553 19.9467L11.689 16.5619L9.59125 13.9043C9.47489 13.7569 9.39669 13.5831 9.36358 13.3982C9.33047 13.2133 9.34349 13.0231 9.40146 12.8445C9.45943 12.6659 9.56057 12.5043 9.69591 12.3742C9.83124 12.2441 9.9966 12.1494 10.1773 12.0986L13.4356 11.182L15.313 8.36769C15.417 8.21079 15.5582 8.08208 15.724 7.99305C15.8897 7.90402 16.0749 7.85742 16.2631 7.85742C16.4512 7.85742 16.6364 7.90402 16.8022 7.99305C16.968 8.08208 17.1092 8.21079 17.2132 8.36769L19.0913 11.182L22.3497 12.0986C22.5303 12.1494 22.6957 12.2441 22.831 12.3742C22.9664 12.5043 23.0675 12.6659 23.1255 12.8445C23.1834 13.0231 23.1965 13.2133 23.1633 13.3982C23.1302 13.5831 23.052 13.7569 22.9357 13.9043L20.8379 16.5619L20.9739 19.9467C20.9801 20.1003 20.9551 20.2536 20.9006 20.3973C20.8461 20.5411 20.7631 20.6723 20.6566 20.7831C20.5501 20.894 20.4223 20.9821 20.2809 21.0423C20.1396 21.1024 19.9875 21.1334 19.8338 21.1333H19.8316ZM16.2593 17.5294C16.3945 17.5293 16.5286 17.5535 16.6553 17.6009L18.6216 18.3288L18.5372 16.2318C18.5263 15.9596 18.6131 15.6925 18.7819 15.4788L20.0816 13.8328L18.0629 13.2646C17.8009 13.1908 17.5739 13.0257 17.4229 12.7991L16.2593 11.0497L15.0964 12.7991C14.9454 13.0257 14.7184 13.1908 14.4564 13.2646L12.4377 13.8328L13.7374 15.4788C13.9059 15.6926 13.9924 15.9597 13.9814 16.2318L13.8978 18.3288L15.864 17.6009C15.9912 17.5533 16.1258 17.5291 16.2616 17.5294H16.2593Z" fill="#777575"/>
<path d="M45.1411 19.1767C45.0063 19.1766 44.8725 19.1526 44.7459 19.106L41.5711 17.9308L38.3971 19.106C38.2211 19.1711 38.0318 19.1918 37.8459 19.1661C37.66 19.1404 37.4834 19.0693 37.3316 18.9589C37.1798 18.8485 37.0575 18.7023 36.9757 18.5333C36.8939 18.3644 36.855 18.1778 36.8625 17.9902L36.9986 14.6054L34.9008 11.9477C34.7845 11.8004 34.7063 11.6265 34.6732 11.4417C34.64 11.2568 34.6531 11.0666 34.711 10.888C34.769 10.7093 34.8701 10.5478 35.0055 10.4177C35.1408 10.2875 35.3062 10.1928 35.4868 10.142L38.7452 9.22546L40.6226 6.41114C40.7266 6.25425 40.8678 6.12554 41.0335 6.0365C41.1993 5.94747 41.3845 5.90088 41.5726 5.90088C41.7608 5.90088 41.946 5.94747 42.1118 6.0365C42.2776 6.12554 42.4187 6.25425 42.5227 6.41114L44.4008 9.22546L47.6592 10.142C47.8399 10.1928 48.0053 10.2875 48.1406 10.4177C48.2759 10.5478 48.3771 10.7093 48.435 10.888C48.493 11.0666 48.506 11.2568 48.4729 11.4417C48.4398 11.6265 48.3616 11.8004 48.2452 11.9477L46.1475 14.6054L46.2835 17.9902C46.2897 18.1438 46.2647 18.2971 46.2102 18.4408C46.1556 18.5845 46.0726 18.7158 45.9662 18.8266C45.8597 18.9374 45.7319 19.0256 45.5905 19.0857C45.4491 19.1459 45.2971 19.1769 45.1434 19.1767H45.1411ZM41.5688 15.5729C41.7041 15.5727 41.8382 15.5969 41.9648 15.6444L43.9311 16.3723L43.8468 14.2752C43.8359 14.0031 43.9227 13.736 44.0915 13.5222L45.3912 11.8762L43.3725 11.308C43.1105 11.2343 42.8835 11.0692 42.7325 10.8426L41.5688 9.09311L40.406 10.8426C40.255 11.0692 40.028 11.2343 39.766 11.308L37.7473 11.8762L39.047 13.5222C39.2155 13.7361 39.302 14.0031 39.2909 14.2752L39.2073 16.3723L41.1736 15.6444C41.3007 15.5967 41.4354 15.5725 41.5711 15.5729H41.5688Z" fill="#777575"/>
</svg>
