<svg width="57" height="56" viewBox="0 0 57 56" fill="none" xmlns="http://www.w3.org/2000/svg">
<rect width="56" height="56" transform="translate(0.115723)" fill="white"/>
<path fill-rule="evenodd" clip-rule="evenodd" d="M26.0174 19.0894C25.3417 19.0894 24.7243 19.4708 24.4209 20.0743L23.9522 21.0117C23.449 22.0179 22.4188 22.6536 21.2922 22.6536H19.7885C18.8035 22.6536 18.0041 23.4519 18.0041 24.4356V35.128C18.0041 36.1117 18.8035 36.9101 19.7885 36.9101H36.4433C37.4283 36.9101 38.2277 36.1117 38.2277 35.128V24.4356C38.2277 23.4519 37.4283 22.6536 36.4433 22.6536H34.9396C33.813 22.6536 32.7828 22.0179 32.2796 21.0117L31.8109 20.0743C31.5075 19.4708 30.8901 19.0894 30.2144 19.0894H26.0174ZM23.3574 19.5433C23.8606 18.537 24.8908 17.9014 26.0174 17.9014H30.2144C31.341 17.9014 32.3712 18.537 32.8744 19.5433L33.3431 20.4806C33.6465 21.0842 34.2639 21.4655 34.9396 21.4655H36.4433C38.0862 21.4655 39.4174 22.7949 39.4174 24.4356V35.128C39.4174 36.7687 38.0862 38.0982 36.4433 38.0982H19.7885C18.1456 38.0982 16.8145 36.7687 16.8145 35.128V24.4356C16.8145 22.7949 18.1456 21.4655 19.7885 21.4655H21.2922C21.9679 21.4655 22.5853 21.0842 22.8887 20.4806L23.3574 19.5433Z" fill="black"/>
<path fill-rule="evenodd" clip-rule="evenodd" d="M28.116 25.0294C25.8165 25.0294 23.9523 26.891 23.9523 29.1875C23.9523 31.484 25.8165 33.3457 28.116 33.3457C30.4156 33.3457 32.2797 31.484 32.2797 29.1875C32.2797 26.891 30.4156 25.0294 28.116 25.0294ZM22.7627 29.1875C22.7627 26.2352 25.1598 23.8413 28.116 23.8413C31.0722 23.8413 33.4693 26.2352 33.4693 29.1875C33.4693 32.1398 31.0722 34.5337 28.116 34.5337C25.1598 34.5337 22.7627 32.1398 22.7627 29.1875Z" fill="black"/>
</svg>
