<svg width="57" height="56" viewBox="0 0 57 56" fill="none" xmlns="http://www.w3.org/2000/svg">
<rect width="56" height="56" transform="translate(0.115723)" fill="white"/>
<path fill-rule="evenodd" clip-rule="evenodd" d="M28.1159 11.1005C37.4608 11.1005 45.0378 18.6675 45.0378 28C45.0378 30.676 44.4147 33.205 43.3078 35.4536C43.1147 35.8453 43.045 36.3006 43.1386 36.7499L44.7611 44.6449L36.5908 43.118C36.1608 43.0385 35.7288 43.1021 35.3525 43.281C33.1606 44.3189 30.7079 44.8994 28.1159 44.8994C18.771 44.8994 11.1939 37.3324 11.1939 28C11.1939 18.6675 18.771 11.1005 28.1159 11.1005ZM47.0286 28C47.0286 17.568 38.5617 9.1123 28.1159 9.1123C17.6701 9.1123 9.20312 17.568 9.20312 28C9.20312 38.4319 17.6701 46.8876 28.1159 46.8876C31.0085 46.8876 33.7519 46.2395 36.2066 45.0764C36.2165 45.0724 36.2245 45.0724 36.2245 45.0724L44.3948 46.5993C45.7844 46.8578 46.9948 45.6291 46.7101 44.2453L45.0876 36.3503C45.0876 36.3503 45.0876 36.3423 45.0936 36.3304C46.3339 33.8174 47.0286 30.9882 47.0286 28Z" fill="#777474"/>
<path fill-rule="evenodd" clip-rule="evenodd" d="M18.163 27.0043C17.6135 27.0043 17.1676 27.4496 17.1676 27.9984C17.1676 28.5471 17.6135 28.9925 18.163 28.9925C18.7124 28.9925 19.1584 28.5471 19.1584 27.9984C19.1584 27.4496 18.7124 27.0043 18.163 27.0043ZM15.1768 27.9984C15.1768 26.3522 16.5146 25.0161 18.163 25.0161C19.8114 25.0161 21.1492 26.3522 21.1492 27.9984C21.1492 29.6446 19.8114 30.9806 18.163 30.9806C16.5146 30.9806 15.1768 29.6446 15.1768 27.9984Z" fill="#777474"/>
<path fill-rule="evenodd" clip-rule="evenodd" d="M28.1171 27.0043C27.5676 27.0043 27.1217 27.4496 27.1217 27.9984C27.1217 28.5471 27.5676 28.9925 28.1171 28.9925C28.6665 28.9925 29.1125 28.5471 29.1125 27.9984C29.1125 27.4496 28.6665 27.0043 28.1171 27.0043ZM25.1309 27.9984C25.1309 26.3522 26.4687 25.0161 28.1171 25.0161C29.7655 25.0161 31.1033 26.3522 31.1033 27.9984C31.1033 29.6446 29.7655 30.9806 28.1171 30.9806C26.4687 30.9806 25.1309 29.6446 25.1309 27.9984Z" fill="#777474"/>
<path fill-rule="evenodd" clip-rule="evenodd" d="M38.0712 27.0043C37.5217 27.0043 37.0758 27.4496 37.0758 27.9984C37.0758 28.5471 37.5217 28.9925 38.0712 28.9925C38.6207 28.9925 39.0666 28.5471 39.0666 27.9984C39.0666 27.4496 38.6207 27.0043 38.0712 27.0043ZM35.085 27.9984C35.085 26.3522 36.4228 25.0161 38.0712 25.0161C39.7196 25.0161 41.0574 26.3522 41.0574 27.9984C41.0574 29.6446 39.7196 30.9806 38.0712 30.9806C36.4228 30.9806 35.085 29.6446 35.085 27.9984Z" fill="#777474"/>
</svg>
