<svg width="57" height="56" viewBox="0 0 57 56" fill="none" xmlns="http://www.w3.org/2000/svg">
<rect width="56" height="56" transform="translate(0.115723)" fill="white"/>
<path fill-rule="evenodd" clip-rule="evenodd" d="M15.5371 22.711C15.5371 20.8849 17.0187 19.4053 18.8472 19.4053H31.4256C33.2541 19.4053 34.7357 20.8849 34.7357 22.711V24.3387L39.7631 22.1067C39.9683 22.0155 40.2053 22.0353 40.392 22.1569C40.58 22.2786 40.6939 22.4875 40.6939 22.711V33.2893C40.6939 33.5127 40.58 33.7217 40.392 33.8433C40.2053 33.965 39.9683 33.9848 39.7631 33.8935L34.7357 31.6615V33.2893C34.7357 35.1153 33.2541 36.595 31.4256 36.595H18.8472C17.0187 36.595 15.5371 35.1153 15.5371 33.2893V22.711ZM18.8472 20.7276C17.7509 20.7276 16.8612 21.6161 16.8612 22.711V33.2893C16.8612 34.3841 17.7509 35.2727 18.8472 35.2727H31.4256C32.5219 35.2727 33.4117 34.3841 33.4117 33.2893V31.6615C33.4117 30.7055 34.3981 30.0655 35.2733 30.4543L39.3699 32.2724V23.7278L35.2733 25.546C34.3981 25.9347 33.4117 25.2947 33.4117 24.3387V22.711C33.4117 21.6161 32.5219 20.7276 31.4256 20.7276H18.8472Z" fill="black"/>
<path fill-rule="evenodd" clip-rule="evenodd" d="M20.1709 23.3716H25.4671V24.6948H20.1709V23.3716Z" fill="black"/>
</svg>
