<svg width="56" height="56" viewBox="0 0 56 56" fill="none" xmlns="http://www.w3.org/2000/svg">
<rect width="56" height="56" fill="white"/>
<rect x="9.93311" y="9.82227" width="36.1339" height="36.3557" rx="10" fill="#07A907"/>
<path fill-rule="evenodd" clip-rule="evenodd" d="M27.8604 20.4754C26.3662 20.4754 25.1548 21.6895 25.1548 23.187C25.1548 24.6846 26.3662 25.8987 27.8604 25.8987C29.3546 25.8987 30.5659 24.6846 30.5659 23.187C30.5659 21.6895 29.3546 20.4754 27.8604 20.4754ZM24.3818 23.187C24.3818 21.2618 25.9394 19.7007 27.8604 19.7007C29.7813 19.7007 31.3389 21.2618 31.3389 23.187C31.3389 25.1123 29.7813 26.6734 27.8604 26.6734C25.9394 26.6734 24.3818 25.1123 24.3818 23.187Z" fill="#00FF00"/>
<path fill-rule="evenodd" clip-rule="evenodd" d="M22.0625 31.3221C22.0625 29.6107 23.447 28.2231 25.1545 28.2231H30.5656C32.2732 28.2231 33.6576 29.6107 33.6576 31.3221V34.0338C33.6576 34.2476 33.4845 34.4211 33.2711 34.4211H22.449C22.2357 34.4211 22.0625 34.2476 22.0625 34.0338V31.3221ZM25.1545 28.9979C23.8737 28.9979 22.8355 30.0384 22.8355 31.3221V33.6464H32.8846V31.3221C32.8846 30.0384 31.8465 28.9979 30.5656 28.9979H25.1545Z" fill="#00FF00"/>
<path fill-rule="evenodd" clip-rule="evenodd" d="M35.2041 28.2227V23.5742H35.9771V28.2227H35.2041Z" fill="#00FF00"/>
<path fill-rule="evenodd" clip-rule="evenodd" d="M37.91 26.2875H33.272V25.5122H37.91V26.2875Z" fill="#00FF00"/>
<path d="M20.5264 21.0895C20.4646 21.0894 20.4032 21.0784 20.3452 21.057L18.8895 20.5182L17.434 21.057C17.3533 21.0869 17.2665 21.0963 17.1813 21.0846C17.0961 21.0728 17.0151 21.0402 16.9454 20.9896C16.8758 20.9389 16.8198 20.8719 16.7823 20.7944C16.7448 20.7169 16.7269 20.6314 16.7304 20.5454L16.7928 18.9933L15.8309 17.7747C15.7775 17.7071 15.7416 17.6274 15.7265 17.5426C15.7113 17.4578 15.7172 17.3706 15.7438 17.2887C15.7704 17.2068 15.8168 17.1327 15.8788 17.0731C15.9409 17.0134 16.0167 16.97 16.0996 16.9467L17.5937 16.5264L18.4545 15.2359C18.5022 15.164 18.5669 15.105 18.6429 15.0641C18.719 15.0233 18.8039 15.002 18.8901 15.002C18.9764 15.002 19.0613 15.0233 19.1374 15.0641C19.2134 15.105 19.2781 15.164 19.3258 15.2359L20.187 16.5264L21.6811 16.9467C21.7639 16.97 21.8398 17.0134 21.9018 17.0731C21.9639 17.1327 22.0102 17.2068 22.0368 17.2887C22.0634 17.3706 22.0694 17.4578 22.0542 17.5426C22.039 17.6274 22.0031 17.7071 21.9498 17.7747L20.9879 18.9933L21.0503 20.5454C21.0531 20.6158 21.0416 20.6861 21.0166 20.752C20.9916 20.8179 20.9536 20.8781 20.9047 20.9289C20.8559 20.9797 20.7973 21.0201 20.7325 21.0477C20.6677 21.0753 20.5979 21.0895 20.5275 21.0895H20.5264ZM18.8884 19.4369C18.9504 19.4369 19.0119 19.448 19.07 19.4697L19.9716 19.8035L19.9329 18.8419C19.9279 18.7171 19.9677 18.5946 20.0451 18.4966L20.6411 17.7419L19.7154 17.4814C19.5953 17.4475 19.4912 17.3718 19.422 17.2679L18.8884 16.4657L18.3552 17.2679C18.286 17.3718 18.1819 17.4475 18.0617 17.4814L17.1361 17.7419L17.732 18.4966C17.8093 18.5947 17.849 18.7172 17.8439 18.8419L17.8056 19.8035L18.7072 19.4697C18.7655 19.4479 18.8272 19.4368 18.8895 19.4369H18.8884Z" fill="#00FF00"/>
<path d="M18.5705 36.5755C18.5338 36.5755 18.4974 36.5689 18.463 36.5563L17.5994 36.2366L16.7361 36.5563C16.6882 36.574 16.6367 36.5796 16.5861 36.5726C16.5356 36.5656 16.4875 36.5463 16.4462 36.5162C16.4049 36.4862 16.3717 36.4465 16.3494 36.4005C16.3272 36.3545 16.3166 36.3038 16.3187 36.2527L16.3557 35.332L15.7851 34.6092C15.7534 34.5691 15.7321 34.5218 15.7231 34.4715C15.7141 34.4212 15.7177 34.3695 15.7334 34.3209C15.7492 34.2723 15.7767 34.2284 15.8135 34.193C15.8503 34.1576 15.8953 34.1318 15.9445 34.118L16.8308 33.8687L17.3414 33.1032C17.3697 33.0605 17.4081 33.0255 17.4532 33.0012C17.4983 32.977 17.5487 32.9644 17.5998 32.9644C17.651 32.9644 17.7014 32.977 17.7465 33.0012C17.7916 33.0255 17.83 33.0605 17.8583 33.1032L18.3691 33.8687L19.2554 34.118C19.3046 34.1318 19.3496 34.1576 19.3864 34.193C19.4232 34.2284 19.4507 34.2723 19.4665 34.3209C19.4822 34.3695 19.4858 34.4212 19.4768 34.4715C19.4678 34.5218 19.4465 34.5691 19.4148 34.6092L18.8442 35.332L18.8812 36.2527C18.8829 36.2945 18.8761 36.3362 18.8613 36.3753C18.8465 36.4144 18.8239 36.4501 18.7949 36.4803C18.766 36.5104 18.7312 36.5344 18.6927 36.5507C18.6543 36.5671 18.6129 36.5755 18.5711 36.5755H18.5705ZM17.5988 35.5952C17.6356 35.5952 17.6721 35.6018 17.7065 35.6147L18.2414 35.8127L18.2184 35.2423C18.2155 35.1682 18.2391 35.0956 18.285 35.0374L18.6385 34.5897L18.0894 34.4352C18.0181 34.4151 17.9564 34.3702 17.9153 34.3085L17.5988 33.8327L17.2825 34.3085C17.2414 34.3702 17.1797 34.4151 17.1084 34.4352L16.5593 34.5897L16.9128 35.0374C16.9587 35.0956 16.9822 35.1682 16.9792 35.2423L16.9565 35.8127L17.4913 35.6147C17.5259 35.6017 17.5625 35.5951 17.5994 35.5952H17.5988Z" fill="#00FF00"/>
<path d="M36.7825 43.6028C36.6438 43.6028 36.5108 43.5477 36.4128 43.4496C36.3148 43.3515 36.2597 43.2184 36.2597 43.0797C36.2589 42.4255 35.999 41.7984 35.5368 41.3359C35.0746 40.8733 34.4479 40.6132 33.7943 40.6124C33.6556 40.6124 33.5226 40.5573 33.4246 40.4592C33.3266 40.3611 33.2715 40.228 33.2715 40.0893C33.2715 39.9505 33.3266 39.8174 33.4246 39.7193C33.5226 39.6212 33.6556 39.5661 33.7943 39.5661C34.4479 39.5653 35.0745 39.3051 35.5367 38.8425C35.9988 38.38 36.2588 37.7529 36.2597 37.0988C36.2597 36.9601 36.3148 36.827 36.4128 36.7289C36.5108 36.6308 36.6438 36.5757 36.7825 36.5757C36.9211 36.5757 37.0541 36.6308 37.1521 36.7289C37.2502 36.827 37.3052 36.9601 37.3052 37.0988C37.306 37.753 37.566 38.3801 38.0282 38.8426C38.4903 39.3052 39.117 39.5654 39.7707 39.5661C39.9093 39.5661 40.0423 39.6212 40.1403 39.7193C40.2384 39.8174 40.2934 39.9505 40.2934 40.0893C40.2934 40.228 40.2384 40.3611 40.1403 40.4592C40.0423 40.5573 39.9093 40.6124 39.7707 40.6124C39.117 40.6132 38.4903 40.8733 38.0282 41.3359C37.566 41.7984 37.306 42.4255 37.3052 43.0797C37.3052 43.2184 37.2502 43.3515 37.1521 43.4496C37.0541 43.5477 36.9211 43.6028 36.7825 43.6028ZM35.6358 40.0893C36.1017 40.3777 36.4942 40.7706 36.7825 41.2367C37.0706 40.7705 37.4632 40.3776 37.9291 40.0893C37.4632 39.8008 37.0707 39.408 36.7825 38.9418C36.494 39.4078 36.1016 39.8008 35.6358 40.0893Z" fill="#00FF00"/>
</svg>
