<svg width="56" height="56" viewBox="0 0 56 56" fill="none" xmlns="http://www.w3.org/2000/svg">
<rect width="56" height="56" fill="white"/>
<path d="M40.4848 25.3298C38.5366 25.3394 36.6295 24.7699 35.0056 23.6936C33.3817 22.6172 32.1143 21.0826 31.3642 19.2846C30.6141 17.4865 30.4153 15.5061 30.7928 13.5949C31.1704 11.6836 32.1074 9.92759 33.4848 8.54984L34.1948 7.83984L48.1048 21.7498L47.4048 22.4598C45.5693 24.2952 43.0806 25.3274 40.4848 25.3298ZM34.2748 10.7098C33.1047 12.2183 32.5253 14.102 32.6452 16.0073C32.765 17.9127 33.576 19.7088 34.926 21.0587C36.2759 22.4087 38.0721 23.2197 39.9774 23.3395C41.8827 23.4594 43.7664 22.8799 45.2748 21.7098L34.2748 10.7098Z" fill="#777575"/>
<path d="M32.6748 27.81L28.1348 23.27L31.9648 19.44C32.058 19.3474 32.1686 19.2741 32.2901 19.2242C32.4117 19.1744 32.5419 19.149 32.6733 19.1494C32.8047 19.1499 32.9347 19.1762 33.0559 19.2269C33.1772 19.2776 33.2872 19.3517 33.3798 19.445C33.4723 19.5382 33.5457 19.6488 33.5955 19.7703C33.6454 19.8919 33.6708 20.0221 33.6703 20.1535C33.6699 20.2849 33.6435 20.4149 33.5928 20.5361C33.5421 20.6574 33.468 20.7674 33.3748 20.86L30.9648 23.27L32.6748 24.98L35.0848 22.57C35.1777 22.4762 35.2883 22.4018 35.4102 22.3511C35.532 22.3003 35.6628 22.2742 35.7948 22.2742C35.9268 22.2742 36.0575 22.3003 36.1794 22.3511C36.3012 22.4018 36.4118 22.4762 36.5048 22.57C36.691 22.7573 36.7956 23.0108 36.7956 23.275C36.7956 23.5392 36.691 23.7926 36.5048 23.98L32.6748 27.81Z" fill="#777575"/>
<path d="M18.295 45.2399C18.065 45.2406 17.837 45.1959 17.6243 45.1084C17.4115 45.0208 17.2181 44.8922 17.0551 44.7299L11.255 38.9299C10.9271 38.5985 10.7432 38.1511 10.7432 37.6849C10.7432 37.2187 10.9271 36.7713 11.255 36.4399L26.425 21.2699C26.5885 21.1063 26.7826 20.9766 26.9962 20.888C27.2098 20.7995 27.4388 20.7539 27.67 20.7539C27.9013 20.7539 28.1303 20.7995 28.3439 20.888C28.5575 20.9766 28.7516 21.1063 28.915 21.2699L34.7151 27.0699C34.8786 27.2333 35.0084 27.4274 35.0969 27.6411C35.1855 27.8547 35.231 28.0837 35.231 28.3149C35.231 28.5461 35.1855 28.7751 35.0969 28.9887C35.0084 29.2024 34.8786 29.3964 34.7151 29.5599L19.545 44.7299C19.3808 44.8934 19.1858 45.0227 18.9712 45.1103C18.7566 45.1978 18.5268 45.2419 18.295 45.2399ZM12.795 37.6899L18.255 43.1499L33.095 28.3099L27.675 22.8099L12.795 37.6899Z" fill="#777575"/>
<path d="M20.7946 43.0599C20.5323 43.0588 20.2809 42.9546 20.0946 42.7699L13.2146 35.8899C13.0284 35.7025 12.9238 35.4491 12.9238 35.1849C12.9238 34.9207 13.0284 34.6672 13.2146 34.4799C13.3076 34.3861 13.4182 34.3118 13.54 34.261C13.6619 34.2102 13.7926 34.1841 13.9246 34.1841C14.0566 34.1841 14.1873 34.2102 14.3092 34.261C14.4311 34.3118 14.5417 34.3861 14.6346 34.4799L21.5046 41.3499C21.6456 41.4897 21.7418 41.6684 21.7809 41.8632C21.82 42.0579 21.8002 42.2599 21.724 42.4434C21.6478 42.6268 21.5188 42.7834 21.3532 42.8932C21.1877 43.003 20.9932 43.061 20.7946 43.0599Z" fill="#777575"/>
<path d="M13.9249 46.15C13.1124 46.1532 12.3174 45.9143 11.6413 45.4639C10.9651 45.0134 10.4384 44.3718 10.1284 43.6208C9.81833 42.8698 9.73896 42.0436 9.90041 41.2473C10.0619 40.451 10.4568 39.7209 11.0348 39.15L12.6749 37.5L18.4649 43.29L16.7949 44.96C16.0326 45.7196 15.001 46.1474 13.9249 46.15ZM12.6749 40.35L12.4448 40.58C12.047 40.9778 11.8235 41.5174 11.8235 42.08C11.8235 42.6426 12.047 43.1822 12.4448 43.58C12.8427 43.9778 13.3822 44.2013 13.9448 44.2013C14.5075 44.2013 15.047 43.9778 15.4448 43.58L15.6749 43.35L12.6749 40.35Z" fill="#777575"/>
<path d="M18.9249 26.5998L3.79492 11.4398L11.4549 3.77979L26.6149 18.9398L18.9249 26.5998ZM6.58492 11.4398L18.9249 23.8098L23.7549 18.9798L11.4249 6.60979L6.58492 11.4398Z" fill="#777575"/>
<path d="M9.00992 7.61557L7.5957 9.02979L23.845 25.2791L25.2592 23.8649L9.00992 7.61557Z" fill="#777575"/>
<path d="M15.0921 8.86491L8.84131 15.1157L10.2555 16.5299L16.5063 10.2791L15.0921 8.86491Z" fill="#777575"/>
<path d="M20.0936 13.8546L13.8428 20.1055L15.257 21.5197L21.5078 15.2689L20.0936 13.8546Z" fill="#777575"/>
<path d="M44.5448 52.2199L29.3848 37.0599L37.0448 29.3999L52.2048 44.5599L44.5448 52.2199ZM32.2148 37.0599L44.5448 49.3999L49.3848 44.5599L37.0448 32.2299L32.2148 37.0599Z" fill="#777575"/>
<path d="M32.1261 30.7254L30.7119 32.1396L46.9612 48.389L48.3754 46.9748L32.1261 30.7254Z" fill="#777575"/>
<path d="M45.7157 39.4948L39.4648 45.7456L40.8791 47.1598L47.1299 40.909L45.7157 39.4948Z" fill="#777575"/>
<path d="M40.7147 34.4747L34.4639 40.7256L35.8781 42.1398L42.1289 35.889L40.7147 34.4747Z" fill="#777575"/>
</svg>
