<svg width="57" height="56" viewBox="0 0 57 56" fill="none" xmlns="http://www.w3.org/2000/svg">
<rect width="56" height="56" transform="translate(0.115723)" fill="white"/>
<path d="M30.3189 43.7537C30.0551 43.75 29.8035 43.6421 29.6188 43.4537C29.4326 43.2664 29.328 43.0129 29.328 42.7487C29.328 42.4845 29.4326 42.2311 29.6188 42.0437L46.6188 25.0437C48.6822 22.9803 49.8414 20.1818 49.8414 17.2637C49.8414 14.3457 48.6822 11.5471 46.6188 9.48372C44.5555 7.42033 41.7569 6.26114 38.8389 6.26114C35.9208 6.26114 33.1222 7.42033 31.0589 9.48372L14.0589 26.4837C13.9692 26.5884 13.8589 26.6734 13.7348 26.7334C13.6108 26.7935 13.4756 26.8272 13.3379 26.8325C13.2002 26.8378 13.0628 26.8146 12.9345 26.7644C12.8062 26.7141 12.6897 26.6378 12.5922 26.5404C12.4948 26.4429 12.4185 26.3264 12.3682 26.198C12.3179 26.0697 12.2947 25.9324 12.3001 25.7947C12.3054 25.657 12.3391 25.5218 12.3991 25.3977C12.4591 25.2737 12.5442 25.1634 12.6488 25.0737L29.6488 8.07372C30.8454 6.82133 32.2802 5.82068 33.8689 5.13057C35.4576 4.44045 37.1682 4.07479 38.9002 4.05504C40.6322 4.0353 42.3507 4.36188 43.9547 5.01561C45.5588 5.66933 47.016 6.63702 48.2408 7.86181C49.4656 9.08661 50.4332 10.5438 51.087 12.1478C51.7407 13.7519 52.0673 15.4703 52.0475 17.2024C52.0278 18.9344 51.6621 20.645 50.972 22.2337C50.2819 23.8224 49.2812 25.2572 48.0289 26.4537L31.0289 43.4537C30.9362 43.5482 30.8258 43.6234 30.7039 43.6749C30.5821 43.7264 30.4512 43.7532 30.3189 43.7537Z" fill="#777575"/>
<path d="M35.2688 17.7539C34.3435 17.7532 33.4469 17.4316 32.7321 16.844C32.0172 16.2564 31.5281 15.4392 31.3483 14.5314C31.1684 13.6237 31.3088 12.6817 31.7456 11.8659C32.1824 11.0501 32.8886 10.4109 33.7437 10.0574C34.5989 9.7038 35.5502 9.6577 36.4356 9.9269C37.3209 10.1961 38.0856 10.7639 38.5992 11.5337C39.1129 12.3034 39.3437 13.2274 39.2525 14.1483C39.1613 15.0692 38.7536 15.9299 38.0989 16.5839C37.7271 16.9552 37.2858 17.2497 36.8002 17.4505C36.3147 17.6512 35.7943 17.7543 35.2688 17.7539ZM35.2688 11.7539C34.7407 11.7535 34.2338 11.962 33.8588 12.3339C33.4835 12.7092 33.2727 13.2182 33.2727 13.7489C33.2727 14.2796 33.4835 14.7886 33.8588 15.1639C34.2341 15.5392 34.7431 15.75 35.2738 15.75C35.8046 15.75 36.3136 15.5392 36.6888 15.1639C36.9675 14.8836 37.1568 14.5271 37.2329 14.1393C37.3091 13.7515 37.2687 13.3499 37.1167 12.9851C36.9648 12.6202 36.7082 12.3086 36.3793 12.0895C36.0505 11.8704 35.664 11.7536 35.2688 11.7539Z" fill="#777575"/>
<path d="M44.4685 18.8838C43.7744 18.8844 43.1015 18.6443 42.5646 18.2044C42.0277 17.7646 41.6599 17.1521 41.5239 16.4715C41.388 15.7908 41.4922 15.0841 41.819 14.4717C42.1457 13.8593 42.6746 13.3791 43.3157 13.113C43.9568 12.8469 44.6703 12.8113 45.3346 13.0123C45.999 13.2134 46.5731 13.6385 46.9591 14.2154C47.3451 14.7922 47.5191 15.4851 47.4516 16.1759C47.384 16.8667 47.079 17.5127 46.5885 18.0038C46.0264 18.5666 45.2638 18.8831 44.4685 18.8838ZM44.4685 14.8838C44.3369 14.883 44.2064 14.9082 44.0846 14.958C43.9627 15.0078 43.8519 15.0811 43.7585 15.1738C43.6538 15.2634 43.5688 15.3738 43.5087 15.4978C43.4487 15.6219 43.415 15.757 43.4097 15.8947C43.4043 16.0325 43.4276 16.1698 43.4778 16.2981C43.5281 16.4264 43.6043 16.543 43.7018 16.6404C43.7993 16.7379 43.9158 16.8142 44.0441 16.8644C44.1725 16.9147 44.3098 16.9379 44.4475 16.9326C44.5852 16.9273 44.7204 16.8935 44.8444 16.8335C44.9685 16.7735 45.0788 16.6885 45.1684 16.5838C45.3569 16.3992 45.4647 16.1476 45.4685 15.8838C45.4685 15.6186 45.3631 15.3642 45.1756 15.1767C44.988 14.9891 44.7337 14.8838 44.4685 14.8838Z" fill="#777575"/>
<path d="M38.0989 29.0737C37.4413 29.0732 36.794 28.9106 36.2143 28.6003C35.6345 28.2899 35.1403 27.8414 34.7752 27.2945C34.4101 26.7476 34.1855 26.1191 34.1212 25.4647C34.0569 24.8103 34.155 24.1501 34.4067 23.5426C34.6584 22.9351 35.056 22.399 35.5643 21.9818C36.0726 21.5646 36.6759 21.2792 37.3208 21.1508C37.9658 21.0223 38.6324 21.0549 39.2617 21.2455C39.891 21.4362 40.4637 21.779 40.9289 22.2437C41.3008 22.6152 41.5959 23.0564 41.7972 23.542C41.9985 24.0276 42.1021 24.5481 42.1021 25.0737C42.1021 25.5994 41.9985 26.1199 41.7972 26.6055C41.5959 27.0911 41.3008 27.5322 40.9289 27.9037C40.5572 28.2751 40.1159 28.5695 39.6303 28.7703C39.1447 28.971 38.6244 29.0741 38.0989 29.0737ZM38.0989 23.0737C37.7046 23.0754 37.3195 23.1936 36.9922 23.4135C36.6648 23.6333 36.4098 23.9451 36.2591 24.3095C36.1084 24.6739 36.0688 25.0747 36.1453 25.4616C36.2218 25.8485 36.4109 26.2041 36.6889 26.4837C36.8747 26.6697 37.0952 26.8172 37.338 26.9179C37.5808 27.0185 37.8411 27.0703 38.1039 27.0703C38.3668 27.0703 38.627 27.0185 38.8698 26.9179C39.1126 26.8172 39.3332 26.6697 39.5189 26.4837C39.7975 26.2035 39.9868 25.8469 40.063 25.4591C40.1392 25.0714 40.0987 24.6697 39.9468 24.3049C39.7949 23.9401 39.5383 23.6284 39.2094 23.4093C38.8805 23.1902 38.4941 23.0734 38.0989 23.0737Z" fill="#777575"/>
<path d="M5.3089 27.444C5.17659 27.4435 5.0457 27.4167 4.92383 27.3652C4.80195 27.3137 4.69152 27.2385 4.59891 27.144C4.41266 26.9566 4.30811 26.7032 4.30811 26.439C4.30811 26.1748 4.41266 25.9214 4.59891 25.734L15.5989 14.894C15.7885 14.7084 16.0441 14.6056 16.3095 14.6085C16.5749 14.6113 16.8282 14.7194 17.0139 14.909C17.1995 15.0986 17.3023 15.3543 17.2995 15.6196C17.2967 15.885 17.1885 16.1384 16.9989 16.324L5.9989 27.154C5.81511 27.3364 5.56777 27.4403 5.3089 27.444Z" fill="#777575"/>
<path d="M23.2486 22.5338C22.9863 22.5326 22.7348 22.4285 22.5486 22.2438C22.3623 22.0564 22.2578 21.8029 22.2578 21.5388C22.2578 21.2746 22.3623 21.0211 22.5486 20.8338L26.7886 16.5838C26.976 16.3975 27.2294 16.293 27.4936 16.293C27.7578 16.293 28.0112 16.3975 28.1986 16.5838C28.2923 16.6767 28.3667 16.7873 28.4175 16.9092C28.4682 17.031 28.4944 17.1618 28.4944 17.2938C28.4944 17.4258 28.4682 17.5565 28.4175 17.6783C28.3667 17.8002 28.2923 17.9108 28.1986 18.0038L23.9586 22.2438C23.8651 22.3364 23.7543 22.4098 23.6325 22.4595C23.5107 22.5093 23.3802 22.5345 23.2486 22.5338Z" fill="#777575"/>
<path d="M5.1889 40.6938C5.0573 40.6946 4.92683 40.6694 4.80499 40.6196C4.68316 40.5698 4.57235 40.4965 4.47891 40.4038C4.38518 40.3109 4.31078 40.2003 4.26001 40.0784C4.20924 39.9566 4.18311 39.8258 4.18311 39.6938C4.18311 39.5618 4.20924 39.4311 4.26001 39.3092C4.31078 39.1874 4.38518 39.0768 4.47891 38.9838L19.7189 23.6638C19.9063 23.4776 20.1597 23.373 20.4239 23.373C20.6881 23.373 20.9415 23.4776 21.1289 23.6638C21.2226 23.7568 21.297 23.8674 21.3478 23.9893C21.3985 24.1111 21.4247 24.2418 21.4247 24.3738C21.4247 24.5058 21.3985 24.6365 21.3478 24.7584C21.297 24.8803 21.2226 24.9909 21.1289 25.0838L5.88889 40.4138C5.70102 40.5949 5.44983 40.6954 5.1889 40.6938Z" fill="#777575"/>
<path d="M29.4892 51.9437C29.3576 51.9445 29.2271 51.9193 29.1053 51.8695C28.9834 51.8197 28.8726 51.7464 28.7792 51.6537C28.6855 51.5608 28.6111 51.4502 28.5603 51.3283C28.5095 51.2065 28.4834 51.0758 28.4834 50.9437C28.4834 50.8117 28.5095 50.681 28.5603 50.5592C28.6111 50.4373 28.6855 50.3267 28.7792 50.2337L46.0992 32.9437C46.1922 32.85 46.3028 32.7756 46.4246 32.7249C46.5465 32.6741 46.6772 32.6479 46.8092 32.6479C46.9412 32.6479 47.0719 32.6741 47.1938 32.7249C47.3156 32.7756 47.4262 32.85 47.5192 32.9437C47.7054 33.1311 47.81 33.3846 47.81 33.6487C47.81 33.9129 47.7054 34.1664 47.5192 34.3537L30.1992 51.7037C30.0026 51.8728 29.748 51.9588 29.4892 51.9437Z" fill="#777575"/>
<path d="M26.8085 34.5637C26.6099 34.5649 26.4154 34.5069 26.2499 34.397C26.0844 34.2872 25.9553 34.1306 25.8792 33.9472C25.803 33.7637 25.7832 33.5618 25.8223 33.367C25.8613 33.1723 25.9575 32.9936 26.0986 32.8537L31.0986 27.9037C31.1915 27.81 31.3021 27.7356 31.424 27.6848C31.5458 27.634 31.6765 27.6079 31.8085 27.6079C31.9406 27.6079 32.0713 27.634 32.1931 27.6848C32.315 27.7356 32.4256 27.81 32.5185 27.9037C32.7048 28.0911 32.8093 28.3445 32.8093 28.6087C32.8093 28.8729 32.7048 29.1263 32.5185 29.3137L27.5686 34.2637C27.4701 34.3644 27.3516 34.4432 27.2206 34.4949C27.0896 34.5466 26.9492 34.57 26.8085 34.5637Z" fill="#777575"/>
<path d="M9.55914 51.9437C9.2968 51.9426 9.04539 51.8385 8.85913 51.6538C8.67288 51.4664 8.56836 51.2129 8.56836 50.9488C8.56836 50.6846 8.67288 50.4311 8.85913 50.2438L23.2592 35.6838C23.3517 35.5905 23.4618 35.5164 23.583 35.4657C23.7042 35.415 23.8342 35.3887 23.9656 35.3882C24.097 35.3877 24.2272 35.4131 24.3488 35.463C24.4704 35.5129 24.5809 35.5862 24.6741 35.6787C24.7674 35.7713 24.8415 35.8814 24.8922 36.0026C24.9429 36.1238 24.9692 36.2538 24.9697 36.3852C24.9702 36.5166 24.9448 36.6468 24.8949 36.7684C24.845 36.8899 24.7717 37.0005 24.6791 37.0937L10.2791 51.6437C10.1854 51.7394 10.0733 51.8153 9.94958 51.8668C9.8259 51.9184 9.69313 51.9445 9.55914 51.9437Z" fill="#777575"/>
</svg>
