<svg width="57" height="56" viewBox="0 0 57 56" fill="none" xmlns="http://www.w3.org/2000/svg">
<rect width="56" height="56" transform="translate(0.115723)" fill="white"/>
<path fill-rule="evenodd" clip-rule="evenodd" d="M21.7661 14.6201V27.2913C21.7648 27.7537 21.8552 28.2118 22.032 28.6394C22.2089 29.067 22.4688 29.4556 22.7968 29.7831C23.1248 30.1105 23.5145 30.3703 23.9435 30.5475C24.3726 30.7248 24.8326 30.8159 25.2971 30.8159H30.9346C31.3991 30.8159 31.8591 30.7248 32.2882 30.5475C32.7172 30.3703 33.1069 30.1105 33.4349 29.7831C33.7629 29.4556 34.0228 29.067 34.1997 28.6394C34.3765 28.2118 34.4669 27.7537 34.4656 27.2913V14.6201H21.7661Z" fill="#A06D1F"/>
<path fill-rule="evenodd" clip-rule="evenodd" d="M21.7661 14.6201V27.2913C21.7648 27.7537 21.8552 28.2118 22.032 28.6394C22.2089 29.067 22.4688 29.4556 22.7968 29.7831C23.1248 30.1105 23.5145 30.3703 23.9435 30.5475C24.3726 30.7248 24.8326 30.8159 25.2971 30.8159H30.9346C31.3991 30.8159 31.8591 30.7248 32.2882 30.5475C32.7172 30.3703 33.1069 30.1105 33.4349 29.7831C33.7629 29.4556 34.0228 29.067 34.1997 28.6394C34.3765 28.2118 34.4669 27.7537 34.4656 27.2913V14.6201H21.7661Z" fill="#A06D1F"/>
<path fill-rule="evenodd" clip-rule="evenodd" d="M22.4684 35.7485C22.3753 35.7485 22.2832 35.7669 22.1973 35.8027C22.1115 35.8384 22.0336 35.8908 21.9683 35.9567C21.903 36.0227 21.8514 36.101 21.8168 36.187C21.7821 36.2729 21.7649 36.3648 21.7662 36.4574V41.3802H34.4656V36.4574C34.467 36.3648 34.4498 36.2729 34.4151 36.187C34.3804 36.101 34.3289 36.0227 34.2635 35.9567C34.1982 35.8908 34.1203 35.8384 34.0345 35.8027C33.9486 35.7669 33.8565 35.7485 33.7634 35.7485H22.4684Z" fill="#A06D1F"/>
<path fill-rule="evenodd" clip-rule="evenodd" d="M20.3517 13.9111C20.3517 13.7247 20.4253 13.5459 20.5567 13.4133C20.6881 13.2806 20.8667 13.2048 21.0539 13.2021H35.1376C35.3247 13.2048 35.5033 13.2806 35.6347 13.4133C35.7661 13.5459 35.8398 13.7247 35.8398 13.9111V27.2911C35.8398 28.5976 35.319 29.8507 34.3919 30.7754C33.4648 31.7002 32.2069 32.2211 30.8944 32.2237H25.2569C23.9444 32.2211 22.6865 31.7002 21.7594 30.7754C20.8322 29.8507 20.3115 28.5976 20.3115 27.2911L20.3517 13.9111Z" fill="#A06D1F"/>
<path fill-rule="evenodd" clip-rule="evenodd" d="M24.585 31.5249C24.585 31.3369 24.66 31.1566 24.7936 31.0236C24.9271 30.8907 25.1083 30.8159 25.2972 30.8159H30.9347C31.1236 30.8159 31.3048 30.8907 31.4383 31.0236C31.5719 31.1566 31.6469 31.3369 31.6469 31.5249V35.0497C31.6443 35.236 31.5681 35.4137 31.4348 35.5445C31.3015 35.6753 31.1218 35.7486 30.9347 35.7486H25.2972C25.11 35.7486 24.9304 35.6753 24.7971 35.5445C24.6638 35.4137 24.5876 35.236 24.585 35.0497V31.5249ZM25.9994 32.2239V34.3407H30.2325V32.2239H25.9994Z" fill="#A06D1F"/>
<path fill-rule="evenodd" clip-rule="evenodd" d="M20.3516 36.4577C20.3516 35.898 20.5742 35.3611 20.9709 34.9644C21.3675 34.5677 21.9058 34.3435 22.4681 34.3408H33.7632C34.3254 34.3435 34.8638 34.5677 35.2604 34.9644C35.6571 35.3611 35.8797 35.898 35.8797 36.4577V42.0893C35.8798 42.2756 35.8061 42.4544 35.6747 42.5871C35.5433 42.7197 35.3647 42.7956 35.1775 42.7982H21.0939C20.9067 42.7956 20.7281 42.7197 20.5967 42.5871C20.4653 42.4544 20.3916 42.2756 20.3917 42.0893L20.3516 36.4577ZM22.4681 35.7488C22.3751 35.7487 22.2829 35.7671 22.1971 35.8029C22.1112 35.8386 22.0334 35.891 21.968 35.9569C21.9027 36.0229 21.8512 36.1012 21.8165 36.1872C21.7818 36.2731 21.7646 36.365 21.7659 36.4577V41.3804H34.4654V36.4577C34.4667 36.365 34.4495 36.2731 34.4148 36.1872C34.3801 36.1012 34.3286 36.0229 34.2633 35.9569C34.1979 35.891 34.1201 35.8386 34.0342 35.8029C33.9484 35.7671 33.8562 35.7487 33.7632 35.7488H22.4681Z" fill="#A06D1F"/>
<path fill-rule="evenodd" clip-rule="evenodd" d="M34.4655 16.7268C34.4654 16.6342 34.4839 16.5425 34.5198 16.4571C34.5557 16.3716 34.6084 16.2941 34.6747 16.229C34.7409 16.164 34.8195 16.1128 34.9058 16.0782C34.9922 16.0437 35.0846 16.0266 35.1776 16.0279H37.565C38.0688 16.0289 38.5665 16.1372 39.0248 16.3455C39.483 16.5539 39.8912 16.8574 40.2218 17.2357C40.5525 17.614 40.798 18.0584 40.9419 18.5389C41.0857 19.0195 41.1246 19.5252 41.0559 20.0219L40.454 24.2556C40.3291 25.0884 39.9079 25.8488 39.2673 26.3985C38.6266 26.9483 37.809 27.2508 36.9632 27.2512H35.1375C35.0445 27.2525 34.9521 27.2354 34.8657 27.2008C34.7794 27.1663 34.7008 27.1151 34.6345 27.05C34.5682 26.985 34.5156 26.9074 34.4797 26.822C34.4438 26.7365 34.4253 26.6449 34.4253 26.5523L34.4655 16.7268ZM35.8798 17.4358V25.8832H36.9632C37.4727 25.8835 37.9651 25.7009 38.3503 25.369C38.7354 25.037 38.9872 24.5778 39.0597 24.0758L39.6616 19.8422C39.703 19.5434 39.6798 19.2393 39.5936 18.9502C39.5074 18.661 39.3601 18.3936 39.1615 18.1657C38.963 17.9378 38.7179 17.7549 38.4426 17.629C38.1672 17.5031 37.868 17.4373 37.565 17.4358H35.8798Z" fill="#A06D1F"/>
<path fill-rule="evenodd" clip-rule="evenodd" d="M21.766 16.7268C21.766 16.6342 21.7476 16.5425 21.7117 16.4571C21.6757 16.3716 21.6231 16.2941 21.5568 16.229C21.4905 16.164 21.412 16.1128 21.3256 16.0782C21.2393 16.0437 21.1469 16.0266 21.0538 16.0279H18.6664C18.1627 16.0289 17.6649 16.1372 17.2067 16.3455C16.7485 16.5539 16.3403 16.8574 16.0096 17.2357C15.679 17.614 15.4335 18.0584 15.2896 18.5389C15.1458 19.0195 15.1069 19.5252 15.1756 20.0219L15.7775 24.2556C15.9024 25.0884 16.3235 25.8488 16.9642 26.3985C17.6048 26.9483 18.4224 27.2508 19.2683 27.2512H21.094C21.187 27.2525 21.2794 27.2354 21.3657 27.2008C21.4521 27.1663 21.5307 27.1151 21.597 27.05C21.6632 26.985 21.7158 26.9074 21.7518 26.822C21.7877 26.7365 21.8062 26.6449 21.8062 26.5523L21.766 16.7268ZM20.3517 17.4358V25.8832H19.2683C18.7588 25.8835 18.2663 25.7009 17.8812 25.369C17.4961 25.037 17.2442 24.5778 17.1718 24.0758L16.5699 19.8422C16.5285 19.5434 16.5516 19.2393 16.6379 18.9502C16.7241 18.661 16.8714 18.3936 17.0699 18.1657C17.2684 17.9378 17.5136 17.7549 17.7889 17.629C18.0642 17.5031 18.3634 17.4373 18.6664 17.4358H20.3517Z" fill="#A06D1F"/>
<path fill-rule="evenodd" clip-rule="evenodd" d="M18.2354 41.3799H38.3478V42.7977H18.2354V41.3799Z" fill="#A06D1F"/>
<path d="M33.6828 15.6484H31.6465V28.4394H33.6828V15.6484Z" fill="white"/>
</svg>
