<svg width="57" height="56" viewBox="0 0 57 56" fill="none" xmlns="http://www.w3.org/2000/svg">
<rect width="56" height="56" transform="translate(0.737305)" fill="white"/>
<path fill-rule="evenodd" clip-rule="evenodd" d="M31.3287 11.1735C31.6912 11.0164 32.1155 11.09 32.4043 11.3585L47.3434 25.2832C47.5446 25.4721 47.6601 25.7347 47.6601 26.0112C47.6601 26.2877 47.5446 26.5503 47.3434 26.7393L32.4043 40.6639C32.1155 40.9324 31.6912 41.006 31.3287 40.8489C30.9642 40.6898 30.7292 40.3317 30.7292 39.9358V30.9843H26.2913C22.0028 30.9843 18.0429 33.2799 15.9155 36.9977L11.6749 44.4076C11.4518 44.7995 10.9916 44.9905 10.5554 44.8751C10.1192 44.7597 9.81445 44.3659 9.81445 43.9143V32.9735C9.81445 25.2832 16.057 19.0489 23.7576 19.0489H30.7292V12.0866C30.7292 11.6907 30.9642 11.3327 31.3287 11.1735ZM32.721 14.3762V20.0435C32.721 20.5925 32.2749 21.0381 31.7251 21.0381H23.7576C17.1565 21.0381 11.8063 26.3812 11.8063 32.9735V40.1686L14.1846 36.0111C16.6685 31.6726 21.2877 28.9951 26.2913 28.9951H31.7251C32.2749 28.9951 32.721 29.4407 32.721 29.9897V37.6462L45.2041 26.0112L32.721 14.3762Z" fill="#777474"/>
</svg>
