<svg width="48" height="48" viewBox="0 0 48 48" fill="none" xmlns="http://www.w3.org/2000/svg">
<path d="M31.0551 5.22554C31.1752 5.34874 31.3188 5.44656 31.4774 5.51316C31.6361 5.57977 31.8064 5.6138 31.9785 5.61326C32.3242 5.61371 32.656 5.47769 32.9019 5.23478L33.2898 4.84705L33.6684 5.23478C33.9153 5.47601 34.2465 5.61174 34.5918 5.61326C34.852 5.61625 35.1071 5.54122 35.3243 5.39783C35.5415 5.25443 35.7107 5.04928 35.8101 4.80882C35.9094 4.56836 35.9345 4.30364 35.8819 4.04882C35.8293 3.79401 35.7016 3.56079 35.5152 3.37926L35.1366 3.00076L35.5152 2.62229C35.6551 2.50565 35.7691 2.36115 35.8501 2.198C35.931 2.03486 35.9771 1.85665 35.9853 1.67472C35.9935 1.49279 35.9637 1.31115 35.8978 1.14137C35.8319 0.971588 35.7314 0.8174 35.6026 0.688628C35.4738 0.559856 35.3195 0.459331 35.1497 0.393456C34.9798 0.327581 34.7982 0.297803 34.6162 0.306024C34.4342 0.314244 34.2559 0.360275 34.0928 0.441193C33.9296 0.522111 33.785 0.636143 33.6684 0.776004L33.2898 1.16372L32.9019 0.776004C32.6506 0.566449 32.3299 0.458442 32.0029 0.473211C31.676 0.48798 31.3664 0.624453 31.1349 0.855815C30.9035 1.08718 30.767 1.39671 30.7522 1.72357C30.7374 2.05043 30.8455 2.371 31.0551 2.62229L31.4337 3.00076L31.0551 3.37926C30.9334 3.50022 30.8368 3.64406 30.7708 3.80248C30.7049 3.96091 30.671 4.13081 30.671 4.3024C30.671 4.47399 30.7049 4.64388 30.7708 4.80231C30.8368 4.96074 30.9334 5.10457 31.0551 5.22554ZM5.2643 13.1646C5.51016 13.4075 5.84203 13.5435 6.18771 13.5431C6.35903 13.5443 6.5289 13.5115 6.68742 13.4465C6.84595 13.3815 6.98996 13.2857 7.11111 13.1646L7.48971 12.7861L7.87753 13.1646C7.99868 13.2857 8.14272 13.3815 8.30125 13.4465C8.45977 13.5115 8.62961 13.5443 8.80094 13.5431C9.05918 13.5416 9.31126 13.4639 9.52551 13.3197C9.73976 13.1756 9.90665 12.9714 10.0053 12.7328C10.1039 12.4942 10.1299 12.2318 10.0799 11.9785C10.0299 11.7252 9.90622 11.4923 9.72435 11.309L9.34577 10.9306L9.72435 10.5521C9.96925 10.3072 10.1068 9.97517 10.1068 9.62893C10.1068 9.28268 9.96925 8.95062 9.72435 8.70579C9.47944 8.46096 9.14728 8.32341 8.80094 8.32341C8.45459 8.32341 8.12243 8.46096 7.87753 8.70579L7.48971 9.08428L7.11111 8.70579C6.86552 8.46226 6.53362 8.32561 6.18771 8.32561C5.84179 8.32561 5.50989 8.46226 5.2643 8.70579C5.14145 8.82612 5.04385 8.96976 4.97722 9.12827C4.9106 9.28678 4.87628 9.45699 4.87628 9.62893C4.87628 9.80087 4.9106 9.97108 4.97722 10.1296C5.04385 10.2881 5.14145 10.4317 5.2643 10.5521L5.6429 10.9306L5.2643 11.309C5.14117 11.4302 5.04338 11.5746 4.97663 11.7339C4.90989 11.8931 4.87552 12.0641 4.87552 12.2368C4.87552 12.4095 4.90989 12.5805 4.97663 12.7397C5.04338 12.899 5.14117 13.0434 5.2643 13.1646ZM46.4483 31.6274L46.8269 31.2489C46.9668 31.1323 47.0809 30.9878 47.1618 30.8246C47.2428 30.6615 47.2888 30.4833 47.297 30.3014C47.3053 30.1194 47.2755 29.9378 47.2096 29.768C47.1437 29.5982 47.0431 29.444 46.9143 29.3152C46.7855 29.1865 46.6313 29.086 46.4614 29.0201C46.2916 28.9542 46.1099 28.9244 45.928 28.9326C45.746 28.9409 45.5677 28.9869 45.4045 29.0678C45.2413 29.1487 45.0968 29.2628 44.9801 29.4026L44.6015 29.7903L44.2137 29.4026C43.9623 29.1931 43.6416 29.0851 43.3147 29.0998C42.9877 29.1146 42.6781 29.2511 42.4467 29.4824C42.2153 29.7138 42.0787 30.0233 42.064 30.3502C42.0492 30.677 42.1572 30.9976 42.3669 31.2489L42.7455 31.6274L42.3669 32.0059C42.185 32.1892 42.0613 32.4221 42.0113 32.6754C41.9614 32.9286 41.9873 33.1911 42.0859 33.4297C42.1845 33.6683 42.3515 33.8725 42.5657 34.0166C42.78 34.1607 43.032 34.2384 43.2903 34.2399C43.6355 34.2384 43.9667 34.1026 44.2137 33.8614L44.6015 33.4737L44.9801 33.8614C45.2257 34.1049 45.5576 34.2416 45.9035 34.2416C46.2494 34.2416 46.5813 34.1049 46.8269 33.8614C46.9487 33.7404 47.0453 33.5966 47.1112 33.4382C47.1771 33.2797 47.211 33.1098 47.211 32.9383C47.211 32.7667 47.1771 32.5968 47.1112 32.4383C47.0453 32.2799 46.9487 32.1361 46.8269 32.0151L46.4483 31.6274ZM11.1372 38.9294C13.2176 40.6242 15.8425 41.5065 18.5245 41.4127C24.859 41.4127 32.6341 37.4063 38.6825 30.335C44.2229 23.873 47.2055 16.3402 46.7161 10.0259C46.6574 8.48765 46.2904 6.97687 45.6369 5.58304C44.9834 4.18921 44.0567 2.94069 42.9117 1.91146C42.6439 1.7191 42.3136 1.63462 41.9863 1.67485C41.6591 1.71508 41.359 1.87706 41.1459 2.12854C40.9328 2.38002 40.8223 2.70254 40.8363 3.03184C40.8504 3.36114 40.988 3.67305 41.2218 3.90545C42.0989 4.71525 42.8062 5.69135 43.3023 6.77696C43.7985 7.86257 44.0738 9.03601 44.1121 10.229C44.5369 15.7678 41.6928 22.7745 36.7248 28.5903C28.9036 37.6832 18.2105 41.385 12.8824 36.8985C12.2339 36.2976 11.7119 35.5733 11.3472 34.768C10.9825 33.9627 10.7824 33.0926 10.7586 32.209C10.4262 28.0271 12.6054 22.6729 16.4098 18.2326C21.1008 12.7861 27.343 9.84124 31.6553 10.6167C32.6538 10.8638 33.5947 11.3028 34.4255 11.9091C35.3377 12.7915 35.8737 13.992 35.9215 15.2601C36.1616 18.3896 34.5271 22.4144 31.6553 25.7562C27.2876 30.8335 21.1654 33.049 18.2751 30.5935C17.985 30.3131 17.7539 29.9775 17.5953 29.6066C17.4368 29.2356 17.3539 28.8367 17.3517 28.4333C17.1855 26.2824 18.3213 23.513 20.3158 21.1959C23.3077 17.7157 27.4446 16.1463 29.356 17.771C29.488 17.9232 29.5873 18.1009 29.6477 18.293C29.7081 18.4852 29.7282 18.6877 29.7069 18.888C29.7039 20.2308 29.2448 21.5327 28.4049 22.5806C28.3856 22.0956 28.2507 21.6222 28.0114 21.1999C27.7721 20.7776 27.4353 20.4186 27.029 20.1527C26.7109 19.9581 26.3554 19.8323 25.9856 19.7835H25.8194H25.6347C24.8656 19.7712 24.1044 19.9404 23.4129 20.2772C22.7214 20.614 22.1191 21.109 21.6548 21.7221C20.7233 22.7236 20.2169 24.0473 20.242 25.4147C20.2627 25.7782 20.3549 26.1341 20.5133 26.462C20.6718 26.7899 20.8934 27.0834 21.1654 27.3256C21.8947 27.9415 22.8241 28.2698 23.7786 28.2487C24.9765 28.1539 26.1414 27.8102 27.1988 27.2395C28.2562 26.6688 29.1828 25.8838 29.9193 24.9346C31.4774 23.2688 32.3339 21.067 32.3109 18.7865C32.286 18.246 32.153 17.7159 31.9199 17.2276C31.6868 16.7393 31.3582 16.3025 30.9535 15.9432C27.8601 13.3123 22.2735 14.9462 18.229 19.6358C15.7635 22.5068 14.4153 25.9224 14.6369 28.7841C14.6665 29.5324 14.8451 30.2672 15.1622 30.9456C15.4793 31.624 15.9286 32.2324 16.4837 32.7352C17.8239 33.8347 19.5154 34.4147 21.2485 34.3691C25.1453 34.3691 29.8177 31.9413 33.5483 27.6025C36.9095 23.6976 38.7379 19.0634 38.4424 15.2047C38.4019 14.223 38.1644 13.2595 37.744 12.3715C37.3237 11.4834 36.729 10.6889 35.9953 10.0351C35.9802 10.0312 35.9643 10.0312 35.9492 10.0351H35.8938C34.7589 9.12575 33.4118 8.51908 31.9785 8.27191C31.8051 8.22833 31.6294 8.19443 31.4522 8.17036H31.406C24.8221 6.94259 15.8373 10.5613 8.78248 17.808C6.44317 20.1705 4.48667 22.8833 2.98348 25.8485C2.89513 26.0036 2.83939 26.1751 2.81966 26.3524C2.79994 26.5298 2.81663 26.7093 2.86875 26.88C2.92087 27.0507 3.00732 27.2089 3.12277 27.3451C3.23822 27.4812 3.38026 27.5923 3.54018 27.6716C3.70009 27.7509 3.87452 27.7967 4.05277 27.8063C4.23103 27.8158 4.40937 27.7889 4.57684 27.7271C4.74431 27.6653 4.89738 27.57 5.02671 27.447C5.15604 27.3239 5.25889 27.1758 5.32894 27.0117C6.71326 24.29 8.51054 21.7988 10.657 19.6266C12.1438 18.1043 13.7631 16.7172 15.4957 15.4816C15.1078 15.8878 14.72 16.3032 14.3322 16.7463C8.85636 22.9037 5.76294 30.5935 6.24311 36.797C6.2894 38.2852 6.64117 39.748 7.27656 41.0947C7.91195 42.4413 8.8174 43.643 9.93674 44.6252C12.5589 46.6998 15.8282 47.7849 19.1708 47.6901C23.9171 47.6901 29.3283 45.9269 34.7949 42.4558C34.9473 42.3666 35.08 42.2476 35.1852 42.1058C35.2904 41.9641 35.3659 41.8025 35.4071 41.6309C35.4484 41.4593 35.4545 41.2811 35.4252 41.1071C35.3958 40.933 35.3317 40.7667 35.2365 40.618C35.1413 40.4694 35.017 40.3414 34.8712 40.2419C34.7254 40.1425 34.5609 40.0735 34.3878 40.0391C34.2146 40.0046 34.0363 40.0056 33.8634 40.0417C33.6906 40.0779 33.5269 40.1486 33.3821 40.2495C24.9329 45.6315 16.3729 46.5638 11.5712 42.6128C10.7245 41.8504 10.0423 40.9234 9.56598 39.8886C9.08968 38.8537 8.82935 37.7327 8.80094 36.5939C8.80094 36.4 8.80094 36.197 8.80094 36.0031C9.34803 37.148 10.1467 38.1546 11.1372 38.9479V38.9294ZM17.8596 6.37024C17.9804 6.49339 18.1249 6.59075 18.2844 6.65641C18.4458 6.72188 18.6181 6.75633 18.7922 6.75796C18.9634 6.75629 19.1327 6.72182 19.2909 6.65641C19.4515 6.59294 19.5965 6.4953 19.7156 6.37024C19.8377 6.24858 19.9349 6.10435 20.0019 5.94559C20.0653 5.78715 20.0967 5.61773 20.0942 5.4471C20.0937 5.10172 19.9578 4.77031 19.7156 4.52396C19.6545 4.46097 19.5863 4.4052 19.5125 4.35778C19.4417 4.31232 19.3676 4.27222 19.2909 4.23779L19.0416 4.16393C18.8743 4.12714 18.701 4.12714 18.5337 4.16393L18.2844 4.23779L18.0628 4.35778C17.9889 4.4052 17.9207 4.46097 17.8596 4.52396C17.6175 4.77031 17.4815 5.10172 17.481 5.4471C17.4854 5.79171 17.6207 6.12175 17.8596 6.37024ZM39.098 9.9151C39.2216 10.0324 39.3655 10.1263 39.5228 10.192C39.6826 10.2627 39.8559 10.2974 40.0306 10.2936C40.3757 10.2911 40.7065 10.1555 40.954 9.9151C41.0714 9.79154 41.1653 9.64765 41.2311 9.49046C41.3018 9.33072 41.3364 9.15738 41.3326 8.98273C41.3417 8.8999 41.3417 8.81632 41.3326 8.73348C41.321 8.6471 41.2961 8.56303 41.2588 8.48423C41.2279 8.40576 41.1876 8.33137 41.1387 8.26268C41.0515 8.1138 40.9275 7.98982 40.7786 7.90266C40.7089 7.85277 40.6347 7.8095 40.557 7.77342L40.3077 7.69957C40.1395 7.67184 39.9679 7.67184 39.7998 7.69957L39.5505 7.77342C39.4717 7.80747 39.3973 7.85086 39.3289 7.90266C39.2573 7.94977 39.1894 8.00223 39.1257 8.05959L38.9595 8.26268C38.914 8.33344 38.8739 8.40749 38.8395 8.48423C38.8106 8.566 38.7859 8.6492 38.7656 8.73348C38.761 8.8165 38.761 8.89971 38.7656 8.98273C38.764 9.15628 38.7954 9.32856 38.8579 9.49046C38.9026 9.6493 38.9745 9.79921 39.0703 9.93357L39.098 9.9151ZM3.45442 30.2888C3.41989 30.2092 3.37977 30.1321 3.33438 30.0581C3.28676 29.9871 3.23098 29.9221 3.16817 29.8642C3.10705 29.8012 3.03888 29.7454 2.96502 29.698C2.89536 29.6507 2.82109 29.6105 2.74338 29.578L2.50331 29.5042C2.33293 29.4672 2.15659 29.4672 1.98621 29.5042L1.74611 29.578L1.51526 29.698C1.44253 29.7432 1.37714 29.7993 1.32135 29.8642C1.19458 29.9819 1.09663 30.1272 1.0351 30.2888C1.00081 30.3656 0.975986 30.4461 0.961208 30.5288C0.916064 30.7402 0.925431 30.9595 0.988431 31.1662C1.05143 31.3729 1.16601 31.5602 1.32135 31.7105C1.44109 31.8341 1.58464 31.9322 1.74335 31.9988C1.90206 32.0655 2.07263 32.0993 2.24476 32.0982C2.41674 32.0982 2.58699 32.0639 2.74555 31.9974C2.90411 31.9308 3.04779 31.8333 3.16817 31.7105C3.29238 31.5906 3.38992 31.4459 3.45442 31.2858C3.51782 31.1274 3.54921 30.958 3.54677 30.7873C3.55134 30.7013 3.55134 30.6149 3.54677 30.5288C3.51185 30.4523 3.47174 30.3783 3.42672 30.3073L3.45442 30.2888ZM40.5662 36.6493C40.5047 36.4876 40.4067 36.3423 40.28 36.2246C40.0299 35.9897 39.6997 35.8589 39.3566 35.8589C39.0134 35.8589 38.6832 35.9897 38.4331 36.2246L38.2669 36.4185C38.1743 36.5624 38.1086 36.7219 38.073 36.8893C38.0638 36.9752 38.0638 37.0619 38.073 37.1478C38.0706 37.3184 38.102 37.4878 38.1654 37.6463C38.2321 37.8079 38.3293 37.9552 38.4516 38.0802C38.698 38.3222 39.0295 38.4581 39.375 38.4587C39.5492 38.457 39.7215 38.4226 39.8829 38.3571C40.0384 38.2933 40.1797 38.1992 40.2984 38.0802C40.5448 37.8359 40.6843 37.5039 40.6863 37.157C40.6954 37.0711 40.6954 36.9845 40.6863 36.8985C40.6475 36.8154 40.5978 36.7378 40.5385 36.6678L40.5662 36.6493Z" fill="#777474"/>
</svg>
