<svg width="27" height="26" viewBox="0 0 27 26" fill="none" xmlns="http://www.w3.org/2000/svg">
<path d="M13.369 25.8311C10.8143 25.8311 8.31693 25.0735 6.19277 23.6542C4.06861 22.2349 2.41303 20.2175 1.43539 17.8573C0.457745 15.4971 0.201949 12.8999 0.700347 10.3943C1.19874 7.88869 2.42895 5.58714 4.2354 3.78069C6.04185 1.97424 8.3434 0.744033 10.849 0.245635C13.3546 -0.252763 15.9518 0.0030332 18.312 0.980676C20.6722 1.95832 22.6896 3.6139 24.1089 5.73805C25.5282 7.86221 26.2858 10.3595 26.2858 12.9142C26.2858 16.34 24.9249 19.6254 22.5025 22.0478C20.0802 24.4702 16.7947 25.8311 13.369 25.8311ZM13.369 1.07384C11.0272 1.07384 8.73793 1.76827 6.79078 3.06931C4.84364 4.37035 3.32602 6.21957 2.42985 8.38312C1.53368 10.5467 1.2992 12.9274 1.75607 15.2242C2.21293 17.521 3.34062 19.6308 4.99653 21.2867C6.65244 22.9426 8.7622 24.0703 11.059 24.5271C13.3558 24.984 15.7365 24.7495 17.9001 23.8534C20.0636 22.9572 21.9129 21.4396 23.2139 19.4924C24.5149 17.5453 25.2094 15.2561 25.2094 12.9142C25.2094 11.3593 24.9031 9.81966 24.3081 8.38312C23.713 6.94658 22.8409 5.6413 21.7414 4.54182C20.6419 3.44233 19.3366 2.57018 17.9001 1.97514C16.4635 1.3801 14.9239 1.07384 13.369 1.07384Z" fill="#FFC700"/>
<path d="M9.60162 24.8569L8.96654 21.6815C8.91343 21.2539 8.79167 20.8378 8.60595 20.449C8.47883 20.2204 8.41943 19.9603 8.43467 19.6991C8.44992 19.438 8.5392 19.1866 8.69206 18.9743C8.71922 18.9326 8.7367 18.8853 8.74322 18.836C8.74974 18.7866 8.74513 18.7364 8.72974 18.6891V18.6353C8.5972 18.2944 8.38718 17.9891 8.11629 17.7434C7.84541 17.4978 7.52108 17.3185 7.16895 17.2198C6.97136 17.1554 6.76288 17.1313 6.55582 17.1489C6.34876 17.1665 6.14732 17.2253 5.96339 17.3221L5.53821 17.5481C5.23382 17.7112 4.89995 17.8118 4.55615 17.8442C4.21235 17.8765 3.86556 17.8399 3.5361 17.7365L1.3833 17.0691L1.69546 16.0411L3.84826 16.7085C4.04237 16.769 4.24659 16.7902 4.44898 16.7708C4.65136 16.7514 4.84785 16.6918 5.02692 16.5955L5.45748 16.3694C5.75825 16.2027 6.08894 16.0969 6.43064 16.0581C6.77234 16.0193 7.11833 16.0483 7.44882 16.1434C7.96636 16.3031 8.43983 16.5806 8.83203 16.9542C9.22424 17.3277 9.52451 17.7871 9.70926 18.2962V18.35C9.78532 18.5602 9.8089 18.7858 9.77795 19.0071C9.747 19.2285 9.66245 19.4389 9.53165 19.6202C9.50116 19.6695 9.48501 19.7263 9.48501 19.7843C9.48501 19.8423 9.50116 19.8992 9.53165 19.9485C9.77252 20.4279 9.93773 20.9417 10.0214 21.4716L10.678 24.6523L9.60162 24.8569Z" fill="#FFC700"/>
<path d="M5.57048 15.2338C4.58482 15.2364 3.63058 14.8872 2.87948 14.2489L0.66748 12.1876L1.39943 11.3965L3.60067 13.4524C4.10479 13.8786 4.73374 14.1296 5.39282 14.1674C6.0519 14.2053 6.70544 14.028 7.25505 13.6623L7.55644 13.4524C8.09758 13.0911 8.7528 12.9416 9.39709 13.0326L11.1355 13.2802C11.4132 13.3202 11.6966 13.2849 11.956 13.1779C12.2155 13.0709 12.4414 12.8962 12.6101 12.672C12.7991 12.4176 12.9074 12.1122 12.9208 11.7955C12.9342 11.4789 12.8523 11.1655 12.6855 10.8959L11.41 8.86153C11.0625 8.30443 10.8609 7.66886 10.8236 7.01336C10.7863 6.35786 10.9145 5.70351 11.1965 5.11059C11.4785 4.51767 11.9052 4.00525 12.4372 3.62051C12.9692 3.23578 13.5895 2.99111 14.2409 2.90904L14.9298 2.82292C15.1938 2.79034 15.4485 2.70493 15.6787 2.57178C15.9089 2.43863 16.11 2.26046 16.2699 2.04792L17.244 0.750854L18.1052 1.39669L17.1364 2.68837C16.8898 3.01653 16.5797 3.29184 16.2247 3.498C15.8697 3.70415 15.477 3.83697 15.0697 3.88856L14.3808 3.97467C13.9095 4.0338 13.4606 4.21059 13.0755 4.48874C12.6905 4.7669 12.3816 5.13748 12.1773 5.56635C11.9731 5.99522 11.88 6.4686 11.9068 6.94287C11.9335 7.41714 12.0791 7.87707 12.3303 8.28027L13.6058 10.3147C13.8832 10.7701 14.019 11.2977 13.996 11.8305C13.973 12.3633 13.7923 12.8772 13.4766 13.3071C13.1918 13.6863 12.8101 13.9818 12.3716 14.1627C11.9332 14.3435 11.4542 14.4031 10.9848 14.335L9.25177 14.0875C8.87484 14.037 8.4924 14.125 8.17537 14.335L7.87398 14.5342C7.19387 14.9935 6.39117 15.2373 5.57048 15.2338Z" fill="#FFC700"/>
<path d="M18.8747 14.7065C18.6123 14.7059 18.3513 14.6679 18.0997 14.5935C17.7446 14.4936 17.4127 14.3246 17.1231 14.0962C16.8334 13.8678 16.5917 13.5845 16.4117 13.2625C16.2317 12.9405 16.117 12.5862 16.0742 12.2199C16.0314 11.8535 16.0613 11.4823 16.1621 11.1275L16.2536 10.8153C16.326 10.5623 16.3124 10.2925 16.215 10.0481C16.1176 9.80361 15.9419 9.59836 15.7154 9.46444L15.005 9.03388C14.6415 8.81739 14.3458 8.50343 14.1515 8.12755C13.9572 7.75166 13.872 7.32888 13.9056 6.90708C13.9392 6.48529 14.0903 6.08133 14.3416 5.74096C14.593 5.40059 14.9347 5.13741 15.3279 4.98123L16.5066 4.51299C16.6505 4.45378 16.782 4.36797 16.8941 4.26004L16.9479 4.2116C17.0496 4.10634 17.1594 4.00917 17.2762 3.92097L19.5044 2.25793L20.1502 3.11905L17.9221 4.78209C17.8447 4.84411 17.771 4.9106 17.7014 4.98123L17.6422 5.03505C17.4323 5.24025 17.1834 5.4013 16.9102 5.50866L15.7316 5.98228C15.5204 6.06307 15.3364 6.20216 15.2011 6.38336C15.0658 6.56456 14.9847 6.78044 14.9672 7.00591C14.9498 7.23138 14.9966 7.45718 15.1024 7.65706C15.2082 7.85694 15.3685 8.02271 15.5647 8.13508L16.2752 8.56026C16.7034 8.81799 17.0346 9.20978 17.2176 9.67489C17.4005 10.14 17.4249 10.6525 17.287 11.1329L17.2009 11.445C17.0902 11.8393 17.1231 12.2602 17.2939 12.6324C17.4647 13.0047 17.7622 13.3042 18.1333 13.4775C18.5044 13.6507 18.925 13.6865 19.3201 13.5784C19.7151 13.4704 20.0589 13.2254 20.2901 12.8874C20.7127 12.2493 21.3279 11.7628 22.0462 11.4985C22.7644 11.2342 23.5482 11.2061 24.2836 11.4181L25.8982 11.881L25.6022 12.9143L23.9876 12.4514C23.4744 12.3004 22.9265 12.3159 22.4227 12.4957C21.9189 12.6756 21.485 13.0106 21.1836 13.4525C20.9321 13.8359 20.5897 14.151 20.1868 14.3698C19.7839 14.5886 19.3331 14.7043 18.8747 14.7065Z" fill="#FFC700"/>
<path d="M14.0256 25.2928H12.9492V21.6277C12.9498 21.4098 12.9073 21.194 12.8241 20.9927C12.741 20.7913 12.6189 20.6084 12.4648 20.4544L12.2926 20.2822C11.9096 19.8994 11.6486 19.4117 11.5427 18.8807C11.4367 18.3497 11.4905 17.7991 11.6973 17.2987C11.904 16.7982 12.2545 16.3703 12.7043 16.0689C13.1541 15.7675 13.6832 15.6061 14.2247 15.6052H16.0169C16.4429 15.6061 16.8629 15.7056 17.244 15.8959L19.1008 16.8216C19.4551 17.0005 19.8619 17.0463 20.2472 16.9507L21.0491 16.7462C21.4126 16.6521 21.7911 16.6302 22.1631 16.6816L24.7573 17.1176L24.5851 18.194L21.9802 17.758C21.757 17.7069 21.5252 17.7069 21.302 17.758L20.5055 17.9572C19.8708 18.113 19.2014 18.0386 18.6164 17.7473L16.7596 16.8592C16.5298 16.7415 16.2751 16.6806 16.0169 16.6816H14.2247C13.8954 16.6801 13.5731 16.7767 13.2989 16.9591C13.0247 17.1414 12.8111 17.4013 12.6852 17.7056C12.5593 18.0099 12.5269 18.3448 12.5922 18.6676C12.6574 18.9904 12.8173 19.2864 13.0514 19.5179L13.2236 19.6955C13.4795 19.9478 13.6823 20.2487 13.82 20.5805C13.9578 20.9123 14.0277 21.2684 14.0256 21.6277V25.2928Z" fill="#FFC700"/>
</svg>
