<svg width="23" height="20" viewBox="0 0 23 20" fill="none" xmlns="http://www.w3.org/2000/svg">
<path fill-rule="evenodd" clip-rule="evenodd" d="M7.30078 11.4271V5.71924H8.72964V10.7136H13.7306V12.1406H8.01521C7.62085 12.1406 7.30078 11.8209 7.30078 11.4271Z" fill="#FFC700"/>
<path fill-rule="evenodd" clip-rule="evenodd" d="M9.85951 1.48821C14.5669 1.48821 18.3826 5.29887 18.3826 9.99999H19.6938C19.6938 4.57602 15.2907 0.178711 9.85951 0.178711C4.42833 0.178711 0.0251714 4.57602 0.0251714 9.99999C0.0251714 15.424 4.42833 19.8213 9.85951 19.8213C13.4379 19.8213 16.5691 17.912 18.2882 15.0626L17.1658 14.3868C15.6736 16.8591 12.9593 18.5118 9.85951 18.5118C5.15214 18.5118 1.33642 14.7011 1.33642 9.99999C1.33642 5.29887 5.15214 1.48821 9.85951 1.48821Z" fill="#FFC700"/>
<path fill-rule="evenodd" clip-rule="evenodd" d="M18.8568 9.09223L21.1161 5.7085L22.207 6.4339L19.5845 10.3624C19.3839 10.6636 18.9761 10.7448 18.6759 10.5445L14.7421 7.92548L15.4685 6.83593L18.8568 9.09223Z" fill="#FFC700"/>
</svg>
