<svg width="50" height="50" viewBox="0 0 50 50" fill="none" xmlns="http://www.w3.org/2000/svg">
<path d="M37.4848 22.3298C35.5366 22.3394 33.6295 21.7699 32.0056 20.6936C30.3817 19.6172 29.1143 18.0826 28.3642 16.2846C27.6141 14.4865 27.4153 12.5061 27.7928 10.5949C28.1704 8.68358 29.1074 6.92759 30.4848 5.54984L31.1948 4.83984L45.1048 18.7498L44.4048 19.4598C42.5693 21.2952 40.0806 22.3274 37.4848 22.3298ZM31.2748 7.70984C30.1047 9.21834 29.5253 11.102 29.6452 13.0073C29.765 14.9127 30.576 16.7088 31.926 18.0587C33.2759 19.4087 35.0721 20.2197 36.9774 20.3395C38.8827 20.4594 40.7664 19.8799 42.2748 18.7098L31.2748 7.70984Z" fill="#777575"/>
<path d="M29.6748 24.81L25.1348 20.27L28.9648 16.44C29.058 16.3474 29.1686 16.2741 29.2901 16.2242C29.4117 16.1744 29.5419 16.149 29.6733 16.1494C29.8047 16.1499 29.9347 16.1762 30.0559 16.2269C30.1772 16.2776 30.2872 16.3517 30.3798 16.445C30.4723 16.5382 30.5457 16.6488 30.5955 16.7703C30.6454 16.8919 30.6708 17.0221 30.6703 17.1535C30.6699 17.2849 30.6435 17.4149 30.5928 17.5361C30.5421 17.6574 30.468 17.7674 30.3748 17.86L27.9648 20.27L29.6748 21.98L32.0848 19.57C32.1777 19.4762 32.2883 19.4018 32.4102 19.3511C32.532 19.3003 32.6628 19.2742 32.7948 19.2742C32.9268 19.2742 33.0575 19.3003 33.1794 19.3511C33.3012 19.4018 33.4118 19.4762 33.5048 19.57C33.691 19.7573 33.7956 20.0108 33.7956 20.275C33.7956 20.5392 33.691 20.7926 33.5048 20.98L29.6748 24.81Z" fill="#777575"/>
<path d="M15.295 42.2399C15.065 42.2406 14.837 42.1959 14.6243 42.1084C14.4115 42.0208 14.2181 41.8922 14.0551 41.7299L8.25504 35.9299C7.9271 35.5985 7.74316 35.1511 7.74316 34.6849C7.74316 34.2187 7.9271 33.7713 8.25504 33.4399L23.425 18.2699C23.5885 18.1063 23.7826 17.9766 23.9962 17.888C24.2098 17.7995 24.4388 17.7539 24.67 17.7539C24.9013 17.7539 25.1303 17.7995 25.3439 17.888C25.5575 17.9766 25.7516 18.1063 25.915 18.2699L31.7151 24.0699C31.8786 24.2333 32.0084 24.4274 32.0969 24.6411C32.1855 24.8547 32.231 25.0837 32.231 25.3149C32.231 25.5461 32.1855 25.7751 32.0969 25.9887C32.0084 26.2024 31.8786 26.3964 31.7151 26.5599L16.545 41.7299C16.3808 41.8934 16.1858 42.0227 15.9712 42.1103C15.7566 42.1978 15.5268 42.2419 15.295 42.2399ZM9.79504 34.6899L15.255 40.1499L30.095 25.3099L24.675 19.8099L9.79504 34.6899Z" fill="#777575"/>
<path d="M17.7946 40.0599C17.5323 40.0588 17.2809 39.9546 17.0946 39.7699L10.2146 32.8899C10.0284 32.7025 9.92383 32.4491 9.92383 32.1849C9.92383 31.9207 10.0284 31.6672 10.2146 31.4799C10.3076 31.3861 10.4182 31.3118 10.54 31.261C10.6619 31.2102 10.7926 31.1841 10.9246 31.1841C11.0566 31.1841 11.1873 31.2102 11.3092 31.261C11.4311 31.3118 11.5417 31.3861 11.6346 31.4799L18.5046 38.3499C18.6456 38.4897 18.7418 38.6684 18.7809 38.8632C18.82 39.0579 18.8002 39.2599 18.724 39.4434C18.6478 39.6268 18.5188 39.7834 18.3532 39.8932C18.1877 40.003 17.9932 40.061 17.7946 40.0599Z" fill="#777575"/>
<path d="M10.9249 43.15C10.1124 43.1532 9.31741 42.9143 8.64126 42.4639C7.9651 42.0134 7.43842 41.3718 7.12838 40.6208C6.81833 39.8698 6.73896 39.0436 6.90041 38.2473C7.06186 37.451 7.45678 36.7209 8.03484 36.15L9.67486 34.5L15.4649 40.29L13.7949 41.96C13.0326 42.7196 12.001 43.1474 10.9249 43.15ZM9.67486 37.35L9.44484 37.58C9.04702 37.9778 8.82354 38.5174 8.82354 39.08C8.82354 39.6426 9.04702 40.1822 9.44484 40.58C9.84267 40.9778 10.3822 41.2013 10.9448 41.2013C11.5075 41.2013 12.047 40.9778 12.4448 40.58L12.6749 40.35L9.67486 37.35Z" fill="#777575"/>
<path d="M15.9249 23.5998L0.794922 8.43979L8.45493 0.779785L23.6149 15.9398L15.9249 23.5998ZM3.58492 8.43979L15.9249 20.8098L20.7549 15.9798L8.42493 3.60979L3.58492 8.43979Z" fill="#777575"/>
<path d="M6.00992 4.61557L4.5957 6.02979L20.845 22.2791L22.2592 20.8649L6.00992 4.61557Z" fill="#777575"/>
<path d="M12.0921 5.86491L5.84131 12.1157L7.25552 13.5299L13.5063 7.27913L12.0921 5.86491Z" fill="#777575"/>
<path d="M17.0936 10.8546L10.8428 17.1055L12.257 18.5197L18.5078 12.2689L17.0936 10.8546Z" fill="#777575"/>
<path d="M41.5448 49.2199L26.3848 34.0599L34.0448 26.3999L49.2048 41.5599L41.5448 49.2199ZM29.2148 34.0599L41.5448 46.3999L46.3848 41.5599L34.0448 29.2299L29.2148 34.0599Z" fill="#777575"/>
<path d="M29.1261 27.7254L27.7119 29.1396L43.9612 45.389L45.3754 43.9748L29.1261 27.7254Z" fill="#777575"/>
<path d="M42.7157 36.4948L36.4648 42.7456L37.8791 44.1598L44.1299 37.909L42.7157 36.4948Z" fill="#777575"/>
<path d="M37.7147 31.4747L31.4639 37.7256L32.8781 39.1398L39.1289 32.889L37.7147 31.4747Z" fill="#777575"/>
</svg>
