<svg width="48" height="48" viewBox="0 0 48 48" fill="none" xmlns="http://www.w3.org/2000/svg">
<path d="M24 48C19.2533 48 14.6131 46.5924 10.6663 43.9553C6.71955 41.3181 3.64341 37.5698 1.8269 33.1844C0.0103989 28.799 -0.464881 23.9734 0.461164 19.3178C1.38721 14.6623 3.67299 10.3859 7.02945 7.02945C10.3859 3.67299 14.6623 1.38721 19.3178 0.461164C23.9734 -0.464881 28.799 0.0103989 33.1844 1.8269C37.5698 3.64341 41.3181 6.71954 43.9553 10.6663C46.5924 14.6131 48 19.2533 48 24C48 30.3652 45.4715 36.4697 40.9706 40.9706C36.4697 45.4714 30.3652 48 24 48ZM24 2.00001C19.6488 2.00001 15.3953 3.29029 11.7775 5.70768C8.15958 8.12507 5.33979 11.561 3.67466 15.581C2.00954 19.6009 1.57387 24.0244 2.42274 28.292C3.27162 32.5596 5.36691 36.4796 8.44366 39.5564C11.5204 42.6331 15.4404 44.7284 19.708 45.5773C23.9756 46.4262 28.3991 45.9905 32.419 44.3254C36.439 42.6602 39.8749 39.8404 42.2923 36.2225C44.7097 32.6047 46 28.3512 46 24C46 18.1652 43.6822 12.5695 39.5564 8.44366C35.4306 4.31786 29.8348 2.00001 24 2.00001Z" fill="#777474"/>
<path d="M35.7602 44.3203C34.6142 43.8164 33.6025 43.0506 32.8064 42.0844C32.0103 41.1183 31.4521 39.9788 31.1766 38.7577C30.9011 37.5365 30.916 36.2677 31.2202 35.0533C31.5244 33.839 32.1093 32.7129 32.9279 31.7658C33.7465 30.8187 34.776 30.0769 35.9335 29.6001C37.091 29.1233 38.3442 28.9247 39.5924 29.0205C40.8407 29.1163 42.049 29.5036 43.1202 30.1514C44.1914 30.7992 45.0957 31.6894 45.7602 32.7503L44.0602 33.8103C43.561 33.0166 42.8826 32.3509 42.0796 31.8668C41.2766 31.3826 40.3713 31.0933 39.4363 31.0222C38.5013 30.9511 37.5627 31.1002 36.6957 31.4574C35.8287 31.8146 35.0575 32.37 34.444 33.0792C33.8305 33.7883 33.3917 34.6313 33.1628 35.5406C32.934 36.45 32.9215 37.4003 33.1262 38.3153C33.331 39.2304 33.7474 40.0847 34.3421 40.8098C34.9367 41.5348 35.693 42.1104 36.5502 42.4903L35.7602 44.3203Z" fill="#777474"/>
<path d="M5.62 37.6798L5.35001 35.6798C5.98179 35.5939 6.58101 35.3475 7.09045 34.9641C7.5999 34.5807 8.00256 34.0731 8.25999 33.4898C8.46741 33.0403 8.58227 32.5537 8.59773 32.059C8.61319 31.5642 8.52895 31.0714 8.35001 30.6098C8.13137 30.0439 7.77904 29.5393 7.32309 29.1391C6.86714 28.7388 6.32113 28.4549 5.73164 28.3114C5.14216 28.168 4.52671 28.1693 3.93785 28.3153C3.34899 28.4613 2.80422 28.7476 2.35001 29.1498L1 27.6798C1.67047 27.0747 2.47362 26.6355 3.34482 26.3974C4.21601 26.1594 5.13092 26.1291 6.01593 26.3092C6.90094 26.4892 7.73135 26.8744 8.44031 27.4339C9.14926 27.9934 9.71698 28.7115 10.0978 29.5305C10.4786 30.3494 10.6618 31.2463 10.6328 32.149C10.6037 33.0516 10.3632 33.9349 9.93053 34.7276C9.49786 35.5204 8.88513 36.2005 8.14166 36.7132C7.3982 37.226 6.54475 37.5571 5.64999 37.6798H5.62Z" fill="#777474"/>
<path d="M30.5102 10.7401C29.3645 10.7406 28.2414 10.4215 27.2671 9.81882C26.2927 9.21611 25.5058 8.35361 24.9946 7.32825C24.4835 6.30289 24.2685 5.15531 24.3737 4.01446C24.4789 2.87361 24.9002 1.78471 25.5902 0.870117L27.1902 2.07012C26.7972 2.58885 26.5313 3.19257 26.414 3.83274C26.2967 4.4729 26.3313 5.13166 26.5149 5.75604C26.6985 6.38043 27.026 6.95302 27.4712 7.4278C27.9163 7.90257 28.4667 8.26628 29.0779 8.48968C29.6892 8.71308 30.3444 8.78994 30.9908 8.71408C31.6372 8.63822 32.2567 8.41176 32.7997 8.0529C33.3426 7.69404 33.7938 7.2128 34.1169 6.64786C34.4401 6.08292 34.6261 5.45005 34.6602 4.80012L36.6602 4.91012C36.5781 6.48511 35.8941 7.96838 34.7496 9.0534C33.605 10.1384 32.0873 10.7423 30.5102 10.7401Z" fill="#777474"/>
<path d="M16 22C15.0111 22 14.0444 21.7068 13.2222 21.1574C12.3999 20.6079 11.759 19.8271 11.3806 18.9134C11.0022 17.9998 10.9031 16.9945 11.0961 16.0245C11.289 15.0546 11.7652 14.1637 12.4645 13.4645C13.1637 12.7652 14.0547 12.289 15.0246 12.0961C15.9945 11.9031 16.9998 12.0022 17.9134 12.3806C18.8271 12.759 19.6079 13.3999 20.1574 14.2222C20.7068 15.0444 21 16.0111 21 17C21 18.3261 20.4732 19.5979 19.5355 20.5355C18.5979 21.4732 17.3261 22 16 22ZM16 14C15.4067 14 14.8266 14.176 14.3333 14.5056C13.8399 14.8352 13.4554 15.3038 13.2284 15.852C13.0013 16.4001 12.9419 17.0033 13.0577 17.5853C13.1734 18.1672 13.4591 18.7018 13.8787 19.1213C14.2982 19.5409 14.8328 19.8266 15.4147 19.9424C15.9967 20.0581 16.5999 19.9987 17.1481 19.7716C17.6962 19.5446 18.1648 19.1601 18.4944 18.6667C18.8241 18.1734 19 17.5933 19 17C19 16.2044 18.6839 15.4413 18.1213 14.8787C17.5587 14.3161 16.7957 14 16 14Z" fill="#777474"/>
<path d="M21 40C20.11 40 19.24 39.7361 18.4999 39.2416C17.7599 38.7472 17.1831 38.0443 16.8425 37.2221C16.5019 36.3998 16.4128 35.495 16.5865 34.6221C16.7601 33.7492 17.1887 32.9474 17.818 32.318C18.4474 31.6887 19.2492 31.2601 20.1221 31.0865C20.995 30.9128 21.8998 31.002 22.7221 31.3425C23.5443 31.6831 24.2471 32.2599 24.7416 32.9999C25.2361 33.74 25.5 34.61 25.5 35.5C25.4974 36.6927 25.0224 37.8357 24.1791 38.6791C23.3357 39.5224 22.1927 39.9974 21 40ZM21 33C20.5055 33 20.0222 33.1466 19.6111 33.4213C19.1999 33.696 18.8795 34.0865 18.6903 34.5433C18.5011 35.0001 18.4516 35.5028 18.548 35.9877C18.6445 36.4727 18.8826 36.9181 19.2322 37.2678C19.5819 37.6174 20.0273 37.8555 20.5123 37.952C20.9972 38.0484 21.4999 37.9989 21.9567 37.8097C22.4135 37.6205 22.804 37.3 23.0787 36.8889C23.3534 36.4778 23.5 35.9945 23.5 35.5C23.5 34.837 23.2366 34.2011 22.7678 33.7322C22.2989 33.2634 21.663 33 21 33Z" fill="#777474"/>
<path d="M34 26C32.8133 26 31.6533 25.6481 30.6666 24.9888C29.6799 24.3295 28.9108 23.3925 28.4567 22.2961C28.0026 21.1997 27.8838 19.9933 28.1153 18.8295C28.3468 17.6656 28.9182 16.5965 29.7574 15.7574C30.5965 14.9182 31.6656 14.3468 32.8294 14.1153C33.9933 13.8838 35.1997 14.0026 36.2961 14.4567C37.3924 14.9109 38.3295 15.6799 38.9888 16.6666C39.6481 17.6533 40 18.8133 40 20C40 21.5913 39.3679 23.1174 38.2426 24.2426C37.1174 25.3679 35.5913 26 34 26ZM34 16C33.2089 16 32.4355 16.2346 31.7777 16.6741C31.1199 17.1137 30.6072 17.7384 30.3045 18.4693C30.0017 19.2002 29.9225 20.0044 30.0769 20.7804C30.2312 21.5563 30.6122 22.269 31.1716 22.8284C31.731 23.3878 32.4437 23.7688 33.2196 23.9231C33.9956 24.0775 34.7998 23.9983 35.5307 23.6955C36.2616 23.3928 36.8864 22.8801 37.3259 22.2223C37.7654 21.5645 38 20.7911 38 20C38 18.9391 37.5786 17.9217 36.8284 17.1716C36.0783 16.4214 35.0609 16 34 16Z" fill="#777474"/>
</svg>
