<svg width="48" height="48" viewBox="0 0 48 48" fill="none" xmlns="http://www.w3.org/2000/svg">
<path d="M8.76617 14.0841C8.37172 12.0067 8.62186 10.3716 9.54543 9.45796C9.93944 9.11552 10.3972 8.85428 10.8925 8.68923C11.3878 8.52418 11.9109 8.45858 12.4316 8.49619C15.1602 8.71617 17.7978 9.57976 20.128 11.0161C20.8912 10.4326 21.6513 9.87474 22.4081 9.34255C21.4036 8.74584 20.3697 8.20013 19.3103 7.70753C19.5964 7.16456 19.9178 6.6409 20.2723 6.13986C21.4653 4.40866 22.7833 3.43725 24.0532 3.43725C25.3231 3.43725 26.67 4.39904 27.9014 6.18794C28.7191 5.81284 29.5273 5.48584 30.3161 5.22616C28.5844 2.4851 26.4679 0.888569 24.0724 0.878952C21.6769 0.869334 19.5989 2.38892 17.8287 5.15883C17.5112 5.65895 17.213 6.19756 16.9244 6.76501C12.9703 5.46661 9.66088 5.69744 7.68867 7.66908C6.04356 9.31371 5.58177 11.9105 6.30331 15.1324C7.0922 14.7541 7.91315 14.4047 8.76617 14.0841ZM32.9329 18.6429C31.8362 18.4217 30.701 18.2582 29.5369 18.1235L29.7774 18.3544C31.0981 19.6726 32.3413 21.0663 33.5005 22.5285C34.0585 21.7494 34.5492 20.9896 34.9821 20.2587C34.5877 19.7778 34.174 19.2969 33.7507 18.8257L32.9329 18.6429ZM47.2964 24.0385C47.2964 21.7014 45.7378 19.5374 42.9671 17.7773C42.8902 17.9793 42.8228 18.1909 42.7459 18.3929C42.5246 18.9892 42.2745 19.5951 41.9955 20.201C43.7272 21.384 44.7181 22.7112 44.7181 24.0481C44.7181 25.5773 43.3712 27.1739 40.9276 28.5492L40.4466 28.7993C40.206 28.2703 39.9367 27.7317 39.648 27.1931C39.3594 26.6545 39.1093 26.2313 38.8207 25.7119C38.5321 25.1926 38.1376 24.6059 37.7624 24.0481C42.2937 17.2003 43.5828 10.7371 40.5043 7.69793C36.7811 3.97586 28.1227 6.63995 19.8009 13.6801C18.7523 13.7667 17.7133 13.8917 16.6935 14.036C14.8194 14.3051 12.9674 14.7101 11.1521 15.2478C9.37665 15.747 7.66058 16.4371 6.03394 17.306C2.69561 19.1719 0.935059 21.509 0.935059 24.0385C0.935059 26.3948 2.48396 28.5492 5.23543 30.2996C5.37012 29.9342 5.50481 29.5591 5.65874 29.1744C5.81266 28.7897 6.03394 28.3087 6.23597 27.8663C4.50428 26.6929 3.51336 25.3657 3.51336 24.0192C3.51336 22.49 4.85061 20.8935 7.29423 19.5277L7.78488 19.268C8.02539 19.8066 8.29476 20.3452 8.58338 20.8838L8.76617 21.2205L8.99706 21.6533C9.13175 21.8841 9.26643 22.1245 9.41074 22.3554C9.73784 22.9132 10.0938 23.471 10.4594 24.0288C5.93773 30.8767 4.68706 37.3302 7.72715 40.379C8.35543 40.9671 9.09581 41.4227 9.90409 41.7185C10.7124 42.0143 11.572 42.1443 12.4316 42.1006C14.4543 42.0349 16.446 41.5844 18.3001 40.7734C21.9743 39.1959 25.3793 37.0541 28.392 34.4256L29.2867 34.3487C30.0275 34.2717 30.7587 34.1852 31.4802 34.0794C34.0417 33.701 36.5567 33.0563 38.9842 32.1558C39.1644 32.7306 39.3121 33.315 39.4268 33.9063C39.767 35.2231 39.6656 36.6151 39.1382 37.8688C39.1343 37.9007 39.1343 37.933 39.1382 37.9649C39.0262 38.1436 38.8974 38.3111 38.7533 38.4651V38.5324C37.089 40.1867 32.981 39.6673 28.113 36.9935C27.3626 37.5802 26.6122 38.1381 25.8522 38.6574C26.8525 39.247 27.8834 39.7831 28.9404 40.2636C28.6544 40.8036 28.333 41.3241 27.9784 41.8217C27.8437 42.0044 27.7186 42.1968 27.5839 42.3699L27.3626 42.6392C27.2087 42.8123 27.0644 42.995 26.9105 43.1489L26.7084 43.3317C26.5545 43.4759 26.391 43.6298 26.2274 43.7548L26.0061 43.8991C25.8589 44.0056 25.7046 44.102 25.5444 44.1876C25.4387 44.2376 25.3293 44.2794 25.2173 44.3127C25.0956 44.3691 24.9702 44.4173 24.8421 44.4569C24.6159 44.5169 24.3833 44.5493 24.1494 44.5531C22.8506 44.5531 21.523 43.5913 20.3012 41.8217C19.8682 42.0236 19.4257 42.2256 18.9928 42.4083C18.5599 42.5911 18.2424 42.6777 17.8672 42.8123C19.6374 45.6111 21.802 47.121 24.1301 47.121H24.6785H24.9575H25.2269L25.5732 47.0345L25.7656 46.9864L26.1505 46.8422L26.2851 46.7845L26.6988 46.5921H26.8047C26.949 46.5151 27.0836 46.4286 27.2183 46.342L27.3145 46.2843L27.7186 46.0054L27.8148 45.9285L28.1996 45.6111L28.3055 45.5149L28.671 45.1686L28.7961 45.0436L29.1232 44.6782L29.2675 44.5242L29.5657 44.1491L29.7293 43.9472C29.8159 43.8222 29.9121 43.6971 29.9987 43.5625L30.1718 43.3124L30.4027 42.9566C30.7338 42.4434 31.0326 41.9102 31.2974 41.36C32.7619 41.8711 34.2973 42.1502 35.8479 42.1871C36.7052 42.2157 37.5594 42.0712 38.3594 41.7622C39.1595 41.4532 39.889 40.986 40.5043 40.3886C42.1398 38.7536 42.5919 36.1472 41.88 32.9253C41.7473 32.3304 41.5836 31.7429 41.3894 31.1652L42.1879 30.742C45.5262 28.8954 47.2964 26.5583 47.2964 24.0385ZM10.113 18.2678C10.671 18.0562 11.2483 17.8543 11.864 17.6715C12.4797 17.4888 12.9319 17.3734 13.4802 17.2387C14.4423 16.9983 15.4909 16.7963 16.5396 16.6232C14.9283 18.2317 13.4243 19.9442 12.0371 21.7494C11.6908 21.1916 11.3637 20.6434 11.0751 20.0856L10.9404 19.8451C10.6614 19.3065 10.3824 18.7679 10.113 18.2678ZM29.7485 29.713C28.9693 30.5016 28.1611 31.2421 27.353 31.9538C26.391 32.0116 25.4289 32.0501 24.4669 32.0597H24.1205C21.3406 32.0674 18.5655 31.8291 15.8276 31.3479C14.4914 31.1076 13.1709 30.7864 11.8736 30.3862C11.7004 30.7516 11.5273 31.1171 11.3829 31.473C11.2386 31.8288 11.0462 32.377 10.9115 32.8002C12.3779 33.2411 13.8683 33.5975 15.3755 33.8678C17.2346 34.1886 19.1104 34.4038 20.9939 34.5122C21.9559 34.5699 23.0142 34.6084 24.0339 34.618C21.9681 36.1646 19.7231 37.4563 17.3477 38.4651C13.74 39.9174 10.9019 39.9847 9.55505 38.6382C7.70791 36.7916 8.593 31.9635 12.066 26.3275C12.4508 26.8276 12.8453 27.2893 13.2589 27.8279C13.3009 27.8847 13.3459 27.9392 13.3936 27.9913L13.9131 28.6069C14.0286 28.7415 14.1344 28.8762 14.2595 29.0108L14.4808 29.2609C15.0099 29.3763 15.5583 29.5014 16.1355 29.5975C16.9725 29.7514 17.8287 29.8668 18.6945 29.9726L18.4444 29.7322C17.5497 28.8377 16.7127 27.924 15.9142 27.0007L15.3274 26.2986C15.135 26.0678 14.9522 25.8466 14.779 25.6158L14.7213 25.5581C14.3365 25.058 13.9613 24.5963 13.5957 24.0673C15.0481 22.056 16.6565 20.1618 18.4059 18.4025C19.2044 17.6042 20.0029 16.8636 20.8014 16.1615C21.7635 16.0942 22.7255 16.0654 23.6876 16.0557H24.0339C27.1147 16.0439 30.189 16.337 33.2119 16.9309C34.299 17.1521 35.3188 17.4118 36.2809 17.7003C36.6516 16.9198 36.9729 16.1167 37.2429 15.2959C36.1462 14.9593 34.9917 14.6612 33.7507 14.4111C31.5921 13.9823 29.4061 13.7059 27.2087 13.584C26.2467 13.5263 25.1884 13.4878 24.1494 13.4782C28.6999 10.2082 32.9137 8.55389 35.771 8.55389C36.8223 8.48113 37.8598 8.82684 38.6571 9.51567C40.004 10.8718 39.9463 13.709 38.484 17.3157C36.4072 21.9615 33.4507 26.1615 29.7774 29.6841L29.7485 29.713ZM34.6935 30.8575C33.7314 31.0883 32.6924 31.2998 31.6342 31.4633C33.252 29.8479 34.7594 28.1257 36.1462 26.3082C36.4925 26.8661 36.8196 27.4239 37.1082 27.9721L37.2333 28.2222C37.5315 28.7608 37.7913 29.2994 38.0414 29.8284C36.9547 30.2238 35.8466 30.5578 34.7223 30.8286L34.6935 30.8575ZM24.1109 19.9509C23.3003 19.9528 22.5085 20.195 21.8356 20.6468C21.1627 21.0986 20.6389 21.7396 20.3305 22.489C20.0221 23.2384 19.9428 24.0624 20.1028 24.8568C20.2628 25.6512 20.6549 26.3803 21.2294 26.952C21.8039 27.5236 22.5351 27.9121 23.3304 28.0684C24.1258 28.2246 24.9496 28.1415 25.6978 27.8297C26.4459 27.5178 27.0848 26.9912 27.5335 26.3163C27.9823 25.6415 28.2208 24.8488 28.2189 24.0385C28.2214 23.498 28.117 22.9624 27.9115 22.4624C27.7061 21.9625 27.4038 21.5081 27.0219 21.1255C26.6401 20.7429 26.1863 20.4395 25.6867 20.233C25.1871 20.0265 24.6515 19.9208 24.1109 19.922V19.9509Z" fill="#FFC700"/>
</svg>
