<svg width="22" height="22" viewBox="0 0 22 22" fill="none" xmlns="http://www.w3.org/2000/svg">
<path fill-rule="evenodd" clip-rule="evenodd" d="M11.0001 1.39117C16.3468 1.39117 20.682 5.69356 20.682 10.9998C20.682 12.5213 20.3255 13.9592 19.6922 15.2377C19.5817 15.4604 19.5419 15.7193 19.5954 15.9748L20.5237 20.4637L15.8491 19.5955C15.603 19.5503 15.3558 19.5865 15.1406 19.6882C13.8865 20.2783 12.4832 20.6084 11.0001 20.6084C5.65346 20.6084 1.31825 16.306 1.31825 10.9998C1.31825 5.69356 5.65346 1.39117 11.0001 1.39117ZM21.8211 10.9998C21.8211 5.06844 16.9767 0.260742 11.0001 0.260742C5.02356 0.260742 0.179199 5.06844 0.179199 10.9998C0.179199 16.9311 5.02356 21.7388 11.0001 21.7388C12.6552 21.7388 14.2248 21.3703 15.6292 20.709C15.6349 20.7067 15.6395 20.7067 15.6395 20.7067L20.3141 21.5749C21.1092 21.7219 21.8017 21.0232 21.6388 20.2365L20.7105 15.7476C20.7105 15.7476 20.7105 15.743 20.7139 15.7363C21.4235 14.3074 21.8211 12.6988 21.8211 10.9998Z" fill="#FFC700"/>
<path fill-rule="evenodd" clip-rule="evenodd" d="M5.30574 10.4336C4.99136 10.4336 4.73622 10.6869 4.73622 10.9989C4.73622 11.3109 4.99136 11.5641 5.30574 11.5641C5.62012 11.5641 5.87526 11.3109 5.87526 10.9989C5.87526 10.6869 5.62012 10.4336 5.30574 10.4336ZM3.59717 10.9989C3.59717 10.0629 4.36261 9.30322 5.30574 9.30322C6.24887 9.30322 7.01431 10.0629 7.01431 10.9989C7.01431 11.9348 6.24887 12.6945 5.30574 12.6945C4.36261 12.6945 3.59717 11.9348 3.59717 10.9989Z" fill="#FFC700"/>
<path fill-rule="evenodd" clip-rule="evenodd" d="M11.0006 10.4336C10.6862 10.4336 10.431 10.6869 10.431 10.9989C10.431 11.3109 10.6862 11.5641 11.0006 11.5641C11.3149 11.5641 11.5701 11.3109 11.5701 10.9989C11.5701 10.6869 11.3149 10.4336 11.0006 10.4336ZM9.29199 10.9989C9.29199 10.0629 10.0574 9.30322 11.0006 9.30322C11.9437 9.30322 12.7091 10.0629 12.7091 10.9989C12.7091 11.9348 11.9437 12.6945 11.0006 12.6945C10.0574 12.6945 9.29199 11.9348 9.29199 10.9989Z" fill="#FFC700"/>
<path fill-rule="evenodd" clip-rule="evenodd" d="M16.6959 10.4336C16.3815 10.4336 16.1264 10.6869 16.1264 10.9989C16.1264 11.3109 16.3815 11.5641 16.6959 11.5641C17.0103 11.5641 17.2654 11.3109 17.2654 10.9989C17.2654 10.6869 17.0103 10.4336 16.6959 10.4336ZM14.9873 10.9989C14.9873 10.0629 15.7527 9.30322 16.6959 9.30322C17.639 9.30322 18.4044 10.0629 18.4044 10.9989C18.4044 11.9348 17.639 12.6945 16.6959 12.6945C15.7527 12.6945 14.9873 11.9348 14.9873 10.9989Z" fill="#FFC700"/>
</svg>
