<svg width="49" height="46" viewBox="0 0 49 46" fill="none" xmlns="http://www.w3.org/2000/svg">
<path d="M24.1162 41C20.3584 41 16.6849 39.8857 13.5604 37.7979C10.4359 35.7102 8.00057 32.7428 6.56251 29.271C5.12444 25.7992 4.74818 21.9789 5.4813 18.2933C6.21442 14.6077 8.02399 11.2222 10.6812 8.56498C13.3384 5.90778 16.7239 4.09821 20.4095 3.36509C24.0951 2.63197 27.9154 3.00823 31.3872 4.4463C34.859 5.88436 37.8264 8.31964 39.9141 11.4442C42.0019 14.5687 43.1162 18.2422 43.1162 22C43.1162 24.4951 42.6248 26.9658 41.6699 29.271C40.7151 31.5762 39.3156 33.6707 37.5512 35.435C35.7869 37.1994 33.6924 38.5989 31.3872 39.5537C29.082 40.5086 26.6113 41 24.1162 41ZM24.1162 5.00001C20.7539 5.00001 17.4672 5.99704 14.6715 7.86503C11.8759 9.73301 9.69695 12.388 8.41026 15.4944C7.12357 18.6007 6.78692 22.0189 7.44287 25.3165C8.09882 28.6142 9.71791 31.6433 12.0954 34.0208C14.4729 36.3983 17.502 38.0174 20.7997 38.6734C24.0974 39.3293 27.5155 38.9927 30.6218 37.706C33.7282 36.4193 36.3832 34.2403 38.2512 31.4447C40.1192 28.6491 41.1162 25.3623 41.1162 22C41.1162 17.4913 39.3251 13.1673 36.137 9.97919C32.9489 6.79107 28.6249 5.00001 24.1162 5.00001Z" fill="#777575"/>
<path d="M15.7861 26.71C14.8961 26.71 14.0261 26.446 13.2861 25.9516C12.546 25.4571 11.9693 24.7543 11.6287 23.932C11.2881 23.1098 11.199 22.205 11.3726 21.3321C11.5462 20.4591 11.9748 19.6573 12.6042 19.028C13.2335 18.3986 14.0353 17.9701 14.9082 17.7964C15.7811 17.6228 16.6859 17.7119 17.5082 18.0525C18.3305 18.3931 19.0333 18.9699 19.5277 19.7099C20.0222 20.4499 20.2861 21.3199 20.2861 22.21C20.2835 23.4026 19.8085 24.5457 18.9652 25.389C18.1219 26.2324 16.9788 26.7073 15.7861 26.71ZM15.7861 19.71C15.2917 19.71 14.8083 19.8566 14.3972 20.1313C13.9861 20.406 13.6656 20.7964 13.4764 21.2533C13.2872 21.7101 13.2377 22.2127 13.3342 22.6977C13.4306 23.1826 13.6687 23.6281 14.0184 23.9777C14.368 24.3274 14.8135 24.5655 15.2984 24.6619C15.7834 24.7584 16.286 24.7089 16.7428 24.5197C17.1997 24.3304 17.5901 24.01 17.8648 23.5989C18.1395 23.1878 18.2861 22.7044 18.2861 22.21C18.2861 21.5469 18.0227 20.911 17.5539 20.4422C17.0851 19.9734 16.4492 19.71 15.7861 19.71Z" fill="#777575"/>
<path d="M12.4959 20.7497C6.9659 15.8697 -1.9341 7.18972 0.565897 3.92972C1.1059 3.22972 2.7459 1.07971 13.5659 7.18971L12.5659 8.93971C4.8059 4.56971 2.3359 4.83972 2.0959 5.14972C1.6259 5.74972 3.5359 10.2197 13.7559 19.2497L12.4959 20.7497Z" fill="#777575"/>
<path d="M45.3661 40.8902C43.5861 40.8902 40.9361 40.0002 37.3661 38.2202C31.3146 35.0152 25.5588 31.2806 20.1661 27.0602C19.5961 26.6202 19.0261 26.1902 18.4761 25.7502L19.7161 24.1802L21.3761 25.4702C26.6676 29.632 32.32 33.3133 38.2661 36.4702C43.9761 39.3502 45.8361 39.0502 46.0161 38.8102C46.1961 38.5702 45.9161 36.2702 40.3761 30.4502L41.8361 29.0002C49.6961 37.2402 48.1361 39.2802 47.6261 40.0002C47.3466 40.3167 46.996 40.5623 46.6031 40.717C46.2103 40.8718 45.7863 40.9311 45.3661 40.8902Z" fill="#777575"/>
<path d="M43.6162 8C42.8251 8 42.0517 7.76541 41.3939 7.32588C40.7361 6.88635 40.2235 6.26164 39.9207 5.53074C39.6179 4.79983 39.5387 3.99556 39.6931 3.21964C39.8474 2.44372 40.2284 1.73099 40.7878 1.17158C41.3472 0.612166 42.0599 0.231202 42.8358 0.0768607C43.6118 -0.0774802 44.416 0.00173312 45.1469 0.304484C45.8778 0.607234 46.5026 1.11992 46.9421 1.77772C47.3816 2.43552 47.6162 3.20888 47.6162 4C47.6162 5.06087 47.1948 6.07828 46.4446 6.82843C45.6945 7.57857 44.6771 8 43.6162 8ZM43.6162 2C43.2206 2 42.834 2.1173 42.5051 2.33706C42.1762 2.55682 41.9198 2.86918 41.7684 3.23464C41.6171 3.60009 41.5775 4.00222 41.6546 4.39018C41.7318 4.77815 41.9223 5.13451 42.202 5.41422C42.4817 5.69392 42.8381 5.8844 43.226 5.96157C43.614 6.03874 44.0161 5.99914 44.3816 5.84776C44.747 5.69639 45.0594 5.44004 45.2791 5.11114C45.4989 4.78225 45.6162 4.39557 45.6162 4C45.6162 3.46957 45.4055 2.96086 45.0304 2.58579C44.6554 2.21071 44.1466 2 43.6162 2Z" fill="#777575"/>
<path d="M6.61621 46C5.7262 46 4.85617 45.7361 4.11615 45.2416C3.37612 44.7472 2.79935 44.0443 2.45876 43.2221C2.11816 42.3998 2.02904 41.495 2.20268 40.6221C2.37631 39.7492 2.80489 38.9474 3.43423 38.318C4.06357 37.6887 4.86539 37.2601 5.73831 37.0865C6.61122 36.9128 7.51602 37.002 8.33829 37.3425C9.16056 37.6831 9.86336 38.2599 10.3578 38.9999C10.8523 39.74 11.1162 40.61 11.1162 41.5C11.1136 42.6927 10.6386 43.8357 9.79528 44.6791C8.95193 45.5224 7.80888 45.9974 6.61621 46ZM6.61621 39C6.12176 39 5.63841 39.1466 5.22729 39.4213C4.81617 39.696 4.49573 40.0865 4.30651 40.5433C4.1173 41.0001 4.06779 41.5028 4.16425 41.9877C4.26071 42.4727 4.49881 42.9181 4.84845 43.2678C5.19808 43.6174 5.64354 43.8555 6.12849 43.952C6.61344 44.0484 7.11611 43.9989 7.57293 43.8097C8.02974 43.6205 8.42019 43.3 8.69489 42.8889C8.96959 42.4778 9.11621 41.9945 9.11621 41.5C9.11621 40.837 8.85282 40.2011 8.38398 39.7322C7.91514 39.2634 7.27926 39 6.61621 39Z" fill="#777575"/>
</svg>
