<svg width="22" height="24" viewBox="0 0 22 24" fill="none" xmlns="http://www.w3.org/2000/svg">
<path fill-rule="evenodd" clip-rule="evenodd" d="M3.19021 8.37993C1.54606 8.98096 1.48692 11.4978 3.1007 12.1902L8.98178 14.7134C9.07785 14.7546 9.15387 14.8377 9.1916 14.9426L11.5012 21.3675C12.135 23.1306 14.4388 23.066 14.989 21.2698L19.741 5.75472C20.227 4.16813 18.8442 2.65752 17.3919 3.18841L3.19021 8.37993ZM3.64347 10.6803C3.32072 10.5418 3.33254 10.0385 3.66138 9.91825L16.7406 5.13706L9.40421 13.1519L3.64347 10.6803ZM10.5236 14.2231C10.5415 14.2645 10.5582 14.3067 10.5737 14.3497L12.8833 20.7746C13.0101 21.1272 13.4708 21.1143 13.5809 20.755L18.1251 5.91861L10.5236 14.2231Z" fill="#1E1E1E"/>
</svg>
