<svg width="46" height="46" viewBox="0 0 46 46" fill="none" xmlns="http://www.w3.org/2000/svg">
<path d="M22.9976 39.1803C20.5846 39.1689 18.2041 38.6227 16.0274 37.5811C13.8508 36.5394 11.9321 35.0282 10.4096 33.1561C8.88698 31.2841 7.79836 29.0978 7.22201 26.7546C6.64565 24.4114 6.59593 21.9695 7.0764 19.6048C7.55688 17.2401 8.55558 15.0113 10.0007 13.0788C11.4458 11.1463 13.3013 9.5582 15.4338 8.42879C17.5662 7.29938 19.9225 6.65674 22.333 6.54713C24.7436 6.43751 27.1485 6.86365 29.3746 7.79486C32.8496 9.26181 35.7099 11.8861 37.4699 15.2223C39.2299 18.5584 39.7812 22.4008 39.0301 26.0973C38.2791 29.7937 36.272 33.1163 33.3496 35.5011C30.4272 37.8858 26.7695 39.1858 22.9976 39.1803ZM22.9976 8.6345C21.1568 8.63988 19.3343 9.00077 17.6303 9.69733C14.3888 11.0318 11.7599 13.5248 10.2554 16.691C8.75085 19.8571 8.47834 23.4698 9.49087 26.8258C10.5034 30.1818 12.7285 33.041 15.7331 34.8467C18.7377 36.6524 22.3067 37.2754 25.7453 36.5945C29.184 35.9135 32.2462 33.9774 34.3359 31.1629C36.4256 28.3485 37.3932 24.8571 37.0504 21.3685C36.7075 17.8798 35.0788 14.6436 32.4812 12.2898C29.8836 9.93598 26.503 8.63299 22.9976 8.6345Z" fill="#777575"/>
<path d="M33.9874 35.1629L33.5835 33.0372L42.7345 31.2517L37.601 23.4611L39.3759 22.292L44.8495 30.5927C45.0009 30.8308 45.0934 31.1015 45.1193 31.3825C45.1452 31.6634 45.1037 31.9465 44.9983 32.2082C44.8936 32.4754 44.7243 32.7123 44.5054 32.8979C44.2865 33.0834 44.0249 33.2116 43.7442 33.271L33.9874 35.1629Z" fill="#777575"/>
<path d="M6.5342 23.6101L1.03935 15.3094C0.883901 15.0773 0.787652 14.8106 0.759014 14.5327C0.730375 14.2548 0.770225 13.9741 0.875066 13.7151C0.979908 13.4562 1.14655 13.2268 1.36046 13.0471C1.57436 12.8674 1.82902 12.7428 2.10218 12.6842L11.8484 10.7817L12.2629 12.9074L3.16501 14.6504L8.29848 22.441L6.5342 23.6101Z" fill="#777575"/>
<path d="M39.4073 23.78L37.643 22.5896L42.8509 14.8628L33.7212 12.9816L34.1463 10.856L43.8819 12.8647C44.1618 12.923 44.4225 13.051 44.6398 13.2368C44.8572 13.4226 45.0242 13.6601 45.1254 13.9275C45.2303 14.1886 45.2697 14.4714 45.24 14.7511C45.2104 15.0309 45.1126 15.2992 44.9553 15.5324L39.4073 23.78Z" fill="#777575"/>
<path d="M11.7952 35.0457L2.10218 33.0369C1.82902 32.9783 1.57436 32.8537 1.36046 32.674C1.14655 32.4943 0.979908 32.265 0.875066 32.006C0.770225 31.747 0.730375 31.4664 0.759014 31.1885C0.787652 30.9106 0.883901 30.6439 1.03935 30.4118L6.59797 22.1748L8.35164 23.3652L3.14375 31.092L12.2735 32.9732L11.7952 35.0457Z" fill="#777575"/>
<path d="M33.073 12.3438L31.2981 3.19284L23.5075 8.31569L22.2959 6.53013L30.5966 1.06718C30.8287 0.91173 31.0954 0.815485 31.3733 0.786847C31.6512 0.758208 31.9319 0.79805 32.1909 0.902891C32.4498 1.00773 32.6792 1.17438 32.8589 1.38829C33.0386 1.6022 33.1632 1.85685 33.2218 2.13001L35.1243 11.8868L33.073 12.3438Z" fill="#777575"/>
<path d="M14.3669 45.1638C14.1371 45.16 13.9099 45.1132 13.6973 45.0257C13.4286 44.9235 13.1902 44.7549 13.0043 44.5355C12.8184 44.3162 12.6912 44.0534 12.6345 43.7715L10.7427 34.0147L12.8683 33.6108L14.6433 42.7618L22.4338 37.639L23.6029 39.4139L15.3128 44.8769C15.0329 45.0641 14.7037 45.1639 14.3669 45.1638Z" fill="#777575"/>
<path d="M12.9855 12.2269L10.8599 11.8018L12.858 2.06622C12.9175 1.79115 13.0435 1.53486 13.2251 1.31979C13.4066 1.10472 13.638 0.937415 13.8992 0.832533C14.1603 0.72765 14.4432 0.688381 14.7231 0.718167C15.0029 0.747952 15.2712 0.845886 15.5044 1.00339L23.7414 6.562L22.551 8.3263L14.8561 3.08654L12.9855 12.2269Z" fill="#777575"/>
<path d="M31.3618 45.2915C31.0185 45.2914 30.6825 45.1918 30.3947 45.0046L22.1577 39.4459L23.3587 37.6391L31.0961 42.8576L32.9773 33.7173L35.103 34.1424L33.0943 43.878C33.0359 44.1579 32.908 44.4186 32.7222 44.6359C32.5364 44.8533 32.2988 45.0203 32.0314 45.1215C31.8216 45.2217 31.5941 45.2795 31.3618 45.2915Z" fill="#777575"/>
<path d="M27.0787 22.9717C26.1327 22.9717 25.208 22.6912 24.4215 22.1657C23.635 21.6402 23.022 20.8932 22.66 20.0193C22.298 19.1453 22.2033 18.1837 22.3878 17.2559C22.5723 16.3282 23.0279 15.476 23.6967 14.8071C24.3656 14.1382 25.2178 13.6827 26.1456 13.4982C27.0734 13.3136 28.035 13.4083 28.9089 13.7703C29.7829 14.1323 30.5298 14.7453 31.0554 15.5318C31.5809 16.3184 31.8614 17.2431 31.8614 18.189C31.8586 19.4566 31.3538 20.6715 30.4575 21.5678C29.5612 22.4641 28.3463 22.9689 27.0787 22.9717ZM27.0787 15.5319C26.5531 15.5319 26.0394 15.6877 25.6025 15.9797C25.1655 16.2717 24.8249 16.6867 24.6238 17.1722C24.4227 17.6577 24.3701 18.1919 24.4726 18.7074C24.5752 19.2228 24.8282 19.6962 25.1998 20.0678C25.5714 20.4394 26.0449 20.6925 26.5603 20.795C27.0757 20.8975 27.6099 20.8449 28.0955 20.6438C28.581 20.4427 28.996 20.1021 29.2879 19.6652C29.5799 19.2282 29.7357 18.7145 29.7357 18.189C29.7357 17.4843 29.4558 16.8085 28.9575 16.3102C28.4592 15.8119 27.7834 15.5319 27.0787 15.5319Z" fill="#777575"/>
</svg>
