<svg width="34" height="36" viewBox="0 0 34 36" fill="none" xmlns="http://www.w3.org/2000/svg">
<path fill-rule="evenodd" clip-rule="evenodd" d="M16.4096 8.10669C14.6434 8.10669 13.2116 9.54172 13.2116 11.3119C13.2116 13.0821 14.6434 14.5171 16.4096 14.5171C18.1758 14.5171 19.6076 13.0821 19.6076 11.3119C19.6076 9.54172 18.1758 8.10669 16.4096 8.10669ZM12.2979 11.3119C12.2979 9.03621 14.139 7.19092 16.4096 7.19092C18.6802 7.19092 20.5213 9.03621 20.5213 11.3119C20.5213 13.5876 18.6802 15.4329 16.4096 15.4329C14.139 15.4329 12.2979 13.5876 12.2979 11.3119Z" fill="#FFC700"/>
<path fill-rule="evenodd" clip-rule="evenodd" d="M9.55615 20.9278C9.55615 18.9048 11.1926 17.2646 13.211 17.2646H19.6071C21.6255 17.2646 23.262 18.9048 23.262 20.9278V24.133C23.262 24.3857 23.0573 24.5909 22.8051 24.5909H10.013C9.76083 24.5909 9.55615 24.3857 9.55615 24.133V20.9278ZM13.211 18.1804C11.697 18.1804 10.4699 19.4103 10.4699 20.9278V23.6751H22.3482V20.9278C22.3482 19.4103 21.1211 18.1804 19.6071 18.1804H13.211Z" fill="#FFC700"/>
<path fill-rule="evenodd" clip-rule="evenodd" d="M25.0903 17.2642V11.7695H26.0041V17.2642H25.0903Z" fill="#FFC700"/>
<path fill-rule="evenodd" clip-rule="evenodd" d="M28.2885 14.977H22.8062V14.0605H28.2885V14.977Z" fill="#FFC700"/>
<path d="M7.74006 8.83234C7.66696 8.83225 7.59444 8.81927 7.52584 8.79399L5.80509 8.15704L4.08474 8.79399C3.98935 8.82928 3.88674 8.84048 3.78599 8.82657C3.68524 8.81266 3.58949 8.77408 3.50721 8.71425C3.42494 8.65443 3.35869 8.5752 3.31434 8.48361C3.27 8.39202 3.24892 8.29089 3.253 8.1892L3.32674 6.35462L2.18973 4.91417C2.12666 4.83429 2.08428 4.74007 2.06633 4.63986C2.04839 4.53966 2.05544 4.43657 2.08686 4.33975C2.11828 4.24293 2.1731 4.15538 2.24645 4.08485C2.31981 4.01432 2.40943 3.963 2.50736 3.93545L4.27342 3.43867L5.29096 1.91329C5.34733 1.82825 5.42386 1.75849 5.51371 1.71023C5.60356 1.66197 5.70394 1.63672 5.80591 1.63672C5.90788 1.63672 6.00827 1.66197 6.09812 1.71023C6.18797 1.75849 6.26449 1.82825 6.32086 1.91329L7.33881 3.43867L9.10488 3.93545C9.20281 3.963 9.29244 4.01432 9.36579 4.08485C9.43914 4.15538 9.49396 4.24293 9.52538 4.33975C9.5568 4.43657 9.56386 4.53966 9.54591 4.63986C9.52796 4.74007 9.48557 4.83429 9.4225 4.91417L8.2855 6.35462L8.35923 8.1892C8.36256 8.27247 8.34905 8.35554 8.31949 8.43345C8.28993 8.51135 8.24495 8.58248 8.18723 8.64255C8.12951 8.70262 8.06025 8.75039 7.98362 8.78301C7.90699 8.81562 7.82457 8.8324 7.74129 8.83234H7.74006ZM5.80385 6.87902C5.87714 6.87893 5.94985 6.89206 6.01849 6.91777L7.08422 7.31231L7.0385 6.17569C7.03261 6.02816 7.07966 5.88339 7.17115 5.76755L7.87559 4.87541L6.78144 4.56745C6.63943 4.52747 6.51638 4.43798 6.43456 4.31514L5.80385 3.36693L5.17356 4.31514C5.09174 4.43798 4.96869 4.52747 4.82668 4.56745L3.73253 4.87541L4.43697 5.76755C4.52831 5.88345 4.57521 6.02821 4.56921 6.17569L4.5239 7.31231L5.58963 6.91777C5.65853 6.89195 5.73152 6.87882 5.80509 6.87902H5.80385Z" fill="#FFC700"/>
<path d="M5.42808 27.1376C5.38472 27.1376 5.3417 27.1299 5.30101 27.1149L4.28024 26.737L3.25972 27.1149C3.20314 27.1358 3.14227 27.1425 3.0825 27.1342C3.02274 27.126 2.96594 27.1031 2.91713 27.0676C2.86832 27.0321 2.82902 26.9851 2.80272 26.9308C2.77641 26.8764 2.76391 26.8164 2.76633 26.7561L2.81007 25.6678L2.13559 24.8133C2.09818 24.766 2.07304 24.7101 2.06239 24.6506C2.05174 24.5912 2.05593 24.53 2.07457 24.4726C2.09321 24.4152 2.12573 24.3632 2.16924 24.3214C2.21275 24.2795 2.26592 24.2491 2.32401 24.2328L3.37165 23.9381L3.97526 23.0332C4.0087 22.9828 4.05409 22.9414 4.10739 22.9127C4.16069 22.8841 4.22024 22.8691 4.28073 22.8691C4.34122 22.8691 4.40077 22.8841 4.45407 22.9127C4.50737 22.9414 4.55277 22.9828 4.5862 23.0332L5.19006 23.9381L6.2377 24.2328C6.2958 24.2491 6.34896 24.2795 6.39247 24.3214C6.43599 24.3632 6.46851 24.4152 6.48715 24.4726C6.50579 24.53 6.50997 24.5912 6.49932 24.6506C6.48868 24.7101 6.46353 24.766 6.42612 24.8133L5.75164 25.6678L5.79538 26.7561C5.79736 26.8055 5.78934 26.8548 5.7718 26.901C5.75427 26.9472 5.72758 26.9894 5.69334 27.025C5.65911 27.0607 5.61802 27.089 5.57256 27.1084C5.52711 27.1277 5.47821 27.1377 5.42881 27.1376H5.42808ZM4.27951 25.9789C4.32298 25.9789 4.36612 25.9866 4.40683 26.0019L5.03903 26.2359L5.01191 25.5617C5.00842 25.4742 5.03633 25.3883 5.0906 25.3196L5.50848 24.7904L4.85942 24.6077C4.77518 24.584 4.70219 24.5309 4.65365 24.458L4.27951 23.8955L3.90562 24.458C3.85708 24.5309 3.78409 24.584 3.69985 24.6077L3.05079 24.7904L3.46867 25.3196C3.52285 25.3883 3.55067 25.4742 3.54711 25.5617L3.52023 26.2359L4.15243 26.0019C4.1933 25.9866 4.2366 25.9788 4.28024 25.9789H4.27951Z" fill="#FFC700"/>
<path d="M26.9553 35.444C26.7914 35.444 26.6342 35.3789 26.5183 35.2629C26.4024 35.1469 26.3373 34.9896 26.3373 34.8256C26.3364 34.0524 26.0291 33.3111 25.4828 32.7644C24.9365 32.2177 24.1957 31.9101 23.4231 31.9093C23.2592 31.9093 23.1021 31.8441 22.9862 31.7281C22.8703 31.6122 22.8052 31.4549 22.8052 31.2909C22.8052 31.1268 22.8703 30.9695 22.9862 30.8536C23.1021 30.7376 23.2592 30.6725 23.4231 30.6725C24.1957 30.6715 24.9364 30.3639 25.4827 29.8172C26.029 29.2705 26.3363 28.5293 26.3373 27.7561C26.3373 27.5921 26.4024 27.4348 26.5183 27.3188C26.6342 27.2028 26.7914 27.1377 26.9553 27.1377C27.1191 27.1377 27.2763 27.2028 27.3922 27.3188C27.5081 27.4348 27.5732 27.5921 27.5732 27.7561C27.5741 28.5293 27.8814 29.2706 28.4277 29.8173C28.974 30.364 29.7148 30.6716 30.4874 30.6725C30.6513 30.6725 30.8085 30.7376 30.9243 30.8536C31.0402 30.9695 31.1053 31.1268 31.1053 31.2909C31.1053 31.4549 31.0402 31.6122 30.9243 31.7281C30.8085 31.8441 30.6513 31.9093 30.4874 31.9093C29.7148 31.9101 28.974 32.2177 28.4277 32.7644C27.8814 33.3111 27.5741 34.0524 27.5732 34.8256C27.5732 34.9896 27.5081 35.1469 27.3922 35.2629C27.2763 35.3789 27.1191 35.444 26.9553 35.444ZM25.5999 31.2909C26.1505 31.6318 26.6145 32.0962 26.9553 32.6472C27.2959 32.0961 27.7599 31.6317 28.3106 31.2909C27.76 30.9499 27.296 30.4855 26.9553 29.9345C26.6143 30.4853 26.1504 30.9499 25.5999 31.2909Z" fill="#FFC700"/>
</svg>
