<svg width="33" height="36" viewBox="0 0 33 36" fill="none" xmlns="http://www.w3.org/2000/svg">
<path fill-rule="evenodd" clip-rule="evenodd" d="M15.7211 7.77894C13.9549 7.77894 12.5231 9.21396 12.5231 10.9842C12.5231 12.7543 13.9549 14.1894 15.7211 14.1894C17.4873 14.1894 18.9191 12.7543 18.9191 10.9842C18.9191 9.21396 17.4873 7.77894 15.7211 7.77894ZM11.6094 10.9842C11.6094 8.70845 13.4505 6.86316 15.7211 6.86316C17.9917 6.86316 19.8329 8.70845 19.8329 10.9842C19.8329 13.2599 17.9917 15.1051 15.7211 15.1051C13.4505 15.1051 11.6094 13.2599 11.6094 10.9842Z" fill="#FFC700"/>
<path fill-rule="evenodd" clip-rule="evenodd" d="M8.86768 20.6001C8.86768 18.5772 10.5042 16.937 12.5226 16.937H18.9186C20.937 16.937 22.5735 18.5772 22.5735 20.6001V23.8053C22.5735 24.0581 22.3688 24.2632 22.1166 24.2632H9.32454C9.07235 24.2632 8.86768 24.0581 8.86768 23.8053V20.6001ZM12.5226 17.8528C11.0085 17.8528 9.7814 19.0827 9.7814 20.6001V23.3474H21.6598V20.6001C21.6598 19.0827 20.4326 17.8528 18.9186 17.8528H12.5226Z" fill="#FFC700"/>
<path fill-rule="evenodd" clip-rule="evenodd" d="M24.4019 16.9364V11.4418H25.3156V16.9364H24.4019Z" fill="#FFC700"/>
<path fill-rule="evenodd" clip-rule="evenodd" d="M27.6 14.649H22.1177V13.7326H27.6V14.649Z" fill="#FFC700"/>
<path d="M7.05158 8.50446C6.97848 8.50437 6.90596 8.49138 6.83736 8.46611L5.11661 7.82916L3.39627 8.46611C3.30088 8.5014 3.19826 8.5126 3.09751 8.49869C2.99677 8.48478 2.90101 8.4462 2.81874 8.38637C2.73646 8.32655 2.67021 8.24732 2.62586 8.15573C2.58152 8.06414 2.56045 7.96301 2.56452 7.86132L2.63826 6.02674L1.50125 4.58629C1.43819 4.50641 1.3958 4.41219 1.37786 4.31198C1.35991 4.21178 1.36696 4.10869 1.39838 4.01187C1.4298 3.91505 1.48462 3.82749 1.55798 3.75696C1.63133 3.68643 1.72095 3.63512 1.81888 3.60757L3.58495 3.11079L4.60248 1.58541C4.65885 1.50037 4.73538 1.4306 4.82523 1.38235C4.91508 1.33409 5.01546 1.30884 5.11743 1.30884C5.21941 1.30884 5.3198 1.33409 5.40965 1.38235C5.4995 1.4306 5.57602 1.50037 5.63238 1.58541L6.65033 3.11079L8.41641 3.60757C8.51434 3.63512 8.60396 3.68643 8.67731 3.75696C8.75067 3.82749 8.80549 3.91505 8.83691 4.01187C8.86833 4.10869 8.87538 4.21178 8.85743 4.31198C8.83949 4.41219 8.79709 4.50641 8.73403 4.58629L7.59703 6.02674L7.67076 7.86132C7.67409 7.94458 7.66057 8.02766 7.63101 8.10557C7.60145 8.18347 7.55647 8.2546 7.49875 8.31467C7.44104 8.37474 7.37178 8.42251 7.29515 8.45513C7.21852 8.48774 7.13609 8.50452 7.05282 8.50446H7.05158ZM5.11537 6.55114C5.18866 6.55105 5.26137 6.56417 5.33001 6.58989L6.39575 6.98443L6.35002 5.84781C6.34413 5.70028 6.39119 5.55551 6.48267 5.43967L7.18712 4.54753L6.09296 4.23956C5.95095 4.19959 5.82791 4.1101 5.74608 3.98726L5.11537 3.03905L4.48508 3.98726C4.40326 4.1101 4.28022 4.19959 4.13821 4.23956L3.04405 4.54753L3.74849 5.43967C3.83983 5.55557 3.88674 5.70033 3.88073 5.84781L3.83542 6.98443L4.90115 6.58989C4.97005 6.56407 5.04304 6.55094 5.11661 6.55114H5.11537Z" fill="#FFC700"/>
<path d="M4.7396 26.8099C4.69624 26.8098 4.65322 26.8021 4.61253 26.7871L3.59177 26.4093L2.57125 26.7871C2.51466 26.8081 2.45379 26.8147 2.39403 26.8064C2.33426 26.7982 2.27746 26.7753 2.22865 26.7398C2.17985 26.7043 2.14055 26.6573 2.11424 26.603C2.08793 26.5487 2.07543 26.4887 2.07785 26.4284L2.1216 25.3401L1.44711 24.4856C1.4097 24.4382 1.38456 24.3823 1.37391 24.3229C1.36327 24.2634 1.36745 24.2023 1.38609 24.1448C1.40473 24.0874 1.43725 24.0355 1.48076 23.9936C1.52428 23.9518 1.57744 23.9213 1.63553 23.905L2.68317 23.6103L3.28678 22.7054C3.32022 22.655 3.36562 22.6136 3.41892 22.585C3.47222 22.5564 3.53176 22.5414 3.59225 22.5414C3.65275 22.5414 3.7123 22.5564 3.7656 22.585C3.8189 22.6136 3.86429 22.655 3.89773 22.7054L4.50158 23.6103L5.54923 23.905C5.60732 23.9213 5.66048 23.9518 5.704 23.9936C5.74751 24.0355 5.78003 24.0874 5.79867 24.1448C5.81731 24.2023 5.82149 24.2634 5.81085 24.3229C5.8002 24.3823 5.77505 24.4382 5.73764 24.4856L5.06316 25.3401L5.1069 26.4284C5.10888 26.4777 5.10086 26.527 5.08332 26.5732C5.06579 26.6195 5.03911 26.6617 5.00487 26.6973C4.97063 26.7329 4.92955 26.7613 4.88409 26.7806C4.83863 26.8 4.78973 26.8099 4.74034 26.8099H4.7396ZM3.59103 25.6511C3.63451 25.6511 3.67764 25.6589 3.71836 25.6741L4.35056 25.9082L4.32343 25.2339C4.31994 25.1464 4.34785 25.0605 4.40212 24.9918L4.82 24.4626L4.17094 24.2799C4.0867 24.2562 4.01371 24.2031 3.96517 24.1302L3.59103 23.5678L3.21714 24.1302C3.1686 24.2031 3.09561 24.2562 3.01137 24.2799L2.36231 24.4626L2.78019 24.9918C2.83437 25.0606 2.8622 25.1464 2.85863 25.2339L2.83176 25.9082L3.46396 25.6741C3.50483 25.6588 3.54813 25.651 3.59177 25.6511H3.59103Z" fill="#FFC700"/>
<path d="M26.2668 35.1162C26.1029 35.1162 25.9457 35.051 25.8298 34.9351C25.7139 34.8191 25.6488 34.6618 25.6488 34.4978C25.648 33.7246 25.3407 32.9833 24.7943 32.4366C24.248 31.8898 23.5073 31.5823 22.7346 31.5814C22.5708 31.5814 22.4136 31.5163 22.2977 31.4003C22.1818 31.2843 22.1167 31.127 22.1167 30.963C22.1167 30.799 22.1818 30.6417 22.2977 30.5258C22.4136 30.4098 22.5708 30.3446 22.7346 30.3446C23.5072 30.3437 24.2479 30.0361 24.7942 29.4894C25.3405 28.9427 25.6479 28.2014 25.6488 27.4283C25.6488 27.2643 25.7139 27.107 25.8298 26.991C25.9457 26.875 26.1029 26.8099 26.2668 26.8099C26.4307 26.8099 26.5878 26.875 26.7037 26.991C26.8196 27.107 26.8847 27.2643 26.8847 27.4283C26.8856 28.2015 27.1929 28.9428 27.7392 29.4895C28.2856 30.0362 29.0263 30.3438 29.7989 30.3446C29.9628 30.3446 30.12 30.4098 30.2359 30.5258C30.3518 30.6417 30.4169 30.799 30.4169 30.963C30.4169 31.127 30.3518 31.2843 30.2359 31.4003C30.12 31.5163 29.9628 31.5814 29.7989 31.5814C29.0263 31.5823 28.2856 31.8898 27.7392 32.4366C27.1929 32.9833 26.8856 33.7246 26.8847 34.4978C26.8847 34.6618 26.8196 34.8191 26.7037 34.9351C26.5878 35.051 26.4307 35.1162 26.2668 35.1162ZM24.9114 30.963C25.4621 31.304 25.926 31.7683 26.2668 32.3194C26.6074 31.7682 27.0714 31.3039 27.6221 30.963C27.0715 30.622 26.6075 30.1577 26.2668 29.6067C25.9259 30.1575 25.4619 30.622 24.9114 30.963Z" fill="#FFC700"/>
</svg>
